%TF.GenerationSoftware,KiCad,Pcbnew,10.0.3*%
%TF.CreationDate,2026-09-12T20:49:33+03:00*%
%TF.ProjectId,dronemagnav,64726f6e-656d-4616-976e-61762e6b6963,rev?*%
%TF.SameCoordinates,Original*%
%TF.FileFunction,Legend,Top*%
%TF.FilePolarity,Positive*%
%FSLAX46Y46*%
G04 Gerber Fmt 4.6, Leading zero omitted, Abs format (unit mm)*
G04 Created by KiCad (PCBNEW 10.0.3) date 2026-09-12 20:49:33*
%MOMM*%
%LPD*%
G01*
G04 APERTURE LIST*
G04 Aperture macros list*
%AMRoundRect*
0 Rectangle with rounded corners*
0 $1 Rounding radius*
0 $2 $3 $4 $5 $6 $7 $8 $9 X,Y pos of 4 corners*
0 Add a 4 corners polygon primitive as box body*
4,1,4,$2,$3,$4,$5,$6,$7,$8,$9,$2,$3,0*
0 Add four circle primitives for the rounded corners*
1,1,$1+$1,$2,$3*
1,1,$1+$1,$4,$5*
1,1,$1+$1,$6,$7*
1,1,$1+$1,$8,$9*
0 Add four rect primitives between the rounded corners*
20,1,$1+$1,$2,$3,$4,$5,0*
20,1,$1+$1,$4,$5,$6,$7,0*
20,1,$1+$1,$6,$7,$8,$9,0*
20,1,$1+$1,$8,$9,$2,$3,0*%
G04 Aperture macros list end*
%ADD10C,0.130000*%
%ADD11C,0.120000*%
%ADD12C,0.100000*%
%ADD13RoundRect,0.218750X-0.218750X-0.256250X0.218750X-0.256250X0.218750X0.256250X-0.218750X0.256250X0*%
%ADD14RoundRect,0.200000X0.275000X-0.200000X0.275000X0.200000X-0.275000X0.200000X-0.275000X-0.200000X0*%
%ADD15RoundRect,0.250000X0.400000X-0.525000X0.400000X0.525000X-0.400000X0.525000X-0.400000X-0.525000X0*%
%ADD16C,0.650000*%
%ADD17RoundRect,0.150000X-0.575000X0.150000X-0.575000X-0.150000X0.575000X-0.150000X0.575000X0.150000X0*%
%ADD18RoundRect,0.075000X-0.650000X0.075000X-0.650000X-0.075000X0.650000X-0.075000X0.650000X0.075000X0*%
%ADD19O,2.100000X1.000000*%
%ADD20O,1.600000X1.000000*%
%ADD21RoundRect,0.150000X-0.512500X-0.150000X0.512500X-0.150000X0.512500X0.150000X-0.512500X0.150000X0*%
%ADD22RoundRect,0.225000X0.250000X-0.225000X0.250000X0.225000X-0.250000X0.225000X-0.250000X-0.225000X0*%
%ADD23C,3.200000*%
%ADD24RoundRect,0.250000X-0.275000X-0.250000X0.275000X-0.250000X0.275000X0.250000X-0.275000X0.250000X0*%
%ADD25RoundRect,0.250000X-0.850000X-0.275000X0.850000X-0.275000X0.850000X0.275000X-0.850000X0.275000X0*%
%ADD26RoundRect,0.250000X0.650000X-1.000000X0.650000X1.000000X-0.650000X1.000000X-0.650000X-1.000000X0*%
%ADD27RoundRect,0.175000X-0.725000X-0.175000X0.725000X-0.175000X0.725000X0.175000X-0.725000X0.175000X0*%
%ADD28RoundRect,0.200000X-0.700000X-0.200000X0.700000X-0.200000X0.700000X0.200000X-0.700000X0.200000X0*%
%ADD29RoundRect,0.200000X-0.200000X-0.275000X0.200000X-0.275000X0.200000X0.275000X-0.200000X0.275000X0*%
%ADD30R,0.375000X0.350000*%
%ADD31R,0.350000X0.375000*%
%ADD32R,1.200000X0.700000*%
%ADD33R,0.800000X1.000000*%
%ADD34R,1.200000X1.000000*%
%ADD35R,2.800000X1.000000*%
%ADD36R,1.900000X1.300000*%
%ADD37R,1.500000X0.900000*%
%ADD38R,0.900000X1.500000*%
%ADD39C,0.600000*%
%ADD40R,3.900000X3.900000*%
%ADD41RoundRect,0.150000X0.700000X-0.150000X0.700000X0.150000X-0.700000X0.150000X-0.700000X-0.150000X0*%
%ADD42RoundRect,0.250000X1.100000X-0.250000X1.100000X0.250000X-1.100000X0.250000X-1.100000X-0.250000X0*%
%ADD43RoundRect,0.250000X0.475000X-0.250000X0.475000X0.250000X-0.475000X0.250000X-0.475000X-0.250000X0*%
%ADD44RoundRect,0.375000X-0.625000X-0.375000X0.625000X-0.375000X0.625000X0.375000X-0.625000X0.375000X0*%
%ADD45RoundRect,0.500000X-0.500000X-1.400000X0.500000X-1.400000X0.500000X1.400000X-0.500000X1.400000X0*%
%ADD46R,0.350000X0.500000*%
%ADD47RoundRect,0.062500X-0.062500X-0.275000X0.062500X-0.275000X0.062500X0.275000X-0.062500X0.275000X0*%
%ADD48RoundRect,0.062500X-0.275000X-0.062500X0.275000X-0.062500X0.275000X0.062500X-0.275000X0.062500X0*%
%ADD49RoundRect,0.150000X-0.150000X-0.700000X0.150000X-0.700000X0.150000X0.700000X-0.150000X0.700000X0*%
%ADD50RoundRect,0.250000X-0.250000X-1.100000X0.250000X-1.100000X0.250000X1.100000X-0.250000X1.100000X0*%
G04 APERTURE END LIST*
D10*
X130389524Y-130768335D02*
X130389524Y-129968335D01*
X130389524Y-129968335D02*
X130580000Y-129968335D01*
X130580000Y-129968335D02*
X130694286Y-130006430D01*
X130694286Y-130006430D02*
X130770476Y-130082620D01*
X130770476Y-130082620D02*
X130808571Y-130158811D01*
X130808571Y-130158811D02*
X130846667Y-130311192D01*
X130846667Y-130311192D02*
X130846667Y-130425478D01*
X130846667Y-130425478D02*
X130808571Y-130577859D01*
X130808571Y-130577859D02*
X130770476Y-130654049D01*
X130770476Y-130654049D02*
X130694286Y-130730240D01*
X130694286Y-130730240D02*
X130580000Y-130768335D01*
X130580000Y-130768335D02*
X130389524Y-130768335D01*
X131570476Y-129968335D02*
X131189524Y-129968335D01*
X131189524Y-129968335D02*
X131151428Y-130349287D01*
X131151428Y-130349287D02*
X131189524Y-130311192D01*
X131189524Y-130311192D02*
X131265714Y-130273097D01*
X131265714Y-130273097D02*
X131456190Y-130273097D01*
X131456190Y-130273097D02*
X131532381Y-130311192D01*
X131532381Y-130311192D02*
X131570476Y-130349287D01*
X131570476Y-130349287D02*
X131608571Y-130425478D01*
X131608571Y-130425478D02*
X131608571Y-130615954D01*
X131608571Y-130615954D02*
X131570476Y-130692144D01*
X131570476Y-130692144D02*
X131532381Y-130730240D01*
X131532381Y-130730240D02*
X131456190Y-130768335D01*
X131456190Y-130768335D02*
X131265714Y-130768335D01*
X131265714Y-130768335D02*
X131189524Y-130730240D01*
X131189524Y-130730240D02*
X131151428Y-130692144D01*
X151985714Y-144558335D02*
X151719047Y-144177382D01*
X151528571Y-144558335D02*
X151528571Y-143758335D01*
X151528571Y-143758335D02*
X151833333Y-143758335D01*
X151833333Y-143758335D02*
X151909523Y-143796430D01*
X151909523Y-143796430D02*
X151947618Y-143834525D01*
X151947618Y-143834525D02*
X151985714Y-143910716D01*
X151985714Y-143910716D02*
X151985714Y-144025001D01*
X151985714Y-144025001D02*
X151947618Y-144101192D01*
X151947618Y-144101192D02*
X151909523Y-144139287D01*
X151909523Y-144139287D02*
X151833333Y-144177382D01*
X151833333Y-144177382D02*
X151528571Y-144177382D01*
X152747618Y-144558335D02*
X152290475Y-144558335D01*
X152519047Y-144558335D02*
X152519047Y-143758335D01*
X152519047Y-143758335D02*
X152442856Y-143872620D01*
X152442856Y-143872620D02*
X152366666Y-143948811D01*
X152366666Y-143948811D02*
X152290475Y-143986906D01*
X153433333Y-144025001D02*
X153433333Y-144558335D01*
X153242857Y-143720240D02*
X153052380Y-144291668D01*
X153052380Y-144291668D02*
X153547619Y-144291668D01*
X101133332Y-111950240D02*
X101247618Y-111988335D01*
X101247618Y-111988335D02*
X101438094Y-111988335D01*
X101438094Y-111988335D02*
X101514285Y-111950240D01*
X101514285Y-111950240D02*
X101552380Y-111912144D01*
X101552380Y-111912144D02*
X101590475Y-111835954D01*
X101590475Y-111835954D02*
X101590475Y-111759763D01*
X101590475Y-111759763D02*
X101552380Y-111683573D01*
X101552380Y-111683573D02*
X101514285Y-111645478D01*
X101514285Y-111645478D02*
X101438094Y-111607382D01*
X101438094Y-111607382D02*
X101285713Y-111569287D01*
X101285713Y-111569287D02*
X101209523Y-111531192D01*
X101209523Y-111531192D02*
X101171428Y-111493097D01*
X101171428Y-111493097D02*
X101133332Y-111416906D01*
X101133332Y-111416906D02*
X101133332Y-111340716D01*
X101133332Y-111340716D02*
X101171428Y-111264525D01*
X101171428Y-111264525D02*
X101209523Y-111226430D01*
X101209523Y-111226430D02*
X101285713Y-111188335D01*
X101285713Y-111188335D02*
X101476190Y-111188335D01*
X101476190Y-111188335D02*
X101590475Y-111226430D01*
X101857142Y-111188335D02*
X102047618Y-111988335D01*
X102047618Y-111988335D02*
X102199999Y-111416906D01*
X102199999Y-111416906D02*
X102352380Y-111988335D01*
X102352380Y-111988335D02*
X102542857Y-111188335D01*
X102809523Y-111264525D02*
X102847619Y-111226430D01*
X102847619Y-111226430D02*
X102923809Y-111188335D01*
X102923809Y-111188335D02*
X103114285Y-111188335D01*
X103114285Y-111188335D02*
X103190476Y-111226430D01*
X103190476Y-111226430D02*
X103228571Y-111264525D01*
X103228571Y-111264525D02*
X103266666Y-111340716D01*
X103266666Y-111340716D02*
X103266666Y-111416906D01*
X103266666Y-111416906D02*
X103228571Y-111531192D01*
X103228571Y-111531192D02*
X102771428Y-111988335D01*
X102771428Y-111988335D02*
X103266666Y-111988335D01*
X102893333Y-123418335D02*
X102893333Y-123989763D01*
X102893333Y-123989763D02*
X102855238Y-124104049D01*
X102855238Y-124104049D02*
X102779047Y-124180240D01*
X102779047Y-124180240D02*
X102664762Y-124218335D01*
X102664762Y-124218335D02*
X102588571Y-124218335D01*
X103693333Y-124218335D02*
X103236190Y-124218335D01*
X103464762Y-124218335D02*
X103464762Y-123418335D01*
X103464762Y-123418335D02*
X103388571Y-123532620D01*
X103388571Y-123532620D02*
X103312381Y-123608811D01*
X103312381Y-123608811D02*
X103236190Y-123646906D01*
X134389524Y-130768335D02*
X134389524Y-129968335D01*
X134389524Y-129968335D02*
X134580000Y-129968335D01*
X134580000Y-129968335D02*
X134694286Y-130006430D01*
X134694286Y-130006430D02*
X134770476Y-130082620D01*
X134770476Y-130082620D02*
X134808571Y-130158811D01*
X134808571Y-130158811D02*
X134846667Y-130311192D01*
X134846667Y-130311192D02*
X134846667Y-130425478D01*
X134846667Y-130425478D02*
X134808571Y-130577859D01*
X134808571Y-130577859D02*
X134770476Y-130654049D01*
X134770476Y-130654049D02*
X134694286Y-130730240D01*
X134694286Y-130730240D02*
X134580000Y-130768335D01*
X134580000Y-130768335D02*
X134389524Y-130768335D01*
X135532381Y-129968335D02*
X135380000Y-129968335D01*
X135380000Y-129968335D02*
X135303809Y-130006430D01*
X135303809Y-130006430D02*
X135265714Y-130044525D01*
X135265714Y-130044525D02*
X135189524Y-130158811D01*
X135189524Y-130158811D02*
X135151428Y-130311192D01*
X135151428Y-130311192D02*
X135151428Y-130615954D01*
X135151428Y-130615954D02*
X135189524Y-130692144D01*
X135189524Y-130692144D02*
X135227619Y-130730240D01*
X135227619Y-130730240D02*
X135303809Y-130768335D01*
X135303809Y-130768335D02*
X135456190Y-130768335D01*
X135456190Y-130768335D02*
X135532381Y-130730240D01*
X135532381Y-130730240D02*
X135570476Y-130692144D01*
X135570476Y-130692144D02*
X135608571Y-130615954D01*
X135608571Y-130615954D02*
X135608571Y-130425478D01*
X135608571Y-130425478D02*
X135570476Y-130349287D01*
X135570476Y-130349287D02*
X135532381Y-130311192D01*
X135532381Y-130311192D02*
X135456190Y-130273097D01*
X135456190Y-130273097D02*
X135303809Y-130273097D01*
X135303809Y-130273097D02*
X135227619Y-130311192D01*
X135227619Y-130311192D02*
X135189524Y-130349287D01*
X135189524Y-130349287D02*
X135151428Y-130425478D01*
X138389524Y-127768335D02*
X138389524Y-126968335D01*
X138389524Y-126968335D02*
X138580000Y-126968335D01*
X138580000Y-126968335D02*
X138694286Y-127006430D01*
X138694286Y-127006430D02*
X138770476Y-127082620D01*
X138770476Y-127082620D02*
X138808571Y-127158811D01*
X138808571Y-127158811D02*
X138846667Y-127311192D01*
X138846667Y-127311192D02*
X138846667Y-127425478D01*
X138846667Y-127425478D02*
X138808571Y-127577859D01*
X138808571Y-127577859D02*
X138770476Y-127654049D01*
X138770476Y-127654049D02*
X138694286Y-127730240D01*
X138694286Y-127730240D02*
X138580000Y-127768335D01*
X138580000Y-127768335D02*
X138389524Y-127768335D01*
X139113333Y-126968335D02*
X139608571Y-126968335D01*
X139608571Y-126968335D02*
X139341905Y-127273097D01*
X139341905Y-127273097D02*
X139456190Y-127273097D01*
X139456190Y-127273097D02*
X139532381Y-127311192D01*
X139532381Y-127311192D02*
X139570476Y-127349287D01*
X139570476Y-127349287D02*
X139608571Y-127425478D01*
X139608571Y-127425478D02*
X139608571Y-127615954D01*
X139608571Y-127615954D02*
X139570476Y-127692144D01*
X139570476Y-127692144D02*
X139532381Y-127730240D01*
X139532381Y-127730240D02*
X139456190Y-127768335D01*
X139456190Y-127768335D02*
X139227619Y-127768335D01*
X139227619Y-127768335D02*
X139151428Y-127730240D01*
X139151428Y-127730240D02*
X139113333Y-127692144D01*
X117390476Y-151863335D02*
X117390476Y-152510954D01*
X117390476Y-152510954D02*
X117428571Y-152587144D01*
X117428571Y-152587144D02*
X117466666Y-152625240D01*
X117466666Y-152625240D02*
X117542857Y-152663335D01*
X117542857Y-152663335D02*
X117695238Y-152663335D01*
X117695238Y-152663335D02*
X117771428Y-152625240D01*
X117771428Y-152625240D02*
X117809523Y-152587144D01*
X117809523Y-152587144D02*
X117847619Y-152510954D01*
X117847619Y-152510954D02*
X117847619Y-151863335D01*
X118152380Y-151863335D02*
X118685714Y-151863335D01*
X118685714Y-151863335D02*
X118342856Y-152663335D01*
X156485714Y-101558335D02*
X156219047Y-101177382D01*
X156028571Y-101558335D02*
X156028571Y-100758335D01*
X156028571Y-100758335D02*
X156333333Y-100758335D01*
X156333333Y-100758335D02*
X156409523Y-100796430D01*
X156409523Y-100796430D02*
X156447618Y-100834525D01*
X156447618Y-100834525D02*
X156485714Y-100910716D01*
X156485714Y-100910716D02*
X156485714Y-101025001D01*
X156485714Y-101025001D02*
X156447618Y-101101192D01*
X156447618Y-101101192D02*
X156409523Y-101139287D01*
X156409523Y-101139287D02*
X156333333Y-101177382D01*
X156333333Y-101177382D02*
X156028571Y-101177382D01*
X157247618Y-101558335D02*
X156790475Y-101558335D01*
X157019047Y-101558335D02*
X157019047Y-100758335D01*
X157019047Y-100758335D02*
X156942856Y-100872620D01*
X156942856Y-100872620D02*
X156866666Y-100948811D01*
X156866666Y-100948811D02*
X156790475Y-100986906D01*
X157971428Y-100758335D02*
X157590476Y-100758335D01*
X157590476Y-100758335D02*
X157552380Y-101139287D01*
X157552380Y-101139287D02*
X157590476Y-101101192D01*
X157590476Y-101101192D02*
X157666666Y-101063097D01*
X157666666Y-101063097D02*
X157857142Y-101063097D01*
X157857142Y-101063097D02*
X157933333Y-101101192D01*
X157933333Y-101101192D02*
X157971428Y-101139287D01*
X157971428Y-101139287D02*
X158009523Y-101215478D01*
X158009523Y-101215478D02*
X158009523Y-101405954D01*
X158009523Y-101405954D02*
X157971428Y-101482144D01*
X157971428Y-101482144D02*
X157933333Y-101520240D01*
X157933333Y-101520240D02*
X157857142Y-101558335D01*
X157857142Y-101558335D02*
X157666666Y-101558335D01*
X157666666Y-101558335D02*
X157590476Y-101520240D01*
X157590476Y-101520240D02*
X157552380Y-101482144D01*
X119866667Y-138058335D02*
X119600000Y-137677382D01*
X119409524Y-138058335D02*
X119409524Y-137258335D01*
X119409524Y-137258335D02*
X119714286Y-137258335D01*
X119714286Y-137258335D02*
X119790476Y-137296430D01*
X119790476Y-137296430D02*
X119828571Y-137334525D01*
X119828571Y-137334525D02*
X119866667Y-137410716D01*
X119866667Y-137410716D02*
X119866667Y-137525001D01*
X119866667Y-137525001D02*
X119828571Y-137601192D01*
X119828571Y-137601192D02*
X119790476Y-137639287D01*
X119790476Y-137639287D02*
X119714286Y-137677382D01*
X119714286Y-137677382D02*
X119409524Y-137677382D01*
X120323809Y-137601192D02*
X120247619Y-137563097D01*
X120247619Y-137563097D02*
X120209524Y-137525001D01*
X120209524Y-137525001D02*
X120171428Y-137448811D01*
X120171428Y-137448811D02*
X120171428Y-137410716D01*
X120171428Y-137410716D02*
X120209524Y-137334525D01*
X120209524Y-137334525D02*
X120247619Y-137296430D01*
X120247619Y-137296430D02*
X120323809Y-137258335D01*
X120323809Y-137258335D02*
X120476190Y-137258335D01*
X120476190Y-137258335D02*
X120552381Y-137296430D01*
X120552381Y-137296430D02*
X120590476Y-137334525D01*
X120590476Y-137334525D02*
X120628571Y-137410716D01*
X120628571Y-137410716D02*
X120628571Y-137448811D01*
X120628571Y-137448811D02*
X120590476Y-137525001D01*
X120590476Y-137525001D02*
X120552381Y-137563097D01*
X120552381Y-137563097D02*
X120476190Y-137601192D01*
X120476190Y-137601192D02*
X120323809Y-137601192D01*
X120323809Y-137601192D02*
X120247619Y-137639287D01*
X120247619Y-137639287D02*
X120209524Y-137677382D01*
X120209524Y-137677382D02*
X120171428Y-137753573D01*
X120171428Y-137753573D02*
X120171428Y-137905954D01*
X120171428Y-137905954D02*
X120209524Y-137982144D01*
X120209524Y-137982144D02*
X120247619Y-138020240D01*
X120247619Y-138020240D02*
X120323809Y-138058335D01*
X120323809Y-138058335D02*
X120476190Y-138058335D01*
X120476190Y-138058335D02*
X120552381Y-138020240D01*
X120552381Y-138020240D02*
X120590476Y-137982144D01*
X120590476Y-137982144D02*
X120628571Y-137905954D01*
X120628571Y-137905954D02*
X120628571Y-137753573D01*
X120628571Y-137753573D02*
X120590476Y-137677382D01*
X120590476Y-137677382D02*
X120552381Y-137639287D01*
X120552381Y-137639287D02*
X120476190Y-137601192D01*
X136935714Y-138982144D02*
X136897618Y-139020240D01*
X136897618Y-139020240D02*
X136783333Y-139058335D01*
X136783333Y-139058335D02*
X136707142Y-139058335D01*
X136707142Y-139058335D02*
X136592856Y-139020240D01*
X136592856Y-139020240D02*
X136516666Y-138944049D01*
X136516666Y-138944049D02*
X136478571Y-138867859D01*
X136478571Y-138867859D02*
X136440475Y-138715478D01*
X136440475Y-138715478D02*
X136440475Y-138601192D01*
X136440475Y-138601192D02*
X136478571Y-138448811D01*
X136478571Y-138448811D02*
X136516666Y-138372620D01*
X136516666Y-138372620D02*
X136592856Y-138296430D01*
X136592856Y-138296430D02*
X136707142Y-138258335D01*
X136707142Y-138258335D02*
X136783333Y-138258335D01*
X136783333Y-138258335D02*
X136897618Y-138296430D01*
X136897618Y-138296430D02*
X136935714Y-138334525D01*
X137697618Y-139058335D02*
X137240475Y-139058335D01*
X137469047Y-139058335D02*
X137469047Y-138258335D01*
X137469047Y-138258335D02*
X137392856Y-138372620D01*
X137392856Y-138372620D02*
X137316666Y-138448811D01*
X137316666Y-138448811D02*
X137240475Y-138486906D01*
X138383333Y-138525001D02*
X138383333Y-139058335D01*
X138192857Y-138220240D02*
X138002380Y-138791668D01*
X138002380Y-138791668D02*
X138497619Y-138791668D01*
X114140476Y-141338335D02*
X114140476Y-140538335D01*
X114140476Y-140919287D02*
X114597619Y-140919287D01*
X114597619Y-141338335D02*
X114597619Y-140538335D01*
X114902380Y-140538335D02*
X115397618Y-140538335D01*
X115397618Y-140538335D02*
X115130952Y-140843097D01*
X115130952Y-140843097D02*
X115245237Y-140843097D01*
X115245237Y-140843097D02*
X115321428Y-140881192D01*
X115321428Y-140881192D02*
X115359523Y-140919287D01*
X115359523Y-140919287D02*
X115397618Y-140995478D01*
X115397618Y-140995478D02*
X115397618Y-141185954D01*
X115397618Y-141185954D02*
X115359523Y-141262144D01*
X115359523Y-141262144D02*
X115321428Y-141300240D01*
X115321428Y-141300240D02*
X115245237Y-141338335D01*
X115245237Y-141338335D02*
X115016666Y-141338335D01*
X115016666Y-141338335D02*
X114940475Y-141300240D01*
X114940475Y-141300240D02*
X114902380Y-141262144D01*
X155358333Y-117238335D02*
X155358333Y-117809763D01*
X155358333Y-117809763D02*
X155320238Y-117924049D01*
X155320238Y-117924049D02*
X155244047Y-118000240D01*
X155244047Y-118000240D02*
X155129762Y-118038335D01*
X155129762Y-118038335D02*
X155053571Y-118038335D01*
X156082143Y-117505001D02*
X156082143Y-118038335D01*
X155891667Y-117200240D02*
X155701190Y-117771668D01*
X155701190Y-117771668D02*
X156196429Y-117771668D01*
X135035714Y-138982144D02*
X134997618Y-139020240D01*
X134997618Y-139020240D02*
X134883333Y-139058335D01*
X134883333Y-139058335D02*
X134807142Y-139058335D01*
X134807142Y-139058335D02*
X134692856Y-139020240D01*
X134692856Y-139020240D02*
X134616666Y-138944049D01*
X134616666Y-138944049D02*
X134578571Y-138867859D01*
X134578571Y-138867859D02*
X134540475Y-138715478D01*
X134540475Y-138715478D02*
X134540475Y-138601192D01*
X134540475Y-138601192D02*
X134578571Y-138448811D01*
X134578571Y-138448811D02*
X134616666Y-138372620D01*
X134616666Y-138372620D02*
X134692856Y-138296430D01*
X134692856Y-138296430D02*
X134807142Y-138258335D01*
X134807142Y-138258335D02*
X134883333Y-138258335D01*
X134883333Y-138258335D02*
X134997618Y-138296430D01*
X134997618Y-138296430D02*
X135035714Y-138334525D01*
X135797618Y-139058335D02*
X135340475Y-139058335D01*
X135569047Y-139058335D02*
X135569047Y-138258335D01*
X135569047Y-138258335D02*
X135492856Y-138372620D01*
X135492856Y-138372620D02*
X135416666Y-138448811D01*
X135416666Y-138448811D02*
X135340475Y-138486906D01*
X136559523Y-139058335D02*
X136102380Y-139058335D01*
X136330952Y-139058335D02*
X136330952Y-138258335D01*
X136330952Y-138258335D02*
X136254761Y-138372620D01*
X136254761Y-138372620D02*
X136178571Y-138448811D01*
X136178571Y-138448811D02*
X136102380Y-138486906D01*
X101189524Y-138038335D02*
X101189524Y-137238335D01*
X101189524Y-137238335D02*
X101380000Y-137238335D01*
X101380000Y-137238335D02*
X101494286Y-137276430D01*
X101494286Y-137276430D02*
X101570476Y-137352620D01*
X101570476Y-137352620D02*
X101608571Y-137428811D01*
X101608571Y-137428811D02*
X101646667Y-137581192D01*
X101646667Y-137581192D02*
X101646667Y-137695478D01*
X101646667Y-137695478D02*
X101608571Y-137847859D01*
X101608571Y-137847859D02*
X101570476Y-137924049D01*
X101570476Y-137924049D02*
X101494286Y-138000240D01*
X101494286Y-138000240D02*
X101380000Y-138038335D01*
X101380000Y-138038335D02*
X101189524Y-138038335D01*
X102408571Y-138038335D02*
X101951428Y-138038335D01*
X102180000Y-138038335D02*
X102180000Y-137238335D01*
X102180000Y-137238335D02*
X102103809Y-137352620D01*
X102103809Y-137352620D02*
X102027619Y-137428811D01*
X102027619Y-137428811D02*
X101951428Y-137466906D01*
X154890476Y-105363335D02*
X154890476Y-106010954D01*
X154890476Y-106010954D02*
X154928571Y-106087144D01*
X154928571Y-106087144D02*
X154966666Y-106125240D01*
X154966666Y-106125240D02*
X155042857Y-106163335D01*
X155042857Y-106163335D02*
X155195238Y-106163335D01*
X155195238Y-106163335D02*
X155271428Y-106125240D01*
X155271428Y-106125240D02*
X155309523Y-106087144D01*
X155309523Y-106087144D02*
X155347619Y-106010954D01*
X155347619Y-106010954D02*
X155347619Y-105363335D01*
X156109523Y-105363335D02*
X155728571Y-105363335D01*
X155728571Y-105363335D02*
X155690475Y-105744287D01*
X155690475Y-105744287D02*
X155728571Y-105706192D01*
X155728571Y-105706192D02*
X155804761Y-105668097D01*
X155804761Y-105668097D02*
X155995237Y-105668097D01*
X155995237Y-105668097D02*
X156071428Y-105706192D01*
X156071428Y-105706192D02*
X156109523Y-105744287D01*
X156109523Y-105744287D02*
X156147618Y-105820478D01*
X156147618Y-105820478D02*
X156147618Y-106010954D01*
X156147618Y-106010954D02*
X156109523Y-106087144D01*
X156109523Y-106087144D02*
X156071428Y-106125240D01*
X156071428Y-106125240D02*
X155995237Y-106163335D01*
X155995237Y-106163335D02*
X155804761Y-106163335D01*
X155804761Y-106163335D02*
X155728571Y-106125240D01*
X155728571Y-106125240D02*
X155690475Y-106087144D01*
X149866667Y-141058335D02*
X149600000Y-140677382D01*
X149409524Y-141058335D02*
X149409524Y-140258335D01*
X149409524Y-140258335D02*
X149714286Y-140258335D01*
X149714286Y-140258335D02*
X149790476Y-140296430D01*
X149790476Y-140296430D02*
X149828571Y-140334525D01*
X149828571Y-140334525D02*
X149866667Y-140410716D01*
X149866667Y-140410716D02*
X149866667Y-140525001D01*
X149866667Y-140525001D02*
X149828571Y-140601192D01*
X149828571Y-140601192D02*
X149790476Y-140639287D01*
X149790476Y-140639287D02*
X149714286Y-140677382D01*
X149714286Y-140677382D02*
X149409524Y-140677382D01*
X150247619Y-141058335D02*
X150400000Y-141058335D01*
X150400000Y-141058335D02*
X150476190Y-141020240D01*
X150476190Y-141020240D02*
X150514286Y-140982144D01*
X150514286Y-140982144D02*
X150590476Y-140867859D01*
X150590476Y-140867859D02*
X150628571Y-140715478D01*
X150628571Y-140715478D02*
X150628571Y-140410716D01*
X150628571Y-140410716D02*
X150590476Y-140334525D01*
X150590476Y-140334525D02*
X150552381Y-140296430D01*
X150552381Y-140296430D02*
X150476190Y-140258335D01*
X150476190Y-140258335D02*
X150323809Y-140258335D01*
X150323809Y-140258335D02*
X150247619Y-140296430D01*
X150247619Y-140296430D02*
X150209524Y-140334525D01*
X150209524Y-140334525D02*
X150171428Y-140410716D01*
X150171428Y-140410716D02*
X150171428Y-140601192D01*
X150171428Y-140601192D02*
X150209524Y-140677382D01*
X150209524Y-140677382D02*
X150247619Y-140715478D01*
X150247619Y-140715478D02*
X150323809Y-140753573D01*
X150323809Y-140753573D02*
X150476190Y-140753573D01*
X150476190Y-140753573D02*
X150552381Y-140715478D01*
X150552381Y-140715478D02*
X150590476Y-140677382D01*
X150590476Y-140677382D02*
X150628571Y-140601192D01*
X138866667Y-130808335D02*
X138600000Y-130427382D01*
X138409524Y-130808335D02*
X138409524Y-130008335D01*
X138409524Y-130008335D02*
X138714286Y-130008335D01*
X138714286Y-130008335D02*
X138790476Y-130046430D01*
X138790476Y-130046430D02*
X138828571Y-130084525D01*
X138828571Y-130084525D02*
X138866667Y-130160716D01*
X138866667Y-130160716D02*
X138866667Y-130275001D01*
X138866667Y-130275001D02*
X138828571Y-130351192D01*
X138828571Y-130351192D02*
X138790476Y-130389287D01*
X138790476Y-130389287D02*
X138714286Y-130427382D01*
X138714286Y-130427382D02*
X138409524Y-130427382D01*
X139628571Y-130808335D02*
X139171428Y-130808335D01*
X139400000Y-130808335D02*
X139400000Y-130008335D01*
X139400000Y-130008335D02*
X139323809Y-130122620D01*
X139323809Y-130122620D02*
X139247619Y-130198811D01*
X139247619Y-130198811D02*
X139171428Y-130236906D01*
X126866667Y-127808335D02*
X126600000Y-127427382D01*
X126409524Y-127808335D02*
X126409524Y-127008335D01*
X126409524Y-127008335D02*
X126714286Y-127008335D01*
X126714286Y-127008335D02*
X126790476Y-127046430D01*
X126790476Y-127046430D02*
X126828571Y-127084525D01*
X126828571Y-127084525D02*
X126866667Y-127160716D01*
X126866667Y-127160716D02*
X126866667Y-127275001D01*
X126866667Y-127275001D02*
X126828571Y-127351192D01*
X126828571Y-127351192D02*
X126790476Y-127389287D01*
X126790476Y-127389287D02*
X126714286Y-127427382D01*
X126714286Y-127427382D02*
X126409524Y-127427382D01*
X127552381Y-127275001D02*
X127552381Y-127808335D01*
X127361905Y-126970240D02*
X127171428Y-127541668D01*
X127171428Y-127541668D02*
X127666667Y-127541668D01*
X101133332Y-100950240D02*
X101247618Y-100988335D01*
X101247618Y-100988335D02*
X101438094Y-100988335D01*
X101438094Y-100988335D02*
X101514285Y-100950240D01*
X101514285Y-100950240D02*
X101552380Y-100912144D01*
X101552380Y-100912144D02*
X101590475Y-100835954D01*
X101590475Y-100835954D02*
X101590475Y-100759763D01*
X101590475Y-100759763D02*
X101552380Y-100683573D01*
X101552380Y-100683573D02*
X101514285Y-100645478D01*
X101514285Y-100645478D02*
X101438094Y-100607382D01*
X101438094Y-100607382D02*
X101285713Y-100569287D01*
X101285713Y-100569287D02*
X101209523Y-100531192D01*
X101209523Y-100531192D02*
X101171428Y-100493097D01*
X101171428Y-100493097D02*
X101133332Y-100416906D01*
X101133332Y-100416906D02*
X101133332Y-100340716D01*
X101133332Y-100340716D02*
X101171428Y-100264525D01*
X101171428Y-100264525D02*
X101209523Y-100226430D01*
X101209523Y-100226430D02*
X101285713Y-100188335D01*
X101285713Y-100188335D02*
X101476190Y-100188335D01*
X101476190Y-100188335D02*
X101590475Y-100226430D01*
X101857142Y-100188335D02*
X102047618Y-100988335D01*
X102047618Y-100988335D02*
X102199999Y-100416906D01*
X102199999Y-100416906D02*
X102352380Y-100988335D01*
X102352380Y-100988335D02*
X102542857Y-100188335D01*
X103266666Y-100988335D02*
X102809523Y-100988335D01*
X103038095Y-100988335D02*
X103038095Y-100188335D01*
X103038095Y-100188335D02*
X102961904Y-100302620D01*
X102961904Y-100302620D02*
X102885714Y-100378811D01*
X102885714Y-100378811D02*
X102809523Y-100416906D01*
X111866667Y-126352144D02*
X111828571Y-126390240D01*
X111828571Y-126390240D02*
X111714286Y-126428335D01*
X111714286Y-126428335D02*
X111638095Y-126428335D01*
X111638095Y-126428335D02*
X111523809Y-126390240D01*
X111523809Y-126390240D02*
X111447619Y-126314049D01*
X111447619Y-126314049D02*
X111409524Y-126237859D01*
X111409524Y-126237859D02*
X111371428Y-126085478D01*
X111371428Y-126085478D02*
X111371428Y-125971192D01*
X111371428Y-125971192D02*
X111409524Y-125818811D01*
X111409524Y-125818811D02*
X111447619Y-125742620D01*
X111447619Y-125742620D02*
X111523809Y-125666430D01*
X111523809Y-125666430D02*
X111638095Y-125628335D01*
X111638095Y-125628335D02*
X111714286Y-125628335D01*
X111714286Y-125628335D02*
X111828571Y-125666430D01*
X111828571Y-125666430D02*
X111866667Y-125704525D01*
X112133333Y-125628335D02*
X112666667Y-125628335D01*
X112666667Y-125628335D02*
X112323809Y-126428335D01*
X156985714Y-141058335D02*
X156719047Y-140677382D01*
X156528571Y-141058335D02*
X156528571Y-140258335D01*
X156528571Y-140258335D02*
X156833333Y-140258335D01*
X156833333Y-140258335D02*
X156909523Y-140296430D01*
X156909523Y-140296430D02*
X156947618Y-140334525D01*
X156947618Y-140334525D02*
X156985714Y-140410716D01*
X156985714Y-140410716D02*
X156985714Y-140525001D01*
X156985714Y-140525001D02*
X156947618Y-140601192D01*
X156947618Y-140601192D02*
X156909523Y-140639287D01*
X156909523Y-140639287D02*
X156833333Y-140677382D01*
X156833333Y-140677382D02*
X156528571Y-140677382D01*
X157747618Y-141058335D02*
X157290475Y-141058335D01*
X157519047Y-141058335D02*
X157519047Y-140258335D01*
X157519047Y-140258335D02*
X157442856Y-140372620D01*
X157442856Y-140372620D02*
X157366666Y-140448811D01*
X157366666Y-140448811D02*
X157290475Y-140486906D01*
X158052380Y-140334525D02*
X158090476Y-140296430D01*
X158090476Y-140296430D02*
X158166666Y-140258335D01*
X158166666Y-140258335D02*
X158357142Y-140258335D01*
X158357142Y-140258335D02*
X158433333Y-140296430D01*
X158433333Y-140296430D02*
X158471428Y-140334525D01*
X158471428Y-140334525D02*
X158509523Y-140410716D01*
X158509523Y-140410716D02*
X158509523Y-140486906D01*
X158509523Y-140486906D02*
X158471428Y-140601192D01*
X158471428Y-140601192D02*
X158014285Y-141058335D01*
X158014285Y-141058335D02*
X158509523Y-141058335D01*
X105129524Y-138038335D02*
X105129524Y-137238335D01*
X105129524Y-137238335D02*
X105320000Y-137238335D01*
X105320000Y-137238335D02*
X105434286Y-137276430D01*
X105434286Y-137276430D02*
X105510476Y-137352620D01*
X105510476Y-137352620D02*
X105548571Y-137428811D01*
X105548571Y-137428811D02*
X105586667Y-137581192D01*
X105586667Y-137581192D02*
X105586667Y-137695478D01*
X105586667Y-137695478D02*
X105548571Y-137847859D01*
X105548571Y-137847859D02*
X105510476Y-137924049D01*
X105510476Y-137924049D02*
X105434286Y-138000240D01*
X105434286Y-138000240D02*
X105320000Y-138038335D01*
X105320000Y-138038335D02*
X105129524Y-138038335D01*
X105891428Y-137314525D02*
X105929524Y-137276430D01*
X105929524Y-137276430D02*
X106005714Y-137238335D01*
X106005714Y-137238335D02*
X106196190Y-137238335D01*
X106196190Y-137238335D02*
X106272381Y-137276430D01*
X106272381Y-137276430D02*
X106310476Y-137314525D01*
X106310476Y-137314525D02*
X106348571Y-137390716D01*
X106348571Y-137390716D02*
X106348571Y-137466906D01*
X106348571Y-137466906D02*
X106310476Y-137581192D01*
X106310476Y-137581192D02*
X105853333Y-138038335D01*
X105853333Y-138038335D02*
X106348571Y-138038335D01*
X134866667Y-127808335D02*
X134600000Y-127427382D01*
X134409524Y-127808335D02*
X134409524Y-127008335D01*
X134409524Y-127008335D02*
X134714286Y-127008335D01*
X134714286Y-127008335D02*
X134790476Y-127046430D01*
X134790476Y-127046430D02*
X134828571Y-127084525D01*
X134828571Y-127084525D02*
X134866667Y-127160716D01*
X134866667Y-127160716D02*
X134866667Y-127275001D01*
X134866667Y-127275001D02*
X134828571Y-127351192D01*
X134828571Y-127351192D02*
X134790476Y-127389287D01*
X134790476Y-127389287D02*
X134714286Y-127427382D01*
X134714286Y-127427382D02*
X134409524Y-127427382D01*
X135552381Y-127008335D02*
X135400000Y-127008335D01*
X135400000Y-127008335D02*
X135323809Y-127046430D01*
X135323809Y-127046430D02*
X135285714Y-127084525D01*
X135285714Y-127084525D02*
X135209524Y-127198811D01*
X135209524Y-127198811D02*
X135171428Y-127351192D01*
X135171428Y-127351192D02*
X135171428Y-127655954D01*
X135171428Y-127655954D02*
X135209524Y-127732144D01*
X135209524Y-127732144D02*
X135247619Y-127770240D01*
X135247619Y-127770240D02*
X135323809Y-127808335D01*
X135323809Y-127808335D02*
X135476190Y-127808335D01*
X135476190Y-127808335D02*
X135552381Y-127770240D01*
X135552381Y-127770240D02*
X135590476Y-127732144D01*
X135590476Y-127732144D02*
X135628571Y-127655954D01*
X135628571Y-127655954D02*
X135628571Y-127465478D01*
X135628571Y-127465478D02*
X135590476Y-127389287D01*
X135590476Y-127389287D02*
X135552381Y-127351192D01*
X135552381Y-127351192D02*
X135476190Y-127313097D01*
X135476190Y-127313097D02*
X135323809Y-127313097D01*
X135323809Y-127313097D02*
X135247619Y-127351192D01*
X135247619Y-127351192D02*
X135209524Y-127389287D01*
X135209524Y-127389287D02*
X135171428Y-127465478D01*
X129267976Y-146243335D02*
X129267976Y-146890954D01*
X129267976Y-146890954D02*
X129306071Y-146967144D01*
X129306071Y-146967144D02*
X129344166Y-147005240D01*
X129344166Y-147005240D02*
X129420357Y-147043335D01*
X129420357Y-147043335D02*
X129572738Y-147043335D01*
X129572738Y-147043335D02*
X129648928Y-147005240D01*
X129648928Y-147005240D02*
X129687023Y-146967144D01*
X129687023Y-146967144D02*
X129725119Y-146890954D01*
X129725119Y-146890954D02*
X129725119Y-146243335D01*
X130029880Y-146243335D02*
X130525118Y-146243335D01*
X130525118Y-146243335D02*
X130258452Y-146548097D01*
X130258452Y-146548097D02*
X130372737Y-146548097D01*
X130372737Y-146548097D02*
X130448928Y-146586192D01*
X130448928Y-146586192D02*
X130487023Y-146624287D01*
X130487023Y-146624287D02*
X130525118Y-146700478D01*
X130525118Y-146700478D02*
X130525118Y-146890954D01*
X130525118Y-146890954D02*
X130487023Y-146967144D01*
X130487023Y-146967144D02*
X130448928Y-147005240D01*
X130448928Y-147005240D02*
X130372737Y-147043335D01*
X130372737Y-147043335D02*
X130144166Y-147043335D01*
X130144166Y-147043335D02*
X130067975Y-147005240D01*
X130067975Y-147005240D02*
X130029880Y-146967144D01*
X149485714Y-144498335D02*
X149219047Y-144117382D01*
X149028571Y-144498335D02*
X149028571Y-143698335D01*
X149028571Y-143698335D02*
X149333333Y-143698335D01*
X149333333Y-143698335D02*
X149409523Y-143736430D01*
X149409523Y-143736430D02*
X149447618Y-143774525D01*
X149447618Y-143774525D02*
X149485714Y-143850716D01*
X149485714Y-143850716D02*
X149485714Y-143965001D01*
X149485714Y-143965001D02*
X149447618Y-144041192D01*
X149447618Y-144041192D02*
X149409523Y-144079287D01*
X149409523Y-144079287D02*
X149333333Y-144117382D01*
X149333333Y-144117382D02*
X149028571Y-144117382D01*
X150247618Y-144498335D02*
X149790475Y-144498335D01*
X150019047Y-144498335D02*
X150019047Y-143698335D01*
X150019047Y-143698335D02*
X149942856Y-143812620D01*
X149942856Y-143812620D02*
X149866666Y-143888811D01*
X149866666Y-143888811D02*
X149790475Y-143926906D01*
X150514285Y-143698335D02*
X151009523Y-143698335D01*
X151009523Y-143698335D02*
X150742857Y-144003097D01*
X150742857Y-144003097D02*
X150857142Y-144003097D01*
X150857142Y-144003097D02*
X150933333Y-144041192D01*
X150933333Y-144041192D02*
X150971428Y-144079287D01*
X150971428Y-144079287D02*
X151009523Y-144155478D01*
X151009523Y-144155478D02*
X151009523Y-144345954D01*
X151009523Y-144345954D02*
X150971428Y-144422144D01*
X150971428Y-144422144D02*
X150933333Y-144460240D01*
X150933333Y-144460240D02*
X150857142Y-144498335D01*
X150857142Y-144498335D02*
X150628571Y-144498335D01*
X150628571Y-144498335D02*
X150552380Y-144460240D01*
X150552380Y-144460240D02*
X150514285Y-144422144D01*
X130866667Y-127808335D02*
X130600000Y-127427382D01*
X130409524Y-127808335D02*
X130409524Y-127008335D01*
X130409524Y-127008335D02*
X130714286Y-127008335D01*
X130714286Y-127008335D02*
X130790476Y-127046430D01*
X130790476Y-127046430D02*
X130828571Y-127084525D01*
X130828571Y-127084525D02*
X130866667Y-127160716D01*
X130866667Y-127160716D02*
X130866667Y-127275001D01*
X130866667Y-127275001D02*
X130828571Y-127351192D01*
X130828571Y-127351192D02*
X130790476Y-127389287D01*
X130790476Y-127389287D02*
X130714286Y-127427382D01*
X130714286Y-127427382D02*
X130409524Y-127427382D01*
X131590476Y-127008335D02*
X131209524Y-127008335D01*
X131209524Y-127008335D02*
X131171428Y-127389287D01*
X131171428Y-127389287D02*
X131209524Y-127351192D01*
X131209524Y-127351192D02*
X131285714Y-127313097D01*
X131285714Y-127313097D02*
X131476190Y-127313097D01*
X131476190Y-127313097D02*
X131552381Y-127351192D01*
X131552381Y-127351192D02*
X131590476Y-127389287D01*
X131590476Y-127389287D02*
X131628571Y-127465478D01*
X131628571Y-127465478D02*
X131628571Y-127655954D01*
X131628571Y-127655954D02*
X131590476Y-127732144D01*
X131590476Y-127732144D02*
X131552381Y-127770240D01*
X131552381Y-127770240D02*
X131476190Y-127808335D01*
X131476190Y-127808335D02*
X131285714Y-127808335D01*
X131285714Y-127808335D02*
X131209524Y-127770240D01*
X131209524Y-127770240D02*
X131171428Y-127732144D01*
X153198333Y-123858335D02*
X153198333Y-124429763D01*
X153198333Y-124429763D02*
X153160238Y-124544049D01*
X153160238Y-124544049D02*
X153084047Y-124620240D01*
X153084047Y-124620240D02*
X152969762Y-124658335D01*
X152969762Y-124658335D02*
X152893571Y-124658335D01*
X153503095Y-123858335D02*
X153998333Y-123858335D01*
X153998333Y-123858335D02*
X153731667Y-124163097D01*
X153731667Y-124163097D02*
X153845952Y-124163097D01*
X153845952Y-124163097D02*
X153922143Y-124201192D01*
X153922143Y-124201192D02*
X153960238Y-124239287D01*
X153960238Y-124239287D02*
X153998333Y-124315478D01*
X153998333Y-124315478D02*
X153998333Y-124505954D01*
X153998333Y-124505954D02*
X153960238Y-124582144D01*
X153960238Y-124582144D02*
X153922143Y-124620240D01*
X153922143Y-124620240D02*
X153845952Y-124658335D01*
X153845952Y-124658335D02*
X153617381Y-124658335D01*
X153617381Y-124658335D02*
X153541190Y-124620240D01*
X153541190Y-124620240D02*
X153503095Y-124582144D01*
X129390476Y-83988335D02*
X129390476Y-84635954D01*
X129390476Y-84635954D02*
X129428571Y-84712144D01*
X129428571Y-84712144D02*
X129466666Y-84750240D01*
X129466666Y-84750240D02*
X129542857Y-84788335D01*
X129542857Y-84788335D02*
X129695238Y-84788335D01*
X129695238Y-84788335D02*
X129771428Y-84750240D01*
X129771428Y-84750240D02*
X129809523Y-84712144D01*
X129809523Y-84712144D02*
X129847619Y-84635954D01*
X129847619Y-84635954D02*
X129847619Y-83988335D01*
X130647618Y-84788335D02*
X130190475Y-84788335D01*
X130419047Y-84788335D02*
X130419047Y-83988335D01*
X130419047Y-83988335D02*
X130342856Y-84102620D01*
X130342856Y-84102620D02*
X130266666Y-84178811D01*
X130266666Y-84178811D02*
X130190475Y-84216906D01*
X133485714Y-149362144D02*
X133447618Y-149400240D01*
X133447618Y-149400240D02*
X133333333Y-149438335D01*
X133333333Y-149438335D02*
X133257142Y-149438335D01*
X133257142Y-149438335D02*
X133142856Y-149400240D01*
X133142856Y-149400240D02*
X133066666Y-149324049D01*
X133066666Y-149324049D02*
X133028571Y-149247859D01*
X133028571Y-149247859D02*
X132990475Y-149095478D01*
X132990475Y-149095478D02*
X132990475Y-148981192D01*
X132990475Y-148981192D02*
X133028571Y-148828811D01*
X133028571Y-148828811D02*
X133066666Y-148752620D01*
X133066666Y-148752620D02*
X133142856Y-148676430D01*
X133142856Y-148676430D02*
X133257142Y-148638335D01*
X133257142Y-148638335D02*
X133333333Y-148638335D01*
X133333333Y-148638335D02*
X133447618Y-148676430D01*
X133447618Y-148676430D02*
X133485714Y-148714525D01*
X134247618Y-149438335D02*
X133790475Y-149438335D01*
X134019047Y-149438335D02*
X134019047Y-148638335D01*
X134019047Y-148638335D02*
X133942856Y-148752620D01*
X133942856Y-148752620D02*
X133866666Y-148828811D01*
X133866666Y-148828811D02*
X133790475Y-148866906D01*
X134514285Y-148638335D02*
X135009523Y-148638335D01*
X135009523Y-148638335D02*
X134742857Y-148943097D01*
X134742857Y-148943097D02*
X134857142Y-148943097D01*
X134857142Y-148943097D02*
X134933333Y-148981192D01*
X134933333Y-148981192D02*
X134971428Y-149019287D01*
X134971428Y-149019287D02*
X135009523Y-149095478D01*
X135009523Y-149095478D02*
X135009523Y-149285954D01*
X135009523Y-149285954D02*
X134971428Y-149362144D01*
X134971428Y-149362144D02*
X134933333Y-149400240D01*
X134933333Y-149400240D02*
X134857142Y-149438335D01*
X134857142Y-149438335D02*
X134628571Y-149438335D01*
X134628571Y-149438335D02*
X134552380Y-149400240D01*
X134552380Y-149400240D02*
X134514285Y-149362144D01*
X114866667Y-126428335D02*
X114600000Y-126047382D01*
X114409524Y-126428335D02*
X114409524Y-125628335D01*
X114409524Y-125628335D02*
X114714286Y-125628335D01*
X114714286Y-125628335D02*
X114790476Y-125666430D01*
X114790476Y-125666430D02*
X114828571Y-125704525D01*
X114828571Y-125704525D02*
X114866667Y-125780716D01*
X114866667Y-125780716D02*
X114866667Y-125895001D01*
X114866667Y-125895001D02*
X114828571Y-125971192D01*
X114828571Y-125971192D02*
X114790476Y-126009287D01*
X114790476Y-126009287D02*
X114714286Y-126047382D01*
X114714286Y-126047382D02*
X114409524Y-126047382D01*
X115133333Y-125628335D02*
X115628571Y-125628335D01*
X115628571Y-125628335D02*
X115361905Y-125933097D01*
X115361905Y-125933097D02*
X115476190Y-125933097D01*
X115476190Y-125933097D02*
X115552381Y-125971192D01*
X115552381Y-125971192D02*
X115590476Y-126009287D01*
X115590476Y-126009287D02*
X115628571Y-126085478D01*
X115628571Y-126085478D02*
X115628571Y-126275954D01*
X115628571Y-126275954D02*
X115590476Y-126352144D01*
X115590476Y-126352144D02*
X115552381Y-126390240D01*
X115552381Y-126390240D02*
X115476190Y-126428335D01*
X115476190Y-126428335D02*
X115247619Y-126428335D01*
X115247619Y-126428335D02*
X115171428Y-126390240D01*
X115171428Y-126390240D02*
X115133333Y-126352144D01*
X156733333Y-144758335D02*
X156733333Y-145329763D01*
X156733333Y-145329763D02*
X156695238Y-145444049D01*
X156695238Y-145444049D02*
X156619047Y-145520240D01*
X156619047Y-145520240D02*
X156504762Y-145558335D01*
X156504762Y-145558335D02*
X156428571Y-145558335D01*
X157076190Y-144834525D02*
X157114286Y-144796430D01*
X157114286Y-144796430D02*
X157190476Y-144758335D01*
X157190476Y-144758335D02*
X157380952Y-144758335D01*
X157380952Y-144758335D02*
X157457143Y-144796430D01*
X157457143Y-144796430D02*
X157495238Y-144834525D01*
X157495238Y-144834525D02*
X157533333Y-144910716D01*
X157533333Y-144910716D02*
X157533333Y-144986906D01*
X157533333Y-144986906D02*
X157495238Y-145101192D01*
X157495238Y-145101192D02*
X157038095Y-145558335D01*
X157038095Y-145558335D02*
X157533333Y-145558335D01*
X144640476Y-110838335D02*
X144640476Y-110038335D01*
X144640476Y-110419287D02*
X145097619Y-110419287D01*
X145097619Y-110838335D02*
X145097619Y-110038335D01*
X145440475Y-110114525D02*
X145478571Y-110076430D01*
X145478571Y-110076430D02*
X145554761Y-110038335D01*
X145554761Y-110038335D02*
X145745237Y-110038335D01*
X145745237Y-110038335D02*
X145821428Y-110076430D01*
X145821428Y-110076430D02*
X145859523Y-110114525D01*
X145859523Y-110114525D02*
X145897618Y-110190716D01*
X145897618Y-110190716D02*
X145897618Y-110266906D01*
X145897618Y-110266906D02*
X145859523Y-110381192D01*
X145859523Y-110381192D02*
X145402380Y-110838335D01*
X145402380Y-110838335D02*
X145897618Y-110838335D01*
X154485714Y-141058335D02*
X154219047Y-140677382D01*
X154028571Y-141058335D02*
X154028571Y-140258335D01*
X154028571Y-140258335D02*
X154333333Y-140258335D01*
X154333333Y-140258335D02*
X154409523Y-140296430D01*
X154409523Y-140296430D02*
X154447618Y-140334525D01*
X154447618Y-140334525D02*
X154485714Y-140410716D01*
X154485714Y-140410716D02*
X154485714Y-140525001D01*
X154485714Y-140525001D02*
X154447618Y-140601192D01*
X154447618Y-140601192D02*
X154409523Y-140639287D01*
X154409523Y-140639287D02*
X154333333Y-140677382D01*
X154333333Y-140677382D02*
X154028571Y-140677382D01*
X155247618Y-141058335D02*
X154790475Y-141058335D01*
X155019047Y-141058335D02*
X155019047Y-140258335D01*
X155019047Y-140258335D02*
X154942856Y-140372620D01*
X154942856Y-140372620D02*
X154866666Y-140448811D01*
X154866666Y-140448811D02*
X154790475Y-140486906D01*
X156009523Y-141058335D02*
X155552380Y-141058335D01*
X155780952Y-141058335D02*
X155780952Y-140258335D01*
X155780952Y-140258335D02*
X155704761Y-140372620D01*
X155704761Y-140372620D02*
X155628571Y-140448811D01*
X155628571Y-140448811D02*
X155552380Y-140486906D01*
X122866667Y-126352144D02*
X122828571Y-126390240D01*
X122828571Y-126390240D02*
X122714286Y-126428335D01*
X122714286Y-126428335D02*
X122638095Y-126428335D01*
X122638095Y-126428335D02*
X122523809Y-126390240D01*
X122523809Y-126390240D02*
X122447619Y-126314049D01*
X122447619Y-126314049D02*
X122409524Y-126237859D01*
X122409524Y-126237859D02*
X122371428Y-126085478D01*
X122371428Y-126085478D02*
X122371428Y-125971192D01*
X122371428Y-125971192D02*
X122409524Y-125818811D01*
X122409524Y-125818811D02*
X122447619Y-125742620D01*
X122447619Y-125742620D02*
X122523809Y-125666430D01*
X122523809Y-125666430D02*
X122638095Y-125628335D01*
X122638095Y-125628335D02*
X122714286Y-125628335D01*
X122714286Y-125628335D02*
X122828571Y-125666430D01*
X122828571Y-125666430D02*
X122866667Y-125704525D01*
X123247619Y-126428335D02*
X123400000Y-126428335D01*
X123400000Y-126428335D02*
X123476190Y-126390240D01*
X123476190Y-126390240D02*
X123514286Y-126352144D01*
X123514286Y-126352144D02*
X123590476Y-126237859D01*
X123590476Y-126237859D02*
X123628571Y-126085478D01*
X123628571Y-126085478D02*
X123628571Y-125780716D01*
X123628571Y-125780716D02*
X123590476Y-125704525D01*
X123590476Y-125704525D02*
X123552381Y-125666430D01*
X123552381Y-125666430D02*
X123476190Y-125628335D01*
X123476190Y-125628335D02*
X123323809Y-125628335D01*
X123323809Y-125628335D02*
X123247619Y-125666430D01*
X123247619Y-125666430D02*
X123209524Y-125704525D01*
X123209524Y-125704525D02*
X123171428Y-125780716D01*
X123171428Y-125780716D02*
X123171428Y-125971192D01*
X123171428Y-125971192D02*
X123209524Y-126047382D01*
X123209524Y-126047382D02*
X123247619Y-126085478D01*
X123247619Y-126085478D02*
X123323809Y-126123573D01*
X123323809Y-126123573D02*
X123476190Y-126123573D01*
X123476190Y-126123573D02*
X123552381Y-126085478D01*
X123552381Y-126085478D02*
X123590476Y-126047382D01*
X123590476Y-126047382D02*
X123628571Y-125971192D01*
X126389524Y-130768335D02*
X126389524Y-129968335D01*
X126389524Y-129968335D02*
X126580000Y-129968335D01*
X126580000Y-129968335D02*
X126694286Y-130006430D01*
X126694286Y-130006430D02*
X126770476Y-130082620D01*
X126770476Y-130082620D02*
X126808571Y-130158811D01*
X126808571Y-130158811D02*
X126846667Y-130311192D01*
X126846667Y-130311192D02*
X126846667Y-130425478D01*
X126846667Y-130425478D02*
X126808571Y-130577859D01*
X126808571Y-130577859D02*
X126770476Y-130654049D01*
X126770476Y-130654049D02*
X126694286Y-130730240D01*
X126694286Y-130730240D02*
X126580000Y-130768335D01*
X126580000Y-130768335D02*
X126389524Y-130768335D01*
X127532381Y-130235001D02*
X127532381Y-130768335D01*
X127341905Y-129930240D02*
X127151428Y-130501668D01*
X127151428Y-130501668D02*
X127646667Y-130501668D01*
X110686667Y-148604644D02*
X110648571Y-148642740D01*
X110648571Y-148642740D02*
X110534286Y-148680835D01*
X110534286Y-148680835D02*
X110458095Y-148680835D01*
X110458095Y-148680835D02*
X110343809Y-148642740D01*
X110343809Y-148642740D02*
X110267619Y-148566549D01*
X110267619Y-148566549D02*
X110229524Y-148490359D01*
X110229524Y-148490359D02*
X110191428Y-148337978D01*
X110191428Y-148337978D02*
X110191428Y-148223692D01*
X110191428Y-148223692D02*
X110229524Y-148071311D01*
X110229524Y-148071311D02*
X110267619Y-147995120D01*
X110267619Y-147995120D02*
X110343809Y-147918930D01*
X110343809Y-147918930D02*
X110458095Y-147880835D01*
X110458095Y-147880835D02*
X110534286Y-147880835D01*
X110534286Y-147880835D02*
X110648571Y-147918930D01*
X110648571Y-147918930D02*
X110686667Y-147957025D01*
X110991428Y-147957025D02*
X111029524Y-147918930D01*
X111029524Y-147918930D02*
X111105714Y-147880835D01*
X111105714Y-147880835D02*
X111296190Y-147880835D01*
X111296190Y-147880835D02*
X111372381Y-147918930D01*
X111372381Y-147918930D02*
X111410476Y-147957025D01*
X111410476Y-147957025D02*
X111448571Y-148033216D01*
X111448571Y-148033216D02*
X111448571Y-148109406D01*
X111448571Y-148109406D02*
X111410476Y-148223692D01*
X111410476Y-148223692D02*
X110953333Y-148680835D01*
X110953333Y-148680835D02*
X111448571Y-148680835D01*
X113866667Y-148982144D02*
X113828571Y-149020240D01*
X113828571Y-149020240D02*
X113714286Y-149058335D01*
X113714286Y-149058335D02*
X113638095Y-149058335D01*
X113638095Y-149058335D02*
X113523809Y-149020240D01*
X113523809Y-149020240D02*
X113447619Y-148944049D01*
X113447619Y-148944049D02*
X113409524Y-148867859D01*
X113409524Y-148867859D02*
X113371428Y-148715478D01*
X113371428Y-148715478D02*
X113371428Y-148601192D01*
X113371428Y-148601192D02*
X113409524Y-148448811D01*
X113409524Y-148448811D02*
X113447619Y-148372620D01*
X113447619Y-148372620D02*
X113523809Y-148296430D01*
X113523809Y-148296430D02*
X113638095Y-148258335D01*
X113638095Y-148258335D02*
X113714286Y-148258335D01*
X113714286Y-148258335D02*
X113828571Y-148296430D01*
X113828571Y-148296430D02*
X113866667Y-148334525D01*
X114552381Y-148525001D02*
X114552381Y-149058335D01*
X114361905Y-148220240D02*
X114171428Y-148791668D01*
X114171428Y-148791668D02*
X114666667Y-148791668D01*
X125485714Y-149362144D02*
X125447618Y-149400240D01*
X125447618Y-149400240D02*
X125333333Y-149438335D01*
X125333333Y-149438335D02*
X125257142Y-149438335D01*
X125257142Y-149438335D02*
X125142856Y-149400240D01*
X125142856Y-149400240D02*
X125066666Y-149324049D01*
X125066666Y-149324049D02*
X125028571Y-149247859D01*
X125028571Y-149247859D02*
X124990475Y-149095478D01*
X124990475Y-149095478D02*
X124990475Y-148981192D01*
X124990475Y-148981192D02*
X125028571Y-148828811D01*
X125028571Y-148828811D02*
X125066666Y-148752620D01*
X125066666Y-148752620D02*
X125142856Y-148676430D01*
X125142856Y-148676430D02*
X125257142Y-148638335D01*
X125257142Y-148638335D02*
X125333333Y-148638335D01*
X125333333Y-148638335D02*
X125447618Y-148676430D01*
X125447618Y-148676430D02*
X125485714Y-148714525D01*
X126247618Y-149438335D02*
X125790475Y-149438335D01*
X126019047Y-149438335D02*
X126019047Y-148638335D01*
X126019047Y-148638335D02*
X125942856Y-148752620D01*
X125942856Y-148752620D02*
X125866666Y-148828811D01*
X125866666Y-148828811D02*
X125790475Y-148866906D01*
X126552380Y-148714525D02*
X126590476Y-148676430D01*
X126590476Y-148676430D02*
X126666666Y-148638335D01*
X126666666Y-148638335D02*
X126857142Y-148638335D01*
X126857142Y-148638335D02*
X126933333Y-148676430D01*
X126933333Y-148676430D02*
X126971428Y-148714525D01*
X126971428Y-148714525D02*
X127009523Y-148790716D01*
X127009523Y-148790716D02*
X127009523Y-148866906D01*
X127009523Y-148866906D02*
X126971428Y-148981192D01*
X126971428Y-148981192D02*
X126514285Y-149438335D01*
X126514285Y-149438335D02*
X127009523Y-149438335D01*
X119866667Y-126352144D02*
X119828571Y-126390240D01*
X119828571Y-126390240D02*
X119714286Y-126428335D01*
X119714286Y-126428335D02*
X119638095Y-126428335D01*
X119638095Y-126428335D02*
X119523809Y-126390240D01*
X119523809Y-126390240D02*
X119447619Y-126314049D01*
X119447619Y-126314049D02*
X119409524Y-126237859D01*
X119409524Y-126237859D02*
X119371428Y-126085478D01*
X119371428Y-126085478D02*
X119371428Y-125971192D01*
X119371428Y-125971192D02*
X119409524Y-125818811D01*
X119409524Y-125818811D02*
X119447619Y-125742620D01*
X119447619Y-125742620D02*
X119523809Y-125666430D01*
X119523809Y-125666430D02*
X119638095Y-125628335D01*
X119638095Y-125628335D02*
X119714286Y-125628335D01*
X119714286Y-125628335D02*
X119828571Y-125666430D01*
X119828571Y-125666430D02*
X119866667Y-125704525D01*
X120323809Y-125971192D02*
X120247619Y-125933097D01*
X120247619Y-125933097D02*
X120209524Y-125895001D01*
X120209524Y-125895001D02*
X120171428Y-125818811D01*
X120171428Y-125818811D02*
X120171428Y-125780716D01*
X120171428Y-125780716D02*
X120209524Y-125704525D01*
X120209524Y-125704525D02*
X120247619Y-125666430D01*
X120247619Y-125666430D02*
X120323809Y-125628335D01*
X120323809Y-125628335D02*
X120476190Y-125628335D01*
X120476190Y-125628335D02*
X120552381Y-125666430D01*
X120552381Y-125666430D02*
X120590476Y-125704525D01*
X120590476Y-125704525D02*
X120628571Y-125780716D01*
X120628571Y-125780716D02*
X120628571Y-125818811D01*
X120628571Y-125818811D02*
X120590476Y-125895001D01*
X120590476Y-125895001D02*
X120552381Y-125933097D01*
X120552381Y-125933097D02*
X120476190Y-125971192D01*
X120476190Y-125971192D02*
X120323809Y-125971192D01*
X120323809Y-125971192D02*
X120247619Y-126009287D01*
X120247619Y-126009287D02*
X120209524Y-126047382D01*
X120209524Y-126047382D02*
X120171428Y-126123573D01*
X120171428Y-126123573D02*
X120171428Y-126275954D01*
X120171428Y-126275954D02*
X120209524Y-126352144D01*
X120209524Y-126352144D02*
X120247619Y-126390240D01*
X120247619Y-126390240D02*
X120323809Y-126428335D01*
X120323809Y-126428335D02*
X120476190Y-126428335D01*
X120476190Y-126428335D02*
X120552381Y-126390240D01*
X120552381Y-126390240D02*
X120590476Y-126352144D01*
X120590476Y-126352144D02*
X120628571Y-126275954D01*
X120628571Y-126275954D02*
X120628571Y-126123573D01*
X120628571Y-126123573D02*
X120590476Y-126047382D01*
X120590476Y-126047382D02*
X120552381Y-126009287D01*
X120552381Y-126009287D02*
X120476190Y-125971192D01*
X104390476Y-149063335D02*
X104390476Y-149710954D01*
X104390476Y-149710954D02*
X104428571Y-149787144D01*
X104428571Y-149787144D02*
X104466666Y-149825240D01*
X104466666Y-149825240D02*
X104542857Y-149863335D01*
X104542857Y-149863335D02*
X104695238Y-149863335D01*
X104695238Y-149863335D02*
X104771428Y-149825240D01*
X104771428Y-149825240D02*
X104809523Y-149787144D01*
X104809523Y-149787144D02*
X104847619Y-149710954D01*
X104847619Y-149710954D02*
X104847619Y-149063335D01*
X105571428Y-149063335D02*
X105419047Y-149063335D01*
X105419047Y-149063335D02*
X105342856Y-149101430D01*
X105342856Y-149101430D02*
X105304761Y-149139525D01*
X105304761Y-149139525D02*
X105228571Y-149253811D01*
X105228571Y-149253811D02*
X105190475Y-149406192D01*
X105190475Y-149406192D02*
X105190475Y-149710954D01*
X105190475Y-149710954D02*
X105228571Y-149787144D01*
X105228571Y-149787144D02*
X105266666Y-149825240D01*
X105266666Y-149825240D02*
X105342856Y-149863335D01*
X105342856Y-149863335D02*
X105495237Y-149863335D01*
X105495237Y-149863335D02*
X105571428Y-149825240D01*
X105571428Y-149825240D02*
X105609523Y-149787144D01*
X105609523Y-149787144D02*
X105647618Y-149710954D01*
X105647618Y-149710954D02*
X105647618Y-149520478D01*
X105647618Y-149520478D02*
X105609523Y-149444287D01*
X105609523Y-149444287D02*
X105571428Y-149406192D01*
X105571428Y-149406192D02*
X105495237Y-149368097D01*
X105495237Y-149368097D02*
X105342856Y-149368097D01*
X105342856Y-149368097D02*
X105266666Y-149406192D01*
X105266666Y-149406192D02*
X105228571Y-149444287D01*
X105228571Y-149444287D02*
X105190475Y-149520478D01*
X139297976Y-134253335D02*
X139297976Y-134900954D01*
X139297976Y-134900954D02*
X139336071Y-134977144D01*
X139336071Y-134977144D02*
X139374166Y-135015240D01*
X139374166Y-135015240D02*
X139450357Y-135053335D01*
X139450357Y-135053335D02*
X139602738Y-135053335D01*
X139602738Y-135053335D02*
X139678928Y-135015240D01*
X139678928Y-135015240D02*
X139717023Y-134977144D01*
X139717023Y-134977144D02*
X139755119Y-134900954D01*
X139755119Y-134900954D02*
X139755119Y-134253335D01*
X140478928Y-134520001D02*
X140478928Y-135053335D01*
X140288452Y-134215240D02*
X140097975Y-134786668D01*
X140097975Y-134786668D02*
X140593214Y-134786668D01*
X116866667Y-137935835D02*
X116600000Y-137554882D01*
X116409524Y-137935835D02*
X116409524Y-137135835D01*
X116409524Y-137135835D02*
X116714286Y-137135835D01*
X116714286Y-137135835D02*
X116790476Y-137173930D01*
X116790476Y-137173930D02*
X116828571Y-137212025D01*
X116828571Y-137212025D02*
X116866667Y-137288216D01*
X116866667Y-137288216D02*
X116866667Y-137402501D01*
X116866667Y-137402501D02*
X116828571Y-137478692D01*
X116828571Y-137478692D02*
X116790476Y-137516787D01*
X116790476Y-137516787D02*
X116714286Y-137554882D01*
X116714286Y-137554882D02*
X116409524Y-137554882D01*
X117133333Y-137135835D02*
X117666667Y-137135835D01*
X117666667Y-137135835D02*
X117323809Y-137935835D01*
X144640476Y-141338335D02*
X144640476Y-140538335D01*
X144640476Y-140919287D02*
X145097619Y-140919287D01*
X145097619Y-141338335D02*
X145097619Y-140538335D01*
X145821428Y-140805001D02*
X145821428Y-141338335D01*
X145630952Y-140500240D02*
X145440475Y-141071668D01*
X145440475Y-141071668D02*
X145935714Y-141071668D01*
X114140476Y-110838335D02*
X114140476Y-110038335D01*
X114140476Y-110419287D02*
X114597619Y-110419287D01*
X114597619Y-110838335D02*
X114597619Y-110038335D01*
X115397618Y-110838335D02*
X114940475Y-110838335D01*
X115169047Y-110838335D02*
X115169047Y-110038335D01*
X115169047Y-110038335D02*
X115092856Y-110152620D01*
X115092856Y-110152620D02*
X115016666Y-110228811D01*
X115016666Y-110228811D02*
X114940475Y-110266906D01*
X123485714Y-138982144D02*
X123447618Y-139020240D01*
X123447618Y-139020240D02*
X123333333Y-139058335D01*
X123333333Y-139058335D02*
X123257142Y-139058335D01*
X123257142Y-139058335D02*
X123142856Y-139020240D01*
X123142856Y-139020240D02*
X123066666Y-138944049D01*
X123066666Y-138944049D02*
X123028571Y-138867859D01*
X123028571Y-138867859D02*
X122990475Y-138715478D01*
X122990475Y-138715478D02*
X122990475Y-138601192D01*
X122990475Y-138601192D02*
X123028571Y-138448811D01*
X123028571Y-138448811D02*
X123066666Y-138372620D01*
X123066666Y-138372620D02*
X123142856Y-138296430D01*
X123142856Y-138296430D02*
X123257142Y-138258335D01*
X123257142Y-138258335D02*
X123333333Y-138258335D01*
X123333333Y-138258335D02*
X123447618Y-138296430D01*
X123447618Y-138296430D02*
X123485714Y-138334525D01*
X124247618Y-139058335D02*
X123790475Y-139058335D01*
X124019047Y-139058335D02*
X124019047Y-138258335D01*
X124019047Y-138258335D02*
X123942856Y-138372620D01*
X123942856Y-138372620D02*
X123866666Y-138448811D01*
X123866666Y-138448811D02*
X123790475Y-138486906D01*
X124742857Y-138258335D02*
X124819047Y-138258335D01*
X124819047Y-138258335D02*
X124895238Y-138296430D01*
X124895238Y-138296430D02*
X124933333Y-138334525D01*
X124933333Y-138334525D02*
X124971428Y-138410716D01*
X124971428Y-138410716D02*
X125009523Y-138563097D01*
X125009523Y-138563097D02*
X125009523Y-138753573D01*
X125009523Y-138753573D02*
X124971428Y-138905954D01*
X124971428Y-138905954D02*
X124933333Y-138982144D01*
X124933333Y-138982144D02*
X124895238Y-139020240D01*
X124895238Y-139020240D02*
X124819047Y-139058335D01*
X124819047Y-139058335D02*
X124742857Y-139058335D01*
X124742857Y-139058335D02*
X124666666Y-139020240D01*
X124666666Y-139020240D02*
X124628571Y-138982144D01*
X124628571Y-138982144D02*
X124590476Y-138905954D01*
X124590476Y-138905954D02*
X124552380Y-138753573D01*
X124552380Y-138753573D02*
X124552380Y-138563097D01*
X124552380Y-138563097D02*
X124590476Y-138410716D01*
X124590476Y-138410716D02*
X124628571Y-138334525D01*
X124628571Y-138334525D02*
X124666666Y-138296430D01*
X124666666Y-138296430D02*
X124742857Y-138258335D01*
X113485714Y-135808335D02*
X113219047Y-135427382D01*
X113028571Y-135808335D02*
X113028571Y-135008335D01*
X113028571Y-135008335D02*
X113333333Y-135008335D01*
X113333333Y-135008335D02*
X113409523Y-135046430D01*
X113409523Y-135046430D02*
X113447618Y-135084525D01*
X113447618Y-135084525D02*
X113485714Y-135160716D01*
X113485714Y-135160716D02*
X113485714Y-135275001D01*
X113485714Y-135275001D02*
X113447618Y-135351192D01*
X113447618Y-135351192D02*
X113409523Y-135389287D01*
X113409523Y-135389287D02*
X113333333Y-135427382D01*
X113333333Y-135427382D02*
X113028571Y-135427382D01*
X114247618Y-135808335D02*
X113790475Y-135808335D01*
X114019047Y-135808335D02*
X114019047Y-135008335D01*
X114019047Y-135008335D02*
X113942856Y-135122620D01*
X113942856Y-135122620D02*
X113866666Y-135198811D01*
X113866666Y-135198811D02*
X113790475Y-135236906D01*
X114514285Y-135008335D02*
X115047619Y-135008335D01*
X115047619Y-135008335D02*
X114704761Y-135808335D01*
X110436667Y-152444644D02*
X110398571Y-152482740D01*
X110398571Y-152482740D02*
X110284286Y-152520835D01*
X110284286Y-152520835D02*
X110208095Y-152520835D01*
X110208095Y-152520835D02*
X110093809Y-152482740D01*
X110093809Y-152482740D02*
X110017619Y-152406549D01*
X110017619Y-152406549D02*
X109979524Y-152330359D01*
X109979524Y-152330359D02*
X109941428Y-152177978D01*
X109941428Y-152177978D02*
X109941428Y-152063692D01*
X109941428Y-152063692D02*
X109979524Y-151911311D01*
X109979524Y-151911311D02*
X110017619Y-151835120D01*
X110017619Y-151835120D02*
X110093809Y-151758930D01*
X110093809Y-151758930D02*
X110208095Y-151720835D01*
X110208095Y-151720835D02*
X110284286Y-151720835D01*
X110284286Y-151720835D02*
X110398571Y-151758930D01*
X110398571Y-151758930D02*
X110436667Y-151797025D01*
X110703333Y-151720835D02*
X111198571Y-151720835D01*
X111198571Y-151720835D02*
X110931905Y-152025597D01*
X110931905Y-152025597D02*
X111046190Y-152025597D01*
X111046190Y-152025597D02*
X111122381Y-152063692D01*
X111122381Y-152063692D02*
X111160476Y-152101787D01*
X111160476Y-152101787D02*
X111198571Y-152177978D01*
X111198571Y-152177978D02*
X111198571Y-152368454D01*
X111198571Y-152368454D02*
X111160476Y-152444644D01*
X111160476Y-152444644D02*
X111122381Y-152482740D01*
X111122381Y-152482740D02*
X111046190Y-152520835D01*
X111046190Y-152520835D02*
X110817619Y-152520835D01*
X110817619Y-152520835D02*
X110741428Y-152482740D01*
X110741428Y-152482740D02*
X110703333Y-152444644D01*
X151985714Y-141058335D02*
X151719047Y-140677382D01*
X151528571Y-141058335D02*
X151528571Y-140258335D01*
X151528571Y-140258335D02*
X151833333Y-140258335D01*
X151833333Y-140258335D02*
X151909523Y-140296430D01*
X151909523Y-140296430D02*
X151947618Y-140334525D01*
X151947618Y-140334525D02*
X151985714Y-140410716D01*
X151985714Y-140410716D02*
X151985714Y-140525001D01*
X151985714Y-140525001D02*
X151947618Y-140601192D01*
X151947618Y-140601192D02*
X151909523Y-140639287D01*
X151909523Y-140639287D02*
X151833333Y-140677382D01*
X151833333Y-140677382D02*
X151528571Y-140677382D01*
X152747618Y-141058335D02*
X152290475Y-141058335D01*
X152519047Y-141058335D02*
X152519047Y-140258335D01*
X152519047Y-140258335D02*
X152442856Y-140372620D01*
X152442856Y-140372620D02*
X152366666Y-140448811D01*
X152366666Y-140448811D02*
X152290475Y-140486906D01*
X153242857Y-140258335D02*
X153319047Y-140258335D01*
X153319047Y-140258335D02*
X153395238Y-140296430D01*
X153395238Y-140296430D02*
X153433333Y-140334525D01*
X153433333Y-140334525D02*
X153471428Y-140410716D01*
X153471428Y-140410716D02*
X153509523Y-140563097D01*
X153509523Y-140563097D02*
X153509523Y-140753573D01*
X153509523Y-140753573D02*
X153471428Y-140905954D01*
X153471428Y-140905954D02*
X153433333Y-140982144D01*
X153433333Y-140982144D02*
X153395238Y-141020240D01*
X153395238Y-141020240D02*
X153319047Y-141058335D01*
X153319047Y-141058335D02*
X153242857Y-141058335D01*
X153242857Y-141058335D02*
X153166666Y-141020240D01*
X153166666Y-141020240D02*
X153128571Y-140982144D01*
X153128571Y-140982144D02*
X153090476Y-140905954D01*
X153090476Y-140905954D02*
X153052380Y-140753573D01*
X153052380Y-140753573D02*
X153052380Y-140563097D01*
X153052380Y-140563097D02*
X153090476Y-140410716D01*
X153090476Y-140410716D02*
X153128571Y-140334525D01*
X153128571Y-140334525D02*
X153166666Y-140296430D01*
X153166666Y-140296430D02*
X153242857Y-140258335D01*
X123466667Y-148762144D02*
X123428571Y-148800240D01*
X123428571Y-148800240D02*
X123314286Y-148838335D01*
X123314286Y-148838335D02*
X123238095Y-148838335D01*
X123238095Y-148838335D02*
X123123809Y-148800240D01*
X123123809Y-148800240D02*
X123047619Y-148724049D01*
X123047619Y-148724049D02*
X123009524Y-148647859D01*
X123009524Y-148647859D02*
X122971428Y-148495478D01*
X122971428Y-148495478D02*
X122971428Y-148381192D01*
X122971428Y-148381192D02*
X123009524Y-148228811D01*
X123009524Y-148228811D02*
X123047619Y-148152620D01*
X123047619Y-148152620D02*
X123123809Y-148076430D01*
X123123809Y-148076430D02*
X123238095Y-148038335D01*
X123238095Y-148038335D02*
X123314286Y-148038335D01*
X123314286Y-148038335D02*
X123428571Y-148076430D01*
X123428571Y-148076430D02*
X123466667Y-148114525D01*
X124190476Y-148038335D02*
X123809524Y-148038335D01*
X123809524Y-148038335D02*
X123771428Y-148419287D01*
X123771428Y-148419287D02*
X123809524Y-148381192D01*
X123809524Y-148381192D02*
X123885714Y-148343097D01*
X123885714Y-148343097D02*
X124076190Y-148343097D01*
X124076190Y-148343097D02*
X124152381Y-148381192D01*
X124152381Y-148381192D02*
X124190476Y-148419287D01*
X124190476Y-148419287D02*
X124228571Y-148495478D01*
X124228571Y-148495478D02*
X124228571Y-148685954D01*
X124228571Y-148685954D02*
X124190476Y-148762144D01*
X124190476Y-148762144D02*
X124152381Y-148800240D01*
X124152381Y-148800240D02*
X124076190Y-148838335D01*
X124076190Y-148838335D02*
X123885714Y-148838335D01*
X123885714Y-148838335D02*
X123809524Y-148800240D01*
X123809524Y-148800240D02*
X123771428Y-148762144D01*
X149605714Y-147822144D02*
X149567618Y-147860240D01*
X149567618Y-147860240D02*
X149453333Y-147898335D01*
X149453333Y-147898335D02*
X149377142Y-147898335D01*
X149377142Y-147898335D02*
X149262856Y-147860240D01*
X149262856Y-147860240D02*
X149186666Y-147784049D01*
X149186666Y-147784049D02*
X149148571Y-147707859D01*
X149148571Y-147707859D02*
X149110475Y-147555478D01*
X149110475Y-147555478D02*
X149110475Y-147441192D01*
X149110475Y-147441192D02*
X149148571Y-147288811D01*
X149148571Y-147288811D02*
X149186666Y-147212620D01*
X149186666Y-147212620D02*
X149262856Y-147136430D01*
X149262856Y-147136430D02*
X149377142Y-147098335D01*
X149377142Y-147098335D02*
X149453333Y-147098335D01*
X149453333Y-147098335D02*
X149567618Y-147136430D01*
X149567618Y-147136430D02*
X149605714Y-147174525D01*
X150367618Y-147898335D02*
X149910475Y-147898335D01*
X150139047Y-147898335D02*
X150139047Y-147098335D01*
X150139047Y-147098335D02*
X150062856Y-147212620D01*
X150062856Y-147212620D02*
X149986666Y-147288811D01*
X149986666Y-147288811D02*
X149910475Y-147326906D01*
X150824761Y-147441192D02*
X150748571Y-147403097D01*
X150748571Y-147403097D02*
X150710476Y-147365001D01*
X150710476Y-147365001D02*
X150672380Y-147288811D01*
X150672380Y-147288811D02*
X150672380Y-147250716D01*
X150672380Y-147250716D02*
X150710476Y-147174525D01*
X150710476Y-147174525D02*
X150748571Y-147136430D01*
X150748571Y-147136430D02*
X150824761Y-147098335D01*
X150824761Y-147098335D02*
X150977142Y-147098335D01*
X150977142Y-147098335D02*
X151053333Y-147136430D01*
X151053333Y-147136430D02*
X151091428Y-147174525D01*
X151091428Y-147174525D02*
X151129523Y-147250716D01*
X151129523Y-147250716D02*
X151129523Y-147288811D01*
X151129523Y-147288811D02*
X151091428Y-147365001D01*
X151091428Y-147365001D02*
X151053333Y-147403097D01*
X151053333Y-147403097D02*
X150977142Y-147441192D01*
X150977142Y-147441192D02*
X150824761Y-147441192D01*
X150824761Y-147441192D02*
X150748571Y-147479287D01*
X150748571Y-147479287D02*
X150710476Y-147517382D01*
X150710476Y-147517382D02*
X150672380Y-147593573D01*
X150672380Y-147593573D02*
X150672380Y-147745954D01*
X150672380Y-147745954D02*
X150710476Y-147822144D01*
X150710476Y-147822144D02*
X150748571Y-147860240D01*
X150748571Y-147860240D02*
X150824761Y-147898335D01*
X150824761Y-147898335D02*
X150977142Y-147898335D01*
X150977142Y-147898335D02*
X151053333Y-147860240D01*
X151053333Y-147860240D02*
X151091428Y-147822144D01*
X151091428Y-147822144D02*
X151129523Y-147745954D01*
X151129523Y-147745954D02*
X151129523Y-147593573D01*
X151129523Y-147593573D02*
X151091428Y-147517382D01*
X151091428Y-147517382D02*
X151053333Y-147479287D01*
X151053333Y-147479287D02*
X150977142Y-147441192D01*
X159485714Y-121042144D02*
X159447618Y-121080240D01*
X159447618Y-121080240D02*
X159333333Y-121118335D01*
X159333333Y-121118335D02*
X159257142Y-121118335D01*
X159257142Y-121118335D02*
X159142856Y-121080240D01*
X159142856Y-121080240D02*
X159066666Y-121004049D01*
X159066666Y-121004049D02*
X159028571Y-120927859D01*
X159028571Y-120927859D02*
X158990475Y-120775478D01*
X158990475Y-120775478D02*
X158990475Y-120661192D01*
X158990475Y-120661192D02*
X159028571Y-120508811D01*
X159028571Y-120508811D02*
X159066666Y-120432620D01*
X159066666Y-120432620D02*
X159142856Y-120356430D01*
X159142856Y-120356430D02*
X159257142Y-120318335D01*
X159257142Y-120318335D02*
X159333333Y-120318335D01*
X159333333Y-120318335D02*
X159447618Y-120356430D01*
X159447618Y-120356430D02*
X159485714Y-120394525D01*
X160247618Y-121118335D02*
X159790475Y-121118335D01*
X160019047Y-121118335D02*
X160019047Y-120318335D01*
X160019047Y-120318335D02*
X159942856Y-120432620D01*
X159942856Y-120432620D02*
X159866666Y-120508811D01*
X159866666Y-120508811D02*
X159790475Y-120546906D01*
X160514285Y-120318335D02*
X161047619Y-120318335D01*
X161047619Y-120318335D02*
X160704761Y-121118335D01*
X109485714Y-135808335D02*
X109219047Y-135427382D01*
X109028571Y-135808335D02*
X109028571Y-135008335D01*
X109028571Y-135008335D02*
X109333333Y-135008335D01*
X109333333Y-135008335D02*
X109409523Y-135046430D01*
X109409523Y-135046430D02*
X109447618Y-135084525D01*
X109447618Y-135084525D02*
X109485714Y-135160716D01*
X109485714Y-135160716D02*
X109485714Y-135275001D01*
X109485714Y-135275001D02*
X109447618Y-135351192D01*
X109447618Y-135351192D02*
X109409523Y-135389287D01*
X109409523Y-135389287D02*
X109333333Y-135427382D01*
X109333333Y-135427382D02*
X109028571Y-135427382D01*
X110247618Y-135808335D02*
X109790475Y-135808335D01*
X110019047Y-135808335D02*
X110019047Y-135008335D01*
X110019047Y-135008335D02*
X109942856Y-135122620D01*
X109942856Y-135122620D02*
X109866666Y-135198811D01*
X109866666Y-135198811D02*
X109790475Y-135236906D01*
X110933333Y-135008335D02*
X110780952Y-135008335D01*
X110780952Y-135008335D02*
X110704761Y-135046430D01*
X110704761Y-135046430D02*
X110666666Y-135084525D01*
X110666666Y-135084525D02*
X110590476Y-135198811D01*
X110590476Y-135198811D02*
X110552380Y-135351192D01*
X110552380Y-135351192D02*
X110552380Y-135655954D01*
X110552380Y-135655954D02*
X110590476Y-135732144D01*
X110590476Y-135732144D02*
X110628571Y-135770240D01*
X110628571Y-135770240D02*
X110704761Y-135808335D01*
X110704761Y-135808335D02*
X110857142Y-135808335D01*
X110857142Y-135808335D02*
X110933333Y-135770240D01*
X110933333Y-135770240D02*
X110971428Y-135732144D01*
X110971428Y-135732144D02*
X111009523Y-135655954D01*
X111009523Y-135655954D02*
X111009523Y-135465478D01*
X111009523Y-135465478D02*
X110971428Y-135389287D01*
X110971428Y-135389287D02*
X110933333Y-135351192D01*
X110933333Y-135351192D02*
X110857142Y-135313097D01*
X110857142Y-135313097D02*
X110704761Y-135313097D01*
X110704761Y-135313097D02*
X110628571Y-135351192D01*
X110628571Y-135351192D02*
X110590476Y-135389287D01*
X110590476Y-135389287D02*
X110552380Y-135465478D01*
X108906667Y-126428335D02*
X108640000Y-126047382D01*
X108449524Y-126428335D02*
X108449524Y-125628335D01*
X108449524Y-125628335D02*
X108754286Y-125628335D01*
X108754286Y-125628335D02*
X108830476Y-125666430D01*
X108830476Y-125666430D02*
X108868571Y-125704525D01*
X108868571Y-125704525D02*
X108906667Y-125780716D01*
X108906667Y-125780716D02*
X108906667Y-125895001D01*
X108906667Y-125895001D02*
X108868571Y-125971192D01*
X108868571Y-125971192D02*
X108830476Y-126009287D01*
X108830476Y-126009287D02*
X108754286Y-126047382D01*
X108754286Y-126047382D02*
X108449524Y-126047382D01*
X109211428Y-125704525D02*
X109249524Y-125666430D01*
X109249524Y-125666430D02*
X109325714Y-125628335D01*
X109325714Y-125628335D02*
X109516190Y-125628335D01*
X109516190Y-125628335D02*
X109592381Y-125666430D01*
X109592381Y-125666430D02*
X109630476Y-125704525D01*
X109630476Y-125704525D02*
X109668571Y-125780716D01*
X109668571Y-125780716D02*
X109668571Y-125856906D01*
X109668571Y-125856906D02*
X109630476Y-125971192D01*
X109630476Y-125971192D02*
X109173333Y-126428335D01*
X109173333Y-126428335D02*
X109668571Y-126428335D01*
X159460714Y-117202144D02*
X159422618Y-117240240D01*
X159422618Y-117240240D02*
X159308333Y-117278335D01*
X159308333Y-117278335D02*
X159232142Y-117278335D01*
X159232142Y-117278335D02*
X159117856Y-117240240D01*
X159117856Y-117240240D02*
X159041666Y-117164049D01*
X159041666Y-117164049D02*
X159003571Y-117087859D01*
X159003571Y-117087859D02*
X158965475Y-116935478D01*
X158965475Y-116935478D02*
X158965475Y-116821192D01*
X158965475Y-116821192D02*
X159003571Y-116668811D01*
X159003571Y-116668811D02*
X159041666Y-116592620D01*
X159041666Y-116592620D02*
X159117856Y-116516430D01*
X159117856Y-116516430D02*
X159232142Y-116478335D01*
X159232142Y-116478335D02*
X159308333Y-116478335D01*
X159308333Y-116478335D02*
X159422618Y-116516430D01*
X159422618Y-116516430D02*
X159460714Y-116554525D01*
X160222618Y-117278335D02*
X159765475Y-117278335D01*
X159994047Y-117278335D02*
X159994047Y-116478335D01*
X159994047Y-116478335D02*
X159917856Y-116592620D01*
X159917856Y-116592620D02*
X159841666Y-116668811D01*
X159841666Y-116668811D02*
X159765475Y-116706906D01*
X160908333Y-116478335D02*
X160755952Y-116478335D01*
X160755952Y-116478335D02*
X160679761Y-116516430D01*
X160679761Y-116516430D02*
X160641666Y-116554525D01*
X160641666Y-116554525D02*
X160565476Y-116668811D01*
X160565476Y-116668811D02*
X160527380Y-116821192D01*
X160527380Y-116821192D02*
X160527380Y-117125954D01*
X160527380Y-117125954D02*
X160565476Y-117202144D01*
X160565476Y-117202144D02*
X160603571Y-117240240D01*
X160603571Y-117240240D02*
X160679761Y-117278335D01*
X160679761Y-117278335D02*
X160832142Y-117278335D01*
X160832142Y-117278335D02*
X160908333Y-117240240D01*
X160908333Y-117240240D02*
X160946428Y-117202144D01*
X160946428Y-117202144D02*
X160984523Y-117125954D01*
X160984523Y-117125954D02*
X160984523Y-116935478D01*
X160984523Y-116935478D02*
X160946428Y-116859287D01*
X160946428Y-116859287D02*
X160908333Y-116821192D01*
X160908333Y-116821192D02*
X160832142Y-116783097D01*
X160832142Y-116783097D02*
X160679761Y-116783097D01*
X160679761Y-116783097D02*
X160603571Y-116821192D01*
X160603571Y-116821192D02*
X160565476Y-116859287D01*
X160565476Y-116859287D02*
X160527380Y-116935478D01*
X121866667Y-152982144D02*
X121828571Y-153020240D01*
X121828571Y-153020240D02*
X121714286Y-153058335D01*
X121714286Y-153058335D02*
X121638095Y-153058335D01*
X121638095Y-153058335D02*
X121523809Y-153020240D01*
X121523809Y-153020240D02*
X121447619Y-152944049D01*
X121447619Y-152944049D02*
X121409524Y-152867859D01*
X121409524Y-152867859D02*
X121371428Y-152715478D01*
X121371428Y-152715478D02*
X121371428Y-152601192D01*
X121371428Y-152601192D02*
X121409524Y-152448811D01*
X121409524Y-152448811D02*
X121447619Y-152372620D01*
X121447619Y-152372620D02*
X121523809Y-152296430D01*
X121523809Y-152296430D02*
X121638095Y-152258335D01*
X121638095Y-152258335D02*
X121714286Y-152258335D01*
X121714286Y-152258335D02*
X121828571Y-152296430D01*
X121828571Y-152296430D02*
X121866667Y-152334525D01*
X122552381Y-152258335D02*
X122400000Y-152258335D01*
X122400000Y-152258335D02*
X122323809Y-152296430D01*
X122323809Y-152296430D02*
X122285714Y-152334525D01*
X122285714Y-152334525D02*
X122209524Y-152448811D01*
X122209524Y-152448811D02*
X122171428Y-152601192D01*
X122171428Y-152601192D02*
X122171428Y-152905954D01*
X122171428Y-152905954D02*
X122209524Y-152982144D01*
X122209524Y-152982144D02*
X122247619Y-153020240D01*
X122247619Y-153020240D02*
X122323809Y-153058335D01*
X122323809Y-153058335D02*
X122476190Y-153058335D01*
X122476190Y-153058335D02*
X122552381Y-153020240D01*
X122552381Y-153020240D02*
X122590476Y-152982144D01*
X122590476Y-152982144D02*
X122628571Y-152905954D01*
X122628571Y-152905954D02*
X122628571Y-152715478D01*
X122628571Y-152715478D02*
X122590476Y-152639287D01*
X122590476Y-152639287D02*
X122552381Y-152601192D01*
X122552381Y-152601192D02*
X122476190Y-152563097D01*
X122476190Y-152563097D02*
X122323809Y-152563097D01*
X122323809Y-152563097D02*
X122247619Y-152601192D01*
X122247619Y-152601192D02*
X122209524Y-152639287D01*
X122209524Y-152639287D02*
X122171428Y-152715478D01*
X111390476Y-129863335D02*
X111390476Y-130510954D01*
X111390476Y-130510954D02*
X111428571Y-130587144D01*
X111428571Y-130587144D02*
X111466666Y-130625240D01*
X111466666Y-130625240D02*
X111542857Y-130663335D01*
X111542857Y-130663335D02*
X111695238Y-130663335D01*
X111695238Y-130663335D02*
X111771428Y-130625240D01*
X111771428Y-130625240D02*
X111809523Y-130587144D01*
X111809523Y-130587144D02*
X111847619Y-130510954D01*
X111847619Y-130510954D02*
X111847619Y-129863335D01*
X112342856Y-130206192D02*
X112266666Y-130168097D01*
X112266666Y-130168097D02*
X112228571Y-130130001D01*
X112228571Y-130130001D02*
X112190475Y-130053811D01*
X112190475Y-130053811D02*
X112190475Y-130015716D01*
X112190475Y-130015716D02*
X112228571Y-129939525D01*
X112228571Y-129939525D02*
X112266666Y-129901430D01*
X112266666Y-129901430D02*
X112342856Y-129863335D01*
X112342856Y-129863335D02*
X112495237Y-129863335D01*
X112495237Y-129863335D02*
X112571428Y-129901430D01*
X112571428Y-129901430D02*
X112609523Y-129939525D01*
X112609523Y-129939525D02*
X112647618Y-130015716D01*
X112647618Y-130015716D02*
X112647618Y-130053811D01*
X112647618Y-130053811D02*
X112609523Y-130130001D01*
X112609523Y-130130001D02*
X112571428Y-130168097D01*
X112571428Y-130168097D02*
X112495237Y-130206192D01*
X112495237Y-130206192D02*
X112342856Y-130206192D01*
X112342856Y-130206192D02*
X112266666Y-130244287D01*
X112266666Y-130244287D02*
X112228571Y-130282382D01*
X112228571Y-130282382D02*
X112190475Y-130358573D01*
X112190475Y-130358573D02*
X112190475Y-130510954D01*
X112190475Y-130510954D02*
X112228571Y-130587144D01*
X112228571Y-130587144D02*
X112266666Y-130625240D01*
X112266666Y-130625240D02*
X112342856Y-130663335D01*
X112342856Y-130663335D02*
X112495237Y-130663335D01*
X112495237Y-130663335D02*
X112571428Y-130625240D01*
X112571428Y-130625240D02*
X112609523Y-130587144D01*
X112609523Y-130587144D02*
X112647618Y-130510954D01*
X112647618Y-130510954D02*
X112647618Y-130358573D01*
X112647618Y-130358573D02*
X112609523Y-130282382D01*
X112609523Y-130282382D02*
X112571428Y-130244287D01*
X112571428Y-130244287D02*
X112495237Y-130206192D01*
X129390476Y-134513335D02*
X129390476Y-135160954D01*
X129390476Y-135160954D02*
X129428571Y-135237144D01*
X129428571Y-135237144D02*
X129466666Y-135275240D01*
X129466666Y-135275240D02*
X129542857Y-135313335D01*
X129542857Y-135313335D02*
X129695238Y-135313335D01*
X129695238Y-135313335D02*
X129771428Y-135275240D01*
X129771428Y-135275240D02*
X129809523Y-135237144D01*
X129809523Y-135237144D02*
X129847619Y-135160954D01*
X129847619Y-135160954D02*
X129847619Y-134513335D01*
X130190475Y-134589525D02*
X130228571Y-134551430D01*
X130228571Y-134551430D02*
X130304761Y-134513335D01*
X130304761Y-134513335D02*
X130495237Y-134513335D01*
X130495237Y-134513335D02*
X130571428Y-134551430D01*
X130571428Y-134551430D02*
X130609523Y-134589525D01*
X130609523Y-134589525D02*
X130647618Y-134665716D01*
X130647618Y-134665716D02*
X130647618Y-134741906D01*
X130647618Y-134741906D02*
X130609523Y-134856192D01*
X130609523Y-134856192D02*
X130152380Y-135313335D01*
X130152380Y-135313335D02*
X130647618Y-135313335D01*
X100866667Y-145762144D02*
X100828571Y-145800240D01*
X100828571Y-145800240D02*
X100714286Y-145838335D01*
X100714286Y-145838335D02*
X100638095Y-145838335D01*
X100638095Y-145838335D02*
X100523809Y-145800240D01*
X100523809Y-145800240D02*
X100447619Y-145724049D01*
X100447619Y-145724049D02*
X100409524Y-145647859D01*
X100409524Y-145647859D02*
X100371428Y-145495478D01*
X100371428Y-145495478D02*
X100371428Y-145381192D01*
X100371428Y-145381192D02*
X100409524Y-145228811D01*
X100409524Y-145228811D02*
X100447619Y-145152620D01*
X100447619Y-145152620D02*
X100523809Y-145076430D01*
X100523809Y-145076430D02*
X100638095Y-145038335D01*
X100638095Y-145038335D02*
X100714286Y-145038335D01*
X100714286Y-145038335D02*
X100828571Y-145076430D01*
X100828571Y-145076430D02*
X100866667Y-145114525D01*
X101628571Y-145838335D02*
X101171428Y-145838335D01*
X101400000Y-145838335D02*
X101400000Y-145038335D01*
X101400000Y-145038335D02*
X101323809Y-145152620D01*
X101323809Y-145152620D02*
X101247619Y-145228811D01*
X101247619Y-145228811D02*
X101171428Y-145266906D01*
X129733333Y-152038335D02*
X129733333Y-152609763D01*
X129733333Y-152609763D02*
X129695238Y-152724049D01*
X129695238Y-152724049D02*
X129619047Y-152800240D01*
X129619047Y-152800240D02*
X129504762Y-152838335D01*
X129504762Y-152838335D02*
X129428571Y-152838335D01*
X130495238Y-152038335D02*
X130114286Y-152038335D01*
X130114286Y-152038335D02*
X130076190Y-152419287D01*
X130076190Y-152419287D02*
X130114286Y-152381192D01*
X130114286Y-152381192D02*
X130190476Y-152343097D01*
X130190476Y-152343097D02*
X130380952Y-152343097D01*
X130380952Y-152343097D02*
X130457143Y-152381192D01*
X130457143Y-152381192D02*
X130495238Y-152419287D01*
X130495238Y-152419287D02*
X130533333Y-152495478D01*
X130533333Y-152495478D02*
X130533333Y-152685954D01*
X130533333Y-152685954D02*
X130495238Y-152762144D01*
X130495238Y-152762144D02*
X130457143Y-152800240D01*
X130457143Y-152800240D02*
X130380952Y-152838335D01*
X130380952Y-152838335D02*
X130190476Y-152838335D01*
X130190476Y-152838335D02*
X130114286Y-152800240D01*
X130114286Y-152800240D02*
X130076190Y-152762144D01*
X139485714Y-138762144D02*
X139447618Y-138800240D01*
X139447618Y-138800240D02*
X139333333Y-138838335D01*
X139333333Y-138838335D02*
X139257142Y-138838335D01*
X139257142Y-138838335D02*
X139142856Y-138800240D01*
X139142856Y-138800240D02*
X139066666Y-138724049D01*
X139066666Y-138724049D02*
X139028571Y-138647859D01*
X139028571Y-138647859D02*
X138990475Y-138495478D01*
X138990475Y-138495478D02*
X138990475Y-138381192D01*
X138990475Y-138381192D02*
X139028571Y-138228811D01*
X139028571Y-138228811D02*
X139066666Y-138152620D01*
X139066666Y-138152620D02*
X139142856Y-138076430D01*
X139142856Y-138076430D02*
X139257142Y-138038335D01*
X139257142Y-138038335D02*
X139333333Y-138038335D01*
X139333333Y-138038335D02*
X139447618Y-138076430D01*
X139447618Y-138076430D02*
X139485714Y-138114525D01*
X140247618Y-138838335D02*
X139790475Y-138838335D01*
X140019047Y-138838335D02*
X140019047Y-138038335D01*
X140019047Y-138038335D02*
X139942856Y-138152620D01*
X139942856Y-138152620D02*
X139866666Y-138228811D01*
X139866666Y-138228811D02*
X139790475Y-138266906D01*
X140971428Y-138038335D02*
X140590476Y-138038335D01*
X140590476Y-138038335D02*
X140552380Y-138419287D01*
X140552380Y-138419287D02*
X140590476Y-138381192D01*
X140590476Y-138381192D02*
X140666666Y-138343097D01*
X140666666Y-138343097D02*
X140857142Y-138343097D01*
X140857142Y-138343097D02*
X140933333Y-138381192D01*
X140933333Y-138381192D02*
X140971428Y-138419287D01*
X140971428Y-138419287D02*
X141009523Y-138495478D01*
X141009523Y-138495478D02*
X141009523Y-138685954D01*
X141009523Y-138685954D02*
X140971428Y-138762144D01*
X140971428Y-138762144D02*
X140933333Y-138800240D01*
X140933333Y-138800240D02*
X140857142Y-138838335D01*
X140857142Y-138838335D02*
X140666666Y-138838335D01*
X140666666Y-138838335D02*
X140590476Y-138800240D01*
X140590476Y-138800240D02*
X140552380Y-138762144D01*
%TO.C,D5*%
D11*
X129515000Y-131265000D02*
X129515000Y-132735000D01*
X129515000Y-132735000D02*
X131800000Y-132735000D01*
X131800000Y-131265000D02*
X129515000Y-131265000D01*
%TO.C,R14*%
X151977500Y-146737258D02*
X151977500Y-146262742D01*
X153022500Y-146737258D02*
X153022500Y-146262742D01*
%TO.C,SW2*%
X98970000Y-114270000D02*
X99000000Y-114270000D01*
X98970000Y-120730000D02*
X98970000Y-114270000D01*
X99000000Y-120730000D02*
X98970000Y-120730000D01*
X100900000Y-114270000D02*
X103500000Y-114270000D01*
X100900000Y-120730000D02*
X103500000Y-120730000D01*
X105430000Y-114270000D02*
X105400000Y-114270000D01*
X105430000Y-120730000D02*
X105400000Y-120730000D01*
X105430000Y-120730000D02*
X105430000Y-114270000D01*
%TO.C,J1*%
X98700000Y-125300000D02*
X98700000Y-134700000D01*
X100600000Y-125300000D02*
X98700000Y-125300000D01*
X100600000Y-134700000D02*
X98700000Y-134700000D01*
X104500000Y-125300000D02*
X102500000Y-125300000D01*
X104500000Y-134700000D02*
X102500000Y-134700000D01*
%TO.C,D6*%
X133515000Y-131265000D02*
X133515000Y-132735000D01*
X133515000Y-132735000D02*
X135800000Y-132735000D01*
X135800000Y-131265000D02*
X133515000Y-131265000D01*
%TO.C,D3*%
X137515000Y-128265000D02*
X137515000Y-129735000D01*
X137515000Y-129735000D02*
X139800000Y-129735000D01*
X139800000Y-128265000D02*
X137515000Y-128265000D01*
%TO.C,U7*%
X117090000Y-153440000D02*
X118910000Y-153440000D01*
X117090000Y-153490000D02*
X117090000Y-153440000D01*
X117090000Y-156560000D02*
X117090000Y-156510000D01*
X118910000Y-153440000D02*
X118910000Y-153490000D01*
X118910000Y-154610000D02*
X118910000Y-155390000D01*
X118910000Y-156510000D02*
X118910000Y-156560000D01*
X118910000Y-156560000D02*
X117090000Y-156560000D01*
X116550000Y-153490000D02*
X116310000Y-153160000D01*
X116790000Y-153160000D01*
X116550000Y-153490000D01*
G36*
X116550000Y-153490000D02*
G01*
X116310000Y-153160000D01*
X116790000Y-153160000D01*
X116550000Y-153490000D01*
G37*
%TO.C,R15*%
X156477500Y-103737258D02*
X156477500Y-103262742D01*
X157522500Y-103737258D02*
X157522500Y-103262742D01*
%TO.C,R8*%
X119477500Y-140237258D02*
X119477500Y-139762742D01*
X120522500Y-140237258D02*
X120522500Y-139762742D01*
%TO.C,C14*%
X136940000Y-141140580D02*
X136940000Y-140859420D01*
X137960000Y-141140580D02*
X137960000Y-140859420D01*
%TO.C,J4*%
X154640000Y-119600000D02*
X154640000Y-120240000D01*
X154640000Y-120240000D02*
X154010000Y-120240000D01*
X154640000Y-122400000D02*
X154640000Y-121760000D01*
X157360000Y-119650000D02*
X157360000Y-122350000D01*
%TO.C,C11*%
X135040000Y-141140580D02*
X135040000Y-140859420D01*
X136060000Y-141140580D02*
X136060000Y-140859420D01*
%TO.C,D1*%
X100130000Y-145510000D02*
X100130000Y-140000000D01*
X100130000Y-145510000D02*
X103430000Y-145510000D01*
X103430000Y-145510000D02*
X103430000Y-140000000D01*
%TO.C,U5*%
X150540000Y-106840000D02*
X150540000Y-106990000D01*
X150540000Y-106840000D02*
X160460000Y-106840000D01*
X150540000Y-117010000D02*
X150540000Y-117160000D01*
X150540000Y-117160000D02*
X160460000Y-117160000D01*
X160460000Y-106840000D02*
X160460000Y-106990000D01*
X160460000Y-117010000D02*
X160460000Y-117160000D01*
X150070000Y-106990000D02*
X149830000Y-106660000D01*
X150310000Y-106660000D01*
X150070000Y-106990000D01*
G36*
X150070000Y-106990000D02*
G01*
X149830000Y-106660000D01*
X150310000Y-106660000D01*
X150070000Y-106990000D01*
G37*
%TO.C,R9*%
X149477500Y-143237258D02*
X149477500Y-142762742D01*
X150522500Y-143237258D02*
X150522500Y-142762742D01*
%TO.C,R1*%
X138762742Y-131477500D02*
X139237258Y-131477500D01*
X138762742Y-132522500D02*
X139237258Y-132522500D01*
%TO.C,R4*%
X126762742Y-128477500D02*
X127237258Y-128477500D01*
X126762742Y-129522500D02*
X127237258Y-129522500D01*
%TO.C,SW1*%
X98970000Y-103270000D02*
X99000000Y-103270000D01*
X98970000Y-109730000D02*
X98970000Y-103270000D01*
X99000000Y-109730000D02*
X98970000Y-109730000D01*
X100900000Y-103270000D02*
X103500000Y-103270000D01*
X100900000Y-109730000D02*
X103500000Y-109730000D01*
X105430000Y-103270000D02*
X105400000Y-103270000D01*
X105430000Y-109730000D02*
X105400000Y-109730000D01*
X105430000Y-109730000D02*
X105430000Y-103270000D01*
%TO.C,C7*%
X111490000Y-128510580D02*
X111490000Y-128229420D01*
X112510000Y-128510580D02*
X112510000Y-128229420D01*
%TO.C,R12*%
X156977500Y-143237258D02*
X156977500Y-142762742D01*
X158022500Y-143237258D02*
X158022500Y-142762742D01*
%TO.C,D2*%
X104070000Y-145510000D02*
X104070000Y-140000000D01*
X104070000Y-145510000D02*
X107370000Y-145510000D01*
X107370000Y-145510000D02*
X107370000Y-140000000D01*
%TO.C,R6*%
X134762742Y-128477500D02*
X135237258Y-128477500D01*
X134762742Y-129522500D02*
X135237258Y-129522500D01*
%TO.C,U3*%
X128900000Y-147900000D02*
X128900000Y-147900000D01*
X128900000Y-148400000D02*
X128900000Y-148100000D01*
X128900000Y-149600000D02*
X128900000Y-149600000D01*
X128900000Y-150100000D02*
X128900000Y-149600000D01*
X129400000Y-147900000D02*
X129100000Y-147900000D01*
X129400000Y-150100000D02*
X128900000Y-150100000D01*
X130600000Y-147900000D02*
X131100000Y-147900000D01*
X130600000Y-150100000D02*
X130600000Y-150100000D01*
X131100000Y-147900000D02*
X131100000Y-148400000D01*
X131100000Y-148400000D02*
X131100000Y-148400000D01*
X131100000Y-149600000D02*
X131100000Y-150100000D01*
X131100000Y-150100000D02*
X130600000Y-150100000D01*
X128900000Y-147900000D02*
X128540000Y-147900000D01*
X128900000Y-147540000D01*
X128900000Y-147900000D01*
G36*
X128900000Y-147900000D02*
G01*
X128540000Y-147900000D01*
X128900000Y-147540000D01*
X128900000Y-147900000D01*
G37*
%TO.C,R13*%
X149477500Y-146677258D02*
X149477500Y-146202742D01*
X150522500Y-146677258D02*
X150522500Y-146202742D01*
%TO.C,R5*%
X130762742Y-128477500D02*
X131237258Y-128477500D01*
X130762742Y-129522500D02*
X131237258Y-129522500D01*
%TO.C,J3*%
X143115000Y-126005000D02*
X157125000Y-126005000D01*
X143115000Y-127925000D02*
X143115000Y-126005000D01*
X143115000Y-139525000D02*
X143115000Y-139975000D01*
X143115000Y-139975000D02*
X146725000Y-139975000D01*
X148425000Y-139975000D02*
X153125000Y-139975000D01*
X154425000Y-139975000D02*
X156225000Y-139975000D01*
X159035000Y-136875000D02*
X159035000Y-130505000D01*
X159035000Y-136875000D02*
X159185000Y-136875000D01*
X159185000Y-127485000D02*
X159185000Y-127225000D01*
X159385000Y-127685000D02*
X159185000Y-127485000D01*
X159385000Y-127685000D02*
X159385000Y-129995000D01*
X159385000Y-129995000D02*
X159035000Y-130505000D01*
X159385000Y-137085000D02*
X159185000Y-136875000D01*
X159385000Y-138945000D02*
X159185000Y-139145000D01*
X159385000Y-138945000D02*
X159385000Y-137085000D01*
%TO.C,U1*%
X120800000Y-100100000D02*
X120800000Y-106300000D01*
X120800000Y-100100000D02*
X139200000Y-100100000D01*
X120800000Y-124950000D02*
X120800000Y-125950000D01*
X120800000Y-125950000D02*
X122300000Y-125950000D01*
X139200000Y-100100000D02*
X139200000Y-106300000D01*
X139200000Y-125950000D02*
X137700000Y-125950000D01*
X139200000Y-125950000D02*
X139200000Y-124950000D01*
X120800000Y-106975000D02*
X120300000Y-106975000D01*
X120800000Y-106475000D01*
X120800000Y-106975000D01*
G36*
X120800000Y-106975000D02*
G01*
X120300000Y-106975000D01*
X120800000Y-106475000D01*
X120800000Y-106975000D01*
G37*
%TO.C,C13*%
X133490000Y-151520580D02*
X133490000Y-151239420D01*
X134510000Y-151520580D02*
X134510000Y-151239420D01*
%TO.C,R3*%
X114477500Y-128607258D02*
X114477500Y-128132742D01*
X115522500Y-128607258D02*
X115522500Y-128132742D01*
%TO.C,J2*%
X155290000Y-146515000D02*
X155290000Y-148315000D01*
X155290000Y-155685000D02*
X154300000Y-155685000D01*
X155290000Y-157485000D02*
X155290000Y-155685000D01*
X156740000Y-146515000D02*
X155290000Y-146515000D01*
X156740000Y-157485000D02*
X155290000Y-157485000D01*
X159560000Y-156215000D02*
X159560000Y-147785000D01*
%TO.C,R11*%
X154477500Y-143237258D02*
X154477500Y-142762742D01*
X155522500Y-143237258D02*
X155522500Y-142762742D01*
%TO.C,C9*%
X122490000Y-128510580D02*
X122490000Y-128229420D01*
X123510000Y-128510580D02*
X123510000Y-128229420D01*
%TO.C,D4*%
X125515000Y-131265000D02*
X125515000Y-132735000D01*
X125515000Y-132735000D02*
X127800000Y-132735000D01*
X127800000Y-131265000D02*
X125515000Y-131265000D01*
%TO.C,C2*%
X110085000Y-151103752D02*
X110085000Y-150581248D01*
X111555000Y-151103752D02*
X111555000Y-150581248D01*
%TO.C,C4*%
X113490000Y-151140580D02*
X113490000Y-150859420D01*
X114510000Y-151140580D02*
X114510000Y-150859420D01*
%TO.C,C12*%
X125490000Y-151520580D02*
X125490000Y-151239420D01*
X126510000Y-151520580D02*
X126510000Y-151239420D01*
%TO.C,C8*%
X119265000Y-128851252D02*
X119265000Y-128328748D01*
X120735000Y-128851252D02*
X120735000Y-128328748D01*
%TO.C,U6*%
X103150000Y-150590000D02*
X106910000Y-150590000D01*
X103150000Y-157410000D02*
X106910000Y-157410000D01*
X106910000Y-150590000D02*
X106910000Y-151850000D01*
X106910000Y-157410000D02*
X106910000Y-156150000D01*
X101870000Y-150690000D02*
X101630000Y-150360000D01*
X102110000Y-150360000D01*
X101870000Y-150690000D01*
G36*
X101870000Y-150690000D02*
G01*
X101630000Y-150360000D01*
X102110000Y-150360000D01*
X101870000Y-150690000D01*
G37*
%TO.C,U4*%
D12*
X138650000Y-136540000D02*
X138650000Y-136100000D01*
X138650000Y-138100000D02*
X138650000Y-137460000D01*
X138650000Y-138100000D02*
X138800000Y-138100000D01*
X141075000Y-138075000D02*
X141225000Y-138075000D01*
X141200000Y-135900000D02*
X141350000Y-135900000D01*
X141350000Y-136540000D02*
X141350000Y-135900000D01*
X141350000Y-138100000D02*
X141350000Y-137460000D01*
X138650000Y-135900000D02*
X138290000Y-135900000D01*
X138650000Y-135540000D01*
X138650000Y-135900000D01*
G36*
X138650000Y-135900000D02*
G01*
X138290000Y-135900000D01*
X138650000Y-135540000D01*
X138650000Y-135900000D01*
G37*
%TO.C,R7*%
D11*
X116477500Y-140114758D02*
X116477500Y-139640242D01*
X117522500Y-140114758D02*
X117522500Y-139640242D01*
%TO.C,C10*%
X123490000Y-141140580D02*
X123490000Y-140859420D01*
X124510000Y-141140580D02*
X124510000Y-140859420D01*
%TO.C,R17*%
X113762742Y-136477500D02*
X114237258Y-136477500D01*
X113762742Y-137522500D02*
X114237258Y-137522500D01*
%TO.C,C3*%
X110060000Y-154603080D02*
X110060000Y-154321920D01*
X111080000Y-154603080D02*
X111080000Y-154321920D01*
%TO.C,R10*%
X151977500Y-143237258D02*
X151977500Y-142762742D01*
X153022500Y-143237258D02*
X153022500Y-142762742D01*
%TO.C,C5*%
X122865000Y-151261252D02*
X122865000Y-150738748D01*
X124335000Y-151261252D02*
X124335000Y-150738748D01*
%TO.C,C18*%
X149385000Y-150321252D02*
X149385000Y-149798748D01*
X150855000Y-150321252D02*
X150855000Y-149798748D01*
%TO.C,C17*%
X159490000Y-123200580D02*
X159490000Y-122919420D01*
X160510000Y-123200580D02*
X160510000Y-122919420D01*
%TO.C,R16*%
X109762742Y-136477500D02*
X110237258Y-136477500D01*
X109762742Y-137522500D02*
X110237258Y-137522500D01*
%TO.C,R2*%
X108517500Y-128607258D02*
X108517500Y-128132742D01*
X109562500Y-128607258D02*
X109562500Y-128132742D01*
%TO.C,C16*%
X159240000Y-119701252D02*
X159240000Y-119178748D01*
X160710000Y-119701252D02*
X160710000Y-119178748D01*
%TO.C,C6*%
X121490000Y-155140580D02*
X121490000Y-154859420D01*
X122510000Y-155140580D02*
X122510000Y-154859420D01*
%TO.C,U8*%
X111090000Y-131440000D02*
X112910000Y-131440000D01*
X111090000Y-131490000D02*
X111090000Y-131440000D01*
X111090000Y-134560000D02*
X111090000Y-134510000D01*
X112910000Y-131440000D02*
X112910000Y-131490000D01*
X112910000Y-134510000D02*
X112910000Y-134560000D01*
X112910000Y-134560000D02*
X111090000Y-134560000D01*
X110550000Y-131490000D02*
X110310000Y-131160000D01*
X110790000Y-131160000D01*
X110550000Y-131490000D01*
G36*
X110550000Y-131490000D02*
G01*
X110310000Y-131160000D01*
X110790000Y-131160000D01*
X110550000Y-131490000D01*
G37*
%TO.C,U2*%
X127640000Y-136390000D02*
X128115000Y-136390000D01*
X127640000Y-137615000D02*
X127640000Y-136390000D01*
X127640000Y-139610000D02*
X127640000Y-138385000D01*
X128115000Y-139610000D02*
X127640000Y-139610000D01*
X131885000Y-136390000D02*
X132360000Y-136390000D01*
X132360000Y-136390000D02*
X132360000Y-137615000D01*
X132360000Y-138385000D02*
X132360000Y-139610000D01*
X132360000Y-139610000D02*
X131885000Y-139610000D01*
X128500000Y-136140000D02*
X128260000Y-135810000D01*
X128740000Y-135810000D01*
X128500000Y-136140000D01*
G36*
X128500000Y-136140000D02*
G01*
X128260000Y-135810000D01*
X128740000Y-135810000D01*
X128500000Y-136140000D01*
G37*
%TO.C,C1*%
X100265000Y-148261252D02*
X100265000Y-147738748D01*
X101735000Y-148261252D02*
X101735000Y-147738748D01*
%TO.C,J5*%
X124515000Y-154790000D02*
X126315000Y-154790000D01*
X124515000Y-156240000D02*
X124515000Y-154790000D01*
X125785000Y-159060000D02*
X134215000Y-159060000D01*
X126315000Y-154790000D02*
X126315000Y-153800000D01*
X135485000Y-154790000D02*
X133685000Y-154790000D01*
X135485000Y-156240000D02*
X135485000Y-154790000D01*
%TO.C,C15*%
X139265000Y-141261252D02*
X139265000Y-140738748D01*
X140735000Y-141261252D02*
X140735000Y-140738748D01*
%TD*%
%LPC*%
%TO.C,J4*%
G36*
X155010000Y-120060000D02*
G01*
X157100000Y-120060000D01*
X157100000Y-121940000D01*
X155010000Y-121940000D01*
X155010000Y-120060000D01*
G37*
%TD*%
D13*
%TO.C,D5*%
X130212500Y-132000000D03*
X131787500Y-132000000D03*
%TD*%
D14*
%TO.C,R14*%
X152500000Y-147325000D03*
X152500000Y-145675000D03*
%TD*%
D15*
%TO.C,SW2*%
X99950000Y-121480000D03*
X99950000Y-113520000D03*
X104450000Y-121480000D03*
X104450000Y-113520000D03*
%TD*%
D16*
%TO.C,J1*%
X105200000Y-127110000D03*
X105200000Y-132890000D03*
D17*
X106645000Y-126750000D03*
X106645000Y-127550000D03*
D18*
X106645000Y-128750000D03*
X106645000Y-129750000D03*
X106645000Y-130250000D03*
X106645000Y-131250000D03*
D17*
X106645000Y-132450000D03*
X106645000Y-133250000D03*
X106645000Y-133250000D03*
X106645000Y-132450000D03*
D18*
X106645000Y-131750000D03*
X106645000Y-130750000D03*
X106645000Y-129250000D03*
X106645000Y-128250000D03*
D17*
X106645000Y-127550000D03*
X106645000Y-126750000D03*
D19*
X105730000Y-125680000D03*
D20*
X101550000Y-125680000D03*
D19*
X105730000Y-134320000D03*
D20*
X101550000Y-134320000D03*
%TD*%
D13*
%TO.C,D6*%
X134212500Y-132000000D03*
X135787500Y-132000000D03*
%TD*%
%TO.C,D3*%
X138212500Y-129000000D03*
X139787500Y-129000000D03*
%TD*%
D21*
%TO.C,U7*%
X116862500Y-154050000D03*
X116862500Y-155000000D03*
X116862500Y-155950000D03*
X119137500Y-155950000D03*
X119137500Y-154050000D03*
%TD*%
D14*
%TO.C,R15*%
X157000000Y-104325000D03*
X157000000Y-102675000D03*
%TD*%
%TO.C,R8*%
X120000000Y-140825000D03*
X120000000Y-139175000D03*
%TD*%
D22*
%TO.C,C14*%
X137450000Y-141775000D03*
X137450000Y-140225000D03*
%TD*%
D23*
%TO.C,H3*%
X114750000Y-145250000D03*
%TD*%
D24*
%TO.C,J4*%
X154475000Y-121000000D03*
D25*
X156000000Y-119525000D03*
X156000000Y-122475000D03*
%TD*%
D22*
%TO.C,C11*%
X135550000Y-141775000D03*
X135550000Y-140225000D03*
%TD*%
D26*
%TO.C,D1*%
X101780000Y-144000000D03*
X101780000Y-140000000D03*
%TD*%
D27*
%TO.C,U5*%
X150750000Y-107600000D03*
D28*
X150750000Y-108700000D03*
X150750000Y-109800000D03*
X150750000Y-110900000D03*
X150750000Y-112000000D03*
X150750000Y-113100000D03*
X150750000Y-114200000D03*
X150750000Y-115300000D03*
D27*
X150750000Y-116400000D03*
X160250000Y-116400000D03*
D28*
X160250000Y-115300000D03*
X160250000Y-114200000D03*
X160250000Y-113100000D03*
X160250000Y-112000000D03*
X160250000Y-110900000D03*
X160250000Y-109800000D03*
X160250000Y-108700000D03*
D27*
X160250000Y-107600000D03*
%TD*%
D14*
%TO.C,R9*%
X150000000Y-143825000D03*
X150000000Y-142175000D03*
%TD*%
D29*
%TO.C,R1*%
X138175000Y-132000000D03*
X139825000Y-132000000D03*
%TD*%
%TO.C,R4*%
X126175000Y-129000000D03*
X127825000Y-129000000D03*
%TD*%
D15*
%TO.C,SW1*%
X99950000Y-110480000D03*
X99950000Y-102520000D03*
X104450000Y-110480000D03*
X104450000Y-102520000D03*
%TD*%
D22*
%TO.C,C7*%
X112000000Y-129145000D03*
X112000000Y-127595000D03*
%TD*%
D14*
%TO.C,R12*%
X157500000Y-143825000D03*
X157500000Y-142175000D03*
%TD*%
D26*
%TO.C,D2*%
X105720000Y-144000000D03*
X105720000Y-140000000D03*
%TD*%
D29*
%TO.C,R6*%
X134175000Y-129000000D03*
X135825000Y-129000000D03*
%TD*%
D30*
%TO.C,U3*%
X129237500Y-148250000D03*
X129237500Y-148750000D03*
X129237500Y-149250000D03*
X129237500Y-149750000D03*
D31*
X129750000Y-149762500D03*
X130250000Y-149762500D03*
D30*
X130762500Y-149750000D03*
X130762500Y-149250000D03*
X130762500Y-148750000D03*
X130762500Y-148250000D03*
D31*
X130250000Y-148237500D03*
X129750000Y-148237500D03*
%TD*%
D14*
%TO.C,R13*%
X150000000Y-147265000D03*
X150000000Y-145615000D03*
%TD*%
D29*
%TO.C,R5*%
X130175000Y-129000000D03*
X131825000Y-129000000D03*
%TD*%
D32*
%TO.C,J3*%
X143275000Y-130225000D03*
X143275000Y-131325000D03*
X143275000Y-132425000D03*
X143275000Y-133525000D03*
X143275000Y-134625000D03*
X143275000Y-135725000D03*
X143275000Y-136825000D03*
X143275000Y-137925000D03*
X143275000Y-138875000D03*
D33*
X153775000Y-139825000D03*
D34*
X147575000Y-139825000D03*
D35*
X157925000Y-139825000D03*
D34*
X143275000Y-128675000D03*
D36*
X158375000Y-126325000D03*
%TD*%
D37*
%TO.C,U1*%
X121250000Y-107740000D03*
X121250000Y-109010000D03*
X121250000Y-110280000D03*
X121250000Y-111550000D03*
X121250000Y-112820000D03*
X121250000Y-114090000D03*
X121250000Y-115360000D03*
X121250000Y-116630000D03*
X121250000Y-117900000D03*
X121250000Y-119170000D03*
X121250000Y-120440000D03*
X121250000Y-121710000D03*
X121250000Y-122980000D03*
X121250000Y-124250000D03*
D38*
X123015000Y-125500000D03*
X124285000Y-125500000D03*
X125555000Y-125500000D03*
X126825000Y-125500000D03*
X128095000Y-125500000D03*
X129365000Y-125500000D03*
X130635000Y-125500000D03*
X131905000Y-125500000D03*
X133175000Y-125500000D03*
X134445000Y-125500000D03*
X135715000Y-125500000D03*
X136985000Y-125500000D03*
D37*
X138750000Y-124250000D03*
X138750000Y-122980000D03*
X138750000Y-121710000D03*
X138750000Y-120440000D03*
X138750000Y-119170000D03*
X138750000Y-117900000D03*
X138750000Y-116630000D03*
X138750000Y-115360000D03*
X138750000Y-114090000D03*
X138750000Y-112820000D03*
X138750000Y-111550000D03*
X138750000Y-110280000D03*
X138750000Y-109010000D03*
X138750000Y-107740000D03*
D39*
X127100000Y-114760000D03*
X127100000Y-116160000D03*
X127800000Y-114060000D03*
X127800000Y-115460000D03*
X127800000Y-116860000D03*
X128500000Y-114760000D03*
D40*
X128500000Y-115460000D03*
D39*
X128500000Y-116160000D03*
X129200000Y-114060000D03*
X129200000Y-115460000D03*
X129200000Y-116860000D03*
X129900000Y-114760000D03*
X129900000Y-116160000D03*
%TD*%
D22*
%TO.C,C13*%
X134000000Y-152155000D03*
X134000000Y-150605000D03*
%TD*%
D14*
%TO.C,R3*%
X115000000Y-129195000D03*
X115000000Y-127545000D03*
%TD*%
D41*
%TO.C,J2*%
X155150000Y-155125000D03*
X155150000Y-153875000D03*
X155150000Y-152625000D03*
X155150000Y-151375000D03*
X155150000Y-150125000D03*
X155150000Y-148875000D03*
D42*
X158350000Y-156975000D03*
X158350000Y-147025000D03*
%TD*%
D23*
%TO.C,H2*%
X145250000Y-114750000D03*
%TD*%
D14*
%TO.C,R11*%
X155000000Y-143825000D03*
X155000000Y-142175000D03*
%TD*%
D22*
%TO.C,C9*%
X123000000Y-129145000D03*
X123000000Y-127595000D03*
%TD*%
D13*
%TO.C,D4*%
X126212500Y-132000000D03*
X127787500Y-132000000D03*
%TD*%
D43*
%TO.C,C2*%
X110820000Y-151792500D03*
X110820000Y-149892500D03*
%TD*%
D22*
%TO.C,C4*%
X114000000Y-151775000D03*
X114000000Y-150225000D03*
%TD*%
%TO.C,C12*%
X126000000Y-152155000D03*
X126000000Y-150605000D03*
%TD*%
D43*
%TO.C,C8*%
X120000000Y-129540000D03*
X120000000Y-127640000D03*
%TD*%
D44*
%TO.C,U6*%
X101850000Y-151700000D03*
X101850000Y-154000000D03*
D45*
X108150000Y-154000000D03*
D44*
X101850000Y-156300000D03*
%TD*%
D46*
%TO.C,U4*%
X139025000Y-136200000D03*
X139675000Y-136200000D03*
X140325000Y-136200000D03*
X140975000Y-136200000D03*
X140975000Y-137800000D03*
X140325000Y-137800000D03*
X139675000Y-137800000D03*
X139025000Y-137800000D03*
%TD*%
D14*
%TO.C,R7*%
X117000000Y-140702500D03*
X117000000Y-139052500D03*
%TD*%
D23*
%TO.C,H4*%
X145250000Y-145250000D03*
%TD*%
%TO.C,H1*%
X114750000Y-114750000D03*
%TD*%
D22*
%TO.C,C10*%
X124000000Y-141775000D03*
X124000000Y-140225000D03*
%TD*%
D29*
%TO.C,R17*%
X113175000Y-137000000D03*
X114825000Y-137000000D03*
%TD*%
D22*
%TO.C,C3*%
X110570000Y-155237500D03*
X110570000Y-153687500D03*
%TD*%
D14*
%TO.C,R10*%
X152500000Y-143825000D03*
X152500000Y-142175000D03*
%TD*%
D43*
%TO.C,C5*%
X123600000Y-151950000D03*
X123600000Y-150050000D03*
%TD*%
%TO.C,C18*%
X150120000Y-151010000D03*
X150120000Y-149110000D03*
%TD*%
D22*
%TO.C,C17*%
X160000000Y-123835000D03*
X160000000Y-122285000D03*
%TD*%
D29*
%TO.C,R16*%
X109175000Y-137000000D03*
X110825000Y-137000000D03*
%TD*%
D14*
%TO.C,R2*%
X109040000Y-129195000D03*
X109040000Y-127545000D03*
%TD*%
D43*
%TO.C,C16*%
X159975000Y-120390000D03*
X159975000Y-118490000D03*
%TD*%
D22*
%TO.C,C6*%
X122000000Y-155775000D03*
X122000000Y-154225000D03*
%TD*%
D21*
%TO.C,U8*%
X110862500Y-132050000D03*
X110862500Y-133000000D03*
X110862500Y-133950000D03*
X113137500Y-133950000D03*
X113137500Y-133000000D03*
X113137500Y-132050000D03*
%TD*%
D47*
%TO.C,U2*%
X128500000Y-136737500D03*
X129000000Y-136737500D03*
X129500000Y-136737500D03*
X130000000Y-136737500D03*
X130500000Y-136737500D03*
X131000000Y-136737500D03*
X131500000Y-136737500D03*
D48*
X132012500Y-138000000D03*
D47*
X131500000Y-139262500D03*
X131000000Y-139262500D03*
X130500000Y-139262500D03*
X130000000Y-139262500D03*
X129500000Y-139262500D03*
X129000000Y-139262500D03*
X128500000Y-139262500D03*
D48*
X127987500Y-138000000D03*
%TD*%
D43*
%TO.C,C1*%
X101000000Y-148950000D03*
X101000000Y-147050000D03*
%TD*%
D49*
%TO.C,J5*%
X126875000Y-154650000D03*
X128125000Y-154650000D03*
X129375000Y-154650000D03*
X130625000Y-154650000D03*
X131875000Y-154650000D03*
X133125000Y-154650000D03*
D50*
X125025000Y-157850000D03*
X134975000Y-157850000D03*
%TD*%
D43*
%TO.C,C15*%
X140000000Y-141950000D03*
X140000000Y-140050000D03*
%TD*%
%LPD*%
M02*
