%TF.GenerationSoftware,KiCad,Pcbnew,10.0.3*%
%TF.CreationDate,2026-09-13T08:31:12+03:00*%
%TF.ProjectId,dronemagnav,64726f6e-656d-4616-976e-61762e6b6963,rev?*%
%TF.SameCoordinates,Original*%
%TF.FileFunction,Copper,L1,Top*%
%TF.FilePolarity,Positive*%
%FSLAX46Y46*%
G04 Gerber Fmt 4.6, Leading zero omitted, Abs format (unit mm)*
G04 Created by KiCad (PCBNEW 10.0.3) date 2026-09-13 08:31:12*
%MOMM*%
%LPD*%
G01*
G04 APERTURE LIST*
G04 Aperture macros list*
%AMRoundRect*
0 Rectangle with rounded corners*
0 $1 Rounding radius*
0 $2 $3 $4 $5 $6 $7 $8 $9 X,Y pos of 4 corners*
0 Add a 4 corners polygon primitive as box body*
4,1,4,$2,$3,$4,$5,$6,$7,$8,$9,$2,$3,0*
0 Add four circle primitives for the rounded corners*
1,1,$1+$1,$2,$3*
1,1,$1+$1,$4,$5*
1,1,$1+$1,$6,$7*
1,1,$1+$1,$8,$9*
0 Add four rect primitives between the rounded corners*
20,1,$1+$1,$2,$3,$4,$5,0*
20,1,$1+$1,$4,$5,$6,$7,0*
20,1,$1+$1,$6,$7,$8,$9,0*
20,1,$1+$1,$8,$9,$2,$3,0*%
G04 Aperture macros list end*
%TA.AperFunction,SMDPad,CuDef*%
%ADD10RoundRect,0.218750X-0.218750X-0.256250X0.218750X-0.256250X0.218750X0.256250X-0.218750X0.256250X0*%
%TD*%
%TA.AperFunction,SMDPad,CuDef*%
%ADD11RoundRect,0.200000X0.275000X-0.200000X0.275000X0.200000X-0.275000X0.200000X-0.275000X-0.200000X0*%
%TD*%
%TA.AperFunction,SMDPad,CuDef*%
%ADD12RoundRect,0.250000X0.400000X-0.525000X0.400000X0.525000X-0.400000X0.525000X-0.400000X-0.525000X0*%
%TD*%
%TA.AperFunction,SMDPad,CuDef*%
%ADD13RoundRect,0.150000X-0.575000X0.150000X-0.575000X-0.150000X0.575000X-0.150000X0.575000X0.150000X0*%
%TD*%
%TA.AperFunction,SMDPad,CuDef*%
%ADD14RoundRect,0.075000X-0.650000X0.075000X-0.650000X-0.075000X0.650000X-0.075000X0.650000X0.075000X0*%
%TD*%
%TA.AperFunction,ComponentPad*%
%ADD15O,2.100000X1.000000*%
%TD*%
%TA.AperFunction,ComponentPad*%
%ADD16O,1.600000X1.000000*%
%TD*%
%TA.AperFunction,SMDPad,CuDef*%
%ADD17RoundRect,0.150000X-0.512500X-0.150000X0.512500X-0.150000X0.512500X0.150000X-0.512500X0.150000X0*%
%TD*%
%TA.AperFunction,SMDPad,CuDef*%
%ADD18RoundRect,0.225000X0.250000X-0.225000X0.250000X0.225000X-0.250000X0.225000X-0.250000X-0.225000X0*%
%TD*%
%TA.AperFunction,SMDPad,CuDef*%
%ADD19RoundRect,0.250000X-0.275000X-0.250000X0.275000X-0.250000X0.275000X0.250000X-0.275000X0.250000X0*%
%TD*%
%TA.AperFunction,SMDPad,CuDef*%
%ADD20RoundRect,0.250000X-0.850000X-0.275000X0.850000X-0.275000X0.850000X0.275000X-0.850000X0.275000X0*%
%TD*%
%TA.AperFunction,SMDPad,CuDef*%
%ADD21RoundRect,0.250000X0.650000X-1.000000X0.650000X1.000000X-0.650000X1.000000X-0.650000X-1.000000X0*%
%TD*%
%TA.AperFunction,SMDPad,CuDef*%
%ADD22RoundRect,0.175000X-0.725000X-0.175000X0.725000X-0.175000X0.725000X0.175000X-0.725000X0.175000X0*%
%TD*%
%TA.AperFunction,SMDPad,CuDef*%
%ADD23RoundRect,0.200000X-0.700000X-0.200000X0.700000X-0.200000X0.700000X0.200000X-0.700000X0.200000X0*%
%TD*%
%TA.AperFunction,SMDPad,CuDef*%
%ADD24RoundRect,0.200000X-0.200000X-0.275000X0.200000X-0.275000X0.200000X0.275000X-0.200000X0.275000X0*%
%TD*%
%TA.AperFunction,SMDPad,CuDef*%
%ADD25R,0.375000X0.350000*%
%TD*%
%TA.AperFunction,SMDPad,CuDef*%
%ADD26R,0.350000X0.375000*%
%TD*%
%TA.AperFunction,SMDPad,CuDef*%
%ADD27R,1.200000X0.700000*%
%TD*%
%TA.AperFunction,SMDPad,CuDef*%
%ADD28R,0.800000X1.000000*%
%TD*%
%TA.AperFunction,SMDPad,CuDef*%
%ADD29R,1.200000X1.000000*%
%TD*%
%TA.AperFunction,SMDPad,CuDef*%
%ADD30R,2.800000X1.000000*%
%TD*%
%TA.AperFunction,SMDPad,CuDef*%
%ADD31R,1.900000X1.300000*%
%TD*%
%TA.AperFunction,SMDPad,CuDef*%
%ADD32R,1.500000X0.900000*%
%TD*%
%TA.AperFunction,SMDPad,CuDef*%
%ADD33R,0.900000X1.500000*%
%TD*%
%TA.AperFunction,HeatsinkPad*%
%ADD34C,0.600000*%
%TD*%
%TA.AperFunction,HeatsinkPad*%
%ADD35R,3.900000X3.900000*%
%TD*%
%TA.AperFunction,SMDPad,CuDef*%
%ADD36RoundRect,0.150000X0.700000X-0.150000X0.700000X0.150000X-0.700000X0.150000X-0.700000X-0.150000X0*%
%TD*%
%TA.AperFunction,SMDPad,CuDef*%
%ADD37RoundRect,0.250000X1.100000X-0.250000X1.100000X0.250000X-1.100000X0.250000X-1.100000X-0.250000X0*%
%TD*%
%TA.AperFunction,SMDPad,CuDef*%
%ADD38RoundRect,0.250000X0.475000X-0.250000X0.475000X0.250000X-0.475000X0.250000X-0.475000X-0.250000X0*%
%TD*%
%TA.AperFunction,SMDPad,CuDef*%
%ADD39RoundRect,0.375000X-0.625000X-0.375000X0.625000X-0.375000X0.625000X0.375000X-0.625000X0.375000X0*%
%TD*%
%TA.AperFunction,SMDPad,CuDef*%
%ADD40RoundRect,0.500000X-0.500000X-1.400000X0.500000X-1.400000X0.500000X1.400000X-0.500000X1.400000X0*%
%TD*%
%TA.AperFunction,SMDPad,CuDef*%
%ADD41R,0.350000X0.500000*%
%TD*%
%TA.AperFunction,SMDPad,CuDef*%
%ADD42RoundRect,0.062500X-0.062500X-0.275000X0.062500X-0.275000X0.062500X0.275000X-0.062500X0.275000X0*%
%TD*%
%TA.AperFunction,SMDPad,CuDef*%
%ADD43RoundRect,0.062500X-0.275000X-0.062500X0.275000X-0.062500X0.275000X0.062500X-0.275000X0.062500X0*%
%TD*%
%TA.AperFunction,SMDPad,CuDef*%
%ADD44RoundRect,0.150000X-0.150000X-0.700000X0.150000X-0.700000X0.150000X0.700000X-0.150000X0.700000X0*%
%TD*%
%TA.AperFunction,SMDPad,CuDef*%
%ADD45RoundRect,0.250000X-0.250000X-1.100000X0.250000X-1.100000X0.250000X1.100000X-0.250000X1.100000X0*%
%TD*%
%TA.AperFunction,ViaPad*%
%ADD46C,0.450000*%
%TD*%
%TA.AperFunction,ViaPad*%
%ADD47C,0.400000*%
%TD*%
%TA.AperFunction,ViaPad*%
%ADD48C,0.600000*%
%TD*%
%TA.AperFunction,Conductor*%
%ADD49C,0.220000*%
%TD*%
%TA.AperFunction,Conductor*%
%ADD50C,0.200000*%
%TD*%
G04 APERTURE END LIST*
D10*
%TO.P,D5,1*%
%TO.N,GND*%
X130212500Y-132000000D03*
%TO.P,D5,2*%
%TO.N,FIX_LED_A*%
X131787500Y-132000000D03*
%TD*%
D11*
%TO.P,R14,1*%
%TO.N,+3V3*%
X152500000Y-147325000D03*
%TO.P,R14,2*%
%TO.N,SD_DET*%
X152500000Y-145675000D03*
%TD*%
D12*
%TO.P,SW2,1*%
%TO.N,BOOT*%
X99950000Y-121480000D03*
X99950000Y-113520000D03*
%TO.P,SW2,2*%
%TO.N,GND*%
X104450000Y-121480000D03*
X104450000Y-113520000D03*
%TD*%
D13*
%TO.P,J1,A1*%
%TO.N,GND*%
X106645000Y-126750000D03*
%TO.P,J1,A4*%
%TO.N,VBUS*%
X106645000Y-127550000D03*
D14*
%TO.P,J1,A5*%
%TO.N,CC1*%
X106645000Y-128750000D03*
%TO.P,J1,A6*%
%TO.N,USB_DP_RAW*%
X106645000Y-129750000D03*
%TO.P,J1,A7*%
%TO.N,USB_DN_RAW*%
X106645000Y-130250000D03*
%TO.P,J1,A8*%
%TO.N,unconnected-(J1-SBU1-PadA8)*%
X106645000Y-131250000D03*
D13*
%TO.P,J1,A9*%
%TO.N,VBUS*%
X106645000Y-132450000D03*
%TO.P,J1,A12*%
%TO.N,GND*%
X106645000Y-133250000D03*
%TO.P,J1,B1*%
X106645000Y-133250000D03*
%TO.P,J1,B4*%
%TO.N,VBUS*%
X106645000Y-132450000D03*
D14*
%TO.P,J1,B5*%
%TO.N,CC2*%
X106645000Y-131750000D03*
%TO.P,J1,B6*%
%TO.N,USB_DP_RAW*%
X106645000Y-130750000D03*
%TO.P,J1,B7*%
%TO.N,USB_DN_RAW*%
X106645000Y-129250000D03*
%TO.P,J1,B8*%
%TO.N,unconnected-(J1-SBU2-PadB8)*%
X106645000Y-128250000D03*
D13*
%TO.P,J1,B9*%
%TO.N,VBUS*%
X106645000Y-127550000D03*
%TO.P,J1,B12*%
%TO.N,GND*%
X106645000Y-126750000D03*
D15*
%TO.P,J1,SH*%
X105730000Y-125680000D03*
D16*
X101550000Y-125680000D03*
D15*
X105730000Y-134320000D03*
D16*
X101550000Y-134320000D03*
%TD*%
D10*
%TO.P,D6,1*%
%TO.N,GND*%
X134212500Y-132000000D03*
%TO.P,D6,2*%
%TO.N,LINK_LED_A*%
X135787500Y-132000000D03*
%TD*%
%TO.P,D3,1*%
%TO.N,GND*%
X138212500Y-129000000D03*
%TO.P,D3,2*%
%TO.N,PWR_LED_A*%
X139787500Y-129000000D03*
%TD*%
D17*
%TO.P,U7,1*%
%TO.N,+5V*%
X116862500Y-154050000D03*
%TO.P,U7,2*%
%TO.N,GND*%
X116862500Y-155000000D03*
%TO.P,U7,3*%
%TO.N,+5V*%
X116862500Y-155950000D03*
%TO.P,U7,4*%
%TO.N,unconnected-(U7-NC-Pad4)*%
X119137500Y-155950000D03*
%TO.P,U7,5*%
%TO.N,+3.3VA*%
X119137500Y-154050000D03*
%TD*%
D11*
%TO.P,R15,1*%
%TO.N,+3V3*%
X157000000Y-104325000D03*
%TO.P,R15,2*%
%TO.N,GNSS_NRST*%
X157000000Y-102675000D03*
%TD*%
%TO.P,R8,1*%
%TO.N,+3V3*%
X120000000Y-140825000D03*
%TO.P,R8,2*%
%TO.N,I2C_SCL*%
X120000000Y-139175000D03*
%TD*%
D18*
%TO.P,C14,1*%
%TO.N,+3.3VA*%
X137450000Y-141775000D03*
%TO.P,C14,2*%
%TO.N,GND*%
X137450000Y-140225000D03*
%TD*%
D19*
%TO.P,J4,1*%
%TO.N,GNSS_RF*%
X154475000Y-121000000D03*
D20*
%TO.P,J4,2*%
%TO.N,GND*%
X156000000Y-119525000D03*
X156000000Y-122475000D03*
%TD*%
D18*
%TO.P,C11,1*%
%TO.N,+3.3VA*%
X135550000Y-141775000D03*
%TO.P,C11,2*%
%TO.N,GND*%
X135550000Y-140225000D03*
%TD*%
D21*
%TO.P,D1,1*%
%TO.N,+5V*%
X101780000Y-144000000D03*
%TO.P,D1,2*%
%TO.N,VBUS*%
X101780000Y-140000000D03*
%TD*%
D22*
%TO.P,U5,1*%
%TO.N,GND*%
X150750000Y-107600000D03*
D23*
%TO.P,U5,2*%
%TO.N,GNSS_TXD*%
X150750000Y-108700000D03*
%TO.P,U5,3*%
%TO.N,GNSS_RXD*%
X150750000Y-109800000D03*
%TO.P,U5,4*%
%TO.N,GNSS_PPS*%
X150750000Y-110900000D03*
%TO.P,U5,5*%
%TO.N,unconnected-(U5-EXTINT-Pad5)*%
X150750000Y-112000000D03*
%TO.P,U5,6*%
%TO.N,+3V3*%
X150750000Y-113100000D03*
%TO.P,U5,7*%
X150750000Y-114200000D03*
%TO.P,U5,8*%
X150750000Y-115300000D03*
D22*
%TO.P,U5,9*%
%TO.N,GNSS_NRST*%
X150750000Y-116400000D03*
%TO.P,U5,10*%
%TO.N,GND*%
X160250000Y-116400000D03*
D23*
%TO.P,U5,11*%
%TO.N,GNSS_RF*%
X160250000Y-115300000D03*
%TO.P,U5,12*%
%TO.N,GND*%
X160250000Y-114200000D03*
%TO.P,U5,13*%
%TO.N,unconnected-(U5-LNA_EN-Pad13)*%
X160250000Y-113100000D03*
%TO.P,U5,14*%
%TO.N,unconnected-(U5-VCC_RF-Pad14)*%
X160250000Y-112000000D03*
%TO.P,U5,15*%
%TO.N,unconnected-(U5-VIO_SEL-Pad15)*%
X160250000Y-110900000D03*
%TO.P,U5,16*%
%TO.N,unconnected-(U5-SDA-Pad16)*%
X160250000Y-109800000D03*
%TO.P,U5,17*%
%TO.N,unconnected-(U5-SCL-Pad17)*%
X160250000Y-108700000D03*
D22*
%TO.P,U5,18*%
%TO.N,unconnected-(U5-~{SAFEBOOT}-Pad18)*%
X160250000Y-107600000D03*
%TD*%
D11*
%TO.P,R9,1*%
%TO.N,+3V3*%
X150000000Y-143825000D03*
%TO.P,R9,2*%
%TO.N,SD_CMD*%
X150000000Y-142175000D03*
%TD*%
D24*
%TO.P,R1,1*%
%TO.N,+3V3*%
X138175000Y-132000000D03*
%TO.P,R1,2*%
%TO.N,PWR_LED_A*%
X139825000Y-132000000D03*
%TD*%
%TO.P,R4,1*%
%TO.N,LED_NAV*%
X126175000Y-129000000D03*
%TO.P,R4,2*%
%TO.N,NAV_LED_A*%
X127825000Y-129000000D03*
%TD*%
D12*
%TO.P,SW1,1*%
%TO.N,EN*%
X99950000Y-110480000D03*
X99950000Y-102520000D03*
%TO.P,SW1,2*%
%TO.N,GND*%
X104450000Y-110480000D03*
X104450000Y-102520000D03*
%TD*%
D18*
%TO.P,C7,1*%
%TO.N,EN*%
X112000000Y-129145000D03*
%TO.P,C7,2*%
%TO.N,GND*%
X112000000Y-127595000D03*
%TD*%
D11*
%TO.P,R12,1*%
%TO.N,+3V3*%
X157500000Y-143825000D03*
%TO.P,R12,2*%
%TO.N,SD_D2*%
X157500000Y-142175000D03*
%TD*%
D21*
%TO.P,D2,1*%
%TO.N,+5V*%
X105720000Y-144000000D03*
%TO.P,D2,2*%
%TO.N,5V_FC*%
X105720000Y-140000000D03*
%TD*%
D24*
%TO.P,R6,1*%
%TO.N,LED_LINK*%
X134175000Y-129000000D03*
%TO.P,R6,2*%
%TO.N,LINK_LED_A*%
X135825000Y-129000000D03*
%TD*%
D25*
%TO.P,U3,1*%
%TO.N,SPI_SCK*%
X129237500Y-148250000D03*
%TO.P,U3,2*%
%TO.N,GND*%
X129237500Y-148750000D03*
%TO.P,U3,3*%
X129237500Y-149250000D03*
%TO.P,U3,4*%
%TO.N,MAG_C1*%
X129237500Y-149750000D03*
D26*
%TO.P,U3,5*%
%TO.N,+3.3VA*%
X129750000Y-149762500D03*
%TO.P,U3,6*%
X130250000Y-149762500D03*
D25*
%TO.P,U3,7*%
%TO.N,unconnected-(U3-INT-Pad7)*%
X130762500Y-149750000D03*
%TO.P,U3,8*%
%TO.N,MAG_DRDY*%
X130762500Y-149250000D03*
%TO.P,U3,9*%
%TO.N,SPI_MISO*%
X130762500Y-148750000D03*
%TO.P,U3,10*%
%TO.N,CS_MAG*%
X130762500Y-148250000D03*
D26*
%TO.P,U3,11*%
%TO.N,SPI_MOSI*%
X130250000Y-148237500D03*
%TO.P,U3,12*%
%TO.N,GND*%
X129750000Y-148237500D03*
%TD*%
D11*
%TO.P,R13,1*%
%TO.N,+3V3*%
X150000000Y-147265000D03*
%TO.P,R13,2*%
%TO.N,SD_D3*%
X150000000Y-145615000D03*
%TD*%
D24*
%TO.P,R5,1*%
%TO.N,LED_FIX*%
X130175000Y-129000000D03*
%TO.P,R5,2*%
%TO.N,FIX_LED_A*%
X131825000Y-129000000D03*
%TD*%
D27*
%TO.P,J3,1*%
%TO.N,SD_D2*%
X143275000Y-130225000D03*
%TO.P,J3,2*%
%TO.N,SD_D3*%
X143275000Y-131325000D03*
%TO.P,J3,3*%
%TO.N,SD_CMD*%
X143275000Y-132425000D03*
%TO.P,J3,4*%
%TO.N,+3V3*%
X143275000Y-133525000D03*
%TO.P,J3,5*%
%TO.N,SD_CLK*%
X143275000Y-134625000D03*
%TO.P,J3,6*%
%TO.N,GND*%
X143275000Y-135725000D03*
%TO.P,J3,7*%
%TO.N,SD_D0*%
X143275000Y-136825000D03*
%TO.P,J3,8*%
%TO.N,SD_D1*%
X143275000Y-137925000D03*
%TO.P,J3,9*%
%TO.N,SD_DET*%
X143275000Y-138875000D03*
D28*
%TO.P,J3,10*%
%TO.N,GND*%
X153775000Y-139825000D03*
D29*
%TO.P,J3,SH*%
X147575000Y-139825000D03*
D30*
X157925000Y-139825000D03*
D29*
X143275000Y-128675000D03*
D31*
X158375000Y-126325000D03*
%TD*%
D32*
%TO.P,U1,1*%
%TO.N,GND*%
X121250000Y-107740000D03*
%TO.P,U1,2*%
%TO.N,+3V3*%
X121250000Y-109010000D03*
%TO.P,U1,3*%
%TO.N,EN*%
X121250000Y-110280000D03*
%TO.P,U1,4*%
%TO.N,FC_RXD*%
X121250000Y-111550000D03*
%TO.P,U1,5*%
%TO.N,FC_TXD*%
X121250000Y-112820000D03*
%TO.P,U1,6*%
%TO.N,INT_ACC*%
X121250000Y-114090000D03*
%TO.P,U1,7*%
%TO.N,INT_GYR*%
X121250000Y-115360000D03*
%TO.P,U1,8*%
%TO.N,unconnected-(U1-IO15-Pad8)*%
X121250000Y-116630000D03*
%TO.P,U1,9*%
%TO.N,GNSS_PPS*%
X121250000Y-117900000D03*
%TO.P,U1,10*%
%TO.N,N/C*%
X121250000Y-119170000D03*
%TO.P,U1,11*%
X121250000Y-120440000D03*
%TO.P,U1,12*%
%TO.N,MAG_DRDY*%
X121250000Y-121710000D03*
%TO.P,U1,13*%
%TO.N,USB_DN*%
X121250000Y-122980000D03*
%TO.P,U1,14*%
%TO.N,USB_DP*%
X121250000Y-124250000D03*
D33*
%TO.P,U1,15*%
%TO.N,MAST_INT*%
X123015000Y-125500000D03*
%TO.P,U1,16*%
%TO.N,unconnected-(U1-IO46-Pad16)*%
X124285000Y-125500000D03*
%TO.P,U1,17*%
%TO.N,CS_GYR*%
X125555000Y-125500000D03*
%TO.P,U1,18*%
%TO.N,CS_ACC*%
X126825000Y-125500000D03*
%TO.P,U1,19*%
%TO.N,SPI_MOSI*%
X128095000Y-125500000D03*
%TO.P,U1,20*%
%TO.N,SPI_SCK*%
X129365000Y-125500000D03*
%TO.P,U1,21*%
%TO.N,SPI_MISO*%
X130635000Y-125500000D03*
%TO.P,U1,22*%
%TO.N,CS_MAG*%
X131905000Y-125500000D03*
%TO.P,U1,23*%
%TO.N,CS_BARO*%
X133175000Y-125500000D03*
%TO.P,U1,24*%
%TO.N,SD_D3*%
X134445000Y-125500000D03*
%TO.P,U1,25*%
%TO.N,SD_DET*%
X135715000Y-125500000D03*
%TO.P,U1,26*%
%TO.N,unconnected-(U1-IO45-Pad26)*%
X136985000Y-125500000D03*
D32*
%TO.P,U1,27*%
%TO.N,BOOT*%
X138750000Y-124250000D03*
%TO.P,U1,28*%
%TO.N,LED_NAV*%
X138750000Y-122980000D03*
%TO.P,U1,29*%
%TO.N,LED_FIX*%
X138750000Y-121710000D03*
%TO.P,U1,30*%
%TO.N,LED_LINK*%
X138750000Y-120440000D03*
%TO.P,U1,31*%
%TO.N,SD_CLK*%
X138750000Y-119170000D03*
%TO.P,U1,32*%
%TO.N,SD_CMD*%
X138750000Y-117900000D03*
%TO.P,U1,33*%
%TO.N,SD_D0*%
X138750000Y-116630000D03*
%TO.P,U1,34*%
%TO.N,SD_D1*%
X138750000Y-115360000D03*
%TO.P,U1,35*%
%TO.N,SD_D2*%
X138750000Y-114090000D03*
%TO.P,U1,36*%
%TO.N,GNSS_TXD*%
X138750000Y-112820000D03*
%TO.P,U1,37*%
%TO.N,GNSS_RXD*%
X138750000Y-111550000D03*
%TO.P,U1,38*%
%TO.N,I2C_SCL*%
X138750000Y-110280000D03*
%TO.P,U1,39*%
%TO.N,I2C_SDA*%
X138750000Y-109010000D03*
%TO.P,U1,40*%
%TO.N,GND*%
X138750000Y-107740000D03*
D34*
%TO.P,U1,41*%
X127100000Y-114760000D03*
X127100000Y-116160000D03*
X127800000Y-114060000D03*
X127800000Y-115460000D03*
X127800000Y-116860000D03*
X128500000Y-114760000D03*
D35*
X128500000Y-115460000D03*
D34*
X128500000Y-116160000D03*
X129200000Y-114060000D03*
X129200000Y-115460000D03*
X129200000Y-116860000D03*
X129900000Y-114760000D03*
X129900000Y-116160000D03*
%TD*%
D18*
%TO.P,C13,1*%
%TO.N,+3.3VA*%
X134000000Y-152155000D03*
%TO.P,C13,2*%
%TO.N,GND*%
X134000000Y-150605000D03*
%TD*%
D11*
%TO.P,R3,1*%
%TO.N,+3V3*%
X115000000Y-129195000D03*
%TO.P,R3,2*%
%TO.N,BOOT*%
X115000000Y-127545000D03*
%TD*%
D36*
%TO.P,J2,1*%
%TO.N,5V_FC*%
X155150000Y-155125000D03*
%TO.P,J2,2*%
%TO.N,FC_TXD*%
X155150000Y-153875000D03*
%TO.P,J2,3*%
%TO.N,FC_RXD*%
X155150000Y-152625000D03*
%TO.P,J2,4*%
%TO.N,unconnected-(J2-Pin_4-Pad4)*%
X155150000Y-151375000D03*
%TO.P,J2,5*%
%TO.N,unconnected-(J2-Pin_5-Pad5)*%
X155150000Y-150125000D03*
%TO.P,J2,6*%
%TO.N,GND*%
X155150000Y-148875000D03*
D37*
%TO.P,J2,MP*%
%TO.N,N/C*%
X158350000Y-156975000D03*
X158350000Y-147025000D03*
%TD*%
D11*
%TO.P,R11,1*%
%TO.N,+3V3*%
X155000000Y-143825000D03*
%TO.P,R11,2*%
%TO.N,SD_D1*%
X155000000Y-142175000D03*
%TD*%
D18*
%TO.P,C9,1*%
%TO.N,+3V3*%
X123000000Y-129145000D03*
%TO.P,C9,2*%
%TO.N,GND*%
X123000000Y-127595000D03*
%TD*%
D10*
%TO.P,D4,1*%
%TO.N,GND*%
X126212500Y-132000000D03*
%TO.P,D4,2*%
%TO.N,NAV_LED_A*%
X127787500Y-132000000D03*
%TD*%
D38*
%TO.P,C2,1*%
%TO.N,+3V3*%
X110820000Y-151792500D03*
%TO.P,C2,2*%
%TO.N,GND*%
X110820000Y-149892500D03*
%TD*%
D18*
%TO.P,C4,1*%
%TO.N,+5V*%
X114000000Y-151775000D03*
%TO.P,C4,2*%
%TO.N,GND*%
X114000000Y-150225000D03*
%TD*%
%TO.P,C12,1*%
%TO.N,MAG_C1*%
X126000000Y-152155000D03*
%TO.P,C12,2*%
%TO.N,GND*%
X126000000Y-150605000D03*
%TD*%
D38*
%TO.P,C8,1*%
%TO.N,+3V3*%
X120000000Y-129540000D03*
%TO.P,C8,2*%
%TO.N,GND*%
X120000000Y-127640000D03*
%TD*%
D39*
%TO.P,U6,1*%
%TO.N,GND*%
X101850000Y-151700000D03*
%TO.P,U6,2*%
%TO.N,+3V3*%
X101850000Y-154000000D03*
D40*
X108150000Y-154000000D03*
D39*
%TO.P,U6,3*%
%TO.N,+5V*%
X101850000Y-156300000D03*
%TD*%
D41*
%TO.P,U4,1*%
%TO.N,GND*%
X139025000Y-136200000D03*
%TO.P,U4,2*%
%TO.N,CS_BARO*%
X139675000Y-136200000D03*
%TO.P,U4,3*%
%TO.N,SPI_MOSI*%
X140325000Y-136200000D03*
%TO.P,U4,4*%
%TO.N,SPI_SCK*%
X140975000Y-136200000D03*
%TO.P,U4,5*%
%TO.N,SPI_MISO*%
X140975000Y-137800000D03*
%TO.P,U4,6*%
%TO.N,+3.3VA*%
X140325000Y-137800000D03*
%TO.P,U4,7*%
%TO.N,GND*%
X139675000Y-137800000D03*
%TO.P,U4,8*%
%TO.N,+3.3VA*%
X139025000Y-137800000D03*
%TD*%
D11*
%TO.P,R7,1*%
%TO.N,+3V3*%
X117000000Y-140702500D03*
%TO.P,R7,2*%
%TO.N,I2C_SDA*%
X117000000Y-139052500D03*
%TD*%
D18*
%TO.P,C10,1*%
%TO.N,+3.3VA*%
X124000000Y-141775000D03*
%TO.P,C10,2*%
%TO.N,GND*%
X124000000Y-140225000D03*
%TD*%
D24*
%TO.P,R17,1*%
%TO.N,CC2*%
X113175000Y-137000000D03*
%TO.P,R17,2*%
%TO.N,GND*%
X114825000Y-137000000D03*
%TD*%
D18*
%TO.P,C3,1*%
%TO.N,+3V3*%
X110570000Y-155237500D03*
%TO.P,C3,2*%
%TO.N,GND*%
X110570000Y-153687500D03*
%TD*%
D11*
%TO.P,R10,1*%
%TO.N,+3V3*%
X152500000Y-143825000D03*
%TO.P,R10,2*%
%TO.N,SD_D0*%
X152500000Y-142175000D03*
%TD*%
D38*
%TO.P,C5,1*%
%TO.N,+3.3VA*%
X123600000Y-151950000D03*
%TO.P,C5,2*%
%TO.N,GND*%
X123600000Y-150050000D03*
%TD*%
%TO.P,C18,1*%
%TO.N,+3V3*%
X150120000Y-151010000D03*
%TO.P,C18,2*%
%TO.N,GND*%
X150120000Y-149110000D03*
%TD*%
D18*
%TO.P,C17,1*%
%TO.N,+3V3*%
X160000000Y-123835000D03*
%TO.P,C17,2*%
%TO.N,GND*%
X160000000Y-122285000D03*
%TD*%
D24*
%TO.P,R16,1*%
%TO.N,CC1*%
X109175000Y-137000000D03*
%TO.P,R16,2*%
%TO.N,GND*%
X110825000Y-137000000D03*
%TD*%
D11*
%TO.P,R2,1*%
%TO.N,+3V3*%
X109040000Y-129195000D03*
%TO.P,R2,2*%
%TO.N,EN*%
X109040000Y-127545000D03*
%TD*%
D38*
%TO.P,C16,1*%
%TO.N,+3V3*%
X159975000Y-120390000D03*
%TO.P,C16,2*%
%TO.N,GND*%
X159975000Y-118490000D03*
%TD*%
D18*
%TO.P,C6,1*%
%TO.N,+3.3VA*%
X122000000Y-155775000D03*
%TO.P,C6,2*%
%TO.N,GND*%
X122000000Y-154225000D03*
%TD*%
D17*
%TO.P,U8,1*%
%TO.N,USB_DP_RAW*%
X110862500Y-132050000D03*
%TO.P,U8,2*%
%TO.N,GND*%
X110862500Y-133000000D03*
%TO.P,U8,3*%
%TO.N,USB_DN_RAW*%
X110862500Y-133950000D03*
%TO.P,U8,4*%
%TO.N,USB_DN*%
X113137500Y-133950000D03*
%TO.P,U8,5*%
%TO.N,VBUS*%
X113137500Y-133000000D03*
%TO.P,U8,6*%
%TO.N,USB_DP*%
X113137500Y-132050000D03*
%TD*%
D42*
%TO.P,U2,1*%
%TO.N,unconnected-(U2-INT2-Pad1)*%
X128500000Y-136737500D03*
%TO.P,U2,2*%
%TO.N,GND*%
X129000000Y-136737500D03*
%TO.P,U2,3*%
%TO.N,+3.3VA*%
X129500000Y-136737500D03*
%TO.P,U2,4*%
%TO.N,GND*%
X130000000Y-136737500D03*
%TO.P,U2,5*%
%TO.N,CS_GYR*%
X130500000Y-136737500D03*
%TO.P,U2,6*%
%TO.N,GND*%
X131000000Y-136737500D03*
%TO.P,U2,7*%
X131500000Y-136737500D03*
D43*
%TO.P,U2,8*%
%TO.N,SPI_SCK*%
X132012500Y-138000000D03*
D42*
%TO.P,U2,9*%
%TO.N,SPI_MOSI*%
X131500000Y-139262500D03*
%TO.P,U2,10*%
%TO.N,SPI_MISO*%
X131000000Y-139262500D03*
%TO.P,U2,11*%
%TO.N,+3.3VA*%
X130500000Y-139262500D03*
%TO.P,U2,12*%
%TO.N,INT_GYR*%
X130000000Y-139262500D03*
%TO.P,U2,13*%
%TO.N,unconnected-(U2-INT4-Pad13)*%
X129500000Y-139262500D03*
%TO.P,U2,14*%
%TO.N,CS_ACC*%
X129000000Y-139262500D03*
%TO.P,U2,15*%
%TO.N,SPI_MISO*%
X128500000Y-139262500D03*
D43*
%TO.P,U2,16*%
%TO.N,INT_ACC*%
X127987500Y-138000000D03*
%TD*%
D38*
%TO.P,C1,1*%
%TO.N,+5V*%
X101000000Y-148950000D03*
%TO.P,C1,2*%
%TO.N,GND*%
X101000000Y-147050000D03*
%TD*%
D44*
%TO.P,J5,1*%
%TO.N,+3.3VA*%
X126875000Y-154650000D03*
%TO.P,J5,2*%
%TO.N,GND*%
X128125000Y-154650000D03*
%TO.P,J5,3*%
%TO.N,I2C_SDA*%
X129375000Y-154650000D03*
%TO.P,J5,4*%
%TO.N,I2C_SCL*%
X130625000Y-154650000D03*
%TO.P,J5,5*%
%TO.N,MAST_INT*%
X131875000Y-154650000D03*
%TO.P,J5,6*%
%TO.N,+5V*%
X133125000Y-154650000D03*
D45*
%TO.P,J5,MP*%
%TO.N,N/C*%
X125025000Y-157850000D03*
X134975000Y-157850000D03*
%TD*%
D38*
%TO.P,C15,1*%
%TO.N,+3.3VA*%
X140000000Y-141950000D03*
%TO.P,C15,2*%
%TO.N,GND*%
X140000000Y-140050000D03*
%TD*%
D46*
%TO.N,GND*%
X107223508Y-126060560D03*
D47*
X129000000Y-136740000D03*
D46*
X156000000Y-118625000D03*
X121966338Y-127218777D03*
X130150000Y-146437500D03*
X101439575Y-150572368D03*
X159028399Y-114644626D03*
X134056216Y-131113673D03*
X159692181Y-121439276D03*
X150462020Y-148170307D03*
X137568230Y-107531622D03*
X156000000Y-123375000D03*
X155028446Y-148185634D03*
X160523616Y-117151754D03*
X107772631Y-133660424D03*
X111625000Y-137000000D03*
X105483661Y-110856222D03*
X135393716Y-139338673D03*
X144227627Y-136275000D03*
X158751222Y-125291338D03*
X129346474Y-131500000D03*
X154275000Y-140691025D03*
X128500000Y-115460000D03*
D47*
X139680000Y-138350000D03*
D46*
X121692181Y-153379276D03*
X114000000Y-149325000D03*
X107223508Y-133939439D03*
X111962500Y-133000000D03*
X120942181Y-106894276D03*
X137446455Y-128357212D03*
X104658377Y-112338230D03*
X110820000Y-148992500D03*
X137293716Y-139338673D03*
X101000000Y-146150000D03*
D47*
X130000000Y-136740000D03*
D46*
X138325000Y-136200000D03*
X130600000Y-135737500D03*
X158081283Y-140711326D03*
X147418716Y-138938673D03*
X127525000Y-153610769D03*
X150476383Y-106848245D03*
X104658377Y-122661769D03*
X129737500Y-147650000D03*
X126000000Y-149705000D03*
X115762500Y-155000000D03*
X159975000Y-117590000D03*
X123600000Y-149150000D03*
X134000000Y-149705000D03*
X130100000Y-135237500D03*
X104658377Y-101338230D03*
X112000000Y-126695000D03*
X107772631Y-126339575D03*
X138960769Y-139450000D03*
X111070000Y-152821474D03*
X124000000Y-139325000D03*
X142290192Y-128501351D03*
X129637500Y-146950000D03*
X125312500Y-132000000D03*
X120919253Y-126868654D03*
X115625000Y-137000000D03*
%TO.N,+3V3*%
X157000000Y-105125000D03*
X149861081Y-148052846D03*
X150120000Y-151910000D03*
X160000000Y-124735000D03*
X152807818Y-148170723D03*
X120122368Y-108599575D03*
X123000000Y-130045000D03*
X149469749Y-113325742D03*
X110112933Y-152635148D03*
X120000000Y-130440000D03*
X152807818Y-144670723D03*
X109724276Y-155545318D03*
D47*
X143075000Y-133725000D03*
D46*
X149154276Y-144132818D03*
X155000000Y-144625000D03*
X149528399Y-115744626D03*
X100450000Y-154000000D03*
X157500000Y-144625000D03*
X117000000Y-141502500D03*
X108150000Y-154000000D03*
X120450000Y-141604422D03*
X160525000Y-121342627D03*
X149528399Y-114644626D03*
X114550000Y-129974422D03*
X109806044Y-129837787D03*
X137375000Y-132000000D03*
D48*
%TO.N,BOOT*%
X115000000Y-126660000D03*
X126190000Y-123790000D03*
%TO.N,USB_DN_RAW*%
X108906000Y-132075000D03*
X109028000Y-130117000D03*
%TO.N,I2C_SCL*%
X136918000Y-109933000D03*
X123113000Y-143907000D03*
D46*
%TO.N,GNSS_TXD*%
X148300000Y-112400000D03*
X148300000Y-108700000D03*
%TO.N,GNSS_RXD*%
X149000000Y-109800000D03*
X149000000Y-111550000D03*
D48*
%TO.N,SD_CMD*%
X146050000Y-132865000D03*
X140231000Y-118444000D03*
X148517000Y-142254000D03*
%TO.N,LED_NAV*%
X127786000Y-122980000D03*
X126129000Y-128072000D03*
%TO.N,LED_LINK*%
X133489000Y-120440000D03*
X133489000Y-129716000D03*
%TO.N,SPI_SCK*%
X137752000Y-134678000D03*
X132130000Y-137401000D03*
X129296000Y-133805000D03*
X129846000Y-126704000D03*
X128923000Y-147610000D03*
%TO.N,MAG_C1*%
X129150000Y-152908000D03*
X129150000Y-150391000D03*
%TO.N,MAG_DRDY*%
X131410000Y-149250000D03*
X119305000Y-121710000D03*
%TO.N,SPI_MISO*%
X132660000Y-140261000D03*
X131888000Y-147551000D03*
X135252000Y-136364000D03*
%TO.N,CS_MAG*%
X130811000Y-147622000D03*
X134293000Y-135596000D03*
%TO.N,SPI_MOSI*%
X131376000Y-146977000D03*
X132591000Y-139509000D03*
%TO.N,LED_FIX*%
X132907000Y-131243000D03*
X136328000Y-121400000D03*
%TO.N,SD_CLK*%
X144345000Y-133518000D03*
X141323000Y-119267000D03*
%TO.N,SD_D0*%
X140638000Y-116630000D03*
X146855000Y-136825000D03*
X146855000Y-141583000D03*
%TO.N,SD_D1*%
X146280000Y-141012000D03*
X144337000Y-137925000D03*
X139958000Y-115360000D03*
%TO.N,FC_RXD*%
X152200000Y-152625000D03*
X127266000Y-111550000D03*
%TO.N,FC_TXD*%
X126115000Y-156988000D03*
X118734000Y-112503000D03*
%TO.N,INT_ACC*%
X122455000Y-135200000D03*
X122455000Y-114090000D03*
%TO.N,INT_GYR*%
X129294000Y-132351000D03*
X123011000Y-115360000D03*
X133492000Y-136372000D03*
X130151000Y-140054000D03*
%TO.N,MAST_INT*%
X133060000Y-151380000D03*
X128154000Y-141224000D03*
%TO.N,CS_ACC*%
X129895000Y-140926000D03*
X134747000Y-121721000D03*
%TO.N,I2C_SDA*%
X139963000Y-109010000D03*
X127402000Y-141078000D03*
%TD*%
%TO.N,GND*%
D49*
X121250000Y-107740000D02*
X120942181Y-106894276D01*
X123600000Y-150050000D02*
X123600000Y-149450000D01*
X101850000Y-151700000D02*
X101439575Y-150572368D01*
X125612500Y-132000000D02*
X126012500Y-131800000D01*
X106645000Y-126750000D02*
X107223508Y-126060560D01*
D50*
X107031700Y-134320000D02*
X107031700Y-133636700D01*
D49*
X135550000Y-140225000D02*
X135550000Y-139625000D01*
D50*
X129750000Y-148237500D02*
X129750000Y-148676700D01*
D49*
X150120000Y-148510000D02*
X149920000Y-148910000D01*
X129837500Y-149250000D02*
X129637500Y-146950000D01*
X129837500Y-148750000D02*
X129737500Y-147650000D01*
X155150000Y-148875000D02*
X155150000Y-148275000D01*
X104450000Y-121480000D02*
X104658377Y-122661769D01*
X158375000Y-126325000D02*
X158751222Y-125291338D01*
X122000000Y-154225000D02*
X121692181Y-153379276D01*
X112000000Y-126995000D02*
X111800000Y-127395000D01*
X134212500Y-132000000D02*
X134056216Y-131113673D01*
X160000000Y-121685000D02*
X159800000Y-122085000D01*
X110862500Y-133000000D02*
X111962500Y-133000000D01*
X129237500Y-149250000D02*
X129837500Y-149250000D01*
X147575000Y-140425000D02*
X147375000Y-139625000D01*
D50*
X139825000Y-140225000D02*
X137450000Y-140225000D01*
D49*
X140000000Y-139450000D02*
X139800000Y-139850000D01*
X160000000Y-122285000D02*
X160000000Y-121685000D01*
X159975000Y-118490000D02*
X159975000Y-117590000D01*
X110825000Y-137000000D02*
X111625000Y-137000000D01*
X153775000Y-140425000D02*
X153575000Y-139625000D01*
X129750000Y-147637500D02*
X130150000Y-146437500D01*
X156000000Y-123075000D02*
X155800000Y-122275000D01*
X104450000Y-113520000D02*
X104658377Y-112338230D01*
X110570000Y-153687500D02*
X110570000Y-153087500D01*
X123600000Y-149450000D02*
X123400000Y-149850000D01*
X129237500Y-148750000D02*
X129837500Y-148750000D01*
X123000000Y-127595000D02*
X123000000Y-126995000D01*
D50*
X129676700Y-148750000D02*
X129750000Y-148676700D01*
D49*
X150120000Y-149110000D02*
X150462020Y-148170307D01*
X160250000Y-114200000D02*
X159028399Y-114644626D01*
X126000000Y-150605000D02*
X126000000Y-149705000D01*
D50*
X105730000Y-125680000D02*
X107031700Y-125680000D01*
D49*
X101000000Y-146450000D02*
X100800000Y-146850000D01*
X130212500Y-132000000D02*
X129346474Y-131500000D01*
X120000000Y-127640000D02*
X120919253Y-126868654D01*
D50*
X129237500Y-148750000D02*
X129676700Y-148750000D01*
D49*
X143275000Y-135725000D02*
X144227627Y-136275000D01*
D50*
X129676700Y-149250000D02*
X129676700Y-148750000D01*
D49*
X122000000Y-154225000D02*
X122000000Y-153625000D01*
X122000000Y-153625000D02*
X121800000Y-154025000D01*
X114000000Y-149625000D02*
X113800000Y-150025000D01*
D50*
X107031700Y-125680000D02*
X107031700Y-126363300D01*
D49*
X101000000Y-147050000D02*
X101000000Y-146150000D01*
X112000000Y-127595000D02*
X112000000Y-126695000D01*
X110825000Y-137000000D02*
X111425000Y-137000000D01*
X115425000Y-137000000D02*
X114625000Y-136800000D01*
X137450000Y-140225000D02*
X137450000Y-139625000D01*
X127525000Y-154650000D02*
X127925000Y-154450000D01*
X150750000Y-107600000D02*
X150476383Y-106848245D01*
X124000000Y-140225000D02*
X124000000Y-139625000D01*
X159975000Y-118490000D02*
X159975000Y-117890000D01*
X110820000Y-149292500D02*
X110620000Y-149692500D01*
X134000000Y-150005000D02*
X133800000Y-150405000D01*
X126212500Y-132000000D02*
X125612500Y-132000000D01*
D50*
X107031700Y-126363300D02*
X106645000Y-126750000D01*
D49*
X138750000Y-107740000D02*
X137568230Y-107531622D01*
X135550000Y-139625000D02*
X135350000Y-140025000D01*
D50*
X123000000Y-127595000D02*
X120045000Y-127595000D01*
D49*
X112000000Y-127595000D02*
X112000000Y-126995000D01*
D50*
X129237500Y-149250000D02*
X129676700Y-149250000D01*
X139680000Y-137800000D02*
X139680000Y-138350000D01*
D49*
X129750000Y-148237500D02*
X129750000Y-147637500D01*
X156000000Y-122475000D02*
X156000000Y-123075000D01*
X106645000Y-133250000D02*
X107223508Y-133939439D01*
X124000000Y-140225000D02*
X124000000Y-139325000D01*
X101000000Y-147050000D02*
X101000000Y-146450000D01*
X123600000Y-150050000D02*
X123600000Y-149150000D01*
X135550000Y-140225000D02*
X135393716Y-139338673D01*
X110570000Y-153087500D02*
X110370000Y-153487500D01*
D50*
X129200000Y-115460000D02*
X128500000Y-115460000D01*
X105730000Y-134320000D02*
X107031700Y-134320000D01*
D49*
X110570000Y-153687500D02*
X111070000Y-152821474D01*
X114000000Y-150225000D02*
X114000000Y-149625000D01*
X126000000Y-150605000D02*
X126000000Y-150005000D01*
X104450000Y-110480000D02*
X105483661Y-110856222D01*
X116862500Y-155000000D02*
X115762500Y-155000000D01*
X153775000Y-139825000D02*
X153775000Y-140425000D01*
X114825000Y-137000000D02*
X115425000Y-137000000D01*
X110820000Y-149892500D02*
X110820000Y-148992500D01*
X123000000Y-127595000D02*
X121966338Y-127218777D01*
X110820000Y-149892500D02*
X110820000Y-149292500D01*
X159975000Y-117890000D02*
X159775000Y-118290000D01*
X106645000Y-133250000D02*
X107772631Y-133660424D01*
X140000000Y-140050000D02*
X140000000Y-139450000D01*
X160000000Y-122285000D02*
X159692181Y-121439276D01*
X156000000Y-119525000D02*
X156000000Y-118925000D01*
X120000000Y-127640000D02*
X120000000Y-128240000D01*
X157925000Y-139825000D02*
X158081283Y-140711326D01*
X106645000Y-126750000D02*
X107772631Y-126339575D01*
D50*
X131000000Y-136737500D02*
X131500000Y-136737500D01*
D49*
X156000000Y-119525000D02*
X156000000Y-118625000D01*
X138212500Y-129000000D02*
X137612500Y-129000000D01*
X134000000Y-150605000D02*
X134000000Y-150005000D01*
X131000000Y-136137500D02*
X130600000Y-135737500D01*
X120000000Y-128240000D02*
X119800000Y-127440000D01*
X134000000Y-150605000D02*
X134000000Y-149705000D01*
D50*
X137450000Y-140225000D02*
X135550000Y-140225000D01*
D49*
X131500000Y-136737500D02*
X130100000Y-135237500D01*
X128125000Y-154650000D02*
X127525000Y-153610769D01*
X160250000Y-116400000D02*
X160523616Y-117151754D01*
X114000000Y-150225000D02*
X114000000Y-149325000D01*
X126212500Y-132000000D02*
X125312500Y-132000000D01*
X128125000Y-154650000D02*
X127525000Y-154650000D01*
X138425000Y-136200000D02*
X138325000Y-136200000D01*
X111425000Y-137000000D02*
X110625000Y-136800000D01*
D50*
X107031700Y-133636700D02*
X106645000Y-133250000D01*
D49*
X155150000Y-148875000D02*
X155028446Y-148185634D01*
X140000000Y-140050000D02*
X138960769Y-139450000D01*
X137450000Y-140225000D02*
X137293716Y-139338673D01*
X147575000Y-139825000D02*
X147418716Y-138938673D01*
X138212500Y-129000000D02*
X137446455Y-128357212D01*
X150120000Y-149110000D02*
X150120000Y-148510000D01*
X137450000Y-139625000D02*
X137250000Y-140025000D01*
X153775000Y-139825000D02*
X154275000Y-140691025D01*
X155150000Y-148275000D02*
X154950000Y-148675000D01*
X104450000Y-102520000D02*
X104658377Y-101338230D01*
X147575000Y-139825000D02*
X147575000Y-140425000D01*
X131000000Y-136737500D02*
X131000000Y-136137500D01*
X123000000Y-126995000D02*
X123200000Y-127395000D01*
X156000000Y-122475000D02*
X156000000Y-123375000D01*
X114825000Y-137000000D02*
X115625000Y-137000000D01*
X139025000Y-136200000D02*
X138425000Y-136200000D01*
X126000000Y-150005000D02*
X125800000Y-150405000D01*
X124000000Y-139625000D02*
X124200000Y-140425000D01*
X156000000Y-118925000D02*
X155800000Y-119325000D01*
X143275000Y-128675000D02*
X142290192Y-128501351D01*
X137612500Y-129000000D02*
X138612500Y-129000000D01*
%TO.N,FIX_LED_A*%
D50*
X131787500Y-131253500D02*
X131787500Y-132000000D01*
X131788000Y-129038000D02*
X131788000Y-131253000D01*
X131788000Y-131253000D02*
X131788000Y-132000000D01*
X131788000Y-131253000D02*
X131787500Y-131253500D01*
X131825000Y-129000000D02*
X131788000Y-129038000D01*
%TO.N,+3V3*%
D49*
X160000000Y-124435000D02*
X159800000Y-123635000D01*
X152500000Y-143825000D02*
X152807818Y-144670723D01*
X150000000Y-143825000D02*
X149154276Y-144132818D01*
X115000000Y-129795000D02*
X114800000Y-128995000D01*
X120000000Y-129540000D02*
X120000000Y-130440000D01*
X150000000Y-143825000D02*
X150000000Y-143225000D01*
X110570000Y-155237500D02*
X109724276Y-155545318D01*
X117000000Y-141302500D02*
X116800000Y-140502500D01*
D50*
X108612500Y-154000000D02*
X108150000Y-154000000D01*
D49*
X157000000Y-104325000D02*
X157000000Y-105125000D01*
X109040000Y-129195000D02*
X109806044Y-129837787D01*
X117000000Y-140702500D02*
X117000000Y-141502500D01*
X152500000Y-143825000D02*
X152500000Y-144425000D01*
X157000000Y-104925000D02*
X156800000Y-104125000D01*
X120000000Y-130140000D02*
X119800000Y-129340000D01*
X123000000Y-129145000D02*
X123000000Y-130045000D01*
X110820000Y-152392500D02*
X110620000Y-151592500D01*
X159975000Y-120990000D02*
X159775000Y-120190000D01*
X120000000Y-140825000D02*
X120450000Y-141604422D01*
X150000000Y-147265000D02*
X149861081Y-148052846D01*
D50*
X157500000Y-143825000D02*
X155000000Y-143825000D01*
D49*
X159975000Y-120390000D02*
X159975000Y-120990000D01*
X110570000Y-155837500D02*
X110370000Y-155037500D01*
X115000000Y-129195000D02*
X115000000Y-129795000D01*
X115000000Y-129195000D02*
X114550000Y-129974422D01*
X152500000Y-147325000D02*
X152807818Y-148170723D01*
D50*
X110820000Y-151792500D02*
X108612500Y-154000000D01*
D49*
X152500000Y-147925000D02*
X152700000Y-147125000D01*
X138175000Y-132000000D02*
X137575000Y-132000000D01*
X123000000Y-129145000D02*
X123000000Y-129745000D01*
X155000000Y-143825000D02*
X155000000Y-144625000D01*
X150750000Y-113100000D02*
X149469749Y-113325742D01*
X137575000Y-132000000D02*
X137975000Y-131800000D01*
X150750000Y-114200000D02*
X149528399Y-114644626D01*
X117000000Y-140702500D02*
X117000000Y-141302500D01*
D50*
X110570000Y-155237500D02*
X109387500Y-155237500D01*
D49*
X157000000Y-104325000D02*
X157000000Y-104925000D01*
X150120000Y-151010000D02*
X150120000Y-151610000D01*
X155000000Y-144425000D02*
X154800000Y-143625000D01*
X150000000Y-147865000D02*
X149800000Y-147065000D01*
X150000000Y-143225000D02*
X149800000Y-143625000D01*
X120000000Y-140825000D02*
X120000000Y-141425000D01*
X150000000Y-147265000D02*
X150000000Y-147865000D01*
X110820000Y-151792500D02*
X110112933Y-152635148D01*
D50*
X109387500Y-155237500D02*
X108150000Y-154000000D01*
D49*
X160000000Y-123835000D02*
X160000000Y-124735000D01*
D50*
X108150000Y-154000000D02*
X101850000Y-154000000D01*
D49*
X152500000Y-144425000D02*
X152700000Y-143625000D01*
X160000000Y-123835000D02*
X160000000Y-124435000D01*
X123000000Y-129745000D02*
X123200000Y-128945000D01*
X110570000Y-155237500D02*
X110570000Y-155837500D01*
X157500000Y-143825000D02*
X157500000Y-144425000D01*
X157500000Y-143825000D02*
X157500000Y-144625000D01*
D50*
X150750000Y-114200000D02*
X150750000Y-115300000D01*
X150750000Y-113100000D02*
X150750000Y-114200000D01*
D49*
X155000000Y-143825000D02*
X155000000Y-144425000D01*
X101850000Y-154000000D02*
X100450000Y-154000000D01*
X152500000Y-147325000D02*
X152500000Y-147925000D01*
X150120000Y-151010000D02*
X150120000Y-151910000D01*
X120000000Y-141425000D02*
X119800000Y-140625000D01*
X110820000Y-151792500D02*
X110820000Y-152392500D01*
X138175000Y-132000000D02*
X137375000Y-132000000D01*
X150750000Y-115300000D02*
X149528399Y-115744626D01*
X121250000Y-109010000D02*
X120122368Y-108599575D01*
X159975000Y-120390000D02*
X160525000Y-121342627D01*
X150120000Y-151610000D02*
X149920000Y-150810000D01*
X157500000Y-144425000D02*
X157300000Y-143625000D01*
X120000000Y-129540000D02*
X120000000Y-130140000D01*
%TO.N,SD_DET*%
D50*
X151545000Y-144720000D02*
X148303000Y-144720000D01*
X135715000Y-127668000D02*
X139000000Y-130953000D01*
X144826000Y-141242000D02*
X144328000Y-141242000D01*
X141986000Y-144992000D02*
X144357000Y-147363000D01*
X148352000Y-147363000D02*
X149362000Y-146353000D01*
X139000000Y-132323000D02*
X141986000Y-135309000D01*
X141986000Y-135309000D02*
X141986000Y-144992000D01*
X144328000Y-141242000D02*
X142774000Y-139688000D01*
X135715000Y-125500000D02*
X135715000Y-127668000D01*
X144357000Y-147363000D02*
X148352000Y-147363000D01*
X148303000Y-144720000D02*
X144826000Y-141242000D01*
X139000000Y-130953000D02*
X139000000Y-132323000D01*
X142774000Y-138875000D02*
X143275000Y-138875000D01*
X152500000Y-145675000D02*
X151545000Y-144720000D01*
X151822000Y-146353000D02*
X152500000Y-145675000D01*
X149362000Y-146353000D02*
X151822000Y-146353000D01*
X142774000Y-139688000D02*
X142774000Y-138875000D01*
%TO.N,BOOT*%
X99950000Y-113520000D02*
X99950000Y-120410000D01*
X138750000Y-124250000D02*
X138290000Y-123790000D01*
X107864000Y-120410000D02*
X99950000Y-120410000D01*
X99950000Y-120410000D02*
X99950000Y-121480000D01*
X115000000Y-127545000D02*
X107864000Y-120410000D01*
X115000000Y-126660000D02*
X115000000Y-127545000D01*
X138290000Y-123790000D02*
X126190000Y-123790000D01*
%TO.N,VBUS*%
X107390000Y-127550000D02*
X108087000Y-128246000D01*
X112025000Y-131046000D02*
X112025000Y-132226000D01*
X112914000Y-138436000D02*
X113884000Y-137466000D01*
X112025000Y-132226000D02*
X112799000Y-133000000D01*
X108087000Y-128246000D02*
X109225000Y-128246000D01*
X109225000Y-128246000D02*
X112025000Y-131046000D01*
X113137500Y-133000000D02*
X112799000Y-133000000D01*
X111817000Y-133982000D02*
X111817000Y-134505000D01*
X106645000Y-127550000D02*
X107390000Y-127550000D01*
X112799000Y-133000000D02*
X111817000Y-133982000D01*
X110133000Y-134505000D02*
X108078000Y-132450000D01*
X108078000Y-132450000D02*
X106645000Y-132450000D01*
X113884000Y-137466000D02*
X113884000Y-136573000D01*
X101780000Y-140000000D02*
X103344000Y-138436000D01*
X111817000Y-134505000D02*
X110133000Y-134505000D01*
X113884000Y-136573000D02*
X111817000Y-134505000D01*
X103344000Y-138436000D02*
X112914000Y-138436000D01*
X113138000Y-133000000D02*
X113137500Y-133000000D01*
%TO.N,CC1*%
X106645000Y-128750000D02*
X105862000Y-128750000D01*
X106286000Y-137000000D02*
X109175000Y-137000000D01*
X104015000Y-130597000D02*
X104015000Y-134729000D01*
X104015000Y-134729000D02*
X106286000Y-137000000D01*
X105862000Y-128750000D02*
X104015000Y-130597000D01*
%TO.N,USB_DP_RAW*%
X105906000Y-130750000D02*
X106645000Y-130750000D01*
X107717000Y-129750000D02*
X110017000Y-132050000D01*
X110017000Y-132050000D02*
X110862000Y-132050000D01*
X106645000Y-129750000D02*
X107717000Y-129750000D01*
X105626000Y-130470000D02*
X105906000Y-130750000D01*
X105626000Y-130002000D02*
X105626000Y-130470000D01*
X105878000Y-129750000D02*
X105626000Y-130002000D01*
X106645000Y-129750000D02*
X105878000Y-129750000D01*
X110862000Y-132050000D02*
X110862500Y-132050000D01*
%TO.N,USB_DN_RAW*%
X108692000Y-130117000D02*
X109028000Y-130117000D01*
X107826000Y-129250000D02*
X108692000Y-130117000D01*
X110862000Y-133950000D02*
X110862500Y-133950000D01*
X110508000Y-133950000D02*
X108906000Y-132349000D01*
X108906000Y-131802000D02*
X107354000Y-130250000D01*
X106645000Y-129250000D02*
X107826000Y-129250000D01*
X108906000Y-132075000D02*
X108906000Y-131802000D01*
X107354000Y-130250000D02*
X106645000Y-130250000D01*
X108906000Y-132349000D02*
X108906000Y-132075000D01*
X110862000Y-133950000D02*
X110508000Y-133950000D01*
%TO.N,CC2*%
X105231000Y-135448000D02*
X104366000Y-134583000D01*
X105088000Y-131750000D02*
X106645000Y-131750000D01*
X104366000Y-132472000D02*
X105088000Y-131750000D01*
X113175000Y-137000000D02*
X111622000Y-135448000D01*
X111622000Y-135448000D02*
X105231000Y-135448000D01*
X104366000Y-134583000D02*
X104366000Y-132472000D01*
%TO.N,LINK_LED_A*%
X135787500Y-130519500D02*
X135787500Y-132000000D01*
X135788000Y-130519000D02*
X135788000Y-132000000D01*
X135788000Y-129038000D02*
X135788000Y-130519000D01*
X135788000Y-130519000D02*
X135787500Y-130519500D01*
X135825000Y-129000000D02*
X135788000Y-129038000D01*
%TO.N,PWR_LED_A*%
X139825000Y-132000000D02*
X139788000Y-131962000D01*
X139788000Y-131962000D02*
X139788000Y-130246700D01*
X139788000Y-130246700D02*
X139787500Y-130246200D01*
X139787500Y-130246200D02*
X139787500Y-129000000D01*
X139788000Y-130246700D02*
X139788000Y-129000000D01*
%TO.N,+5V*%
X105522000Y-144198000D02*
X101978000Y-144198000D01*
X117188000Y-155950000D02*
X116862500Y-155950000D01*
X126426000Y-156519000D02*
X131929000Y-156519000D01*
X101000000Y-148950000D02*
X101978000Y-147972000D01*
X101978000Y-144198000D02*
X101780000Y-144000000D01*
X101000000Y-148950000D02*
X102976000Y-150926000D01*
X117781000Y-156869000D02*
X123187000Y-156869000D01*
X116862500Y-155950000D02*
X116862000Y-155950000D01*
X123187000Y-156869000D02*
X123856000Y-156200000D01*
X114000000Y-151775000D02*
X114588000Y-151775000D01*
X101850000Y-156300000D02*
X116512000Y-156300000D01*
X116512000Y-156300000D02*
X116862000Y-155950000D01*
X131929000Y-156519000D02*
X133125000Y-155322000D01*
X116862000Y-155950000D02*
X117781000Y-156869000D01*
X101978000Y-147972000D02*
X101978000Y-144198000D01*
X102976000Y-150926000D02*
X113151000Y-150926000D01*
X116862500Y-154050000D02*
X117219000Y-154050000D01*
X133125000Y-155322000D02*
X133125000Y-154650000D01*
X126107000Y-156200000D02*
X126426000Y-156519000D01*
X116862000Y-154050000D02*
X116862500Y-154050000D01*
X117801000Y-154631000D02*
X117801000Y-155338000D01*
X113151000Y-150926000D02*
X114000000Y-151775000D01*
X117219000Y-154050000D02*
X117801000Y-154631000D01*
X105720000Y-144000000D02*
X105522000Y-144198000D01*
X117801000Y-155338000D02*
X117188000Y-155950000D01*
X114588000Y-151775000D02*
X116862000Y-154050000D01*
X123856000Y-156200000D02*
X126107000Y-156200000D01*
%TO.N,+3.3VA*%
X132440000Y-141563000D02*
X130500000Y-139622000D01*
X132440000Y-149044000D02*
X132440000Y-141775000D01*
X139025000Y-137298000D02*
X140325000Y-137298000D01*
X130835000Y-150987000D02*
X128950000Y-150987000D01*
X119587500Y-154499500D02*
X119587000Y-154499500D01*
X122924000Y-154650000D02*
X122000000Y-155574000D01*
X133976000Y-152130000D02*
X134000000Y-152155000D01*
X132440000Y-141775000D02*
X132440000Y-141563000D01*
X129750000Y-149762500D02*
X129750000Y-149762000D01*
X130835000Y-150987000D02*
X130835000Y-150648000D01*
X130250000Y-149762000D02*
X129750000Y-149762000D01*
X122566000Y-136094000D02*
X123804000Y-136094000D01*
X122000000Y-155574000D02*
X120662000Y-155574000D01*
X123600000Y-151950000D02*
X123600000Y-154650000D01*
X141258000Y-137298000D02*
X141433000Y-137473000D01*
X123804000Y-136094000D02*
X128722000Y-141012000D01*
X121886000Y-135414000D02*
X122566000Y-136094000D01*
X129500000Y-136738000D02*
X129500000Y-136737500D01*
X140325000Y-137298000D02*
X141258000Y-137298000D01*
X130697000Y-150648000D02*
X130250000Y-150202000D01*
X119587500Y-154499500D02*
X119138000Y-154050000D01*
X135550000Y-141775000D02*
X132440000Y-141775000D01*
X121886000Y-134917000D02*
X121886000Y-135414000D01*
X130835000Y-150648000D02*
X132440000Y-149044000D01*
X122000000Y-155574000D02*
X122000000Y-155775000D01*
X139025000Y-137800000D02*
X139025000Y-137298000D01*
X137450000Y-141775000D02*
X135550000Y-141775000D01*
X129500000Y-136444000D02*
X127682000Y-134626000D01*
X119587000Y-154499500D02*
X119137500Y-154050000D01*
X141433000Y-140167000D02*
X139825000Y-141775000D01*
X124000000Y-141775000D02*
X124000000Y-141776000D01*
X124000000Y-141776000D02*
X128312000Y-141776000D01*
X130250000Y-150202000D02*
X130250000Y-149762500D01*
X130500000Y-139262500D02*
X130500000Y-139262000D01*
X128434000Y-141776000D02*
X128312000Y-141776000D01*
X131177000Y-155539000D02*
X131177000Y-152932000D01*
X122176000Y-134626000D02*
X121886000Y-134917000D01*
X131978000Y-152130000D02*
X130835000Y-150987000D01*
X120662000Y-155574000D02*
X119587500Y-154499500D01*
X127682000Y-134626000D02*
X122176000Y-134626000D01*
X130835000Y-150648000D02*
X130697000Y-150648000D01*
X123600000Y-154650000D02*
X126875000Y-154650000D01*
X130250000Y-149762500D02*
X130250000Y-149762000D01*
X141433000Y-137473000D02*
X141433000Y-140167000D01*
X129500000Y-136737500D02*
X129500000Y-136444000D01*
X131978000Y-152130000D02*
X133976000Y-152130000D01*
X128312000Y-150350000D02*
X128312000Y-141776000D01*
X140000000Y-141950000D02*
X139825000Y-141775000D01*
X123600000Y-154650000D02*
X122924000Y-154650000D01*
X140325000Y-137800000D02*
X140325000Y-137298000D01*
X128722000Y-141012000D02*
X128722000Y-141487000D01*
X127813000Y-155757000D02*
X130960000Y-155757000D01*
X139825000Y-141775000D02*
X137450000Y-141775000D01*
X130500000Y-139622000D02*
X130500000Y-139262500D01*
X128722000Y-141487000D02*
X128434000Y-141776000D01*
X130960000Y-155757000D02*
X131177000Y-155539000D01*
X131177000Y-152932000D02*
X131978000Y-152130000D01*
X126875000Y-154819000D02*
X127813000Y-155757000D01*
X126875000Y-154650000D02*
X126875000Y-154819000D01*
X128950000Y-150987000D02*
X128312000Y-150350000D01*
%TO.N,GNSS_NRST*%
X150750000Y-116400000D02*
X151228000Y-116400000D01*
X151228000Y-116400000D02*
X156001000Y-111626000D01*
X156001000Y-103674000D02*
X157000000Y-102675000D01*
X156001000Y-111626000D02*
X156001000Y-103674000D01*
%TO.N,I2C_SCL*%
X137401000Y-109933000D02*
X137748000Y-110280000D01*
X127927000Y-150554000D02*
X129292000Y-151920000D01*
X137748000Y-110280000D02*
X138750000Y-110280000D01*
X123113000Y-142288000D02*
X123113000Y-143907000D01*
X129479000Y-151920000D02*
X130625000Y-153066000D01*
X127927000Y-148721000D02*
X127927000Y-150554000D01*
X130625000Y-153066000D02*
X130625000Y-154650000D01*
X123113000Y-143907000D02*
X127927000Y-148721000D01*
X129292000Y-151920000D02*
X129479000Y-151920000D01*
X136918000Y-109933000D02*
X137401000Y-109933000D01*
X120000000Y-139175000D02*
X123113000Y-142288000D01*
%TO.N,GNSS_RF*%
X154475000Y-121000000D02*
X154475000Y-119190000D01*
X154475000Y-119190000D02*
X158366000Y-115300000D01*
X158366000Y-115300000D02*
X160250000Y-115300000D01*
%TO.N,GNSS_TXD*%
X140300000Y-112400000D02*
X148300000Y-112400000D01*
X138750000Y-112820000D02*
X139900000Y-112820000D01*
X148300000Y-108700000D02*
X150750000Y-108700000D01*
X139900000Y-112820000D02*
X140300000Y-112400000D01*
%TO.N,GNSS_RXD*%
X138750000Y-111550000D02*
X149000000Y-111550000D01*
X149000000Y-109800000D02*
X150750000Y-109800000D01*
%TO.N,GNSS_PPS*%
X150750000Y-110900000D02*
X143471000Y-110900000D01*
X122252000Y-117381000D02*
X122252000Y-117900000D01*
X132595000Y-107038000D02*
X122252000Y-117381000D01*
X139609000Y-107038000D02*
X132595000Y-107038000D01*
X122252000Y-117900000D02*
X121250000Y-117900000D01*
X143471000Y-110900000D02*
X139609000Y-107038000D01*
%TO.N,SD_CMD*%
X144566000Y-132865000D02*
X146050000Y-132865000D01*
X148517000Y-142254000D02*
X149921000Y-142254000D01*
X138750000Y-117900000D02*
X139752000Y-117900000D01*
X143275000Y-132425000D02*
X144127000Y-132425000D01*
X139752000Y-117964000D02*
X140231000Y-118444000D01*
X144127000Y-132425000D02*
X144566000Y-132865000D01*
X149921000Y-142254000D02*
X150000000Y-142175000D01*
X139752000Y-117900000D02*
X139752000Y-117964000D01*
%TO.N,LED_NAV*%
X126175000Y-128118000D02*
X126129000Y-128072000D01*
X127786000Y-122980000D02*
X138750000Y-122980000D01*
X126175000Y-129000000D02*
X126175000Y-128118000D01*
%TO.N,NAV_LED_A*%
X127806500Y-131981000D02*
X127788000Y-132000000D01*
X127806500Y-131981000D02*
X127787500Y-132000000D01*
X127825000Y-129000000D02*
X127825000Y-131962000D01*
X127825000Y-131962000D02*
X127806500Y-131981000D01*
%TO.N,EN*%
X100995000Y-111525000D02*
X108317000Y-111525000D01*
X112775000Y-128370000D02*
X115330000Y-128370000D01*
X115330000Y-128370000D02*
X115751000Y-127950000D01*
X115751000Y-127950000D02*
X115751000Y-118959000D01*
X108317000Y-111525000D02*
X111650000Y-114858000D01*
X115751000Y-118959000D02*
X111650000Y-114858000D01*
X111650000Y-114858000D02*
X116228000Y-110280000D01*
X99950000Y-110480000D02*
X100995000Y-111525000D01*
X110640000Y-129145000D02*
X112000000Y-129145000D01*
X99950000Y-102520000D02*
X99950000Y-110480000D01*
X116228000Y-110280000D02*
X121250000Y-110280000D01*
X112000000Y-129145000D02*
X112775000Y-128370000D01*
X109040000Y-127545000D02*
X110640000Y-129145000D01*
%TO.N,SD_D2*%
X144926000Y-129425000D02*
X144926000Y-119265000D01*
X159609000Y-140410000D02*
X159609000Y-139051000D01*
X157844000Y-142175000D02*
X159609000Y-140410000D01*
X139752000Y-114090000D02*
X138750000Y-114090000D01*
X144127000Y-130225000D02*
X144926000Y-129425000D01*
X143275000Y-130225000D02*
X144127000Y-130225000D01*
X159609000Y-139051000D02*
X149983000Y-129425000D01*
X157500000Y-142175000D02*
X157844000Y-142175000D01*
X144926000Y-119265000D02*
X139752000Y-114090000D01*
X149983000Y-129425000D02*
X144926000Y-129425000D01*
%TO.N,5V_FC*%
X132504000Y-155446000D02*
X132504000Y-153790000D01*
X131839000Y-156110000D02*
X132504000Y-155446000D01*
X105720000Y-140000000D02*
X118000000Y-152280000D01*
X121022000Y-156517000D02*
X122722000Y-156517000D01*
X118000000Y-152280000D02*
X118000000Y-154146000D01*
X137871000Y-155125000D02*
X155150000Y-155125000D01*
X136226000Y-153480000D02*
X137871000Y-155125000D01*
X132814000Y-153480000D02*
X136226000Y-153480000D01*
X122722000Y-156517000D02*
X123424000Y-155815000D01*
X132504000Y-153790000D02*
X132814000Y-153480000D01*
X118978000Y-155124000D02*
X119629000Y-155124000D01*
X118000000Y-154146000D02*
X118978000Y-155124000D01*
X123424000Y-155815000D02*
X126332000Y-155815000D01*
X119629000Y-155124000D02*
X121022000Y-156517000D01*
X126628000Y-156110000D02*
X131839000Y-156110000D01*
X126332000Y-155815000D02*
X126628000Y-156110000D01*
%TO.N,LED_LINK*%
X134175000Y-129030000D02*
X133489000Y-129716000D01*
X134175000Y-129000000D02*
X134175000Y-129030000D01*
X138750000Y-120440000D02*
X133489000Y-120440000D01*
%TO.N,SPI_SCK*%
X140975000Y-135698000D02*
X139955000Y-134678000D01*
X129238000Y-148036500D02*
X129237500Y-148037000D01*
X132012300Y-137999700D02*
X132130000Y-137882000D01*
X129368000Y-133805000D02*
X129296000Y-133805000D01*
X129568000Y-126704000D02*
X129846000Y-126704000D01*
X129237500Y-148037000D02*
X129237500Y-148250000D01*
X129365000Y-125500000D02*
X129365000Y-126502000D01*
X132012500Y-138000000D02*
X132012300Y-137999800D01*
X132130000Y-136568000D02*
X129368000Y-133805000D01*
X132130000Y-137882000D02*
X132130000Y-137401000D01*
X129238000Y-148036500D02*
X129238000Y-148250000D01*
X139955000Y-134678000D02*
X137752000Y-134678000D01*
X128923000Y-147610000D02*
X129136000Y-147823000D01*
X140975000Y-136200000D02*
X140975000Y-135698000D01*
X132130000Y-137401000D02*
X132130000Y-136568000D01*
X129136000Y-147823000D02*
X129238000Y-147823000D01*
X129365000Y-126502000D02*
X129568000Y-126704000D01*
X132012000Y-138000000D02*
X132012300Y-137999700D01*
X129238000Y-147823000D02*
X129238000Y-148036500D01*
X132012300Y-137999800D02*
X132012300Y-137999700D01*
%TO.N,MAG_C1*%
X129237500Y-149963000D02*
X129237500Y-149750000D01*
X129238000Y-149963500D02*
X129238000Y-150177000D01*
X126754000Y-152908000D02*
X126000000Y-152155000D01*
X129238000Y-150177000D02*
X129150000Y-150265000D01*
X129150000Y-150265000D02*
X129150000Y-150391000D01*
X129238000Y-149963500D02*
X129237500Y-149963000D01*
X129150000Y-152908000D02*
X126754000Y-152908000D01*
X129238000Y-149750000D02*
X129238000Y-149963500D01*
%TO.N,MAG_DRDY*%
X130762000Y-149250000D02*
X130762500Y-149250000D01*
X121250000Y-121710000D02*
X119305000Y-121710000D01*
X130762500Y-149250000D02*
X131410000Y-149250000D01*
%TO.N,SPI_MISO*%
X131000000Y-139262500D02*
X131000000Y-139583000D01*
X131478000Y-140061000D02*
X132660000Y-140061000D01*
X132660000Y-140061000D02*
X132660000Y-140261000D01*
X129519000Y-128147000D02*
X129519000Y-129463000D01*
X128500000Y-139262500D02*
X128500000Y-140293000D01*
X130762000Y-148750000D02*
X130762500Y-148750000D01*
X129344000Y-141136000D02*
X129344000Y-141155000D01*
X129519000Y-129463000D02*
X131000000Y-130944000D01*
X140970000Y-138850000D02*
X134580000Y-138850000D01*
X128500000Y-140293000D02*
X129344000Y-141136000D01*
X134580000Y-138850000D02*
X134580000Y-138300000D01*
X131000000Y-133098000D02*
X134266000Y-136364000D01*
X134266000Y-136364000D02*
X135252000Y-136364000D01*
X132660000Y-140061000D02*
X132819000Y-140061000D01*
X131948000Y-143759000D02*
X131948000Y-147492000D01*
X131888000Y-147843000D02*
X131888000Y-147551000D01*
X130762500Y-148750000D02*
X130981000Y-148750000D01*
X130981000Y-148750000D02*
X131888000Y-147843000D01*
X131000000Y-139262000D02*
X131000000Y-139262500D01*
X131000000Y-130944000D02*
X131000000Y-133098000D01*
X128500000Y-139262000D02*
X128500000Y-139262500D01*
X132819000Y-140061000D02*
X134579000Y-138302000D01*
X130635000Y-127030000D02*
X129519000Y-128147000D01*
X129344000Y-141155000D02*
X131948000Y-143759000D01*
X130635000Y-125500000D02*
X130635000Y-127030000D01*
X140970000Y-137800000D02*
X140970000Y-138850000D01*
X131000000Y-139583000D02*
X131478000Y-140061000D01*
X131948000Y-147492000D02*
X131888000Y-147551000D01*
%TO.N,CS_MAG*%
X131905000Y-125500000D02*
X131905000Y-126545000D01*
X130762000Y-148036500D02*
X130762000Y-147823000D01*
X132897000Y-127537000D02*
X132897000Y-130100000D01*
X130811000Y-147775000D02*
X130811000Y-147622000D01*
X133502000Y-130704000D02*
X133502000Y-134804000D01*
X130762000Y-147823000D02*
X130811000Y-147775000D01*
X130762000Y-148036500D02*
X130762500Y-148037000D01*
X132897000Y-130100000D02*
X133502000Y-130704000D01*
X130762000Y-148250000D02*
X130762000Y-148036500D01*
X133502000Y-134804000D02*
X134293000Y-135596000D01*
X131905000Y-126545000D02*
X132897000Y-127537000D01*
X130762500Y-148037000D02*
X130762500Y-148250000D01*
%TO.N,SPI_MOSI*%
X131500500Y-139262000D02*
X132263000Y-139262000D01*
X130250000Y-148238000D02*
X130250000Y-148237500D01*
X132263000Y-139262000D02*
X132303000Y-139222000D01*
X130646000Y-146977000D02*
X131376000Y-146977000D01*
X129396000Y-133253000D02*
X128478000Y-132334000D01*
X140325000Y-136200000D02*
X140325000Y-136702000D01*
X128478000Y-132334000D02*
X128478000Y-126884000D01*
X130250000Y-148237500D02*
X130250000Y-147372000D01*
X132682000Y-138843000D02*
X132682000Y-136924000D01*
X132303000Y-139222000D02*
X132591000Y-139509000D01*
X130250000Y-147372000D02*
X130646000Y-146977000D01*
X140103000Y-136924000D02*
X132682000Y-136924000D01*
X132682000Y-136411000D02*
X129525000Y-133253000D01*
X132682000Y-136924000D02*
X132682000Y-136411000D01*
X132303000Y-139222000D02*
X132682000Y-138843000D01*
X128095000Y-126502000D02*
X128095000Y-125500000D01*
X129525000Y-133253000D02*
X129396000Y-133253000D01*
X128478000Y-126884000D02*
X128095000Y-126502000D01*
X140325000Y-136702000D02*
X140103000Y-136924000D01*
X131500000Y-139262000D02*
X131500500Y-139262000D01*
X131500500Y-139262000D02*
X131500000Y-139262500D01*
%TO.N,SD_D3*%
X142423000Y-129512000D02*
X142423000Y-131325000D01*
X143275000Y-131325000D02*
X142423000Y-131325000D01*
X137539000Y-124498000D02*
X137687000Y-124646000D01*
X145779000Y-142781000D02*
X145237000Y-142781000D01*
X137687000Y-124775000D02*
X142423000Y-129512000D01*
X145237000Y-142781000D02*
X142361000Y-139904000D01*
X142361000Y-139904000D02*
X142361000Y-131388000D01*
X134445000Y-125500000D02*
X134445000Y-124498000D01*
X142361000Y-131388000D02*
X142423000Y-131325000D01*
X148614000Y-145615000D02*
X145779000Y-142781000D01*
X137687000Y-124646000D02*
X137687000Y-124775000D01*
X134445000Y-124498000D02*
X137539000Y-124498000D01*
X150000000Y-145615000D02*
X148614000Y-145615000D01*
%TO.N,LED_FIX*%
X130916000Y-128259000D02*
X132269000Y-128259000D01*
X130175000Y-129000000D02*
X130916000Y-128259000D01*
X132504000Y-130840000D02*
X132907000Y-131243000D01*
X136328000Y-121400000D02*
X137438000Y-121400000D01*
X132504000Y-128495000D02*
X132504000Y-130840000D01*
X137438000Y-121400000D02*
X137748000Y-121710000D01*
X137748000Y-121710000D02*
X138750000Y-121710000D01*
X132269000Y-128259000D02*
X132504000Y-128495000D01*
%TO.N,SD_CLK*%
X138750000Y-119170000D02*
X139752000Y-119170000D01*
X139752000Y-119170000D02*
X139849000Y-119267000D01*
X139849000Y-119267000D02*
X141323000Y-119267000D01*
X144127000Y-133736000D02*
X144345000Y-133518000D01*
X144127000Y-134625000D02*
X144127000Y-133736000D01*
X143275000Y-134625000D02*
X144127000Y-134625000D01*
%TO.N,SD_D0*%
X151833000Y-141508000D02*
X146930000Y-141508000D01*
X146930000Y-141508000D02*
X146855000Y-141583000D01*
X143275000Y-136825000D02*
X146855000Y-136825000D01*
X152500000Y-142175000D02*
X151833000Y-141508000D01*
X138750000Y-116630000D02*
X140638000Y-116630000D01*
%TO.N,SD_D1*%
X155000000Y-142175000D02*
X153837000Y-141012000D01*
X138750000Y-115360000D02*
X139958000Y-115360000D01*
X153837000Y-141012000D02*
X146280000Y-141012000D01*
X143275000Y-137925000D02*
X144337000Y-137925000D01*
%TO.N,FC_RXD*%
X155150000Y-152625000D02*
X152200000Y-152625000D01*
X127266000Y-111550000D02*
X121250000Y-111550000D01*
%TO.N,FC_TXD*%
X156277000Y-154787000D02*
X156277000Y-155464000D01*
X155150000Y-153875000D02*
X155365000Y-153875000D01*
X121250000Y-112820000D02*
X120248000Y-112820000D01*
X119931000Y-112503000D02*
X118734000Y-112503000D01*
X155990000Y-155751000D02*
X134224000Y-155751000D01*
X120248000Y-112820000D02*
X119931000Y-112503000D01*
X155365000Y-153875000D02*
X156277000Y-154787000D01*
X156277000Y-155464000D02*
X155990000Y-155751000D01*
X134224000Y-155751000D02*
X132987000Y-156988000D01*
X132987000Y-156988000D02*
X126115000Y-156988000D01*
%TO.N,INT_ACC*%
X126587500Y-136600000D02*
X127987500Y-138000000D01*
X127988000Y-138000000D02*
X126587500Y-136600000D01*
X125187000Y-135200000D02*
X122455000Y-135200000D01*
X121250000Y-114090000D02*
X122455000Y-114090000D01*
X126587500Y-136600000D02*
X125187000Y-135200000D01*
%TO.N,INT_GYR*%
X130000000Y-139903000D02*
X130151000Y-140054000D01*
X130000000Y-139262000D02*
X130000000Y-139262500D01*
X133315000Y-136372000D02*
X129294000Y-132351000D01*
X121250000Y-115360000D02*
X123011000Y-115360000D01*
X133492000Y-136372000D02*
X133315000Y-136372000D01*
X130000000Y-139262500D02*
X130000000Y-139903000D01*
%TO.N,USB_DN*%
X115507000Y-131950000D02*
X113507000Y-133950000D01*
X122252000Y-122980000D02*
X122252000Y-124855000D01*
X113507000Y-133950000D02*
X113138000Y-133950000D01*
X121250000Y-122980000D02*
X122252000Y-122980000D01*
X122252000Y-124855000D02*
X120284000Y-126824000D01*
X115507000Y-130655000D02*
X115507000Y-131950000D01*
X120284000Y-126824000D02*
X119339000Y-126824000D01*
X119339000Y-126824000D02*
X115507000Y-130655000D01*
X113138000Y-133950000D02*
X113137500Y-133950000D01*
%TO.N,USB_DP*%
X113138000Y-132050000D02*
X113137500Y-132050000D01*
X113294000Y-132050000D02*
X113138000Y-132050000D01*
X121250000Y-124250000D02*
X120248000Y-124250000D01*
X120248000Y-125095000D02*
X113294000Y-132050000D01*
X120248000Y-124250000D02*
X120248000Y-125095000D01*
%TO.N,MAST_INT*%
X121490000Y-134619000D02*
X121490000Y-135603000D01*
X123737000Y-127135000D02*
X123737000Y-132373000D01*
X131875000Y-153871000D02*
X132629000Y-153117000D01*
X134229000Y-153117000D02*
X134801000Y-152545000D01*
X123104000Y-126502000D02*
X123737000Y-127135000D01*
X123737000Y-132373000D02*
X121490000Y-134619000D01*
X131875000Y-154650000D02*
X131875000Y-153871000D01*
X128154000Y-141041000D02*
X128154000Y-141224000D01*
X132629000Y-153117000D02*
X134229000Y-153117000D01*
X134801000Y-151716000D02*
X134464000Y-151380000D01*
X134464000Y-151380000D02*
X133060000Y-151380000D01*
X123015000Y-125500000D02*
X123015000Y-126502000D01*
X123734000Y-136621000D02*
X128154000Y-141041000D01*
X121490000Y-135603000D02*
X122509000Y-136621000D01*
X134801000Y-152545000D02*
X134801000Y-151716000D01*
X123015000Y-126502000D02*
X123104000Y-126502000D01*
X122509000Y-136621000D02*
X123734000Y-136621000D01*
%TO.N,CS_GYR*%
X130500000Y-136737500D02*
X130500000Y-136426000D01*
X130500000Y-136426000D02*
X127013000Y-132939000D01*
X127013000Y-127960000D02*
X125555000Y-126502000D01*
X130500000Y-136738000D02*
X130500000Y-136737500D01*
X125555000Y-126502000D02*
X125555000Y-125500000D01*
X127013000Y-132939000D02*
X127013000Y-127960000D01*
%TO.N,CS_ACC*%
X129000000Y-139262500D02*
X129000000Y-140031000D01*
X127465000Y-121721000D02*
X134747000Y-121721000D01*
X126110000Y-124498000D02*
X125600000Y-123989000D01*
X126825000Y-125500000D02*
X126825000Y-124498000D01*
X129000000Y-140031000D02*
X129895000Y-140926000D01*
X125600000Y-123585000D02*
X127465000Y-121721000D01*
X125600000Y-123989000D02*
X125600000Y-123585000D01*
X126825000Y-124498000D02*
X126110000Y-124498000D01*
X129000000Y-139262000D02*
X129000000Y-139262500D01*
%TO.N,CS_BARO*%
X133175000Y-125500000D02*
X133175000Y-126815000D01*
X135000000Y-132706000D02*
X137992000Y-135698000D01*
X139675000Y-135698000D02*
X139675000Y-136200000D01*
X135000000Y-128640000D02*
X135000000Y-132706000D01*
X137992000Y-135698000D02*
X139675000Y-135698000D01*
X133175000Y-126815000D02*
X135000000Y-128640000D01*
%TO.N,I2C_SDA*%
X117000500Y-139052000D02*
X117029000Y-139052000D01*
X129701000Y-154324000D02*
X129375000Y-154650000D01*
X127575000Y-149599000D02*
X127575000Y-150824000D01*
X117000000Y-139052000D02*
X117000500Y-139052000D01*
X117998000Y-140021000D02*
X127575000Y-149599000D01*
X119564000Y-138455000D02*
X124778000Y-138455000D01*
X138750000Y-109010000D02*
X139963000Y-109010000D01*
X129701000Y-152680000D02*
X129701000Y-154324000D01*
X129292000Y-152271000D02*
X129701000Y-152680000D01*
X129022000Y-152271000D02*
X129292000Y-152271000D01*
X117029000Y-139052000D02*
X117998000Y-140021000D01*
X117000500Y-139052000D02*
X117000000Y-139052500D01*
X124778000Y-138455000D02*
X127402000Y-141078000D01*
X127575000Y-150824000D02*
X129022000Y-152271000D01*
X117998000Y-140021000D02*
X119564000Y-138455000D01*
%TD*%
M02*
