%TF.GenerationSoftware,KiCad,Pcbnew,10.0.3*%
%TF.CreationDate,2026-09-12T20:49:33+03:00*%
%TF.ProjectId,dronemagnav,64726f6e-656d-4616-976e-61762e6b6963,rev?*%
%TF.SameCoordinates,Original*%
%TF.FileFunction,Other,Comment*%
%FSLAX46Y46*%
G04 Gerber Fmt 4.6, Leading zero omitted, Abs format (unit mm)*
G04 Created by KiCad (PCBNEW 10.0.3) date 2026-09-12 20:49:33*
%MOMM*%
%LPD*%
G01*
G04 APERTURE LIST*
%ADD10C,0.090000*%
%ADD11C,0.100000*%
%ADD12C,0.060000*%
%ADD13C,0.150000*%
G04 APERTURE END LIST*
D10*
X145892858Y-140122891D02*
X145892858Y-139522891D01*
X146235715Y-140122891D02*
X145978572Y-139780034D01*
X146235715Y-139522891D02*
X145892858Y-139865748D01*
X146492858Y-139808605D02*
X146692858Y-139808605D01*
X146778572Y-140122891D02*
X146492858Y-140122891D01*
X146492858Y-140122891D02*
X146492858Y-139522891D01*
X146492858Y-139522891D02*
X146778572Y-139522891D01*
X147035715Y-139808605D02*
X147235715Y-139808605D01*
X147321429Y-140122891D02*
X147035715Y-140122891D01*
X147035715Y-140122891D02*
X147035715Y-139522891D01*
X147035715Y-139522891D02*
X147321429Y-139522891D01*
X147578572Y-140122891D02*
X147578572Y-139522891D01*
X147578572Y-139522891D02*
X147807143Y-139522891D01*
X147807143Y-139522891D02*
X147864286Y-139551462D01*
X147864286Y-139551462D02*
X147892857Y-139580034D01*
X147892857Y-139580034D02*
X147921429Y-139637177D01*
X147921429Y-139637177D02*
X147921429Y-139722891D01*
X147921429Y-139722891D02*
X147892857Y-139780034D01*
X147892857Y-139780034D02*
X147864286Y-139808605D01*
X147864286Y-139808605D02*
X147807143Y-139837177D01*
X147807143Y-139837177D02*
X147578572Y-139837177D01*
X148292857Y-139522891D02*
X148407143Y-139522891D01*
X148407143Y-139522891D02*
X148464286Y-139551462D01*
X148464286Y-139551462D02*
X148521429Y-139608605D01*
X148521429Y-139608605D02*
X148550000Y-139722891D01*
X148550000Y-139722891D02*
X148550000Y-139922891D01*
X148550000Y-139922891D02*
X148521429Y-140037177D01*
X148521429Y-140037177D02*
X148464286Y-140094320D01*
X148464286Y-140094320D02*
X148407143Y-140122891D01*
X148407143Y-140122891D02*
X148292857Y-140122891D01*
X148292857Y-140122891D02*
X148235715Y-140094320D01*
X148235715Y-140094320D02*
X148178572Y-140037177D01*
X148178572Y-140037177D02*
X148150000Y-139922891D01*
X148150000Y-139922891D02*
X148150000Y-139722891D01*
X148150000Y-139722891D02*
X148178572Y-139608605D01*
X148178572Y-139608605D02*
X148235715Y-139551462D01*
X148235715Y-139551462D02*
X148292857Y-139522891D01*
X148807143Y-139522891D02*
X148807143Y-140008605D01*
X148807143Y-140008605D02*
X148835714Y-140065748D01*
X148835714Y-140065748D02*
X148864286Y-140094320D01*
X148864286Y-140094320D02*
X148921428Y-140122891D01*
X148921428Y-140122891D02*
X149035714Y-140122891D01*
X149035714Y-140122891D02*
X149092857Y-140094320D01*
X149092857Y-140094320D02*
X149121428Y-140065748D01*
X149121428Y-140065748D02*
X149150000Y-140008605D01*
X149150000Y-140008605D02*
X149150000Y-139522891D01*
X149349999Y-139522891D02*
X149692857Y-139522891D01*
X149521428Y-140122891D02*
X149521428Y-139522891D01*
D11*
X149532419Y-137170237D02*
X148532419Y-137170237D01*
X149532419Y-136598809D02*
X148960990Y-137027380D01*
X148532419Y-136598809D02*
X149103847Y-137170237D01*
X149008609Y-136170237D02*
X149008609Y-135836904D01*
X149532419Y-135694047D02*
X149532419Y-136170237D01*
X149532419Y-136170237D02*
X148532419Y-136170237D01*
X148532419Y-136170237D02*
X148532419Y-135694047D01*
X149008609Y-135265475D02*
X149008609Y-134932142D01*
X149532419Y-134789285D02*
X149532419Y-135265475D01*
X149532419Y-135265475D02*
X148532419Y-135265475D01*
X148532419Y-135265475D02*
X148532419Y-134789285D01*
X149532419Y-134360713D02*
X148532419Y-134360713D01*
X148532419Y-134360713D02*
X148532419Y-133979761D01*
X148532419Y-133979761D02*
X148580038Y-133884523D01*
X148580038Y-133884523D02*
X148627657Y-133836904D01*
X148627657Y-133836904D02*
X148722895Y-133789285D01*
X148722895Y-133789285D02*
X148865752Y-133789285D01*
X148865752Y-133789285D02*
X148960990Y-133836904D01*
X148960990Y-133836904D02*
X149008609Y-133884523D01*
X149008609Y-133884523D02*
X149056228Y-133979761D01*
X149056228Y-133979761D02*
X149056228Y-134360713D01*
X148532419Y-133170237D02*
X148532419Y-132979761D01*
X148532419Y-132979761D02*
X148580038Y-132884523D01*
X148580038Y-132884523D02*
X148675276Y-132789285D01*
X148675276Y-132789285D02*
X148865752Y-132741666D01*
X148865752Y-132741666D02*
X149199085Y-132741666D01*
X149199085Y-132741666D02*
X149389561Y-132789285D01*
X149389561Y-132789285D02*
X149484800Y-132884523D01*
X149484800Y-132884523D02*
X149532419Y-132979761D01*
X149532419Y-132979761D02*
X149532419Y-133170237D01*
X149532419Y-133170237D02*
X149484800Y-133265475D01*
X149484800Y-133265475D02*
X149389561Y-133360713D01*
X149389561Y-133360713D02*
X149199085Y-133408332D01*
X149199085Y-133408332D02*
X148865752Y-133408332D01*
X148865752Y-133408332D02*
X148675276Y-133360713D01*
X148675276Y-133360713D02*
X148580038Y-133265475D01*
X148580038Y-133265475D02*
X148532419Y-133170237D01*
X148532419Y-132313094D02*
X149341942Y-132313094D01*
X149341942Y-132313094D02*
X149437180Y-132265475D01*
X149437180Y-132265475D02*
X149484800Y-132217856D01*
X149484800Y-132217856D02*
X149532419Y-132122618D01*
X149532419Y-132122618D02*
X149532419Y-131932142D01*
X149532419Y-131932142D02*
X149484800Y-131836904D01*
X149484800Y-131836904D02*
X149437180Y-131789285D01*
X149437180Y-131789285D02*
X149341942Y-131741666D01*
X149341942Y-131741666D02*
X148532419Y-131741666D01*
X148532419Y-131408332D02*
X148532419Y-130836904D01*
X149532419Y-131122618D02*
X148532419Y-131122618D01*
D10*
X151517858Y-139047891D02*
X151517858Y-138447891D01*
X151860715Y-139047891D02*
X151603572Y-138705034D01*
X151860715Y-138447891D02*
X151517858Y-138790748D01*
X152117858Y-138733605D02*
X152317858Y-138733605D01*
X152403572Y-139047891D02*
X152117858Y-139047891D01*
X152117858Y-139047891D02*
X152117858Y-138447891D01*
X152117858Y-138447891D02*
X152403572Y-138447891D01*
X152660715Y-138733605D02*
X152860715Y-138733605D01*
X152946429Y-139047891D02*
X152660715Y-139047891D01*
X152660715Y-139047891D02*
X152660715Y-138447891D01*
X152660715Y-138447891D02*
X152946429Y-138447891D01*
X153203572Y-139047891D02*
X153203572Y-138447891D01*
X153203572Y-138447891D02*
X153432143Y-138447891D01*
X153432143Y-138447891D02*
X153489286Y-138476462D01*
X153489286Y-138476462D02*
X153517857Y-138505034D01*
X153517857Y-138505034D02*
X153546429Y-138562177D01*
X153546429Y-138562177D02*
X153546429Y-138647891D01*
X153546429Y-138647891D02*
X153517857Y-138705034D01*
X153517857Y-138705034D02*
X153489286Y-138733605D01*
X153489286Y-138733605D02*
X153432143Y-138762177D01*
X153432143Y-138762177D02*
X153203572Y-138762177D01*
X153917857Y-138447891D02*
X154032143Y-138447891D01*
X154032143Y-138447891D02*
X154089286Y-138476462D01*
X154089286Y-138476462D02*
X154146429Y-138533605D01*
X154146429Y-138533605D02*
X154175000Y-138647891D01*
X154175000Y-138647891D02*
X154175000Y-138847891D01*
X154175000Y-138847891D02*
X154146429Y-138962177D01*
X154146429Y-138962177D02*
X154089286Y-139019320D01*
X154089286Y-139019320D02*
X154032143Y-139047891D01*
X154032143Y-139047891D02*
X153917857Y-139047891D01*
X153917857Y-139047891D02*
X153860715Y-139019320D01*
X153860715Y-139019320D02*
X153803572Y-138962177D01*
X153803572Y-138962177D02*
X153775000Y-138847891D01*
X153775000Y-138847891D02*
X153775000Y-138647891D01*
X153775000Y-138647891D02*
X153803572Y-138533605D01*
X153803572Y-138533605D02*
X153860715Y-138476462D01*
X153860715Y-138476462D02*
X153917857Y-138447891D01*
X154432143Y-138447891D02*
X154432143Y-138933605D01*
X154432143Y-138933605D02*
X154460714Y-138990748D01*
X154460714Y-138990748D02*
X154489286Y-139019320D01*
X154489286Y-139019320D02*
X154546428Y-139047891D01*
X154546428Y-139047891D02*
X154660714Y-139047891D01*
X154660714Y-139047891D02*
X154717857Y-139019320D01*
X154717857Y-139019320D02*
X154746428Y-138990748D01*
X154746428Y-138990748D02*
X154775000Y-138933605D01*
X154775000Y-138933605D02*
X154775000Y-138447891D01*
X154974999Y-138447891D02*
X155317857Y-138447891D01*
X155146428Y-139047891D02*
X155146428Y-138447891D01*
D12*
X158831927Y-130038095D02*
X158431927Y-130038095D01*
X158831927Y-129809524D02*
X158603356Y-129980953D01*
X158431927Y-129809524D02*
X158660499Y-130038095D01*
X158622403Y-129638095D02*
X158622403Y-129504762D01*
X158831927Y-129447619D02*
X158831927Y-129638095D01*
X158831927Y-129638095D02*
X158431927Y-129638095D01*
X158431927Y-129638095D02*
X158431927Y-129447619D01*
X158622403Y-129276190D02*
X158622403Y-129142857D01*
X158831927Y-129085714D02*
X158831927Y-129276190D01*
X158831927Y-129276190D02*
X158431927Y-129276190D01*
X158431927Y-129276190D02*
X158431927Y-129085714D01*
X158831927Y-128914285D02*
X158431927Y-128914285D01*
X158431927Y-128914285D02*
X158431927Y-128761904D01*
X158431927Y-128761904D02*
X158450975Y-128723809D01*
X158450975Y-128723809D02*
X158470022Y-128704762D01*
X158470022Y-128704762D02*
X158508118Y-128685714D01*
X158508118Y-128685714D02*
X158565260Y-128685714D01*
X158565260Y-128685714D02*
X158603356Y-128704762D01*
X158603356Y-128704762D02*
X158622403Y-128723809D01*
X158622403Y-128723809D02*
X158641451Y-128761904D01*
X158641451Y-128761904D02*
X158641451Y-128914285D01*
X158431927Y-128438095D02*
X158431927Y-128361904D01*
X158431927Y-128361904D02*
X158450975Y-128323809D01*
X158450975Y-128323809D02*
X158489070Y-128285714D01*
X158489070Y-128285714D02*
X158565260Y-128266666D01*
X158565260Y-128266666D02*
X158698594Y-128266666D01*
X158698594Y-128266666D02*
X158774784Y-128285714D01*
X158774784Y-128285714D02*
X158812880Y-128323809D01*
X158812880Y-128323809D02*
X158831927Y-128361904D01*
X158831927Y-128361904D02*
X158831927Y-128438095D01*
X158831927Y-128438095D02*
X158812880Y-128476190D01*
X158812880Y-128476190D02*
X158774784Y-128514285D01*
X158774784Y-128514285D02*
X158698594Y-128533333D01*
X158698594Y-128533333D02*
X158565260Y-128533333D01*
X158565260Y-128533333D02*
X158489070Y-128514285D01*
X158489070Y-128514285D02*
X158450975Y-128476190D01*
X158450975Y-128476190D02*
X158431927Y-128438095D01*
X158431927Y-128095237D02*
X158755737Y-128095237D01*
X158755737Y-128095237D02*
X158793832Y-128076190D01*
X158793832Y-128076190D02*
X158812880Y-128057142D01*
X158812880Y-128057142D02*
X158831927Y-128019047D01*
X158831927Y-128019047D02*
X158831927Y-127942856D01*
X158831927Y-127942856D02*
X158812880Y-127904761D01*
X158812880Y-127904761D02*
X158793832Y-127885714D01*
X158793832Y-127885714D02*
X158755737Y-127866666D01*
X158755737Y-127866666D02*
X158431927Y-127866666D01*
X158431927Y-127733332D02*
X158431927Y-127504761D01*
X158831927Y-127619047D02*
X158431927Y-127619047D01*
D13*
X127188095Y-103729104D02*
X127664285Y-103729104D01*
X127092857Y-104014819D02*
X127426190Y-103014819D01*
X127426190Y-103014819D02*
X127759523Y-104014819D01*
X128092857Y-103348152D02*
X128092857Y-104014819D01*
X128092857Y-103443390D02*
X128140476Y-103395771D01*
X128140476Y-103395771D02*
X128235714Y-103348152D01*
X128235714Y-103348152D02*
X128378571Y-103348152D01*
X128378571Y-103348152D02*
X128473809Y-103395771D01*
X128473809Y-103395771D02*
X128521428Y-103491009D01*
X128521428Y-103491009D02*
X128521428Y-104014819D01*
X128854762Y-103348152D02*
X129235714Y-103348152D01*
X128997619Y-103014819D02*
X128997619Y-103871961D01*
X128997619Y-103871961D02*
X129045238Y-103967200D01*
X129045238Y-103967200D02*
X129140476Y-104014819D01*
X129140476Y-104014819D02*
X129235714Y-104014819D01*
X129950000Y-103967200D02*
X129854762Y-104014819D01*
X129854762Y-104014819D02*
X129664286Y-104014819D01*
X129664286Y-104014819D02*
X129569048Y-103967200D01*
X129569048Y-103967200D02*
X129521429Y-103871961D01*
X129521429Y-103871961D02*
X129521429Y-103491009D01*
X129521429Y-103491009D02*
X129569048Y-103395771D01*
X129569048Y-103395771D02*
X129664286Y-103348152D01*
X129664286Y-103348152D02*
X129854762Y-103348152D01*
X129854762Y-103348152D02*
X129950000Y-103395771D01*
X129950000Y-103395771D02*
X129997619Y-103491009D01*
X129997619Y-103491009D02*
X129997619Y-103586247D01*
X129997619Y-103586247D02*
X129521429Y-103681485D01*
X130426191Y-103348152D02*
X130426191Y-104014819D01*
X130426191Y-103443390D02*
X130473810Y-103395771D01*
X130473810Y-103395771D02*
X130569048Y-103348152D01*
X130569048Y-103348152D02*
X130711905Y-103348152D01*
X130711905Y-103348152D02*
X130807143Y-103395771D01*
X130807143Y-103395771D02*
X130854762Y-103491009D01*
X130854762Y-103491009D02*
X130854762Y-104014819D01*
X131330953Y-103348152D02*
X131330953Y-104014819D01*
X131330953Y-103443390D02*
X131378572Y-103395771D01*
X131378572Y-103395771D02*
X131473810Y-103348152D01*
X131473810Y-103348152D02*
X131616667Y-103348152D01*
X131616667Y-103348152D02*
X131711905Y-103395771D01*
X131711905Y-103395771D02*
X131759524Y-103491009D01*
X131759524Y-103491009D02*
X131759524Y-104014819D01*
X132664286Y-104014819D02*
X132664286Y-103491009D01*
X132664286Y-103491009D02*
X132616667Y-103395771D01*
X132616667Y-103395771D02*
X132521429Y-103348152D01*
X132521429Y-103348152D02*
X132330953Y-103348152D01*
X132330953Y-103348152D02*
X132235715Y-103395771D01*
X132664286Y-103967200D02*
X132569048Y-104014819D01*
X132569048Y-104014819D02*
X132330953Y-104014819D01*
X132330953Y-104014819D02*
X132235715Y-103967200D01*
X132235715Y-103967200D02*
X132188096Y-103871961D01*
X132188096Y-103871961D02*
X132188096Y-103776723D01*
X132188096Y-103776723D02*
X132235715Y-103681485D01*
X132235715Y-103681485D02*
X132330953Y-103633866D01*
X132330953Y-103633866D02*
X132569048Y-103633866D01*
X132569048Y-103633866D02*
X132664286Y-103586247D01*
X117857142Y-94997438D02*
X117857142Y-92997438D01*
X118999999Y-94997438D02*
X118142856Y-93854580D01*
X118999999Y-92997438D02*
X117857142Y-94140295D01*
X119857142Y-93949819D02*
X120523809Y-93949819D01*
X120809523Y-94997438D02*
X119857142Y-94997438D01*
X119857142Y-94997438D02*
X119857142Y-92997438D01*
X119857142Y-92997438D02*
X120809523Y-92997438D01*
X121666666Y-93949819D02*
X122333333Y-93949819D01*
X122619047Y-94997438D02*
X121666666Y-94997438D01*
X121666666Y-94997438D02*
X121666666Y-92997438D01*
X121666666Y-92997438D02*
X122619047Y-92997438D01*
X123476190Y-94997438D02*
X123476190Y-92997438D01*
X123476190Y-92997438D02*
X124238095Y-92997438D01*
X124238095Y-92997438D02*
X124428571Y-93092676D01*
X124428571Y-93092676D02*
X124523809Y-93187914D01*
X124523809Y-93187914D02*
X124619047Y-93378390D01*
X124619047Y-93378390D02*
X124619047Y-93664104D01*
X124619047Y-93664104D02*
X124523809Y-93854580D01*
X124523809Y-93854580D02*
X124428571Y-93949819D01*
X124428571Y-93949819D02*
X124238095Y-94045057D01*
X124238095Y-94045057D02*
X123476190Y-94045057D01*
X125476190Y-94235533D02*
X127000000Y-94235533D01*
X128333332Y-92997438D02*
X128714285Y-92997438D01*
X128714285Y-92997438D02*
X128904761Y-93092676D01*
X128904761Y-93092676D02*
X129095237Y-93283152D01*
X129095237Y-93283152D02*
X129190475Y-93664104D01*
X129190475Y-93664104D02*
X129190475Y-94330771D01*
X129190475Y-94330771D02*
X129095237Y-94711723D01*
X129095237Y-94711723D02*
X128904761Y-94902200D01*
X128904761Y-94902200D02*
X128714285Y-94997438D01*
X128714285Y-94997438D02*
X128333332Y-94997438D01*
X128333332Y-94997438D02*
X128142856Y-94902200D01*
X128142856Y-94902200D02*
X127952380Y-94711723D01*
X127952380Y-94711723D02*
X127857142Y-94330771D01*
X127857142Y-94330771D02*
X127857142Y-93664104D01*
X127857142Y-93664104D02*
X127952380Y-93283152D01*
X127952380Y-93283152D02*
X128142856Y-93092676D01*
X128142856Y-93092676D02*
X128333332Y-92997438D01*
X130047618Y-92997438D02*
X130047618Y-94616485D01*
X130047618Y-94616485D02*
X130142856Y-94806961D01*
X130142856Y-94806961D02*
X130238094Y-94902200D01*
X130238094Y-94902200D02*
X130428570Y-94997438D01*
X130428570Y-94997438D02*
X130809523Y-94997438D01*
X130809523Y-94997438D02*
X130999999Y-94902200D01*
X130999999Y-94902200D02*
X131095237Y-94806961D01*
X131095237Y-94806961D02*
X131190475Y-94616485D01*
X131190475Y-94616485D02*
X131190475Y-92997438D01*
X131857142Y-92997438D02*
X132999999Y-92997438D01*
X132428570Y-94997438D02*
X132428570Y-92997438D01*
X135000000Y-92997438D02*
X136333333Y-92997438D01*
X136333333Y-92997438D02*
X135000000Y-94997438D01*
X135000000Y-94997438D02*
X136333333Y-94997438D01*
X137476190Y-92997438D02*
X137857143Y-92997438D01*
X137857143Y-92997438D02*
X138047619Y-93092676D01*
X138047619Y-93092676D02*
X138238095Y-93283152D01*
X138238095Y-93283152D02*
X138333333Y-93664104D01*
X138333333Y-93664104D02*
X138333333Y-94330771D01*
X138333333Y-94330771D02*
X138238095Y-94711723D01*
X138238095Y-94711723D02*
X138047619Y-94902200D01*
X138047619Y-94902200D02*
X137857143Y-94997438D01*
X137857143Y-94997438D02*
X137476190Y-94997438D01*
X137476190Y-94997438D02*
X137285714Y-94902200D01*
X137285714Y-94902200D02*
X137095238Y-94711723D01*
X137095238Y-94711723D02*
X137000000Y-94330771D01*
X137000000Y-94330771D02*
X137000000Y-93664104D01*
X137000000Y-93664104D02*
X137095238Y-93283152D01*
X137095238Y-93283152D02*
X137285714Y-93092676D01*
X137285714Y-93092676D02*
X137476190Y-92997438D01*
X139190476Y-94997438D02*
X139190476Y-92997438D01*
X139190476Y-92997438D02*
X140333333Y-94997438D01*
X140333333Y-94997438D02*
X140333333Y-92997438D01*
X141285714Y-93949819D02*
X141952381Y-93949819D01*
X142238095Y-94997438D02*
X141285714Y-94997438D01*
X141285714Y-94997438D02*
X141285714Y-92997438D01*
X141285714Y-92997438D02*
X142238095Y-92997438D01*
%TO.C,H3*%
X117950000Y-145250000D02*
G75*
G02*
X111550000Y-145250000I-3200000J0D01*
G01*
X111550000Y-145250000D02*
G75*
G02*
X117950000Y-145250000I3200000J0D01*
G01*
%TO.C,H2*%
X148450000Y-114750000D02*
G75*
G02*
X142050000Y-114750000I-3200000J0D01*
G01*
X142050000Y-114750000D02*
G75*
G02*
X148450000Y-114750000I3200000J0D01*
G01*
%TO.C,H4*%
X148450000Y-145250000D02*
G75*
G02*
X142050000Y-145250000I-3200000J0D01*
G01*
X142050000Y-145250000D02*
G75*
G02*
X148450000Y-145250000I3200000J0D01*
G01*
%TO.C,H1*%
X117950000Y-114750000D02*
G75*
G02*
X111550000Y-114750000I-3200000J0D01*
G01*
X111550000Y-114750000D02*
G75*
G02*
X117950000Y-114750000I3200000J0D01*
G01*
%TD*%
M02*
