%TF.GenerationSoftware,KiCad,Pcbnew,10.0.3*%
%TF.CreationDate,2026-09-12T19:44:03+03:00*%
%TF.ProjectId,dronemagnav,64726f6e-656d-4616-976e-61762e6b6963,rev?*%
%TF.SameCoordinates,Original*%
%TF.FileFunction,Paste,Top*%
%TF.FilePolarity,Positive*%
%FSLAX46Y46*%
G04 Gerber Fmt 4.6, Leading zero omitted, Abs format (unit mm)*
G04 Created by KiCad (PCBNEW 10.0.3) date 2026-09-12 19:44:03*
%MOMM*%
%LPD*%
G01*
G04 APERTURE LIST*
G04 Aperture macros list*
%AMRoundRect*
0 Rectangle with rounded corners*
0 $1 Rounding radius*
0 $2 $3 $4 $5 $6 $7 $8 $9 X,Y pos of 4 corners*
0 Add a 4 corners polygon primitive as box body*
4,1,4,$2,$3,$4,$5,$6,$7,$8,$9,$2,$3,0*
0 Add four circle primitives for the rounded corners*
1,1,$1+$1,$2,$3*
1,1,$1+$1,$4,$5*
1,1,$1+$1,$6,$7*
1,1,$1+$1,$8,$9*
0 Add four rect primitives between the rounded corners*
20,1,$1+$1,$2,$3,$4,$5,0*
20,1,$1+$1,$4,$5,$6,$7,0*
20,1,$1+$1,$6,$7,$8,$9,0*
20,1,$1+$1,$8,$9,$2,$3,0*%
G04 Aperture macros list end*
%ADD10RoundRect,0.218750X-0.218750X-0.256250X0.218750X-0.256250X0.218750X0.256250X-0.218750X0.256250X0*%
%ADD11RoundRect,0.200000X0.275000X-0.200000X0.275000X0.200000X-0.275000X0.200000X-0.275000X-0.200000X0*%
%ADD12RoundRect,0.250000X0.400000X-0.525000X0.400000X0.525000X-0.400000X0.525000X-0.400000X-0.525000X0*%
%ADD13RoundRect,0.150000X-0.575000X0.150000X-0.575000X-0.150000X0.575000X-0.150000X0.575000X0.150000X0*%
%ADD14RoundRect,0.075000X-0.650000X0.075000X-0.650000X-0.075000X0.650000X-0.075000X0.650000X0.075000X0*%
%ADD15RoundRect,0.150000X-0.512500X-0.150000X0.512500X-0.150000X0.512500X0.150000X-0.512500X0.150000X0*%
%ADD16RoundRect,0.225000X0.250000X-0.225000X0.250000X0.225000X-0.250000X0.225000X-0.250000X-0.225000X0*%
%ADD17RoundRect,0.250000X-0.275000X-0.250000X0.275000X-0.250000X0.275000X0.250000X-0.275000X0.250000X0*%
%ADD18RoundRect,0.250000X-0.850000X-0.275000X0.850000X-0.275000X0.850000X0.275000X-0.850000X0.275000X0*%
%ADD19RoundRect,0.250000X0.650000X-1.000000X0.650000X1.000000X-0.650000X1.000000X-0.650000X-1.000000X0*%
%ADD20RoundRect,0.175000X-0.725000X-0.175000X0.725000X-0.175000X0.725000X0.175000X-0.725000X0.175000X0*%
%ADD21RoundRect,0.200000X-0.700000X-0.200000X0.700000X-0.200000X0.700000X0.200000X-0.700000X0.200000X0*%
%ADD22RoundRect,0.200000X-0.200000X-0.275000X0.200000X-0.275000X0.200000X0.275000X-0.200000X0.275000X0*%
%ADD23R,0.375000X0.350000*%
%ADD24R,0.350000X0.375000*%
%ADD25R,1.200000X0.700000*%
%ADD26R,0.800000X1.000000*%
%ADD27R,1.200000X1.000000*%
%ADD28R,2.800000X1.000000*%
%ADD29R,1.900000X1.300000*%
%ADD30R,0.900000X0.900000*%
%ADD31R,1.500000X0.900000*%
%ADD32R,0.900000X1.500000*%
%ADD33RoundRect,0.150000X0.700000X-0.150000X0.700000X0.150000X-0.700000X0.150000X-0.700000X-0.150000X0*%
%ADD34RoundRect,0.250000X1.100000X-0.250000X1.100000X0.250000X-1.100000X0.250000X-1.100000X-0.250000X0*%
%ADD35RoundRect,0.250000X0.475000X-0.250000X0.475000X0.250000X-0.475000X0.250000X-0.475000X-0.250000X0*%
%ADD36RoundRect,0.375000X-0.625000X-0.375000X0.625000X-0.375000X0.625000X0.375000X-0.625000X0.375000X0*%
%ADD37RoundRect,0.500000X-0.500000X-1.400000X0.500000X-1.400000X0.500000X1.400000X-0.500000X1.400000X0*%
%ADD38R,0.350000X0.500000*%
%ADD39RoundRect,0.062500X-0.062500X-0.275000X0.062500X-0.275000X0.062500X0.275000X-0.062500X0.275000X0*%
%ADD40RoundRect,0.062500X-0.275000X-0.062500X0.275000X-0.062500X0.275000X0.062500X-0.275000X0.062500X0*%
%ADD41RoundRect,0.150000X-0.150000X-0.700000X0.150000X-0.700000X0.150000X0.700000X-0.150000X0.700000X0*%
%ADD42RoundRect,0.250000X-0.250000X-1.100000X0.250000X-1.100000X0.250000X1.100000X-0.250000X1.100000X0*%
G04 APERTURE END LIST*
D10*
%TO.C,D5*%
X130212500Y-132000000D03*
X131787500Y-132000000D03*
%TD*%
D11*
%TO.C,R14*%
X152500000Y-147325000D03*
X152500000Y-145675000D03*
%TD*%
D12*
%TO.C,SW2*%
X99950000Y-121480000D03*
X99950000Y-113520000D03*
X104450000Y-121480000D03*
X104450000Y-113520000D03*
%TD*%
D13*
%TO.C,J1*%
X106645000Y-126750000D03*
X106645000Y-127550000D03*
D14*
X106645000Y-128750000D03*
X106645000Y-129750000D03*
X106645000Y-130250000D03*
X106645000Y-131250000D03*
D13*
X106645000Y-132450000D03*
X106645000Y-133250000D03*
X106645000Y-133250000D03*
X106645000Y-132450000D03*
D14*
X106645000Y-131750000D03*
X106645000Y-130750000D03*
X106645000Y-129250000D03*
X106645000Y-128250000D03*
D13*
X106645000Y-127550000D03*
X106645000Y-126750000D03*
%TD*%
D10*
%TO.C,D6*%
X134212500Y-132000000D03*
X135787500Y-132000000D03*
%TD*%
%TO.C,D3*%
X138212500Y-129000000D03*
X139787500Y-129000000D03*
%TD*%
D15*
%TO.C,U7*%
X116862500Y-154050000D03*
X116862500Y-155000000D03*
X116862500Y-155950000D03*
X119137500Y-155950000D03*
X119137500Y-154050000D03*
%TD*%
D11*
%TO.C,R15*%
X157000000Y-104325000D03*
X157000000Y-102675000D03*
%TD*%
%TO.C,R8*%
X120000000Y-140825000D03*
X120000000Y-139175000D03*
%TD*%
D16*
%TO.C,C14*%
X137450000Y-141775000D03*
X137450000Y-140225000D03*
%TD*%
D17*
%TO.C,J4*%
X154475000Y-121000000D03*
D18*
X156000000Y-119525000D03*
X156000000Y-122475000D03*
%TD*%
D16*
%TO.C,C11*%
X135550000Y-141775000D03*
X135550000Y-140225000D03*
%TD*%
D19*
%TO.C,D1*%
X101780000Y-144000000D03*
X101780000Y-140000000D03*
%TD*%
D20*
%TO.C,U5*%
X150750000Y-107600000D03*
D21*
X150750000Y-108700000D03*
X150750000Y-109800000D03*
X150750000Y-110900000D03*
X150750000Y-112000000D03*
X150750000Y-113100000D03*
X150750000Y-114200000D03*
X150750000Y-115300000D03*
D20*
X150750000Y-116400000D03*
X160250000Y-116400000D03*
D21*
X160250000Y-115300000D03*
X160250000Y-114200000D03*
X160250000Y-113100000D03*
X160250000Y-112000000D03*
X160250000Y-110900000D03*
X160250000Y-109800000D03*
X160250000Y-108700000D03*
D20*
X160250000Y-107600000D03*
%TD*%
D11*
%TO.C,R9*%
X150000000Y-143825000D03*
X150000000Y-142175000D03*
%TD*%
D22*
%TO.C,R1*%
X138175000Y-132000000D03*
X139825000Y-132000000D03*
%TD*%
%TO.C,R4*%
X126175000Y-129000000D03*
X127825000Y-129000000D03*
%TD*%
D12*
%TO.C,SW1*%
X99950000Y-110480000D03*
X99950000Y-102520000D03*
X104450000Y-110480000D03*
X104450000Y-102520000D03*
%TD*%
D16*
%TO.C,C7*%
X112000000Y-129145000D03*
X112000000Y-127595000D03*
%TD*%
D11*
%TO.C,R12*%
X157500000Y-143825000D03*
X157500000Y-142175000D03*
%TD*%
D19*
%TO.C,D2*%
X105720000Y-144000000D03*
X105720000Y-140000000D03*
%TD*%
D22*
%TO.C,R6*%
X134175000Y-129000000D03*
X135825000Y-129000000D03*
%TD*%
D23*
%TO.C,U3*%
X129237500Y-148250000D03*
X129237500Y-148750000D03*
X129237500Y-149250000D03*
X129237500Y-149750000D03*
D24*
X129750000Y-149762500D03*
X130250000Y-149762500D03*
D23*
X130762500Y-149750000D03*
X130762500Y-149250000D03*
X130762500Y-148750000D03*
X130762500Y-148250000D03*
D24*
X130250000Y-148237500D03*
X129750000Y-148237500D03*
%TD*%
D11*
%TO.C,R13*%
X150000000Y-147265000D03*
X150000000Y-145615000D03*
%TD*%
D22*
%TO.C,R5*%
X130175000Y-129000000D03*
X131825000Y-129000000D03*
%TD*%
D25*
%TO.C,J3*%
X143275000Y-130225000D03*
X143275000Y-131325000D03*
X143275000Y-132425000D03*
X143275000Y-133525000D03*
X143275000Y-134625000D03*
X143275000Y-135725000D03*
X143275000Y-136825000D03*
X143275000Y-137925000D03*
X143275000Y-138875000D03*
D26*
X153775000Y-139825000D03*
D27*
X147575000Y-139825000D03*
D28*
X157925000Y-139825000D03*
D27*
X143275000Y-128675000D03*
D29*
X158375000Y-126325000D03*
%TD*%
D30*
%TO.C,U1*%
X127100000Y-114060000D03*
X127100000Y-115460000D03*
X127100000Y-116860000D03*
X128500000Y-114060000D03*
X128500000Y-115460000D03*
X128500000Y-116860000D03*
X129900000Y-114060000D03*
X129900000Y-115460000D03*
X129900000Y-116860000D03*
D31*
X121250000Y-107740000D03*
X121250000Y-109010000D03*
X121250000Y-110280000D03*
X121250000Y-111550000D03*
X121250000Y-112820000D03*
X121250000Y-114090000D03*
X121250000Y-115360000D03*
X121250000Y-116630000D03*
X121250000Y-117900000D03*
X121250000Y-119170000D03*
X121250000Y-120440000D03*
X121250000Y-121710000D03*
X121250000Y-122980000D03*
X121250000Y-124250000D03*
D32*
X123015000Y-125500000D03*
X124285000Y-125500000D03*
X125555000Y-125500000D03*
X126825000Y-125500000D03*
X128095000Y-125500000D03*
X129365000Y-125500000D03*
X130635000Y-125500000D03*
X131905000Y-125500000D03*
X133175000Y-125500000D03*
X134445000Y-125500000D03*
X135715000Y-125500000D03*
X136985000Y-125500000D03*
D31*
X138750000Y-124250000D03*
X138750000Y-122980000D03*
X138750000Y-121710000D03*
X138750000Y-120440000D03*
X138750000Y-119170000D03*
X138750000Y-117900000D03*
X138750000Y-116630000D03*
X138750000Y-115360000D03*
X138750000Y-114090000D03*
X138750000Y-112820000D03*
X138750000Y-111550000D03*
X138750000Y-110280000D03*
X138750000Y-109010000D03*
X138750000Y-107740000D03*
%TD*%
D16*
%TO.C,C13*%
X134000000Y-152155000D03*
X134000000Y-150605000D03*
%TD*%
D11*
%TO.C,R3*%
X115000000Y-129195000D03*
X115000000Y-127545000D03*
%TD*%
D33*
%TO.C,J2*%
X155150000Y-155125000D03*
X155150000Y-153875000D03*
X155150000Y-152625000D03*
X155150000Y-151375000D03*
X155150000Y-150125000D03*
X155150000Y-148875000D03*
D34*
X158350000Y-156975000D03*
X158350000Y-147025000D03*
%TD*%
D11*
%TO.C,R11*%
X155000000Y-143825000D03*
X155000000Y-142175000D03*
%TD*%
D16*
%TO.C,C9*%
X123000000Y-129145000D03*
X123000000Y-127595000D03*
%TD*%
D10*
%TO.C,D4*%
X126212500Y-132000000D03*
X127787500Y-132000000D03*
%TD*%
D35*
%TO.C,C2*%
X110820000Y-151792500D03*
X110820000Y-149892500D03*
%TD*%
D16*
%TO.C,C4*%
X114000000Y-151775000D03*
X114000000Y-150225000D03*
%TD*%
%TO.C,C12*%
X126000000Y-152155000D03*
X126000000Y-150605000D03*
%TD*%
D35*
%TO.C,C8*%
X120000000Y-129540000D03*
X120000000Y-127640000D03*
%TD*%
D36*
%TO.C,U6*%
X101850000Y-151700000D03*
X101850000Y-154000000D03*
D37*
X108150000Y-154000000D03*
D36*
X101850000Y-156300000D03*
%TD*%
D38*
%TO.C,U4*%
X139025000Y-136200000D03*
X139675000Y-136200000D03*
X140325000Y-136200000D03*
X140975000Y-136200000D03*
X140975000Y-137800000D03*
X140325000Y-137800000D03*
X139675000Y-137800000D03*
X139025000Y-137800000D03*
%TD*%
D11*
%TO.C,R7*%
X117000000Y-140702500D03*
X117000000Y-139052500D03*
%TD*%
D16*
%TO.C,C10*%
X124000000Y-141775000D03*
X124000000Y-140225000D03*
%TD*%
D22*
%TO.C,R17*%
X113175000Y-137000000D03*
X114825000Y-137000000D03*
%TD*%
D16*
%TO.C,C3*%
X110570000Y-155237500D03*
X110570000Y-153687500D03*
%TD*%
D11*
%TO.C,R10*%
X152500000Y-143825000D03*
X152500000Y-142175000D03*
%TD*%
D35*
%TO.C,C5*%
X123600000Y-151950000D03*
X123600000Y-150050000D03*
%TD*%
%TO.C,C18*%
X150120000Y-151010000D03*
X150120000Y-149110000D03*
%TD*%
D16*
%TO.C,C17*%
X160000000Y-123835000D03*
X160000000Y-122285000D03*
%TD*%
D22*
%TO.C,R16*%
X109175000Y-137000000D03*
X110825000Y-137000000D03*
%TD*%
D11*
%TO.C,R2*%
X109040000Y-129195000D03*
X109040000Y-127545000D03*
%TD*%
D35*
%TO.C,C16*%
X159975000Y-120390000D03*
X159975000Y-118490000D03*
%TD*%
D16*
%TO.C,C6*%
X122000000Y-155775000D03*
X122000000Y-154225000D03*
%TD*%
D15*
%TO.C,U8*%
X110862500Y-132050000D03*
X110862500Y-133000000D03*
X110862500Y-133950000D03*
X113137500Y-133950000D03*
X113137500Y-133000000D03*
X113137500Y-132050000D03*
%TD*%
D39*
%TO.C,U2*%
X128500000Y-136737500D03*
X129000000Y-136737500D03*
X129500000Y-136737500D03*
X130000000Y-136737500D03*
X130500000Y-136737500D03*
X131000000Y-136737500D03*
X131500000Y-136737500D03*
D40*
X132012500Y-138000000D03*
D39*
X131500000Y-139262500D03*
X131000000Y-139262500D03*
X130500000Y-139262500D03*
X130000000Y-139262500D03*
X129500000Y-139262500D03*
X129000000Y-139262500D03*
X128500000Y-139262500D03*
D40*
X127987500Y-138000000D03*
%TD*%
D35*
%TO.C,C1*%
X101000000Y-148950000D03*
X101000000Y-147050000D03*
%TD*%
D41*
%TO.C,J5*%
X126875000Y-154650000D03*
X128125000Y-154650000D03*
X129375000Y-154650000D03*
X130625000Y-154650000D03*
X131875000Y-154650000D03*
X133125000Y-154650000D03*
D42*
X125025000Y-157850000D03*
X134975000Y-157850000D03*
%TD*%
D35*
%TO.C,C15*%
X140000000Y-141950000D03*
X140000000Y-140050000D03*
%TD*%
M02*
