%TF.GenerationSoftware,KiCad,Pcbnew,10.0.3*%
%TF.CreationDate,2026-09-13T08:35:35+03:00*%
%TF.ProjectId,dronemagnav,64726f6e-656d-4616-976e-61762e6b6963,rev?*%
%TF.SameCoordinates,Original*%
%TF.FileFunction,Drillmap*%
%TF.FilePolarity,Positive*%
%FSLAX45Y45*%
G04 Gerber Fmt 4.5, Leading zero omitted, Abs format (unit mm)*
G04 Created by KiCad (PCBNEW 10.0.3) date 2026-09-13 08:35:35*
%MOMM*%
%LPD*%
G01*
G04 APERTURE LIST*
%ADD10C,0.100000*%
%ADD11C,0.200000*%
%ADD12C,0.320000*%
G04 APERTURE END LIST*
D10*
X9800000Y-10000000D02*
X16200000Y-10000000D01*
X9800000Y-16000000D02*
X9800000Y-10000000D01*
X16200000Y-10000000D02*
X16200000Y-16000000D01*
X16200000Y-16000000D02*
X9800000Y-16000000D01*
D11*
D10*
X10035000Y-15390000D02*
X10055000Y-15410000D01*
X10055000Y-15390000D02*
X10035000Y-15410000D01*
X10090000Y-14605000D02*
X10110000Y-14625000D01*
X10110000Y-14605000D02*
X10090000Y-14625000D01*
X10133958Y-15047237D02*
X10153958Y-15067237D01*
X10153958Y-15047237D02*
X10133958Y-15067237D01*
X10455838Y-10123823D02*
X10475838Y-10143823D01*
X10475838Y-10123823D02*
X10455838Y-10143823D01*
X10455838Y-11223823D02*
X10475838Y-11243823D01*
X10475838Y-11223823D02*
X10455838Y-11243823D01*
X10455838Y-12256177D02*
X10475838Y-12276177D01*
X10475838Y-12256177D02*
X10455838Y-12276177D01*
X10538366Y-11075622D02*
X10558366Y-11095622D01*
X10558366Y-11075622D02*
X10538366Y-11095622D01*
X10712351Y-12596056D02*
X10732351Y-12616056D01*
X10732351Y-12596056D02*
X10712351Y-12616056D01*
X10712351Y-13383944D02*
X10732351Y-13403944D01*
X10732351Y-13383944D02*
X10712351Y-13403944D01*
X10767263Y-12623957D02*
X10787263Y-12643957D01*
X10787263Y-12623957D02*
X10767263Y-12643957D01*
X10767263Y-13356042D02*
X10787263Y-13376042D01*
X10787263Y-13356042D02*
X10767263Y-13376042D01*
X10805000Y-15390000D02*
X10825000Y-15410000D01*
X10825000Y-15390000D02*
X10805000Y-15410000D01*
X10962428Y-15544532D02*
X10982428Y-15564532D01*
X10982428Y-15544532D02*
X10962428Y-15564532D01*
X10970604Y-12973779D02*
X10990604Y-12993779D01*
X10990604Y-12973779D02*
X10970604Y-12993779D01*
X11001293Y-15253515D02*
X11021293Y-15273515D01*
X11021293Y-15253515D02*
X11001293Y-15273515D01*
X11072000Y-14889250D02*
X11092000Y-14909250D01*
X11092000Y-14889250D02*
X11072000Y-14909250D01*
X11097000Y-15272147D02*
X11117000Y-15292147D01*
X11117000Y-15272147D02*
X11097000Y-15292147D01*
X11152500Y-13690000D02*
X11172500Y-13710000D01*
X11172500Y-13690000D02*
X11152500Y-13710000D01*
X11186250Y-13290000D02*
X11206250Y-13310000D01*
X11206250Y-13290000D02*
X11186250Y-13310000D01*
X11190000Y-12659500D02*
X11210000Y-12679500D01*
X11210000Y-12659500D02*
X11190000Y-12679500D01*
X11390000Y-14922500D02*
X11410000Y-14942500D01*
X11410000Y-14922500D02*
X11390000Y-14942500D01*
X11445000Y-12987442D02*
X11465000Y-13007442D01*
X11465000Y-12987442D02*
X11445000Y-13007442D01*
X11552500Y-13690000D02*
X11572500Y-13710000D01*
X11572500Y-13690000D02*
X11552500Y-13710000D01*
X11566250Y-15490000D02*
X11586250Y-15510000D01*
X11586250Y-15490000D02*
X11566250Y-15510000D01*
X11690000Y-14140250D02*
X11710000Y-14160250D01*
X11710000Y-14140250D02*
X11690000Y-14160250D01*
X11990000Y-13034000D02*
X12010000Y-13054000D01*
X12010000Y-13034000D02*
X11990000Y-13054000D01*
X12002237Y-10849958D02*
X12022237Y-10869958D01*
X12022237Y-10849958D02*
X12002237Y-10869958D01*
X12035000Y-14150442D02*
X12055000Y-14170442D01*
X12055000Y-14150442D02*
X12035000Y-14170442D01*
X12081925Y-12676865D02*
X12101925Y-12696865D01*
X12101925Y-12676865D02*
X12081925Y-12696865D01*
X12084218Y-10679428D02*
X12104218Y-10699428D01*
X12104218Y-10679428D02*
X12084218Y-10699428D01*
X12159218Y-15327928D02*
X12179218Y-15347928D01*
X12179218Y-15327928D02*
X12159218Y-15347928D01*
X12186634Y-12711878D02*
X12206634Y-12731878D01*
X12206634Y-12711878D02*
X12186634Y-12731878D01*
X12290000Y-12994500D02*
X12310000Y-13014500D01*
X12310000Y-12994500D02*
X12290000Y-13014500D01*
X12350000Y-14905000D02*
X12370000Y-14925000D01*
X12370000Y-14905000D02*
X12350000Y-14925000D01*
X12390000Y-13922500D02*
X12410000Y-13942500D01*
X12410000Y-13922500D02*
X12390000Y-13942500D01*
X12521250Y-13190000D02*
X12541250Y-13210000D01*
X12541250Y-13190000D02*
X12521250Y-13210000D01*
X12590000Y-14960500D02*
X12610000Y-14980500D01*
X12610000Y-14960500D02*
X12590000Y-14980500D01*
X12742500Y-15351077D02*
X12762500Y-15371077D01*
X12762500Y-15351077D02*
X12742500Y-15371077D01*
X12840000Y-11536000D02*
X12860000Y-11556000D01*
X12860000Y-11536000D02*
X12840000Y-11556000D01*
X12890000Y-13664000D02*
X12910000Y-13684000D01*
X12910000Y-13664000D02*
X12890000Y-13684000D01*
X12924647Y-13140000D02*
X12944647Y-13160000D01*
X12944647Y-13140000D02*
X12924647Y-13160000D01*
X12953750Y-14685000D02*
X12973750Y-14705000D01*
X12973750Y-14685000D02*
X12953750Y-14705000D01*
X12963750Y-14755000D02*
X12983750Y-14775000D01*
X12983750Y-14755000D02*
X12963750Y-14775000D01*
X12990000Y-13664000D02*
X13010000Y-13684000D01*
X13010000Y-13664000D02*
X12990000Y-13684000D01*
X13000000Y-13513750D02*
X13020000Y-13533750D01*
X13020000Y-13513750D02*
X13000000Y-13533750D01*
X13005000Y-14633750D02*
X13025000Y-14653750D01*
X13025000Y-14633750D02*
X13005000Y-14653750D01*
X13050000Y-13563750D02*
X13070000Y-13583750D01*
X13070000Y-13563750D02*
X13050000Y-13583750D01*
X13390000Y-14960500D02*
X13410000Y-14980500D01*
X13410000Y-14960500D02*
X13390000Y-14980500D01*
X13395622Y-13101367D02*
X13415622Y-13121367D01*
X13415622Y-13101367D02*
X13395622Y-13121367D01*
X13529372Y-13923867D02*
X13549372Y-13943867D01*
X13549372Y-13923867D02*
X13529372Y-13943867D01*
X13719372Y-13923867D02*
X13739372Y-13943867D01*
X13739372Y-13923867D02*
X13719372Y-13943867D01*
X13727500Y-13190000D02*
X13747500Y-13210000D01*
X13747500Y-13190000D02*
X13727500Y-13210000D01*
X13734645Y-12825721D02*
X13754645Y-12845721D01*
X13754645Y-12825721D02*
X13734645Y-12845721D01*
X13746823Y-10743162D02*
X13766823Y-10763162D01*
X13766823Y-10743162D02*
X13746823Y-10763162D01*
X13822500Y-13610000D02*
X13842500Y-13630000D01*
X13842500Y-13610000D02*
X13822500Y-13630000D01*
X13886077Y-13935000D02*
X13906077Y-13955000D01*
X13906077Y-13935000D02*
X13886077Y-13955000D01*
X13958000Y-13825000D02*
X13978000Y-13845000D01*
X13978000Y-13825000D02*
X13958000Y-13845000D01*
X14219019Y-12840135D02*
X14239019Y-12860135D01*
X14239019Y-12840135D02*
X14219019Y-12860135D01*
X14297500Y-13362500D02*
X14317500Y-13382500D01*
X14317500Y-13362500D02*
X14297500Y-13382500D01*
X14412763Y-13617500D02*
X14432763Y-13637500D01*
X14432763Y-13617500D02*
X14412763Y-13637500D01*
X14731872Y-13883867D02*
X14751872Y-13903867D01*
X14751872Y-13883867D02*
X14731872Y-13903867D01*
X14820000Y-10860000D02*
X14840000Y-10880000D01*
X14840000Y-10860000D02*
X14820000Y-10880000D01*
X14820000Y-11230000D02*
X14840000Y-11250000D01*
X14840000Y-11230000D02*
X14820000Y-11250000D01*
X14890000Y-10970000D02*
X14910000Y-10990000D01*
X14910000Y-10970000D02*
X14890000Y-10990000D01*
X14890000Y-11145000D02*
X14910000Y-11165000D01*
X14910000Y-11145000D02*
X14890000Y-11165000D01*
X14905428Y-14403282D02*
X14925428Y-14423282D01*
X14925428Y-14403282D02*
X14905428Y-14423282D01*
X14936975Y-11322574D02*
X14956975Y-11342574D01*
X14956975Y-11322574D02*
X14936975Y-11342574D01*
X14942840Y-11454463D02*
X14962840Y-11474463D01*
X14962840Y-11454463D02*
X14942840Y-11474463D01*
X14942840Y-11564463D02*
X14962840Y-11584463D01*
X14962840Y-11564463D02*
X14942840Y-11584463D01*
X14976108Y-14795285D02*
X14996108Y-14815285D01*
X14996108Y-14795285D02*
X14976108Y-14815285D01*
X15002000Y-15181000D02*
X15022000Y-15201000D01*
X15022000Y-15181000D02*
X15002000Y-15201000D01*
X15036202Y-14807031D02*
X15056202Y-14827031D01*
X15056202Y-14807031D02*
X15036202Y-14827031D01*
X15037638Y-10674825D02*
X15057638Y-10694825D01*
X15057638Y-10674825D02*
X15037638Y-10694825D01*
X15270782Y-14457072D02*
X15290782Y-14477072D01*
X15290782Y-14457072D02*
X15270782Y-14477072D01*
X15270782Y-14807072D02*
X15290782Y-14827072D01*
X15290782Y-14807072D02*
X15270782Y-14827072D01*
X15417500Y-14059102D02*
X15437500Y-14079102D01*
X15437500Y-14059102D02*
X15417500Y-14079102D01*
X15490000Y-14452500D02*
X15510000Y-14472500D01*
X15510000Y-14452500D02*
X15490000Y-14472500D01*
X15492845Y-14808563D02*
X15512845Y-14828563D01*
X15512845Y-14808563D02*
X15492845Y-14828563D01*
X15590000Y-11852500D02*
X15610000Y-11872500D01*
X15610000Y-11852500D02*
X15590000Y-11872500D01*
X15590000Y-12327500D02*
X15610000Y-12347500D01*
X15610000Y-12327500D02*
X15590000Y-12347500D01*
X15690000Y-10502500D02*
X15710000Y-10522500D01*
X15710000Y-10502500D02*
X15690000Y-10522500D01*
X15740000Y-14452500D02*
X15760000Y-14472500D01*
X15760000Y-14452500D02*
X15740000Y-14472500D01*
X15798128Y-14061133D02*
X15818128Y-14081133D01*
X15818128Y-14061133D02*
X15798128Y-14081133D01*
X15865122Y-12519134D02*
X15885122Y-12539134D01*
X15885122Y-12519134D02*
X15865122Y-12539134D01*
X15892840Y-11454463D02*
X15912840Y-11474463D01*
X15912840Y-11454463D02*
X15892840Y-11474463D01*
X15959218Y-12133928D02*
X15979218Y-12153928D01*
X15979218Y-12133928D02*
X15959218Y-12153928D01*
X15987500Y-11749000D02*
X16007500Y-11769000D01*
X16007500Y-11749000D02*
X15987500Y-11769000D01*
X15990000Y-12463500D02*
X16010000Y-12483500D01*
X16010000Y-12463500D02*
X15990000Y-12483500D01*
X16042362Y-11705175D02*
X16062362Y-11725175D01*
X16062362Y-11705175D02*
X16042362Y-11725175D01*
X16042500Y-12124263D02*
X16062500Y-12144263D01*
X16062500Y-12124263D02*
X16042500Y-12144263D01*
X12720000Y-11476000D02*
G75*
G02*
X12700000Y-11476000I-10000J0D01*
G01*
X12700000Y-11476000D02*
G75*
G02*
X12720000Y-11476000I10000J0D01*
G01*
X12720000Y-11616000D02*
G75*
G02*
X12700000Y-11616000I-10000J0D01*
G01*
X12700000Y-11616000D02*
G75*
G02*
X12720000Y-11616000I10000J0D01*
G01*
X12790000Y-11406000D02*
G75*
G02*
X12770000Y-11406000I-10000J0D01*
G01*
X12770000Y-11406000D02*
G75*
G02*
X12790000Y-11406000I10000J0D01*
G01*
X12790000Y-11546000D02*
G75*
G02*
X12770000Y-11546000I-10000J0D01*
G01*
X12770000Y-11546000D02*
G75*
G02*
X12790000Y-11546000I10000J0D01*
G01*
X12790000Y-11686000D02*
G75*
G02*
X12770000Y-11686000I-10000J0D01*
G01*
X12770000Y-11686000D02*
G75*
G02*
X12790000Y-11686000I10000J0D01*
G01*
X12860000Y-11476000D02*
G75*
G02*
X12840000Y-11476000I-10000J0D01*
G01*
X12840000Y-11476000D02*
G75*
G02*
X12860000Y-11476000I10000J0D01*
G01*
X12860000Y-11616000D02*
G75*
G02*
X12840000Y-11616000I-10000J0D01*
G01*
X12840000Y-11616000D02*
G75*
G02*
X12860000Y-11616000I10000J0D01*
G01*
X12930000Y-11406000D02*
G75*
G02*
X12910000Y-11406000I-10000J0D01*
G01*
X12910000Y-11406000D02*
G75*
G02*
X12930000Y-11406000I10000J0D01*
G01*
X12930000Y-11546000D02*
G75*
G02*
X12910000Y-11546000I-10000J0D01*
G01*
X12910000Y-11546000D02*
G75*
G02*
X12930000Y-11546000I10000J0D01*
G01*
X12930000Y-11686000D02*
G75*
G02*
X12910000Y-11686000I-10000J0D01*
G01*
X12910000Y-11686000D02*
G75*
G02*
X12930000Y-11686000I10000J0D01*
G01*
X13000000Y-11476000D02*
G75*
G02*
X12980000Y-11476000I-10000J0D01*
G01*
X12980000Y-11476000D02*
G75*
G02*
X13000000Y-11476000I10000J0D01*
G01*
X13000000Y-11616000D02*
G75*
G02*
X12980000Y-11616000I-10000J0D01*
G01*
X12980000Y-11616000D02*
G75*
G02*
X13000000Y-11616000I10000J0D01*
G01*
X10890600Y-13192500D02*
X10890600Y-13222500D01*
X10875600Y-13207500D02*
X10905600Y-13207500D01*
X10902800Y-12996700D02*
X10902800Y-13026700D01*
X10887800Y-13011700D02*
X10917800Y-13011700D01*
X11500000Y-12651000D02*
X11500000Y-12681000D01*
X11485000Y-12666000D02*
X11515000Y-12666000D01*
X11873400Y-11235300D02*
X11873400Y-11265300D01*
X11858400Y-11250300D02*
X11888400Y-11250300D01*
X11930500Y-12156000D02*
X11930500Y-12186000D01*
X11915500Y-12171000D02*
X11945500Y-12171000D01*
X12245500Y-11394000D02*
X12245500Y-11424000D01*
X12230500Y-11409000D02*
X12260500Y-11409000D01*
X12245500Y-13505000D02*
X12245500Y-13535000D01*
X12230500Y-13520000D02*
X12260500Y-13520000D01*
X12301100Y-11521000D02*
X12301100Y-11551000D01*
X12286100Y-11536000D02*
X12316100Y-11536000D01*
X12311300Y-14375700D02*
X12311300Y-14405700D01*
X12296300Y-14390700D02*
X12326300Y-14390700D01*
X12611500Y-15683800D02*
X12611500Y-15713800D01*
X12596500Y-15698800D02*
X12626500Y-15698800D01*
X12612900Y-12792200D02*
X12612900Y-12822200D01*
X12597900Y-12807200D02*
X12627900Y-12807200D01*
X12619000Y-12364000D02*
X12619000Y-12394000D01*
X12604000Y-12379000D02*
X12634000Y-12379000D01*
X12726600Y-11140000D02*
X12726600Y-11170000D01*
X12711600Y-11155000D02*
X12741600Y-11155000D01*
X12740200Y-14092800D02*
X12740200Y-14122800D01*
X12725200Y-14107800D02*
X12755200Y-14107800D01*
X12778600Y-12283000D02*
X12778600Y-12313000D01*
X12763600Y-12298000D02*
X12793600Y-12298000D01*
X12815400Y-14107400D02*
X12815400Y-14137400D01*
X12800400Y-14122400D02*
X12830400Y-14122400D01*
X12892300Y-14746000D02*
X12892300Y-14776000D01*
X12877300Y-14761000D02*
X12907300Y-14761000D01*
X12915000Y-15024100D02*
X12915000Y-15054100D01*
X12900000Y-15039100D02*
X12930000Y-15039100D01*
X12915000Y-15275800D02*
X12915000Y-15305800D01*
X12900000Y-15290800D02*
X12930000Y-15290800D01*
X12929400Y-13220100D02*
X12929400Y-13250100D01*
X12914400Y-13235100D02*
X12944400Y-13235100D01*
X12929600Y-13365500D02*
X12929600Y-13395500D01*
X12914600Y-13380500D02*
X12944600Y-13380500D01*
X12984600Y-12655400D02*
X12984600Y-12685400D01*
X12969600Y-12670400D02*
X12999600Y-12670400D01*
X12989500Y-14077600D02*
X12989500Y-14107600D01*
X12974500Y-14092600D02*
X13004500Y-14092600D01*
X13015100Y-13990400D02*
X13015100Y-14020400D01*
X13000100Y-14005400D02*
X13030100Y-14005400D01*
X13081100Y-14747200D02*
X13081100Y-14777200D01*
X13066100Y-14762200D02*
X13096100Y-14762200D01*
X13137600Y-14682700D02*
X13137600Y-14712700D01*
X13122600Y-14697700D02*
X13152600Y-14697700D01*
X13141000Y-14910000D02*
X13141000Y-14940000D01*
X13126000Y-14925000D02*
X13156000Y-14925000D01*
X13188800Y-14740100D02*
X13188800Y-14770100D01*
X13173800Y-14755100D02*
X13203800Y-14755100D01*
X13213000Y-13725100D02*
X13213000Y-13755100D01*
X13198000Y-13740100D02*
X13228000Y-13740100D01*
X13259100Y-13935900D02*
X13259100Y-13965900D01*
X13244100Y-13950900D02*
X13274100Y-13950900D01*
X13266000Y-14011100D02*
X13266000Y-14041100D01*
X13251000Y-14026100D02*
X13281000Y-14026100D01*
X13290700Y-13109300D02*
X13290700Y-13139300D01*
X13275700Y-13124300D02*
X13305700Y-13124300D01*
X13306000Y-15123000D02*
X13306000Y-15153000D01*
X13291000Y-15138000D02*
X13321000Y-15138000D01*
X13348900Y-12029000D02*
X13348900Y-12059000D01*
X13333900Y-12044000D02*
X13363900Y-12044000D01*
X13348900Y-12956600D02*
X13348900Y-12986600D01*
X13333900Y-12971600D02*
X13363900Y-12971600D01*
X13349200Y-13622200D02*
X13349200Y-13652200D01*
X13334200Y-13637200D02*
X13364200Y-13637200D01*
X13429300Y-13544600D02*
X13429300Y-13574600D01*
X13414300Y-13559600D02*
X13444300Y-13559600D01*
X13474700Y-12157100D02*
X13474700Y-12187100D01*
X13459700Y-12172100D02*
X13489700Y-12172100D01*
X13525200Y-13621400D02*
X13525200Y-13651400D01*
X13510200Y-13636400D02*
X13540200Y-13636400D01*
X13632800Y-12125000D02*
X13632800Y-12155000D01*
X13617800Y-12140000D02*
X13647800Y-12140000D01*
X13691800Y-10978300D02*
X13691800Y-11008300D01*
X13676800Y-10993300D02*
X13706800Y-10993300D01*
X13775200Y-13452800D02*
X13775200Y-13482800D01*
X13760200Y-13467800D02*
X13790200Y-13467800D01*
X13995800Y-11521000D02*
X13995800Y-11551000D01*
X13980800Y-11536000D02*
X14010800Y-11536000D01*
X13996300Y-10886000D02*
X13996300Y-10916000D01*
X13981300Y-10901000D02*
X14011300Y-10901000D01*
X14023100Y-11829400D02*
X14023100Y-11859400D01*
X14008100Y-11844400D02*
X14038100Y-11844400D01*
X14063800Y-11648000D02*
X14063800Y-11678000D01*
X14048800Y-11663000D02*
X14078800Y-11663000D01*
X14132300Y-11911700D02*
X14132300Y-11941700D01*
X14117300Y-11926700D02*
X14147300Y-11926700D01*
X14433700Y-13777500D02*
X14433700Y-13807500D01*
X14418700Y-13792500D02*
X14448700Y-13792500D01*
X14434500Y-13336800D02*
X14434500Y-13366800D01*
X14419500Y-13351800D02*
X14449500Y-13351800D01*
X14605000Y-13271500D02*
X14605000Y-13301500D01*
X14590000Y-13286500D02*
X14620000Y-13286500D01*
X14628000Y-14086200D02*
X14628000Y-14116200D01*
X14613000Y-14101200D02*
X14643000Y-14101200D01*
X14685500Y-13667500D02*
X14685500Y-13697500D01*
X14670500Y-13682500D02*
X14700500Y-13682500D01*
X14685500Y-14143300D02*
X14685500Y-14173300D01*
X14670500Y-14158300D02*
X14700500Y-14158300D01*
X14851700Y-14210400D02*
X14851700Y-14240400D01*
X14836700Y-14225400D02*
X14866700Y-14225400D01*
X15220000Y-15247500D02*
X15220000Y-15277500D01*
X15205000Y-15262500D02*
X15235000Y-15262500D01*
X10176213Y-12589213D02*
X10176213Y-12546787D01*
X10133787Y-12546787D01*
X10133787Y-12589213D01*
X10176213Y-12589213D01*
X10185000Y-12538000D02*
X10125000Y-12538000D01*
X10125000Y-12598000D02*
G75*
G02*
X10125000Y-12538000I0J30000D01*
G01*
X10125000Y-12598000D02*
X10185000Y-12598000D01*
X10185000Y-12598000D02*
G75*
G03*
X10185000Y-12538000I0J30000D01*
G01*
X10176213Y-13453213D02*
X10176213Y-13410787D01*
X10133787Y-13410787D01*
X10133787Y-13453213D01*
X10176213Y-13453213D01*
X10185000Y-13402000D02*
X10125000Y-13402000D01*
X10125000Y-13462000D02*
G75*
G02*
X10125000Y-13402000I0J30000D01*
G01*
X10125000Y-13462000D02*
X10185000Y-13462000D01*
X10185000Y-13462000D02*
G75*
G03*
X10185000Y-13402000I0J30000D01*
G01*
X10594213Y-12589213D02*
X10594213Y-12546787D01*
X10551787Y-12546787D01*
X10551787Y-12589213D01*
X10594213Y-12589213D01*
X10628000Y-12538000D02*
X10518000Y-12538000D01*
X10518000Y-12598000D02*
G75*
G02*
X10518000Y-12538000I0J30000D01*
G01*
X10518000Y-12598000D02*
X10628000Y-12598000D01*
X10628000Y-12598000D02*
G75*
G03*
X10628000Y-12538000I0J30000D01*
G01*
X10594213Y-13453213D02*
X10594213Y-13410787D01*
X10551787Y-13410787D01*
X10551787Y-13453213D01*
X10594213Y-13453213D01*
X10628000Y-13402000D02*
X10518000Y-13402000D01*
X10518000Y-13462000D02*
G75*
G02*
X10518000Y-13402000I0J30000D01*
G01*
X10518000Y-13462000D02*
X10628000Y-13462000D01*
X10628000Y-13462000D02*
G75*
G03*
X10628000Y-13402000I0J30000D01*
G01*
X10520000Y-12743500D02*
X10552500Y-12711000D01*
X10520000Y-12678500D01*
X10487500Y-12711000D01*
X10520000Y-12743500D01*
X10520000Y-13321500D02*
X10552500Y-13289000D01*
X10520000Y-13256500D01*
X10487500Y-13289000D01*
X10520000Y-13321500D01*
D12*
X11315000Y-11315000D02*
X11635000Y-11635000D01*
X11635000Y-11315000D02*
X11315000Y-11635000D01*
X11635000Y-11475000D02*
G75*
G02*
X11315000Y-11475000I-160000J0D01*
G01*
X11315000Y-11475000D02*
G75*
G02*
X11635000Y-11475000I160000J0D01*
G01*
X11315000Y-14365000D02*
X11635000Y-14685000D01*
X11635000Y-14365000D02*
X11315000Y-14685000D01*
X11635000Y-14525000D02*
G75*
G02*
X11315000Y-14525000I-160000J0D01*
G01*
X11315000Y-14525000D02*
G75*
G02*
X11635000Y-14525000I160000J0D01*
G01*
X14365000Y-11315000D02*
X14685000Y-11635000D01*
X14685000Y-11315000D02*
X14365000Y-11635000D01*
X14685000Y-11475000D02*
G75*
G02*
X14365000Y-11475000I-160000J0D01*
G01*
X14365000Y-11475000D02*
G75*
G02*
X14685000Y-11475000I160000J0D01*
G01*
X14365000Y-14365000D02*
X14685000Y-14685000D01*
X14685000Y-14365000D02*
X14365000Y-14685000D01*
X14685000Y-14525000D02*
G75*
G02*
X14365000Y-14525000I-160000J0D01*
G01*
X14365000Y-14525000D02*
G75*
G02*
X14685000Y-14525000I160000J0D01*
G01*
D11*
X10055777Y-16316484D02*
X10055777Y-16116484D01*
X10055777Y-16116484D02*
X10103396Y-16116484D01*
X10103396Y-16116484D02*
X10131967Y-16126008D01*
X10131967Y-16126008D02*
X10151015Y-16145055D01*
X10151015Y-16145055D02*
X10160539Y-16164103D01*
X10160539Y-16164103D02*
X10170063Y-16202198D01*
X10170063Y-16202198D02*
X10170063Y-16230769D01*
X10170063Y-16230769D02*
X10160539Y-16268865D01*
X10160539Y-16268865D02*
X10151015Y-16287912D01*
X10151015Y-16287912D02*
X10131967Y-16306960D01*
X10131967Y-16306960D02*
X10103396Y-16316484D01*
X10103396Y-16316484D02*
X10055777Y-16316484D01*
X10255777Y-16316484D02*
X10255777Y-16183150D01*
X10255777Y-16221246D02*
X10265301Y-16202198D01*
X10265301Y-16202198D02*
X10274824Y-16192674D01*
X10274824Y-16192674D02*
X10293872Y-16183150D01*
X10293872Y-16183150D02*
X10312920Y-16183150D01*
X10379586Y-16316484D02*
X10379586Y-16183150D01*
X10379586Y-16116484D02*
X10370063Y-16126008D01*
X10370063Y-16126008D02*
X10379586Y-16135531D01*
X10379586Y-16135531D02*
X10389110Y-16126008D01*
X10389110Y-16126008D02*
X10379586Y-16116484D01*
X10379586Y-16116484D02*
X10379586Y-16135531D01*
X10503396Y-16316484D02*
X10484348Y-16306960D01*
X10484348Y-16306960D02*
X10474824Y-16287912D01*
X10474824Y-16287912D02*
X10474824Y-16116484D01*
X10608158Y-16316484D02*
X10589110Y-16306960D01*
X10589110Y-16306960D02*
X10579586Y-16287912D01*
X10579586Y-16287912D02*
X10579586Y-16116484D01*
X10836729Y-16316484D02*
X10836729Y-16116484D01*
X10836729Y-16116484D02*
X10903396Y-16259341D01*
X10903396Y-16259341D02*
X10970063Y-16116484D01*
X10970063Y-16116484D02*
X10970063Y-16316484D01*
X11151015Y-16316484D02*
X11151015Y-16211722D01*
X11151015Y-16211722D02*
X11141491Y-16192674D01*
X11141491Y-16192674D02*
X11122444Y-16183150D01*
X11122444Y-16183150D02*
X11084348Y-16183150D01*
X11084348Y-16183150D02*
X11065301Y-16192674D01*
X11151015Y-16306960D02*
X11131967Y-16316484D01*
X11131967Y-16316484D02*
X11084348Y-16316484D01*
X11084348Y-16316484D02*
X11065301Y-16306960D01*
X11065301Y-16306960D02*
X11055777Y-16287912D01*
X11055777Y-16287912D02*
X11055777Y-16268865D01*
X11055777Y-16268865D02*
X11065301Y-16249817D01*
X11065301Y-16249817D02*
X11084348Y-16240293D01*
X11084348Y-16240293D02*
X11131967Y-16240293D01*
X11131967Y-16240293D02*
X11151015Y-16230769D01*
X11246253Y-16183150D02*
X11246253Y-16383150D01*
X11246253Y-16192674D02*
X11265301Y-16183150D01*
X11265301Y-16183150D02*
X11303396Y-16183150D01*
X11303396Y-16183150D02*
X11322443Y-16192674D01*
X11322443Y-16192674D02*
X11331967Y-16202198D01*
X11331967Y-16202198D02*
X11341491Y-16221246D01*
X11341491Y-16221246D02*
X11341491Y-16278388D01*
X11341491Y-16278388D02*
X11331967Y-16297436D01*
X11331967Y-16297436D02*
X11322443Y-16306960D01*
X11322443Y-16306960D02*
X11303396Y-16316484D01*
X11303396Y-16316484D02*
X11265301Y-16316484D01*
X11265301Y-16316484D02*
X11246253Y-16306960D01*
X11427205Y-16297436D02*
X11436729Y-16306960D01*
X11436729Y-16306960D02*
X11427205Y-16316484D01*
X11427205Y-16316484D02*
X11417682Y-16306960D01*
X11417682Y-16306960D02*
X11427205Y-16297436D01*
X11427205Y-16297436D02*
X11427205Y-16316484D01*
X11427205Y-16192674D02*
X11436729Y-16202198D01*
X11436729Y-16202198D02*
X11427205Y-16211722D01*
X11427205Y-16211722D02*
X11417682Y-16202198D01*
X11417682Y-16202198D02*
X11427205Y-16192674D01*
X11427205Y-16192674D02*
X11427205Y-16211722D01*
D10*
X9775000Y-16635000D02*
X9795000Y-16655000D01*
X9795000Y-16635000D02*
X9775000Y-16655000D01*
D11*
X10093872Y-16536484D02*
X10112920Y-16536484D01*
X10112920Y-16536484D02*
X10131967Y-16546008D01*
X10131967Y-16546008D02*
X10141491Y-16555531D01*
X10141491Y-16555531D02*
X10151015Y-16574579D01*
X10151015Y-16574579D02*
X10160539Y-16612674D01*
X10160539Y-16612674D02*
X10160539Y-16660293D01*
X10160539Y-16660293D02*
X10151015Y-16698388D01*
X10151015Y-16698388D02*
X10141491Y-16717436D01*
X10141491Y-16717436D02*
X10131967Y-16726960D01*
X10131967Y-16726960D02*
X10112920Y-16736484D01*
X10112920Y-16736484D02*
X10093872Y-16736484D01*
X10093872Y-16736484D02*
X10074824Y-16726960D01*
X10074824Y-16726960D02*
X10065301Y-16717436D01*
X10065301Y-16717436D02*
X10055777Y-16698388D01*
X10055777Y-16698388D02*
X10046253Y-16660293D01*
X10046253Y-16660293D02*
X10046253Y-16612674D01*
X10046253Y-16612674D02*
X10055777Y-16574579D01*
X10055777Y-16574579D02*
X10065301Y-16555531D01*
X10065301Y-16555531D02*
X10074824Y-16546008D01*
X10074824Y-16546008D02*
X10093872Y-16536484D01*
X10246253Y-16717436D02*
X10255777Y-16726960D01*
X10255777Y-16726960D02*
X10246253Y-16736484D01*
X10246253Y-16736484D02*
X10236729Y-16726960D01*
X10236729Y-16726960D02*
X10246253Y-16717436D01*
X10246253Y-16717436D02*
X10246253Y-16736484D01*
X10331967Y-16555531D02*
X10341491Y-16546008D01*
X10341491Y-16546008D02*
X10360539Y-16536484D01*
X10360539Y-16536484D02*
X10408158Y-16536484D01*
X10408158Y-16536484D02*
X10427205Y-16546008D01*
X10427205Y-16546008D02*
X10436729Y-16555531D01*
X10436729Y-16555531D02*
X10446253Y-16574579D01*
X10446253Y-16574579D02*
X10446253Y-16593627D01*
X10446253Y-16593627D02*
X10436729Y-16622198D01*
X10436729Y-16622198D02*
X10322444Y-16736484D01*
X10322444Y-16736484D02*
X10446253Y-16736484D01*
X10570063Y-16536484D02*
X10589110Y-16536484D01*
X10589110Y-16536484D02*
X10608158Y-16546008D01*
X10608158Y-16546008D02*
X10617682Y-16555531D01*
X10617682Y-16555531D02*
X10627205Y-16574579D01*
X10627205Y-16574579D02*
X10636729Y-16612674D01*
X10636729Y-16612674D02*
X10636729Y-16660293D01*
X10636729Y-16660293D02*
X10627205Y-16698388D01*
X10627205Y-16698388D02*
X10617682Y-16717436D01*
X10617682Y-16717436D02*
X10608158Y-16726960D01*
X10608158Y-16726960D02*
X10589110Y-16736484D01*
X10589110Y-16736484D02*
X10570063Y-16736484D01*
X10570063Y-16736484D02*
X10551015Y-16726960D01*
X10551015Y-16726960D02*
X10541491Y-16717436D01*
X10541491Y-16717436D02*
X10531967Y-16698388D01*
X10531967Y-16698388D02*
X10522444Y-16660293D01*
X10522444Y-16660293D02*
X10522444Y-16612674D01*
X10522444Y-16612674D02*
X10531967Y-16574579D01*
X10531967Y-16574579D02*
X10541491Y-16555531D01*
X10541491Y-16555531D02*
X10551015Y-16546008D01*
X10551015Y-16546008D02*
X10570063Y-16536484D01*
X10760539Y-16536484D02*
X10779586Y-16536484D01*
X10779586Y-16536484D02*
X10798634Y-16546008D01*
X10798634Y-16546008D02*
X10808158Y-16555531D01*
X10808158Y-16555531D02*
X10817682Y-16574579D01*
X10817682Y-16574579D02*
X10827205Y-16612674D01*
X10827205Y-16612674D02*
X10827205Y-16660293D01*
X10827205Y-16660293D02*
X10817682Y-16698388D01*
X10817682Y-16698388D02*
X10808158Y-16717436D01*
X10808158Y-16717436D02*
X10798634Y-16726960D01*
X10798634Y-16726960D02*
X10779586Y-16736484D01*
X10779586Y-16736484D02*
X10760539Y-16736484D01*
X10760539Y-16736484D02*
X10741491Y-16726960D01*
X10741491Y-16726960D02*
X10731967Y-16717436D01*
X10731967Y-16717436D02*
X10722444Y-16698388D01*
X10722444Y-16698388D02*
X10712920Y-16660293D01*
X10712920Y-16660293D02*
X10712920Y-16612674D01*
X10712920Y-16612674D02*
X10722444Y-16574579D01*
X10722444Y-16574579D02*
X10731967Y-16555531D01*
X10731967Y-16555531D02*
X10741491Y-16546008D01*
X10741491Y-16546008D02*
X10760539Y-16536484D01*
X10912920Y-16736484D02*
X10912920Y-16603150D01*
X10912920Y-16622198D02*
X10922444Y-16612674D01*
X10922444Y-16612674D02*
X10941491Y-16603150D01*
X10941491Y-16603150D02*
X10970063Y-16603150D01*
X10970063Y-16603150D02*
X10989110Y-16612674D01*
X10989110Y-16612674D02*
X10998634Y-16631722D01*
X10998634Y-16631722D02*
X10998634Y-16736484D01*
X10998634Y-16631722D02*
X11008158Y-16612674D01*
X11008158Y-16612674D02*
X11027205Y-16603150D01*
X11027205Y-16603150D02*
X11055777Y-16603150D01*
X11055777Y-16603150D02*
X11074825Y-16612674D01*
X11074825Y-16612674D02*
X11084348Y-16631722D01*
X11084348Y-16631722D02*
X11084348Y-16736484D01*
X11179586Y-16736484D02*
X11179586Y-16603150D01*
X11179586Y-16622198D02*
X11189110Y-16612674D01*
X11189110Y-16612674D02*
X11208158Y-16603150D01*
X11208158Y-16603150D02*
X11236729Y-16603150D01*
X11236729Y-16603150D02*
X11255777Y-16612674D01*
X11255777Y-16612674D02*
X11265301Y-16631722D01*
X11265301Y-16631722D02*
X11265301Y-16736484D01*
X11265301Y-16631722D02*
X11274824Y-16612674D01*
X11274824Y-16612674D02*
X11293872Y-16603150D01*
X11293872Y-16603150D02*
X11322443Y-16603150D01*
X11322443Y-16603150D02*
X11341491Y-16612674D01*
X11341491Y-16612674D02*
X11351015Y-16631722D01*
X11351015Y-16631722D02*
X11351015Y-16736484D01*
X11741491Y-16526960D02*
X11570063Y-16784103D01*
X11998634Y-16536484D02*
X12017682Y-16536484D01*
X12017682Y-16536484D02*
X12036729Y-16546008D01*
X12036729Y-16546008D02*
X12046253Y-16555531D01*
X12046253Y-16555531D02*
X12055777Y-16574579D01*
X12055777Y-16574579D02*
X12065301Y-16612674D01*
X12065301Y-16612674D02*
X12065301Y-16660293D01*
X12065301Y-16660293D02*
X12055777Y-16698388D01*
X12055777Y-16698388D02*
X12046253Y-16717436D01*
X12046253Y-16717436D02*
X12036729Y-16726960D01*
X12036729Y-16726960D02*
X12017682Y-16736484D01*
X12017682Y-16736484D02*
X11998634Y-16736484D01*
X11998634Y-16736484D02*
X11979586Y-16726960D01*
X11979586Y-16726960D02*
X11970063Y-16717436D01*
X11970063Y-16717436D02*
X11960539Y-16698388D01*
X11960539Y-16698388D02*
X11951015Y-16660293D01*
X11951015Y-16660293D02*
X11951015Y-16612674D01*
X11951015Y-16612674D02*
X11960539Y-16574579D01*
X11960539Y-16574579D02*
X11970063Y-16555531D01*
X11970063Y-16555531D02*
X11979586Y-16546008D01*
X11979586Y-16546008D02*
X11998634Y-16536484D01*
X12151015Y-16717436D02*
X12160539Y-16726960D01*
X12160539Y-16726960D02*
X12151015Y-16736484D01*
X12151015Y-16736484D02*
X12141491Y-16726960D01*
X12141491Y-16726960D02*
X12151015Y-16717436D01*
X12151015Y-16717436D02*
X12151015Y-16736484D01*
X12284348Y-16536484D02*
X12303396Y-16536484D01*
X12303396Y-16536484D02*
X12322444Y-16546008D01*
X12322444Y-16546008D02*
X12331967Y-16555531D01*
X12331967Y-16555531D02*
X12341491Y-16574579D01*
X12341491Y-16574579D02*
X12351015Y-16612674D01*
X12351015Y-16612674D02*
X12351015Y-16660293D01*
X12351015Y-16660293D02*
X12341491Y-16698388D01*
X12341491Y-16698388D02*
X12331967Y-16717436D01*
X12331967Y-16717436D02*
X12322444Y-16726960D01*
X12322444Y-16726960D02*
X12303396Y-16736484D01*
X12303396Y-16736484D02*
X12284348Y-16736484D01*
X12284348Y-16736484D02*
X12265301Y-16726960D01*
X12265301Y-16726960D02*
X12255777Y-16717436D01*
X12255777Y-16717436D02*
X12246253Y-16698388D01*
X12246253Y-16698388D02*
X12236729Y-16660293D01*
X12236729Y-16660293D02*
X12236729Y-16612674D01*
X12236729Y-16612674D02*
X12246253Y-16574579D01*
X12246253Y-16574579D02*
X12255777Y-16555531D01*
X12255777Y-16555531D02*
X12265301Y-16546008D01*
X12265301Y-16546008D02*
X12284348Y-16536484D01*
X12474825Y-16536484D02*
X12493872Y-16536484D01*
X12493872Y-16536484D02*
X12512920Y-16546008D01*
X12512920Y-16546008D02*
X12522444Y-16555531D01*
X12522444Y-16555531D02*
X12531967Y-16574579D01*
X12531967Y-16574579D02*
X12541491Y-16612674D01*
X12541491Y-16612674D02*
X12541491Y-16660293D01*
X12541491Y-16660293D02*
X12531967Y-16698388D01*
X12531967Y-16698388D02*
X12522444Y-16717436D01*
X12522444Y-16717436D02*
X12512920Y-16726960D01*
X12512920Y-16726960D02*
X12493872Y-16736484D01*
X12493872Y-16736484D02*
X12474825Y-16736484D01*
X12474825Y-16736484D02*
X12455777Y-16726960D01*
X12455777Y-16726960D02*
X12446253Y-16717436D01*
X12446253Y-16717436D02*
X12436729Y-16698388D01*
X12436729Y-16698388D02*
X12427206Y-16660293D01*
X12427206Y-16660293D02*
X12427206Y-16612674D01*
X12427206Y-16612674D02*
X12436729Y-16574579D01*
X12436729Y-16574579D02*
X12446253Y-16555531D01*
X12446253Y-16555531D02*
X12455777Y-16546008D01*
X12455777Y-16546008D02*
X12474825Y-16536484D01*
X12608158Y-16536484D02*
X12741491Y-16536484D01*
X12741491Y-16536484D02*
X12655777Y-16736484D01*
X12827206Y-16736484D02*
X12865301Y-16736484D01*
X12865301Y-16736484D02*
X12884348Y-16726960D01*
X12884348Y-16726960D02*
X12893872Y-16717436D01*
X12893872Y-16717436D02*
X12912920Y-16688865D01*
X12912920Y-16688865D02*
X12922444Y-16650769D01*
X12922444Y-16650769D02*
X12922444Y-16574579D01*
X12922444Y-16574579D02*
X12912920Y-16555531D01*
X12912920Y-16555531D02*
X12903396Y-16546008D01*
X12903396Y-16546008D02*
X12884348Y-16536484D01*
X12884348Y-16536484D02*
X12846253Y-16536484D01*
X12846253Y-16536484D02*
X12827206Y-16546008D01*
X12827206Y-16546008D02*
X12817682Y-16555531D01*
X12817682Y-16555531D02*
X12808158Y-16574579D01*
X12808158Y-16574579D02*
X12808158Y-16622198D01*
X12808158Y-16622198D02*
X12817682Y-16641246D01*
X12817682Y-16641246D02*
X12827206Y-16650769D01*
X12827206Y-16650769D02*
X12846253Y-16660293D01*
X12846253Y-16660293D02*
X12884348Y-16660293D01*
X12884348Y-16660293D02*
X12903396Y-16650769D01*
X12903396Y-16650769D02*
X12912920Y-16641246D01*
X12912920Y-16641246D02*
X12922444Y-16622198D01*
X12998634Y-16536484D02*
X12998634Y-16574579D01*
X13074825Y-16536484D02*
X13074825Y-16574579D01*
X13370063Y-16812674D02*
X13360539Y-16803150D01*
X13360539Y-16803150D02*
X13341491Y-16774579D01*
X13341491Y-16774579D02*
X13331968Y-16755531D01*
X13331968Y-16755531D02*
X13322444Y-16726960D01*
X13322444Y-16726960D02*
X13312920Y-16679341D01*
X13312920Y-16679341D02*
X13312920Y-16641246D01*
X13312920Y-16641246D02*
X13322444Y-16593627D01*
X13322444Y-16593627D02*
X13331968Y-16565055D01*
X13331968Y-16565055D02*
X13341491Y-16546008D01*
X13341491Y-16546008D02*
X13360539Y-16517436D01*
X13360539Y-16517436D02*
X13370063Y-16507912D01*
X13455777Y-16736484D02*
X13493872Y-16736484D01*
X13493872Y-16736484D02*
X13512920Y-16726960D01*
X13512920Y-16726960D02*
X13522444Y-16717436D01*
X13522444Y-16717436D02*
X13541491Y-16688865D01*
X13541491Y-16688865D02*
X13551015Y-16650769D01*
X13551015Y-16650769D02*
X13551015Y-16574579D01*
X13551015Y-16574579D02*
X13541491Y-16555531D01*
X13541491Y-16555531D02*
X13531968Y-16546008D01*
X13531968Y-16546008D02*
X13512920Y-16536484D01*
X13512920Y-16536484D02*
X13474825Y-16536484D01*
X13474825Y-16536484D02*
X13455777Y-16546008D01*
X13455777Y-16546008D02*
X13446253Y-16555531D01*
X13446253Y-16555531D02*
X13436729Y-16574579D01*
X13436729Y-16574579D02*
X13436729Y-16622198D01*
X13436729Y-16622198D02*
X13446253Y-16641246D01*
X13446253Y-16641246D02*
X13455777Y-16650769D01*
X13455777Y-16650769D02*
X13474825Y-16660293D01*
X13474825Y-16660293D02*
X13512920Y-16660293D01*
X13512920Y-16660293D02*
X13531968Y-16650769D01*
X13531968Y-16650769D02*
X13541491Y-16641246D01*
X13541491Y-16641246D02*
X13551015Y-16622198D01*
X13674825Y-16536484D02*
X13693872Y-16536484D01*
X13693872Y-16536484D02*
X13712920Y-16546008D01*
X13712920Y-16546008D02*
X13722444Y-16555531D01*
X13722444Y-16555531D02*
X13731968Y-16574579D01*
X13731968Y-16574579D02*
X13741491Y-16612674D01*
X13741491Y-16612674D02*
X13741491Y-16660293D01*
X13741491Y-16660293D02*
X13731968Y-16698388D01*
X13731968Y-16698388D02*
X13722444Y-16717436D01*
X13722444Y-16717436D02*
X13712920Y-16726960D01*
X13712920Y-16726960D02*
X13693872Y-16736484D01*
X13693872Y-16736484D02*
X13674825Y-16736484D01*
X13674825Y-16736484D02*
X13655777Y-16726960D01*
X13655777Y-16726960D02*
X13646253Y-16717436D01*
X13646253Y-16717436D02*
X13636729Y-16698388D01*
X13636729Y-16698388D02*
X13627206Y-16660293D01*
X13627206Y-16660293D02*
X13627206Y-16612674D01*
X13627206Y-16612674D02*
X13636729Y-16574579D01*
X13636729Y-16574579D02*
X13646253Y-16555531D01*
X13646253Y-16555531D02*
X13655777Y-16546008D01*
X13655777Y-16546008D02*
X13674825Y-16536484D01*
X13979587Y-16736484D02*
X13979587Y-16536484D01*
X14065301Y-16736484D02*
X14065301Y-16631722D01*
X14065301Y-16631722D02*
X14055777Y-16612674D01*
X14055777Y-16612674D02*
X14036730Y-16603150D01*
X14036730Y-16603150D02*
X14008158Y-16603150D01*
X14008158Y-16603150D02*
X13989110Y-16612674D01*
X13989110Y-16612674D02*
X13979587Y-16622198D01*
X14189110Y-16736484D02*
X14170063Y-16726960D01*
X14170063Y-16726960D02*
X14160539Y-16717436D01*
X14160539Y-16717436D02*
X14151015Y-16698388D01*
X14151015Y-16698388D02*
X14151015Y-16641246D01*
X14151015Y-16641246D02*
X14160539Y-16622198D01*
X14160539Y-16622198D02*
X14170063Y-16612674D01*
X14170063Y-16612674D02*
X14189110Y-16603150D01*
X14189110Y-16603150D02*
X14217682Y-16603150D01*
X14217682Y-16603150D02*
X14236730Y-16612674D01*
X14236730Y-16612674D02*
X14246253Y-16622198D01*
X14246253Y-16622198D02*
X14255777Y-16641246D01*
X14255777Y-16641246D02*
X14255777Y-16698388D01*
X14255777Y-16698388D02*
X14246253Y-16717436D01*
X14246253Y-16717436D02*
X14236730Y-16726960D01*
X14236730Y-16726960D02*
X14217682Y-16736484D01*
X14217682Y-16736484D02*
X14189110Y-16736484D01*
X14370063Y-16736484D02*
X14351015Y-16726960D01*
X14351015Y-16726960D02*
X14341491Y-16707912D01*
X14341491Y-16707912D02*
X14341491Y-16536484D01*
X14522444Y-16726960D02*
X14503396Y-16736484D01*
X14503396Y-16736484D02*
X14465301Y-16736484D01*
X14465301Y-16736484D02*
X14446253Y-16726960D01*
X14446253Y-16726960D02*
X14436730Y-16707912D01*
X14436730Y-16707912D02*
X14436730Y-16631722D01*
X14436730Y-16631722D02*
X14446253Y-16612674D01*
X14446253Y-16612674D02*
X14465301Y-16603150D01*
X14465301Y-16603150D02*
X14503396Y-16603150D01*
X14503396Y-16603150D02*
X14522444Y-16612674D01*
X14522444Y-16612674D02*
X14531968Y-16631722D01*
X14531968Y-16631722D02*
X14531968Y-16650769D01*
X14531968Y-16650769D02*
X14436730Y-16669817D01*
X14608158Y-16726960D02*
X14627206Y-16736484D01*
X14627206Y-16736484D02*
X14665301Y-16736484D01*
X14665301Y-16736484D02*
X14684349Y-16726960D01*
X14684349Y-16726960D02*
X14693872Y-16707912D01*
X14693872Y-16707912D02*
X14693872Y-16698388D01*
X14693872Y-16698388D02*
X14684349Y-16679341D01*
X14684349Y-16679341D02*
X14665301Y-16669817D01*
X14665301Y-16669817D02*
X14636730Y-16669817D01*
X14636730Y-16669817D02*
X14617682Y-16660293D01*
X14617682Y-16660293D02*
X14608158Y-16641246D01*
X14608158Y-16641246D02*
X14608158Y-16631722D01*
X14608158Y-16631722D02*
X14617682Y-16612674D01*
X14617682Y-16612674D02*
X14636730Y-16603150D01*
X14636730Y-16603150D02*
X14665301Y-16603150D01*
X14665301Y-16603150D02*
X14684349Y-16612674D01*
X14760539Y-16812674D02*
X14770063Y-16803150D01*
X14770063Y-16803150D02*
X14789111Y-16774579D01*
X14789111Y-16774579D02*
X14798634Y-16755531D01*
X14798634Y-16755531D02*
X14808158Y-16726960D01*
X14808158Y-16726960D02*
X14817682Y-16679341D01*
X14817682Y-16679341D02*
X14817682Y-16641246D01*
X14817682Y-16641246D02*
X14808158Y-16593627D01*
X14808158Y-16593627D02*
X14798634Y-16565055D01*
X14798634Y-16565055D02*
X14789111Y-16546008D01*
X14789111Y-16546008D02*
X14770063Y-16517436D01*
X14770063Y-16517436D02*
X14760539Y-16507912D01*
D10*
X9795000Y-16909000D02*
G75*
G02*
X9775000Y-16909000I-10000J0D01*
G01*
X9775000Y-16909000D02*
G75*
G02*
X9795000Y-16909000I10000J0D01*
G01*
D11*
X10093872Y-16800484D02*
X10112920Y-16800484D01*
X10112920Y-16800484D02*
X10131967Y-16810008D01*
X10131967Y-16810008D02*
X10141491Y-16819531D01*
X10141491Y-16819531D02*
X10151015Y-16838579D01*
X10151015Y-16838579D02*
X10160539Y-16876674D01*
X10160539Y-16876674D02*
X10160539Y-16924293D01*
X10160539Y-16924293D02*
X10151015Y-16962389D01*
X10151015Y-16962389D02*
X10141491Y-16981436D01*
X10141491Y-16981436D02*
X10131967Y-16990960D01*
X10131967Y-16990960D02*
X10112920Y-17000484D01*
X10112920Y-17000484D02*
X10093872Y-17000484D01*
X10093872Y-17000484D02*
X10074824Y-16990960D01*
X10074824Y-16990960D02*
X10065301Y-16981436D01*
X10065301Y-16981436D02*
X10055777Y-16962389D01*
X10055777Y-16962389D02*
X10046253Y-16924293D01*
X10046253Y-16924293D02*
X10046253Y-16876674D01*
X10046253Y-16876674D02*
X10055777Y-16838579D01*
X10055777Y-16838579D02*
X10065301Y-16819531D01*
X10065301Y-16819531D02*
X10074824Y-16810008D01*
X10074824Y-16810008D02*
X10093872Y-16800484D01*
X10246253Y-16981436D02*
X10255777Y-16990960D01*
X10255777Y-16990960D02*
X10246253Y-17000484D01*
X10246253Y-17000484D02*
X10236729Y-16990960D01*
X10236729Y-16990960D02*
X10246253Y-16981436D01*
X10246253Y-16981436D02*
X10246253Y-17000484D01*
X10331967Y-16819531D02*
X10341491Y-16810008D01*
X10341491Y-16810008D02*
X10360539Y-16800484D01*
X10360539Y-16800484D02*
X10408158Y-16800484D01*
X10408158Y-16800484D02*
X10427205Y-16810008D01*
X10427205Y-16810008D02*
X10436729Y-16819531D01*
X10436729Y-16819531D02*
X10446253Y-16838579D01*
X10446253Y-16838579D02*
X10446253Y-16857627D01*
X10446253Y-16857627D02*
X10436729Y-16886198D01*
X10436729Y-16886198D02*
X10322444Y-17000484D01*
X10322444Y-17000484D02*
X10446253Y-17000484D01*
X10570063Y-16800484D02*
X10589110Y-16800484D01*
X10589110Y-16800484D02*
X10608158Y-16810008D01*
X10608158Y-16810008D02*
X10617682Y-16819531D01*
X10617682Y-16819531D02*
X10627205Y-16838579D01*
X10627205Y-16838579D02*
X10636729Y-16876674D01*
X10636729Y-16876674D02*
X10636729Y-16924293D01*
X10636729Y-16924293D02*
X10627205Y-16962389D01*
X10627205Y-16962389D02*
X10617682Y-16981436D01*
X10617682Y-16981436D02*
X10608158Y-16990960D01*
X10608158Y-16990960D02*
X10589110Y-17000484D01*
X10589110Y-17000484D02*
X10570063Y-17000484D01*
X10570063Y-17000484D02*
X10551015Y-16990960D01*
X10551015Y-16990960D02*
X10541491Y-16981436D01*
X10541491Y-16981436D02*
X10531967Y-16962389D01*
X10531967Y-16962389D02*
X10522444Y-16924293D01*
X10522444Y-16924293D02*
X10522444Y-16876674D01*
X10522444Y-16876674D02*
X10531967Y-16838579D01*
X10531967Y-16838579D02*
X10541491Y-16819531D01*
X10541491Y-16819531D02*
X10551015Y-16810008D01*
X10551015Y-16810008D02*
X10570063Y-16800484D01*
X10760539Y-16800484D02*
X10779586Y-16800484D01*
X10779586Y-16800484D02*
X10798634Y-16810008D01*
X10798634Y-16810008D02*
X10808158Y-16819531D01*
X10808158Y-16819531D02*
X10817682Y-16838579D01*
X10817682Y-16838579D02*
X10827205Y-16876674D01*
X10827205Y-16876674D02*
X10827205Y-16924293D01*
X10827205Y-16924293D02*
X10817682Y-16962389D01*
X10817682Y-16962389D02*
X10808158Y-16981436D01*
X10808158Y-16981436D02*
X10798634Y-16990960D01*
X10798634Y-16990960D02*
X10779586Y-17000484D01*
X10779586Y-17000484D02*
X10760539Y-17000484D01*
X10760539Y-17000484D02*
X10741491Y-16990960D01*
X10741491Y-16990960D02*
X10731967Y-16981436D01*
X10731967Y-16981436D02*
X10722444Y-16962389D01*
X10722444Y-16962389D02*
X10712920Y-16924293D01*
X10712920Y-16924293D02*
X10712920Y-16876674D01*
X10712920Y-16876674D02*
X10722444Y-16838579D01*
X10722444Y-16838579D02*
X10731967Y-16819531D01*
X10731967Y-16819531D02*
X10741491Y-16810008D01*
X10741491Y-16810008D02*
X10760539Y-16800484D01*
X10912920Y-17000484D02*
X10912920Y-16867150D01*
X10912920Y-16886198D02*
X10922444Y-16876674D01*
X10922444Y-16876674D02*
X10941491Y-16867150D01*
X10941491Y-16867150D02*
X10970063Y-16867150D01*
X10970063Y-16867150D02*
X10989110Y-16876674D01*
X10989110Y-16876674D02*
X10998634Y-16895722D01*
X10998634Y-16895722D02*
X10998634Y-17000484D01*
X10998634Y-16895722D02*
X11008158Y-16876674D01*
X11008158Y-16876674D02*
X11027205Y-16867150D01*
X11027205Y-16867150D02*
X11055777Y-16867150D01*
X11055777Y-16867150D02*
X11074825Y-16876674D01*
X11074825Y-16876674D02*
X11084348Y-16895722D01*
X11084348Y-16895722D02*
X11084348Y-17000484D01*
X11179586Y-17000484D02*
X11179586Y-16867150D01*
X11179586Y-16886198D02*
X11189110Y-16876674D01*
X11189110Y-16876674D02*
X11208158Y-16867150D01*
X11208158Y-16867150D02*
X11236729Y-16867150D01*
X11236729Y-16867150D02*
X11255777Y-16876674D01*
X11255777Y-16876674D02*
X11265301Y-16895722D01*
X11265301Y-16895722D02*
X11265301Y-17000484D01*
X11265301Y-16895722D02*
X11274824Y-16876674D01*
X11274824Y-16876674D02*
X11293872Y-16867150D01*
X11293872Y-16867150D02*
X11322443Y-16867150D01*
X11322443Y-16867150D02*
X11341491Y-16876674D01*
X11341491Y-16876674D02*
X11351015Y-16895722D01*
X11351015Y-16895722D02*
X11351015Y-17000484D01*
X11741491Y-16790960D02*
X11570063Y-17048103D01*
X11998634Y-16800484D02*
X12017682Y-16800484D01*
X12017682Y-16800484D02*
X12036729Y-16810008D01*
X12036729Y-16810008D02*
X12046253Y-16819531D01*
X12046253Y-16819531D02*
X12055777Y-16838579D01*
X12055777Y-16838579D02*
X12065301Y-16876674D01*
X12065301Y-16876674D02*
X12065301Y-16924293D01*
X12065301Y-16924293D02*
X12055777Y-16962389D01*
X12055777Y-16962389D02*
X12046253Y-16981436D01*
X12046253Y-16981436D02*
X12036729Y-16990960D01*
X12036729Y-16990960D02*
X12017682Y-17000484D01*
X12017682Y-17000484D02*
X11998634Y-17000484D01*
X11998634Y-17000484D02*
X11979586Y-16990960D01*
X11979586Y-16990960D02*
X11970063Y-16981436D01*
X11970063Y-16981436D02*
X11960539Y-16962389D01*
X11960539Y-16962389D02*
X11951015Y-16924293D01*
X11951015Y-16924293D02*
X11951015Y-16876674D01*
X11951015Y-16876674D02*
X11960539Y-16838579D01*
X11960539Y-16838579D02*
X11970063Y-16819531D01*
X11970063Y-16819531D02*
X11979586Y-16810008D01*
X11979586Y-16810008D02*
X11998634Y-16800484D01*
X12151015Y-16981436D02*
X12160539Y-16990960D01*
X12160539Y-16990960D02*
X12151015Y-17000484D01*
X12151015Y-17000484D02*
X12141491Y-16990960D01*
X12141491Y-16990960D02*
X12151015Y-16981436D01*
X12151015Y-16981436D02*
X12151015Y-17000484D01*
X12284348Y-16800484D02*
X12303396Y-16800484D01*
X12303396Y-16800484D02*
X12322444Y-16810008D01*
X12322444Y-16810008D02*
X12331967Y-16819531D01*
X12331967Y-16819531D02*
X12341491Y-16838579D01*
X12341491Y-16838579D02*
X12351015Y-16876674D01*
X12351015Y-16876674D02*
X12351015Y-16924293D01*
X12351015Y-16924293D02*
X12341491Y-16962389D01*
X12341491Y-16962389D02*
X12331967Y-16981436D01*
X12331967Y-16981436D02*
X12322444Y-16990960D01*
X12322444Y-16990960D02*
X12303396Y-17000484D01*
X12303396Y-17000484D02*
X12284348Y-17000484D01*
X12284348Y-17000484D02*
X12265301Y-16990960D01*
X12265301Y-16990960D02*
X12255777Y-16981436D01*
X12255777Y-16981436D02*
X12246253Y-16962389D01*
X12246253Y-16962389D02*
X12236729Y-16924293D01*
X12236729Y-16924293D02*
X12236729Y-16876674D01*
X12236729Y-16876674D02*
X12246253Y-16838579D01*
X12246253Y-16838579D02*
X12255777Y-16819531D01*
X12255777Y-16819531D02*
X12265301Y-16810008D01*
X12265301Y-16810008D02*
X12284348Y-16800484D01*
X12474825Y-16800484D02*
X12493872Y-16800484D01*
X12493872Y-16800484D02*
X12512920Y-16810008D01*
X12512920Y-16810008D02*
X12522444Y-16819531D01*
X12522444Y-16819531D02*
X12531967Y-16838579D01*
X12531967Y-16838579D02*
X12541491Y-16876674D01*
X12541491Y-16876674D02*
X12541491Y-16924293D01*
X12541491Y-16924293D02*
X12531967Y-16962389D01*
X12531967Y-16962389D02*
X12522444Y-16981436D01*
X12522444Y-16981436D02*
X12512920Y-16990960D01*
X12512920Y-16990960D02*
X12493872Y-17000484D01*
X12493872Y-17000484D02*
X12474825Y-17000484D01*
X12474825Y-17000484D02*
X12455777Y-16990960D01*
X12455777Y-16990960D02*
X12446253Y-16981436D01*
X12446253Y-16981436D02*
X12436729Y-16962389D01*
X12436729Y-16962389D02*
X12427206Y-16924293D01*
X12427206Y-16924293D02*
X12427206Y-16876674D01*
X12427206Y-16876674D02*
X12436729Y-16838579D01*
X12436729Y-16838579D02*
X12446253Y-16819531D01*
X12446253Y-16819531D02*
X12455777Y-16810008D01*
X12455777Y-16810008D02*
X12474825Y-16800484D01*
X12608158Y-16800484D02*
X12741491Y-16800484D01*
X12741491Y-16800484D02*
X12655777Y-17000484D01*
X12827206Y-17000484D02*
X12865301Y-17000484D01*
X12865301Y-17000484D02*
X12884348Y-16990960D01*
X12884348Y-16990960D02*
X12893872Y-16981436D01*
X12893872Y-16981436D02*
X12912920Y-16952865D01*
X12912920Y-16952865D02*
X12922444Y-16914770D01*
X12922444Y-16914770D02*
X12922444Y-16838579D01*
X12922444Y-16838579D02*
X12912920Y-16819531D01*
X12912920Y-16819531D02*
X12903396Y-16810008D01*
X12903396Y-16810008D02*
X12884348Y-16800484D01*
X12884348Y-16800484D02*
X12846253Y-16800484D01*
X12846253Y-16800484D02*
X12827206Y-16810008D01*
X12827206Y-16810008D02*
X12817682Y-16819531D01*
X12817682Y-16819531D02*
X12808158Y-16838579D01*
X12808158Y-16838579D02*
X12808158Y-16886198D01*
X12808158Y-16886198D02*
X12817682Y-16905246D01*
X12817682Y-16905246D02*
X12827206Y-16914770D01*
X12827206Y-16914770D02*
X12846253Y-16924293D01*
X12846253Y-16924293D02*
X12884348Y-16924293D01*
X12884348Y-16924293D02*
X12903396Y-16914770D01*
X12903396Y-16914770D02*
X12912920Y-16905246D01*
X12912920Y-16905246D02*
X12922444Y-16886198D01*
X12998634Y-16800484D02*
X12998634Y-16838579D01*
X13074825Y-16800484D02*
X13074825Y-16838579D01*
X13370063Y-17076674D02*
X13360539Y-17067150D01*
X13360539Y-17067150D02*
X13341491Y-17038579D01*
X13341491Y-17038579D02*
X13331968Y-17019531D01*
X13331968Y-17019531D02*
X13322444Y-16990960D01*
X13322444Y-16990960D02*
X13312920Y-16943341D01*
X13312920Y-16943341D02*
X13312920Y-16905246D01*
X13312920Y-16905246D02*
X13322444Y-16857627D01*
X13322444Y-16857627D02*
X13331968Y-16829055D01*
X13331968Y-16829055D02*
X13341491Y-16810008D01*
X13341491Y-16810008D02*
X13360539Y-16781436D01*
X13360539Y-16781436D02*
X13370063Y-16771912D01*
X13551015Y-17000484D02*
X13436729Y-17000484D01*
X13493872Y-17000484D02*
X13493872Y-16800484D01*
X13493872Y-16800484D02*
X13474825Y-16829055D01*
X13474825Y-16829055D02*
X13455777Y-16848103D01*
X13455777Y-16848103D02*
X13436729Y-16857627D01*
X13627206Y-16819531D02*
X13636729Y-16810008D01*
X13636729Y-16810008D02*
X13655777Y-16800484D01*
X13655777Y-16800484D02*
X13703396Y-16800484D01*
X13703396Y-16800484D02*
X13722444Y-16810008D01*
X13722444Y-16810008D02*
X13731968Y-16819531D01*
X13731968Y-16819531D02*
X13741491Y-16838579D01*
X13741491Y-16838579D02*
X13741491Y-16857627D01*
X13741491Y-16857627D02*
X13731968Y-16886198D01*
X13731968Y-16886198D02*
X13617682Y-17000484D01*
X13617682Y-17000484D02*
X13741491Y-17000484D01*
X13979587Y-17000484D02*
X13979587Y-16800484D01*
X14065301Y-17000484D02*
X14065301Y-16895722D01*
X14065301Y-16895722D02*
X14055777Y-16876674D01*
X14055777Y-16876674D02*
X14036730Y-16867150D01*
X14036730Y-16867150D02*
X14008158Y-16867150D01*
X14008158Y-16867150D02*
X13989110Y-16876674D01*
X13989110Y-16876674D02*
X13979587Y-16886198D01*
X14189110Y-17000484D02*
X14170063Y-16990960D01*
X14170063Y-16990960D02*
X14160539Y-16981436D01*
X14160539Y-16981436D02*
X14151015Y-16962389D01*
X14151015Y-16962389D02*
X14151015Y-16905246D01*
X14151015Y-16905246D02*
X14160539Y-16886198D01*
X14160539Y-16886198D02*
X14170063Y-16876674D01*
X14170063Y-16876674D02*
X14189110Y-16867150D01*
X14189110Y-16867150D02*
X14217682Y-16867150D01*
X14217682Y-16867150D02*
X14236730Y-16876674D01*
X14236730Y-16876674D02*
X14246253Y-16886198D01*
X14246253Y-16886198D02*
X14255777Y-16905246D01*
X14255777Y-16905246D02*
X14255777Y-16962389D01*
X14255777Y-16962389D02*
X14246253Y-16981436D01*
X14246253Y-16981436D02*
X14236730Y-16990960D01*
X14236730Y-16990960D02*
X14217682Y-17000484D01*
X14217682Y-17000484D02*
X14189110Y-17000484D01*
X14370063Y-17000484D02*
X14351015Y-16990960D01*
X14351015Y-16990960D02*
X14341491Y-16971912D01*
X14341491Y-16971912D02*
X14341491Y-16800484D01*
X14522444Y-16990960D02*
X14503396Y-17000484D01*
X14503396Y-17000484D02*
X14465301Y-17000484D01*
X14465301Y-17000484D02*
X14446253Y-16990960D01*
X14446253Y-16990960D02*
X14436730Y-16971912D01*
X14436730Y-16971912D02*
X14436730Y-16895722D01*
X14436730Y-16895722D02*
X14446253Y-16876674D01*
X14446253Y-16876674D02*
X14465301Y-16867150D01*
X14465301Y-16867150D02*
X14503396Y-16867150D01*
X14503396Y-16867150D02*
X14522444Y-16876674D01*
X14522444Y-16876674D02*
X14531968Y-16895722D01*
X14531968Y-16895722D02*
X14531968Y-16914770D01*
X14531968Y-16914770D02*
X14436730Y-16933817D01*
X14608158Y-16990960D02*
X14627206Y-17000484D01*
X14627206Y-17000484D02*
X14665301Y-17000484D01*
X14665301Y-17000484D02*
X14684349Y-16990960D01*
X14684349Y-16990960D02*
X14693872Y-16971912D01*
X14693872Y-16971912D02*
X14693872Y-16962389D01*
X14693872Y-16962389D02*
X14684349Y-16943341D01*
X14684349Y-16943341D02*
X14665301Y-16933817D01*
X14665301Y-16933817D02*
X14636730Y-16933817D01*
X14636730Y-16933817D02*
X14617682Y-16924293D01*
X14617682Y-16924293D02*
X14608158Y-16905246D01*
X14608158Y-16905246D02*
X14608158Y-16895722D01*
X14608158Y-16895722D02*
X14617682Y-16876674D01*
X14617682Y-16876674D02*
X14636730Y-16867150D01*
X14636730Y-16867150D02*
X14665301Y-16867150D01*
X14665301Y-16867150D02*
X14684349Y-16876674D01*
X14760539Y-17076674D02*
X14770063Y-17067150D01*
X14770063Y-17067150D02*
X14789111Y-17038579D01*
X14789111Y-17038579D02*
X14798634Y-17019531D01*
X14798634Y-17019531D02*
X14808158Y-16990960D01*
X14808158Y-16990960D02*
X14817682Y-16943341D01*
X14817682Y-16943341D02*
X14817682Y-16905246D01*
X14817682Y-16905246D02*
X14808158Y-16857627D01*
X14808158Y-16857627D02*
X14798634Y-16829055D01*
X14798634Y-16829055D02*
X14789111Y-16810008D01*
X14789111Y-16810008D02*
X14770063Y-16781436D01*
X14770063Y-16781436D02*
X14760539Y-16771912D01*
D10*
X9780000Y-17158000D02*
X9780000Y-17188000D01*
X9765000Y-17173000D02*
X9795000Y-17173000D01*
D11*
X10093872Y-17064484D02*
X10112920Y-17064484D01*
X10112920Y-17064484D02*
X10131967Y-17074008D01*
X10131967Y-17074008D02*
X10141491Y-17083531D01*
X10141491Y-17083531D02*
X10151015Y-17102579D01*
X10151015Y-17102579D02*
X10160539Y-17140674D01*
X10160539Y-17140674D02*
X10160539Y-17188293D01*
X10160539Y-17188293D02*
X10151015Y-17226389D01*
X10151015Y-17226389D02*
X10141491Y-17245436D01*
X10141491Y-17245436D02*
X10131967Y-17254960D01*
X10131967Y-17254960D02*
X10112920Y-17264484D01*
X10112920Y-17264484D02*
X10093872Y-17264484D01*
X10093872Y-17264484D02*
X10074824Y-17254960D01*
X10074824Y-17254960D02*
X10065301Y-17245436D01*
X10065301Y-17245436D02*
X10055777Y-17226389D01*
X10055777Y-17226389D02*
X10046253Y-17188293D01*
X10046253Y-17188293D02*
X10046253Y-17140674D01*
X10046253Y-17140674D02*
X10055777Y-17102579D01*
X10055777Y-17102579D02*
X10065301Y-17083531D01*
X10065301Y-17083531D02*
X10074824Y-17074008D01*
X10074824Y-17074008D02*
X10093872Y-17064484D01*
X10246253Y-17245436D02*
X10255777Y-17254960D01*
X10255777Y-17254960D02*
X10246253Y-17264484D01*
X10246253Y-17264484D02*
X10236729Y-17254960D01*
X10236729Y-17254960D02*
X10246253Y-17245436D01*
X10246253Y-17245436D02*
X10246253Y-17264484D01*
X10322444Y-17064484D02*
X10446253Y-17064484D01*
X10446253Y-17064484D02*
X10379586Y-17140674D01*
X10379586Y-17140674D02*
X10408158Y-17140674D01*
X10408158Y-17140674D02*
X10427205Y-17150198D01*
X10427205Y-17150198D02*
X10436729Y-17159722D01*
X10436729Y-17159722D02*
X10446253Y-17178770D01*
X10446253Y-17178770D02*
X10446253Y-17226389D01*
X10446253Y-17226389D02*
X10436729Y-17245436D01*
X10436729Y-17245436D02*
X10427205Y-17254960D01*
X10427205Y-17254960D02*
X10408158Y-17264484D01*
X10408158Y-17264484D02*
X10351015Y-17264484D01*
X10351015Y-17264484D02*
X10331967Y-17254960D01*
X10331967Y-17254960D02*
X10322444Y-17245436D01*
X10570063Y-17064484D02*
X10589110Y-17064484D01*
X10589110Y-17064484D02*
X10608158Y-17074008D01*
X10608158Y-17074008D02*
X10617682Y-17083531D01*
X10617682Y-17083531D02*
X10627205Y-17102579D01*
X10627205Y-17102579D02*
X10636729Y-17140674D01*
X10636729Y-17140674D02*
X10636729Y-17188293D01*
X10636729Y-17188293D02*
X10627205Y-17226389D01*
X10627205Y-17226389D02*
X10617682Y-17245436D01*
X10617682Y-17245436D02*
X10608158Y-17254960D01*
X10608158Y-17254960D02*
X10589110Y-17264484D01*
X10589110Y-17264484D02*
X10570063Y-17264484D01*
X10570063Y-17264484D02*
X10551015Y-17254960D01*
X10551015Y-17254960D02*
X10541491Y-17245436D01*
X10541491Y-17245436D02*
X10531967Y-17226389D01*
X10531967Y-17226389D02*
X10522444Y-17188293D01*
X10522444Y-17188293D02*
X10522444Y-17140674D01*
X10522444Y-17140674D02*
X10531967Y-17102579D01*
X10531967Y-17102579D02*
X10541491Y-17083531D01*
X10541491Y-17083531D02*
X10551015Y-17074008D01*
X10551015Y-17074008D02*
X10570063Y-17064484D01*
X10760539Y-17064484D02*
X10779586Y-17064484D01*
X10779586Y-17064484D02*
X10798634Y-17074008D01*
X10798634Y-17074008D02*
X10808158Y-17083531D01*
X10808158Y-17083531D02*
X10817682Y-17102579D01*
X10817682Y-17102579D02*
X10827205Y-17140674D01*
X10827205Y-17140674D02*
X10827205Y-17188293D01*
X10827205Y-17188293D02*
X10817682Y-17226389D01*
X10817682Y-17226389D02*
X10808158Y-17245436D01*
X10808158Y-17245436D02*
X10798634Y-17254960D01*
X10798634Y-17254960D02*
X10779586Y-17264484D01*
X10779586Y-17264484D02*
X10760539Y-17264484D01*
X10760539Y-17264484D02*
X10741491Y-17254960D01*
X10741491Y-17254960D02*
X10731967Y-17245436D01*
X10731967Y-17245436D02*
X10722444Y-17226389D01*
X10722444Y-17226389D02*
X10712920Y-17188293D01*
X10712920Y-17188293D02*
X10712920Y-17140674D01*
X10712920Y-17140674D02*
X10722444Y-17102579D01*
X10722444Y-17102579D02*
X10731967Y-17083531D01*
X10731967Y-17083531D02*
X10741491Y-17074008D01*
X10741491Y-17074008D02*
X10760539Y-17064484D01*
X10912920Y-17264484D02*
X10912920Y-17131150D01*
X10912920Y-17150198D02*
X10922444Y-17140674D01*
X10922444Y-17140674D02*
X10941491Y-17131150D01*
X10941491Y-17131150D02*
X10970063Y-17131150D01*
X10970063Y-17131150D02*
X10989110Y-17140674D01*
X10989110Y-17140674D02*
X10998634Y-17159722D01*
X10998634Y-17159722D02*
X10998634Y-17264484D01*
X10998634Y-17159722D02*
X11008158Y-17140674D01*
X11008158Y-17140674D02*
X11027205Y-17131150D01*
X11027205Y-17131150D02*
X11055777Y-17131150D01*
X11055777Y-17131150D02*
X11074825Y-17140674D01*
X11074825Y-17140674D02*
X11084348Y-17159722D01*
X11084348Y-17159722D02*
X11084348Y-17264484D01*
X11179586Y-17264484D02*
X11179586Y-17131150D01*
X11179586Y-17150198D02*
X11189110Y-17140674D01*
X11189110Y-17140674D02*
X11208158Y-17131150D01*
X11208158Y-17131150D02*
X11236729Y-17131150D01*
X11236729Y-17131150D02*
X11255777Y-17140674D01*
X11255777Y-17140674D02*
X11265301Y-17159722D01*
X11265301Y-17159722D02*
X11265301Y-17264484D01*
X11265301Y-17159722D02*
X11274824Y-17140674D01*
X11274824Y-17140674D02*
X11293872Y-17131150D01*
X11293872Y-17131150D02*
X11322443Y-17131150D01*
X11322443Y-17131150D02*
X11341491Y-17140674D01*
X11341491Y-17140674D02*
X11351015Y-17159722D01*
X11351015Y-17159722D02*
X11351015Y-17264484D01*
X11741491Y-17054960D02*
X11570063Y-17312103D01*
X11998634Y-17064484D02*
X12017682Y-17064484D01*
X12017682Y-17064484D02*
X12036729Y-17074008D01*
X12036729Y-17074008D02*
X12046253Y-17083531D01*
X12046253Y-17083531D02*
X12055777Y-17102579D01*
X12055777Y-17102579D02*
X12065301Y-17140674D01*
X12065301Y-17140674D02*
X12065301Y-17188293D01*
X12065301Y-17188293D02*
X12055777Y-17226389D01*
X12055777Y-17226389D02*
X12046253Y-17245436D01*
X12046253Y-17245436D02*
X12036729Y-17254960D01*
X12036729Y-17254960D02*
X12017682Y-17264484D01*
X12017682Y-17264484D02*
X11998634Y-17264484D01*
X11998634Y-17264484D02*
X11979586Y-17254960D01*
X11979586Y-17254960D02*
X11970063Y-17245436D01*
X11970063Y-17245436D02*
X11960539Y-17226389D01*
X11960539Y-17226389D02*
X11951015Y-17188293D01*
X11951015Y-17188293D02*
X11951015Y-17140674D01*
X11951015Y-17140674D02*
X11960539Y-17102579D01*
X11960539Y-17102579D02*
X11970063Y-17083531D01*
X11970063Y-17083531D02*
X11979586Y-17074008D01*
X11979586Y-17074008D02*
X11998634Y-17064484D01*
X12151015Y-17245436D02*
X12160539Y-17254960D01*
X12160539Y-17254960D02*
X12151015Y-17264484D01*
X12151015Y-17264484D02*
X12141491Y-17254960D01*
X12141491Y-17254960D02*
X12151015Y-17245436D01*
X12151015Y-17245436D02*
X12151015Y-17264484D01*
X12284348Y-17064484D02*
X12303396Y-17064484D01*
X12303396Y-17064484D02*
X12322444Y-17074008D01*
X12322444Y-17074008D02*
X12331967Y-17083531D01*
X12331967Y-17083531D02*
X12341491Y-17102579D01*
X12341491Y-17102579D02*
X12351015Y-17140674D01*
X12351015Y-17140674D02*
X12351015Y-17188293D01*
X12351015Y-17188293D02*
X12341491Y-17226389D01*
X12341491Y-17226389D02*
X12331967Y-17245436D01*
X12331967Y-17245436D02*
X12322444Y-17254960D01*
X12322444Y-17254960D02*
X12303396Y-17264484D01*
X12303396Y-17264484D02*
X12284348Y-17264484D01*
X12284348Y-17264484D02*
X12265301Y-17254960D01*
X12265301Y-17254960D02*
X12255777Y-17245436D01*
X12255777Y-17245436D02*
X12246253Y-17226389D01*
X12246253Y-17226389D02*
X12236729Y-17188293D01*
X12236729Y-17188293D02*
X12236729Y-17140674D01*
X12236729Y-17140674D02*
X12246253Y-17102579D01*
X12246253Y-17102579D02*
X12255777Y-17083531D01*
X12255777Y-17083531D02*
X12265301Y-17074008D01*
X12265301Y-17074008D02*
X12284348Y-17064484D01*
X12541491Y-17264484D02*
X12427206Y-17264484D01*
X12484348Y-17264484D02*
X12484348Y-17064484D01*
X12484348Y-17064484D02*
X12465301Y-17093055D01*
X12465301Y-17093055D02*
X12446253Y-17112103D01*
X12446253Y-17112103D02*
X12427206Y-17121627D01*
X12731967Y-17264484D02*
X12617682Y-17264484D01*
X12674825Y-17264484D02*
X12674825Y-17064484D01*
X12674825Y-17064484D02*
X12655777Y-17093055D01*
X12655777Y-17093055D02*
X12636729Y-17112103D01*
X12636729Y-17112103D02*
X12617682Y-17121627D01*
X12846253Y-17150198D02*
X12827206Y-17140674D01*
X12827206Y-17140674D02*
X12817682Y-17131150D01*
X12817682Y-17131150D02*
X12808158Y-17112103D01*
X12808158Y-17112103D02*
X12808158Y-17102579D01*
X12808158Y-17102579D02*
X12817682Y-17083531D01*
X12817682Y-17083531D02*
X12827206Y-17074008D01*
X12827206Y-17074008D02*
X12846253Y-17064484D01*
X12846253Y-17064484D02*
X12884348Y-17064484D01*
X12884348Y-17064484D02*
X12903396Y-17074008D01*
X12903396Y-17074008D02*
X12912920Y-17083531D01*
X12912920Y-17083531D02*
X12922444Y-17102579D01*
X12922444Y-17102579D02*
X12922444Y-17112103D01*
X12922444Y-17112103D02*
X12912920Y-17131150D01*
X12912920Y-17131150D02*
X12903396Y-17140674D01*
X12903396Y-17140674D02*
X12884348Y-17150198D01*
X12884348Y-17150198D02*
X12846253Y-17150198D01*
X12846253Y-17150198D02*
X12827206Y-17159722D01*
X12827206Y-17159722D02*
X12817682Y-17169246D01*
X12817682Y-17169246D02*
X12808158Y-17188293D01*
X12808158Y-17188293D02*
X12808158Y-17226389D01*
X12808158Y-17226389D02*
X12817682Y-17245436D01*
X12817682Y-17245436D02*
X12827206Y-17254960D01*
X12827206Y-17254960D02*
X12846253Y-17264484D01*
X12846253Y-17264484D02*
X12884348Y-17264484D01*
X12884348Y-17264484D02*
X12903396Y-17254960D01*
X12903396Y-17254960D02*
X12912920Y-17245436D01*
X12912920Y-17245436D02*
X12922444Y-17226389D01*
X12922444Y-17226389D02*
X12922444Y-17188293D01*
X12922444Y-17188293D02*
X12912920Y-17169246D01*
X12912920Y-17169246D02*
X12903396Y-17159722D01*
X12903396Y-17159722D02*
X12884348Y-17150198D01*
X12998634Y-17064484D02*
X12998634Y-17102579D01*
X13074825Y-17064484D02*
X13074825Y-17102579D01*
X13370063Y-17340674D02*
X13360539Y-17331150D01*
X13360539Y-17331150D02*
X13341491Y-17302579D01*
X13341491Y-17302579D02*
X13331968Y-17283531D01*
X13331968Y-17283531D02*
X13322444Y-17254960D01*
X13322444Y-17254960D02*
X13312920Y-17207341D01*
X13312920Y-17207341D02*
X13312920Y-17169246D01*
X13312920Y-17169246D02*
X13322444Y-17121627D01*
X13322444Y-17121627D02*
X13331968Y-17093055D01*
X13331968Y-17093055D02*
X13341491Y-17074008D01*
X13341491Y-17074008D02*
X13360539Y-17045436D01*
X13360539Y-17045436D02*
X13370063Y-17035912D01*
X13541491Y-17064484D02*
X13446253Y-17064484D01*
X13446253Y-17064484D02*
X13436729Y-17159722D01*
X13436729Y-17159722D02*
X13446253Y-17150198D01*
X13446253Y-17150198D02*
X13465301Y-17140674D01*
X13465301Y-17140674D02*
X13512920Y-17140674D01*
X13512920Y-17140674D02*
X13531968Y-17150198D01*
X13531968Y-17150198D02*
X13541491Y-17159722D01*
X13541491Y-17159722D02*
X13551015Y-17178770D01*
X13551015Y-17178770D02*
X13551015Y-17226389D01*
X13551015Y-17226389D02*
X13541491Y-17245436D01*
X13541491Y-17245436D02*
X13531968Y-17254960D01*
X13531968Y-17254960D02*
X13512920Y-17264484D01*
X13512920Y-17264484D02*
X13465301Y-17264484D01*
X13465301Y-17264484D02*
X13446253Y-17254960D01*
X13446253Y-17254960D02*
X13436729Y-17245436D01*
X13731968Y-17064484D02*
X13636729Y-17064484D01*
X13636729Y-17064484D02*
X13627206Y-17159722D01*
X13627206Y-17159722D02*
X13636729Y-17150198D01*
X13636729Y-17150198D02*
X13655777Y-17140674D01*
X13655777Y-17140674D02*
X13703396Y-17140674D01*
X13703396Y-17140674D02*
X13722444Y-17150198D01*
X13722444Y-17150198D02*
X13731968Y-17159722D01*
X13731968Y-17159722D02*
X13741491Y-17178770D01*
X13741491Y-17178770D02*
X13741491Y-17226389D01*
X13741491Y-17226389D02*
X13731968Y-17245436D01*
X13731968Y-17245436D02*
X13722444Y-17254960D01*
X13722444Y-17254960D02*
X13703396Y-17264484D01*
X13703396Y-17264484D02*
X13655777Y-17264484D01*
X13655777Y-17264484D02*
X13636729Y-17254960D01*
X13636729Y-17254960D02*
X13627206Y-17245436D01*
X13979587Y-17264484D02*
X13979587Y-17064484D01*
X14065301Y-17264484D02*
X14065301Y-17159722D01*
X14065301Y-17159722D02*
X14055777Y-17140674D01*
X14055777Y-17140674D02*
X14036730Y-17131150D01*
X14036730Y-17131150D02*
X14008158Y-17131150D01*
X14008158Y-17131150D02*
X13989110Y-17140674D01*
X13989110Y-17140674D02*
X13979587Y-17150198D01*
X14189110Y-17264484D02*
X14170063Y-17254960D01*
X14170063Y-17254960D02*
X14160539Y-17245436D01*
X14160539Y-17245436D02*
X14151015Y-17226389D01*
X14151015Y-17226389D02*
X14151015Y-17169246D01*
X14151015Y-17169246D02*
X14160539Y-17150198D01*
X14160539Y-17150198D02*
X14170063Y-17140674D01*
X14170063Y-17140674D02*
X14189110Y-17131150D01*
X14189110Y-17131150D02*
X14217682Y-17131150D01*
X14217682Y-17131150D02*
X14236730Y-17140674D01*
X14236730Y-17140674D02*
X14246253Y-17150198D01*
X14246253Y-17150198D02*
X14255777Y-17169246D01*
X14255777Y-17169246D02*
X14255777Y-17226389D01*
X14255777Y-17226389D02*
X14246253Y-17245436D01*
X14246253Y-17245436D02*
X14236730Y-17254960D01*
X14236730Y-17254960D02*
X14217682Y-17264484D01*
X14217682Y-17264484D02*
X14189110Y-17264484D01*
X14370063Y-17264484D02*
X14351015Y-17254960D01*
X14351015Y-17254960D02*
X14341491Y-17235912D01*
X14341491Y-17235912D02*
X14341491Y-17064484D01*
X14522444Y-17254960D02*
X14503396Y-17264484D01*
X14503396Y-17264484D02*
X14465301Y-17264484D01*
X14465301Y-17264484D02*
X14446253Y-17254960D01*
X14446253Y-17254960D02*
X14436730Y-17235912D01*
X14436730Y-17235912D02*
X14436730Y-17159722D01*
X14436730Y-17159722D02*
X14446253Y-17140674D01*
X14446253Y-17140674D02*
X14465301Y-17131150D01*
X14465301Y-17131150D02*
X14503396Y-17131150D01*
X14503396Y-17131150D02*
X14522444Y-17140674D01*
X14522444Y-17140674D02*
X14531968Y-17159722D01*
X14531968Y-17159722D02*
X14531968Y-17178770D01*
X14531968Y-17178770D02*
X14436730Y-17197817D01*
X14608158Y-17254960D02*
X14627206Y-17264484D01*
X14627206Y-17264484D02*
X14665301Y-17264484D01*
X14665301Y-17264484D02*
X14684349Y-17254960D01*
X14684349Y-17254960D02*
X14693872Y-17235912D01*
X14693872Y-17235912D02*
X14693872Y-17226389D01*
X14693872Y-17226389D02*
X14684349Y-17207341D01*
X14684349Y-17207341D02*
X14665301Y-17197817D01*
X14665301Y-17197817D02*
X14636730Y-17197817D01*
X14636730Y-17197817D02*
X14617682Y-17188293D01*
X14617682Y-17188293D02*
X14608158Y-17169246D01*
X14608158Y-17169246D02*
X14608158Y-17159722D01*
X14608158Y-17159722D02*
X14617682Y-17140674D01*
X14617682Y-17140674D02*
X14636730Y-17131150D01*
X14636730Y-17131150D02*
X14665301Y-17131150D01*
X14665301Y-17131150D02*
X14684349Y-17140674D01*
X14760539Y-17340674D02*
X14770063Y-17331150D01*
X14770063Y-17331150D02*
X14789111Y-17302579D01*
X14789111Y-17302579D02*
X14798634Y-17283531D01*
X14798634Y-17283531D02*
X14808158Y-17254960D01*
X14808158Y-17254960D02*
X14817682Y-17207341D01*
X14817682Y-17207341D02*
X14817682Y-17169246D01*
X14817682Y-17169246D02*
X14808158Y-17121627D01*
X14808158Y-17121627D02*
X14798634Y-17093055D01*
X14798634Y-17093055D02*
X14789111Y-17074008D01*
X14789111Y-17074008D02*
X14770063Y-17045436D01*
X14770063Y-17045436D02*
X14760539Y-17035912D01*
D10*
X9786213Y-17458213D02*
X9786213Y-17415787D01*
X9743787Y-17415787D01*
X9743787Y-17458213D01*
X9786213Y-17458213D01*
D11*
X10093872Y-17328484D02*
X10112920Y-17328484D01*
X10112920Y-17328484D02*
X10131967Y-17338008D01*
X10131967Y-17338008D02*
X10141491Y-17347531D01*
X10141491Y-17347531D02*
X10151015Y-17366579D01*
X10151015Y-17366579D02*
X10160539Y-17404674D01*
X10160539Y-17404674D02*
X10160539Y-17452293D01*
X10160539Y-17452293D02*
X10151015Y-17490389D01*
X10151015Y-17490389D02*
X10141491Y-17509436D01*
X10141491Y-17509436D02*
X10131967Y-17518960D01*
X10131967Y-17518960D02*
X10112920Y-17528484D01*
X10112920Y-17528484D02*
X10093872Y-17528484D01*
X10093872Y-17528484D02*
X10074824Y-17518960D01*
X10074824Y-17518960D02*
X10065301Y-17509436D01*
X10065301Y-17509436D02*
X10055777Y-17490389D01*
X10055777Y-17490389D02*
X10046253Y-17452293D01*
X10046253Y-17452293D02*
X10046253Y-17404674D01*
X10046253Y-17404674D02*
X10055777Y-17366579D01*
X10055777Y-17366579D02*
X10065301Y-17347531D01*
X10065301Y-17347531D02*
X10074824Y-17338008D01*
X10074824Y-17338008D02*
X10093872Y-17328484D01*
X10246253Y-17509436D02*
X10255777Y-17518960D01*
X10255777Y-17518960D02*
X10246253Y-17528484D01*
X10246253Y-17528484D02*
X10236729Y-17518960D01*
X10236729Y-17518960D02*
X10246253Y-17509436D01*
X10246253Y-17509436D02*
X10246253Y-17528484D01*
X10427205Y-17328484D02*
X10389110Y-17328484D01*
X10389110Y-17328484D02*
X10370063Y-17338008D01*
X10370063Y-17338008D02*
X10360539Y-17347531D01*
X10360539Y-17347531D02*
X10341491Y-17376103D01*
X10341491Y-17376103D02*
X10331967Y-17414198D01*
X10331967Y-17414198D02*
X10331967Y-17490389D01*
X10331967Y-17490389D02*
X10341491Y-17509436D01*
X10341491Y-17509436D02*
X10351015Y-17518960D01*
X10351015Y-17518960D02*
X10370063Y-17528484D01*
X10370063Y-17528484D02*
X10408158Y-17528484D01*
X10408158Y-17528484D02*
X10427205Y-17518960D01*
X10427205Y-17518960D02*
X10436729Y-17509436D01*
X10436729Y-17509436D02*
X10446253Y-17490389D01*
X10446253Y-17490389D02*
X10446253Y-17442770D01*
X10446253Y-17442770D02*
X10436729Y-17423722D01*
X10436729Y-17423722D02*
X10427205Y-17414198D01*
X10427205Y-17414198D02*
X10408158Y-17404674D01*
X10408158Y-17404674D02*
X10370063Y-17404674D01*
X10370063Y-17404674D02*
X10351015Y-17414198D01*
X10351015Y-17414198D02*
X10341491Y-17423722D01*
X10341491Y-17423722D02*
X10331967Y-17442770D01*
X10570063Y-17328484D02*
X10589110Y-17328484D01*
X10589110Y-17328484D02*
X10608158Y-17338008D01*
X10608158Y-17338008D02*
X10617682Y-17347531D01*
X10617682Y-17347531D02*
X10627205Y-17366579D01*
X10627205Y-17366579D02*
X10636729Y-17404674D01*
X10636729Y-17404674D02*
X10636729Y-17452293D01*
X10636729Y-17452293D02*
X10627205Y-17490389D01*
X10627205Y-17490389D02*
X10617682Y-17509436D01*
X10617682Y-17509436D02*
X10608158Y-17518960D01*
X10608158Y-17518960D02*
X10589110Y-17528484D01*
X10589110Y-17528484D02*
X10570063Y-17528484D01*
X10570063Y-17528484D02*
X10551015Y-17518960D01*
X10551015Y-17518960D02*
X10541491Y-17509436D01*
X10541491Y-17509436D02*
X10531967Y-17490389D01*
X10531967Y-17490389D02*
X10522444Y-17452293D01*
X10522444Y-17452293D02*
X10522444Y-17404674D01*
X10522444Y-17404674D02*
X10531967Y-17366579D01*
X10531967Y-17366579D02*
X10541491Y-17347531D01*
X10541491Y-17347531D02*
X10551015Y-17338008D01*
X10551015Y-17338008D02*
X10570063Y-17328484D01*
X10760539Y-17328484D02*
X10779586Y-17328484D01*
X10779586Y-17328484D02*
X10798634Y-17338008D01*
X10798634Y-17338008D02*
X10808158Y-17347531D01*
X10808158Y-17347531D02*
X10817682Y-17366579D01*
X10817682Y-17366579D02*
X10827205Y-17404674D01*
X10827205Y-17404674D02*
X10827205Y-17452293D01*
X10827205Y-17452293D02*
X10817682Y-17490389D01*
X10817682Y-17490389D02*
X10808158Y-17509436D01*
X10808158Y-17509436D02*
X10798634Y-17518960D01*
X10798634Y-17518960D02*
X10779586Y-17528484D01*
X10779586Y-17528484D02*
X10760539Y-17528484D01*
X10760539Y-17528484D02*
X10741491Y-17518960D01*
X10741491Y-17518960D02*
X10731967Y-17509436D01*
X10731967Y-17509436D02*
X10722444Y-17490389D01*
X10722444Y-17490389D02*
X10712920Y-17452293D01*
X10712920Y-17452293D02*
X10712920Y-17404674D01*
X10712920Y-17404674D02*
X10722444Y-17366579D01*
X10722444Y-17366579D02*
X10731967Y-17347531D01*
X10731967Y-17347531D02*
X10741491Y-17338008D01*
X10741491Y-17338008D02*
X10760539Y-17328484D01*
X10912920Y-17528484D02*
X10912920Y-17395150D01*
X10912920Y-17414198D02*
X10922444Y-17404674D01*
X10922444Y-17404674D02*
X10941491Y-17395150D01*
X10941491Y-17395150D02*
X10970063Y-17395150D01*
X10970063Y-17395150D02*
X10989110Y-17404674D01*
X10989110Y-17404674D02*
X10998634Y-17423722D01*
X10998634Y-17423722D02*
X10998634Y-17528484D01*
X10998634Y-17423722D02*
X11008158Y-17404674D01*
X11008158Y-17404674D02*
X11027205Y-17395150D01*
X11027205Y-17395150D02*
X11055777Y-17395150D01*
X11055777Y-17395150D02*
X11074825Y-17404674D01*
X11074825Y-17404674D02*
X11084348Y-17423722D01*
X11084348Y-17423722D02*
X11084348Y-17528484D01*
X11179586Y-17528484D02*
X11179586Y-17395150D01*
X11179586Y-17414198D02*
X11189110Y-17404674D01*
X11189110Y-17404674D02*
X11208158Y-17395150D01*
X11208158Y-17395150D02*
X11236729Y-17395150D01*
X11236729Y-17395150D02*
X11255777Y-17404674D01*
X11255777Y-17404674D02*
X11265301Y-17423722D01*
X11265301Y-17423722D02*
X11265301Y-17528484D01*
X11265301Y-17423722D02*
X11274824Y-17404674D01*
X11274824Y-17404674D02*
X11293872Y-17395150D01*
X11293872Y-17395150D02*
X11322443Y-17395150D01*
X11322443Y-17395150D02*
X11341491Y-17404674D01*
X11341491Y-17404674D02*
X11351015Y-17423722D01*
X11351015Y-17423722D02*
X11351015Y-17528484D01*
X11741491Y-17318960D02*
X11570063Y-17576103D01*
X11998634Y-17328484D02*
X12017682Y-17328484D01*
X12017682Y-17328484D02*
X12036729Y-17338008D01*
X12036729Y-17338008D02*
X12046253Y-17347531D01*
X12046253Y-17347531D02*
X12055777Y-17366579D01*
X12055777Y-17366579D02*
X12065301Y-17404674D01*
X12065301Y-17404674D02*
X12065301Y-17452293D01*
X12065301Y-17452293D02*
X12055777Y-17490389D01*
X12055777Y-17490389D02*
X12046253Y-17509436D01*
X12046253Y-17509436D02*
X12036729Y-17518960D01*
X12036729Y-17518960D02*
X12017682Y-17528484D01*
X12017682Y-17528484D02*
X11998634Y-17528484D01*
X11998634Y-17528484D02*
X11979586Y-17518960D01*
X11979586Y-17518960D02*
X11970063Y-17509436D01*
X11970063Y-17509436D02*
X11960539Y-17490389D01*
X11960539Y-17490389D02*
X11951015Y-17452293D01*
X11951015Y-17452293D02*
X11951015Y-17404674D01*
X11951015Y-17404674D02*
X11960539Y-17366579D01*
X11960539Y-17366579D02*
X11970063Y-17347531D01*
X11970063Y-17347531D02*
X11979586Y-17338008D01*
X11979586Y-17338008D02*
X11998634Y-17328484D01*
X12151015Y-17509436D02*
X12160539Y-17518960D01*
X12160539Y-17518960D02*
X12151015Y-17528484D01*
X12151015Y-17528484D02*
X12141491Y-17518960D01*
X12141491Y-17518960D02*
X12151015Y-17509436D01*
X12151015Y-17509436D02*
X12151015Y-17528484D01*
X12284348Y-17328484D02*
X12303396Y-17328484D01*
X12303396Y-17328484D02*
X12322444Y-17338008D01*
X12322444Y-17338008D02*
X12331967Y-17347531D01*
X12331967Y-17347531D02*
X12341491Y-17366579D01*
X12341491Y-17366579D02*
X12351015Y-17404674D01*
X12351015Y-17404674D02*
X12351015Y-17452293D01*
X12351015Y-17452293D02*
X12341491Y-17490389D01*
X12341491Y-17490389D02*
X12331967Y-17509436D01*
X12331967Y-17509436D02*
X12322444Y-17518960D01*
X12322444Y-17518960D02*
X12303396Y-17528484D01*
X12303396Y-17528484D02*
X12284348Y-17528484D01*
X12284348Y-17528484D02*
X12265301Y-17518960D01*
X12265301Y-17518960D02*
X12255777Y-17509436D01*
X12255777Y-17509436D02*
X12246253Y-17490389D01*
X12246253Y-17490389D02*
X12236729Y-17452293D01*
X12236729Y-17452293D02*
X12236729Y-17404674D01*
X12236729Y-17404674D02*
X12246253Y-17366579D01*
X12246253Y-17366579D02*
X12255777Y-17347531D01*
X12255777Y-17347531D02*
X12265301Y-17338008D01*
X12265301Y-17338008D02*
X12284348Y-17328484D01*
X12427206Y-17347531D02*
X12436729Y-17338008D01*
X12436729Y-17338008D02*
X12455777Y-17328484D01*
X12455777Y-17328484D02*
X12503396Y-17328484D01*
X12503396Y-17328484D02*
X12522444Y-17338008D01*
X12522444Y-17338008D02*
X12531967Y-17347531D01*
X12531967Y-17347531D02*
X12541491Y-17366579D01*
X12541491Y-17366579D02*
X12541491Y-17385627D01*
X12541491Y-17385627D02*
X12531967Y-17414198D01*
X12531967Y-17414198D02*
X12417682Y-17528484D01*
X12417682Y-17528484D02*
X12541491Y-17528484D01*
X12608158Y-17328484D02*
X12731967Y-17328484D01*
X12731967Y-17328484D02*
X12665301Y-17404674D01*
X12665301Y-17404674D02*
X12693872Y-17404674D01*
X12693872Y-17404674D02*
X12712920Y-17414198D01*
X12712920Y-17414198D02*
X12722444Y-17423722D01*
X12722444Y-17423722D02*
X12731967Y-17442770D01*
X12731967Y-17442770D02*
X12731967Y-17490389D01*
X12731967Y-17490389D02*
X12722444Y-17509436D01*
X12722444Y-17509436D02*
X12712920Y-17518960D01*
X12712920Y-17518960D02*
X12693872Y-17528484D01*
X12693872Y-17528484D02*
X12636729Y-17528484D01*
X12636729Y-17528484D02*
X12617682Y-17518960D01*
X12617682Y-17518960D02*
X12608158Y-17509436D01*
X12903396Y-17328484D02*
X12865301Y-17328484D01*
X12865301Y-17328484D02*
X12846253Y-17338008D01*
X12846253Y-17338008D02*
X12836729Y-17347531D01*
X12836729Y-17347531D02*
X12817682Y-17376103D01*
X12817682Y-17376103D02*
X12808158Y-17414198D01*
X12808158Y-17414198D02*
X12808158Y-17490389D01*
X12808158Y-17490389D02*
X12817682Y-17509436D01*
X12817682Y-17509436D02*
X12827206Y-17518960D01*
X12827206Y-17518960D02*
X12846253Y-17528484D01*
X12846253Y-17528484D02*
X12884348Y-17528484D01*
X12884348Y-17528484D02*
X12903396Y-17518960D01*
X12903396Y-17518960D02*
X12912920Y-17509436D01*
X12912920Y-17509436D02*
X12922444Y-17490389D01*
X12922444Y-17490389D02*
X12922444Y-17442770D01*
X12922444Y-17442770D02*
X12912920Y-17423722D01*
X12912920Y-17423722D02*
X12903396Y-17414198D01*
X12903396Y-17414198D02*
X12884348Y-17404674D01*
X12884348Y-17404674D02*
X12846253Y-17404674D01*
X12846253Y-17404674D02*
X12827206Y-17414198D01*
X12827206Y-17414198D02*
X12817682Y-17423722D01*
X12817682Y-17423722D02*
X12808158Y-17442770D01*
X12998634Y-17328484D02*
X12998634Y-17366579D01*
X13074825Y-17328484D02*
X13074825Y-17366579D01*
X13370063Y-17604674D02*
X13360539Y-17595150D01*
X13360539Y-17595150D02*
X13341491Y-17566579D01*
X13341491Y-17566579D02*
X13331968Y-17547531D01*
X13331968Y-17547531D02*
X13322444Y-17518960D01*
X13322444Y-17518960D02*
X13312920Y-17471341D01*
X13312920Y-17471341D02*
X13312920Y-17433246D01*
X13312920Y-17433246D02*
X13322444Y-17385627D01*
X13322444Y-17385627D02*
X13331968Y-17357055D01*
X13331968Y-17357055D02*
X13341491Y-17338008D01*
X13341491Y-17338008D02*
X13360539Y-17309436D01*
X13360539Y-17309436D02*
X13370063Y-17299912D01*
X13484348Y-17328484D02*
X13503396Y-17328484D01*
X13503396Y-17328484D02*
X13522444Y-17338008D01*
X13522444Y-17338008D02*
X13531968Y-17347531D01*
X13531968Y-17347531D02*
X13541491Y-17366579D01*
X13541491Y-17366579D02*
X13551015Y-17404674D01*
X13551015Y-17404674D02*
X13551015Y-17452293D01*
X13551015Y-17452293D02*
X13541491Y-17490389D01*
X13541491Y-17490389D02*
X13531968Y-17509436D01*
X13531968Y-17509436D02*
X13522444Y-17518960D01*
X13522444Y-17518960D02*
X13503396Y-17528484D01*
X13503396Y-17528484D02*
X13484348Y-17528484D01*
X13484348Y-17528484D02*
X13465301Y-17518960D01*
X13465301Y-17518960D02*
X13455777Y-17509436D01*
X13455777Y-17509436D02*
X13446253Y-17490389D01*
X13446253Y-17490389D02*
X13436729Y-17452293D01*
X13436729Y-17452293D02*
X13436729Y-17404674D01*
X13436729Y-17404674D02*
X13446253Y-17366579D01*
X13446253Y-17366579D02*
X13455777Y-17347531D01*
X13455777Y-17347531D02*
X13465301Y-17338008D01*
X13465301Y-17338008D02*
X13484348Y-17328484D01*
X13789110Y-17528484D02*
X13789110Y-17328484D01*
X13874825Y-17528484D02*
X13874825Y-17423722D01*
X13874825Y-17423722D02*
X13865301Y-17404674D01*
X13865301Y-17404674D02*
X13846253Y-17395150D01*
X13846253Y-17395150D02*
X13817682Y-17395150D01*
X13817682Y-17395150D02*
X13798634Y-17404674D01*
X13798634Y-17404674D02*
X13789110Y-17414198D01*
X13998634Y-17528484D02*
X13979587Y-17518960D01*
X13979587Y-17518960D02*
X13970063Y-17509436D01*
X13970063Y-17509436D02*
X13960539Y-17490389D01*
X13960539Y-17490389D02*
X13960539Y-17433246D01*
X13960539Y-17433246D02*
X13970063Y-17414198D01*
X13970063Y-17414198D02*
X13979587Y-17404674D01*
X13979587Y-17404674D02*
X13998634Y-17395150D01*
X13998634Y-17395150D02*
X14027206Y-17395150D01*
X14027206Y-17395150D02*
X14046253Y-17404674D01*
X14046253Y-17404674D02*
X14055777Y-17414198D01*
X14055777Y-17414198D02*
X14065301Y-17433246D01*
X14065301Y-17433246D02*
X14065301Y-17490389D01*
X14065301Y-17490389D02*
X14055777Y-17509436D01*
X14055777Y-17509436D02*
X14046253Y-17518960D01*
X14046253Y-17518960D02*
X14027206Y-17528484D01*
X14027206Y-17528484D02*
X13998634Y-17528484D01*
X14179587Y-17528484D02*
X14160539Y-17518960D01*
X14160539Y-17518960D02*
X14151015Y-17499912D01*
X14151015Y-17499912D02*
X14151015Y-17328484D01*
X14331968Y-17518960D02*
X14312920Y-17528484D01*
X14312920Y-17528484D02*
X14274825Y-17528484D01*
X14274825Y-17528484D02*
X14255777Y-17518960D01*
X14255777Y-17518960D02*
X14246253Y-17499912D01*
X14246253Y-17499912D02*
X14246253Y-17423722D01*
X14246253Y-17423722D02*
X14255777Y-17404674D01*
X14255777Y-17404674D02*
X14274825Y-17395150D01*
X14274825Y-17395150D02*
X14312920Y-17395150D01*
X14312920Y-17395150D02*
X14331968Y-17404674D01*
X14331968Y-17404674D02*
X14341491Y-17423722D01*
X14341491Y-17423722D02*
X14341491Y-17442770D01*
X14341491Y-17442770D02*
X14246253Y-17461817D01*
X14417682Y-17518960D02*
X14436730Y-17528484D01*
X14436730Y-17528484D02*
X14474825Y-17528484D01*
X14474825Y-17528484D02*
X14493872Y-17518960D01*
X14493872Y-17518960D02*
X14503396Y-17499912D01*
X14503396Y-17499912D02*
X14503396Y-17490389D01*
X14503396Y-17490389D02*
X14493872Y-17471341D01*
X14493872Y-17471341D02*
X14474825Y-17461817D01*
X14474825Y-17461817D02*
X14446253Y-17461817D01*
X14446253Y-17461817D02*
X14427206Y-17452293D01*
X14427206Y-17452293D02*
X14417682Y-17433246D01*
X14417682Y-17433246D02*
X14417682Y-17423722D01*
X14417682Y-17423722D02*
X14427206Y-17404674D01*
X14427206Y-17404674D02*
X14446253Y-17395150D01*
X14446253Y-17395150D02*
X14474825Y-17395150D01*
X14474825Y-17395150D02*
X14493872Y-17404674D01*
X14741492Y-17452293D02*
X14893873Y-17452293D01*
X14817682Y-17528484D02*
X14817682Y-17376103D01*
X15227206Y-17395150D02*
X15227206Y-17528484D01*
X15179587Y-17318960D02*
X15131968Y-17461817D01*
X15131968Y-17461817D02*
X15255777Y-17461817D01*
X15474825Y-17518960D02*
X15493873Y-17528484D01*
X15493873Y-17528484D02*
X15531968Y-17528484D01*
X15531968Y-17528484D02*
X15551015Y-17518960D01*
X15551015Y-17518960D02*
X15560539Y-17499912D01*
X15560539Y-17499912D02*
X15560539Y-17490389D01*
X15560539Y-17490389D02*
X15551015Y-17471341D01*
X15551015Y-17471341D02*
X15531968Y-17461817D01*
X15531968Y-17461817D02*
X15503396Y-17461817D01*
X15503396Y-17461817D02*
X15484349Y-17452293D01*
X15484349Y-17452293D02*
X15474825Y-17433246D01*
X15474825Y-17433246D02*
X15474825Y-17423722D01*
X15474825Y-17423722D02*
X15484349Y-17404674D01*
X15484349Y-17404674D02*
X15503396Y-17395150D01*
X15503396Y-17395150D02*
X15531968Y-17395150D01*
X15531968Y-17395150D02*
X15551015Y-17404674D01*
X15674825Y-17528484D02*
X15655777Y-17518960D01*
X15655777Y-17518960D02*
X15646254Y-17499912D01*
X15646254Y-17499912D02*
X15646254Y-17328484D01*
X15779587Y-17528484D02*
X15760539Y-17518960D01*
X15760539Y-17518960D02*
X15751015Y-17509436D01*
X15751015Y-17509436D02*
X15741492Y-17490389D01*
X15741492Y-17490389D02*
X15741492Y-17433246D01*
X15741492Y-17433246D02*
X15751015Y-17414198D01*
X15751015Y-17414198D02*
X15760539Y-17404674D01*
X15760539Y-17404674D02*
X15779587Y-17395150D01*
X15779587Y-17395150D02*
X15808158Y-17395150D01*
X15808158Y-17395150D02*
X15827206Y-17404674D01*
X15827206Y-17404674D02*
X15836730Y-17414198D01*
X15836730Y-17414198D02*
X15846254Y-17433246D01*
X15846254Y-17433246D02*
X15846254Y-17490389D01*
X15846254Y-17490389D02*
X15836730Y-17509436D01*
X15836730Y-17509436D02*
X15827206Y-17518960D01*
X15827206Y-17518960D02*
X15808158Y-17528484D01*
X15808158Y-17528484D02*
X15779587Y-17528484D01*
X15903396Y-17395150D02*
X15979587Y-17395150D01*
X15931968Y-17328484D02*
X15931968Y-17499912D01*
X15931968Y-17499912D02*
X15941492Y-17518960D01*
X15941492Y-17518960D02*
X15960539Y-17528484D01*
X15960539Y-17528484D02*
X15979587Y-17528484D01*
X16036730Y-17518960D02*
X16055777Y-17528484D01*
X16055777Y-17528484D02*
X16093873Y-17528484D01*
X16093873Y-17528484D02*
X16112920Y-17518960D01*
X16112920Y-17518960D02*
X16122444Y-17499912D01*
X16122444Y-17499912D02*
X16122444Y-17490389D01*
X16122444Y-17490389D02*
X16112920Y-17471341D01*
X16112920Y-17471341D02*
X16093873Y-17461817D01*
X16093873Y-17461817D02*
X16065301Y-17461817D01*
X16065301Y-17461817D02*
X16046254Y-17452293D01*
X16046254Y-17452293D02*
X16036730Y-17433246D01*
X16036730Y-17433246D02*
X16036730Y-17423722D01*
X16036730Y-17423722D02*
X16046254Y-17404674D01*
X16046254Y-17404674D02*
X16065301Y-17395150D01*
X16065301Y-17395150D02*
X16093873Y-17395150D01*
X16093873Y-17395150D02*
X16112920Y-17404674D01*
X16189111Y-17604674D02*
X16198635Y-17595150D01*
X16198635Y-17595150D02*
X16217682Y-17566579D01*
X16217682Y-17566579D02*
X16227206Y-17547531D01*
X16227206Y-17547531D02*
X16236730Y-17518960D01*
X16236730Y-17518960D02*
X16246254Y-17471341D01*
X16246254Y-17471341D02*
X16246254Y-17433246D01*
X16246254Y-17433246D02*
X16236730Y-17385627D01*
X16236730Y-17385627D02*
X16227206Y-17357055D01*
X16227206Y-17357055D02*
X16217682Y-17338008D01*
X16217682Y-17338008D02*
X16198635Y-17309436D01*
X16198635Y-17309436D02*
X16189111Y-17299912D01*
D10*
X9762500Y-17733500D02*
X9795000Y-17701000D01*
X9762500Y-17668500D01*
X9730000Y-17701000D01*
X9762500Y-17733500D01*
D11*
X10093872Y-17592484D02*
X10112920Y-17592484D01*
X10112920Y-17592484D02*
X10131967Y-17602008D01*
X10131967Y-17602008D02*
X10141491Y-17611531D01*
X10141491Y-17611531D02*
X10151015Y-17630579D01*
X10151015Y-17630579D02*
X10160539Y-17668674D01*
X10160539Y-17668674D02*
X10160539Y-17716293D01*
X10160539Y-17716293D02*
X10151015Y-17754389D01*
X10151015Y-17754389D02*
X10141491Y-17773436D01*
X10141491Y-17773436D02*
X10131967Y-17782960D01*
X10131967Y-17782960D02*
X10112920Y-17792484D01*
X10112920Y-17792484D02*
X10093872Y-17792484D01*
X10093872Y-17792484D02*
X10074824Y-17782960D01*
X10074824Y-17782960D02*
X10065301Y-17773436D01*
X10065301Y-17773436D02*
X10055777Y-17754389D01*
X10055777Y-17754389D02*
X10046253Y-17716293D01*
X10046253Y-17716293D02*
X10046253Y-17668674D01*
X10046253Y-17668674D02*
X10055777Y-17630579D01*
X10055777Y-17630579D02*
X10065301Y-17611531D01*
X10065301Y-17611531D02*
X10074824Y-17602008D01*
X10074824Y-17602008D02*
X10093872Y-17592484D01*
X10246253Y-17773436D02*
X10255777Y-17782960D01*
X10255777Y-17782960D02*
X10246253Y-17792484D01*
X10246253Y-17792484D02*
X10236729Y-17782960D01*
X10236729Y-17782960D02*
X10246253Y-17773436D01*
X10246253Y-17773436D02*
X10246253Y-17792484D01*
X10427205Y-17592484D02*
X10389110Y-17592484D01*
X10389110Y-17592484D02*
X10370063Y-17602008D01*
X10370063Y-17602008D02*
X10360539Y-17611531D01*
X10360539Y-17611531D02*
X10341491Y-17640103D01*
X10341491Y-17640103D02*
X10331967Y-17678198D01*
X10331967Y-17678198D02*
X10331967Y-17754389D01*
X10331967Y-17754389D02*
X10341491Y-17773436D01*
X10341491Y-17773436D02*
X10351015Y-17782960D01*
X10351015Y-17782960D02*
X10370063Y-17792484D01*
X10370063Y-17792484D02*
X10408158Y-17792484D01*
X10408158Y-17792484D02*
X10427205Y-17782960D01*
X10427205Y-17782960D02*
X10436729Y-17773436D01*
X10436729Y-17773436D02*
X10446253Y-17754389D01*
X10446253Y-17754389D02*
X10446253Y-17706770D01*
X10446253Y-17706770D02*
X10436729Y-17687722D01*
X10436729Y-17687722D02*
X10427205Y-17678198D01*
X10427205Y-17678198D02*
X10408158Y-17668674D01*
X10408158Y-17668674D02*
X10370063Y-17668674D01*
X10370063Y-17668674D02*
X10351015Y-17678198D01*
X10351015Y-17678198D02*
X10341491Y-17687722D01*
X10341491Y-17687722D02*
X10331967Y-17706770D01*
X10627205Y-17592484D02*
X10531967Y-17592484D01*
X10531967Y-17592484D02*
X10522444Y-17687722D01*
X10522444Y-17687722D02*
X10531967Y-17678198D01*
X10531967Y-17678198D02*
X10551015Y-17668674D01*
X10551015Y-17668674D02*
X10598634Y-17668674D01*
X10598634Y-17668674D02*
X10617682Y-17678198D01*
X10617682Y-17678198D02*
X10627205Y-17687722D01*
X10627205Y-17687722D02*
X10636729Y-17706770D01*
X10636729Y-17706770D02*
X10636729Y-17754389D01*
X10636729Y-17754389D02*
X10627205Y-17773436D01*
X10627205Y-17773436D02*
X10617682Y-17782960D01*
X10617682Y-17782960D02*
X10598634Y-17792484D01*
X10598634Y-17792484D02*
X10551015Y-17792484D01*
X10551015Y-17792484D02*
X10531967Y-17782960D01*
X10531967Y-17782960D02*
X10522444Y-17773436D01*
X10760539Y-17592484D02*
X10779586Y-17592484D01*
X10779586Y-17592484D02*
X10798634Y-17602008D01*
X10798634Y-17602008D02*
X10808158Y-17611531D01*
X10808158Y-17611531D02*
X10817682Y-17630579D01*
X10817682Y-17630579D02*
X10827205Y-17668674D01*
X10827205Y-17668674D02*
X10827205Y-17716293D01*
X10827205Y-17716293D02*
X10817682Y-17754389D01*
X10817682Y-17754389D02*
X10808158Y-17773436D01*
X10808158Y-17773436D02*
X10798634Y-17782960D01*
X10798634Y-17782960D02*
X10779586Y-17792484D01*
X10779586Y-17792484D02*
X10760539Y-17792484D01*
X10760539Y-17792484D02*
X10741491Y-17782960D01*
X10741491Y-17782960D02*
X10731967Y-17773436D01*
X10731967Y-17773436D02*
X10722444Y-17754389D01*
X10722444Y-17754389D02*
X10712920Y-17716293D01*
X10712920Y-17716293D02*
X10712920Y-17668674D01*
X10712920Y-17668674D02*
X10722444Y-17630579D01*
X10722444Y-17630579D02*
X10731967Y-17611531D01*
X10731967Y-17611531D02*
X10741491Y-17602008D01*
X10741491Y-17602008D02*
X10760539Y-17592484D01*
X10912920Y-17792484D02*
X10912920Y-17659150D01*
X10912920Y-17678198D02*
X10922444Y-17668674D01*
X10922444Y-17668674D02*
X10941491Y-17659150D01*
X10941491Y-17659150D02*
X10970063Y-17659150D01*
X10970063Y-17659150D02*
X10989110Y-17668674D01*
X10989110Y-17668674D02*
X10998634Y-17687722D01*
X10998634Y-17687722D02*
X10998634Y-17792484D01*
X10998634Y-17687722D02*
X11008158Y-17668674D01*
X11008158Y-17668674D02*
X11027205Y-17659150D01*
X11027205Y-17659150D02*
X11055777Y-17659150D01*
X11055777Y-17659150D02*
X11074825Y-17668674D01*
X11074825Y-17668674D02*
X11084348Y-17687722D01*
X11084348Y-17687722D02*
X11084348Y-17792484D01*
X11179586Y-17792484D02*
X11179586Y-17659150D01*
X11179586Y-17678198D02*
X11189110Y-17668674D01*
X11189110Y-17668674D02*
X11208158Y-17659150D01*
X11208158Y-17659150D02*
X11236729Y-17659150D01*
X11236729Y-17659150D02*
X11255777Y-17668674D01*
X11255777Y-17668674D02*
X11265301Y-17687722D01*
X11265301Y-17687722D02*
X11265301Y-17792484D01*
X11265301Y-17687722D02*
X11274824Y-17668674D01*
X11274824Y-17668674D02*
X11293872Y-17659150D01*
X11293872Y-17659150D02*
X11322443Y-17659150D01*
X11322443Y-17659150D02*
X11341491Y-17668674D01*
X11341491Y-17668674D02*
X11351015Y-17687722D01*
X11351015Y-17687722D02*
X11351015Y-17792484D01*
X11741491Y-17582960D02*
X11570063Y-17840103D01*
X11998634Y-17592484D02*
X12017682Y-17592484D01*
X12017682Y-17592484D02*
X12036729Y-17602008D01*
X12036729Y-17602008D02*
X12046253Y-17611531D01*
X12046253Y-17611531D02*
X12055777Y-17630579D01*
X12055777Y-17630579D02*
X12065301Y-17668674D01*
X12065301Y-17668674D02*
X12065301Y-17716293D01*
X12065301Y-17716293D02*
X12055777Y-17754389D01*
X12055777Y-17754389D02*
X12046253Y-17773436D01*
X12046253Y-17773436D02*
X12036729Y-17782960D01*
X12036729Y-17782960D02*
X12017682Y-17792484D01*
X12017682Y-17792484D02*
X11998634Y-17792484D01*
X11998634Y-17792484D02*
X11979586Y-17782960D01*
X11979586Y-17782960D02*
X11970063Y-17773436D01*
X11970063Y-17773436D02*
X11960539Y-17754389D01*
X11960539Y-17754389D02*
X11951015Y-17716293D01*
X11951015Y-17716293D02*
X11951015Y-17668674D01*
X11951015Y-17668674D02*
X11960539Y-17630579D01*
X11960539Y-17630579D02*
X11970063Y-17611531D01*
X11970063Y-17611531D02*
X11979586Y-17602008D01*
X11979586Y-17602008D02*
X11998634Y-17592484D01*
X12151015Y-17773436D02*
X12160539Y-17782960D01*
X12160539Y-17782960D02*
X12151015Y-17792484D01*
X12151015Y-17792484D02*
X12141491Y-17782960D01*
X12141491Y-17782960D02*
X12151015Y-17773436D01*
X12151015Y-17773436D02*
X12151015Y-17792484D01*
X12284348Y-17592484D02*
X12303396Y-17592484D01*
X12303396Y-17592484D02*
X12322444Y-17602008D01*
X12322444Y-17602008D02*
X12331967Y-17611531D01*
X12331967Y-17611531D02*
X12341491Y-17630579D01*
X12341491Y-17630579D02*
X12351015Y-17668674D01*
X12351015Y-17668674D02*
X12351015Y-17716293D01*
X12351015Y-17716293D02*
X12341491Y-17754389D01*
X12341491Y-17754389D02*
X12331967Y-17773436D01*
X12331967Y-17773436D02*
X12322444Y-17782960D01*
X12322444Y-17782960D02*
X12303396Y-17792484D01*
X12303396Y-17792484D02*
X12284348Y-17792484D01*
X12284348Y-17792484D02*
X12265301Y-17782960D01*
X12265301Y-17782960D02*
X12255777Y-17773436D01*
X12255777Y-17773436D02*
X12246253Y-17754389D01*
X12246253Y-17754389D02*
X12236729Y-17716293D01*
X12236729Y-17716293D02*
X12236729Y-17668674D01*
X12236729Y-17668674D02*
X12246253Y-17630579D01*
X12246253Y-17630579D02*
X12255777Y-17611531D01*
X12255777Y-17611531D02*
X12265301Y-17602008D01*
X12265301Y-17602008D02*
X12284348Y-17592484D01*
X12427206Y-17611531D02*
X12436729Y-17602008D01*
X12436729Y-17602008D02*
X12455777Y-17592484D01*
X12455777Y-17592484D02*
X12503396Y-17592484D01*
X12503396Y-17592484D02*
X12522444Y-17602008D01*
X12522444Y-17602008D02*
X12531967Y-17611531D01*
X12531967Y-17611531D02*
X12541491Y-17630579D01*
X12541491Y-17630579D02*
X12541491Y-17649627D01*
X12541491Y-17649627D02*
X12531967Y-17678198D01*
X12531967Y-17678198D02*
X12417682Y-17792484D01*
X12417682Y-17792484D02*
X12541491Y-17792484D01*
X12722444Y-17592484D02*
X12627206Y-17592484D01*
X12627206Y-17592484D02*
X12617682Y-17687722D01*
X12617682Y-17687722D02*
X12627206Y-17678198D01*
X12627206Y-17678198D02*
X12646253Y-17668674D01*
X12646253Y-17668674D02*
X12693872Y-17668674D01*
X12693872Y-17668674D02*
X12712920Y-17678198D01*
X12712920Y-17678198D02*
X12722444Y-17687722D01*
X12722444Y-17687722D02*
X12731967Y-17706770D01*
X12731967Y-17706770D02*
X12731967Y-17754389D01*
X12731967Y-17754389D02*
X12722444Y-17773436D01*
X12722444Y-17773436D02*
X12712920Y-17782960D01*
X12712920Y-17782960D02*
X12693872Y-17792484D01*
X12693872Y-17792484D02*
X12646253Y-17792484D01*
X12646253Y-17792484D02*
X12627206Y-17782960D01*
X12627206Y-17782960D02*
X12617682Y-17773436D01*
X12903396Y-17592484D02*
X12865301Y-17592484D01*
X12865301Y-17592484D02*
X12846253Y-17602008D01*
X12846253Y-17602008D02*
X12836729Y-17611531D01*
X12836729Y-17611531D02*
X12817682Y-17640103D01*
X12817682Y-17640103D02*
X12808158Y-17678198D01*
X12808158Y-17678198D02*
X12808158Y-17754389D01*
X12808158Y-17754389D02*
X12817682Y-17773436D01*
X12817682Y-17773436D02*
X12827206Y-17782960D01*
X12827206Y-17782960D02*
X12846253Y-17792484D01*
X12846253Y-17792484D02*
X12884348Y-17792484D01*
X12884348Y-17792484D02*
X12903396Y-17782960D01*
X12903396Y-17782960D02*
X12912920Y-17773436D01*
X12912920Y-17773436D02*
X12922444Y-17754389D01*
X12922444Y-17754389D02*
X12922444Y-17706770D01*
X12922444Y-17706770D02*
X12912920Y-17687722D01*
X12912920Y-17687722D02*
X12903396Y-17678198D01*
X12903396Y-17678198D02*
X12884348Y-17668674D01*
X12884348Y-17668674D02*
X12846253Y-17668674D01*
X12846253Y-17668674D02*
X12827206Y-17678198D01*
X12827206Y-17678198D02*
X12817682Y-17687722D01*
X12817682Y-17687722D02*
X12808158Y-17706770D01*
X12998634Y-17592484D02*
X12998634Y-17630579D01*
X13074825Y-17592484D02*
X13074825Y-17630579D01*
X13370063Y-17868674D02*
X13360539Y-17859150D01*
X13360539Y-17859150D02*
X13341491Y-17830579D01*
X13341491Y-17830579D02*
X13331968Y-17811531D01*
X13331968Y-17811531D02*
X13322444Y-17782960D01*
X13322444Y-17782960D02*
X13312920Y-17735341D01*
X13312920Y-17735341D02*
X13312920Y-17697246D01*
X13312920Y-17697246D02*
X13322444Y-17649627D01*
X13322444Y-17649627D02*
X13331968Y-17621055D01*
X13331968Y-17621055D02*
X13341491Y-17602008D01*
X13341491Y-17602008D02*
X13360539Y-17573436D01*
X13360539Y-17573436D02*
X13370063Y-17563912D01*
X13436729Y-17611531D02*
X13446253Y-17602008D01*
X13446253Y-17602008D02*
X13465301Y-17592484D01*
X13465301Y-17592484D02*
X13512920Y-17592484D01*
X13512920Y-17592484D02*
X13531968Y-17602008D01*
X13531968Y-17602008D02*
X13541491Y-17611531D01*
X13541491Y-17611531D02*
X13551015Y-17630579D01*
X13551015Y-17630579D02*
X13551015Y-17649627D01*
X13551015Y-17649627D02*
X13541491Y-17678198D01*
X13541491Y-17678198D02*
X13427206Y-17792484D01*
X13427206Y-17792484D02*
X13551015Y-17792484D01*
X13789110Y-17792484D02*
X13789110Y-17592484D01*
X13874825Y-17792484D02*
X13874825Y-17687722D01*
X13874825Y-17687722D02*
X13865301Y-17668674D01*
X13865301Y-17668674D02*
X13846253Y-17659150D01*
X13846253Y-17659150D02*
X13817682Y-17659150D01*
X13817682Y-17659150D02*
X13798634Y-17668674D01*
X13798634Y-17668674D02*
X13789110Y-17678198D01*
X13998634Y-17792484D02*
X13979587Y-17782960D01*
X13979587Y-17782960D02*
X13970063Y-17773436D01*
X13970063Y-17773436D02*
X13960539Y-17754389D01*
X13960539Y-17754389D02*
X13960539Y-17697246D01*
X13960539Y-17697246D02*
X13970063Y-17678198D01*
X13970063Y-17678198D02*
X13979587Y-17668674D01*
X13979587Y-17668674D02*
X13998634Y-17659150D01*
X13998634Y-17659150D02*
X14027206Y-17659150D01*
X14027206Y-17659150D02*
X14046253Y-17668674D01*
X14046253Y-17668674D02*
X14055777Y-17678198D01*
X14055777Y-17678198D02*
X14065301Y-17697246D01*
X14065301Y-17697246D02*
X14065301Y-17754389D01*
X14065301Y-17754389D02*
X14055777Y-17773436D01*
X14055777Y-17773436D02*
X14046253Y-17782960D01*
X14046253Y-17782960D02*
X14027206Y-17792484D01*
X14027206Y-17792484D02*
X13998634Y-17792484D01*
X14179587Y-17792484D02*
X14160539Y-17782960D01*
X14160539Y-17782960D02*
X14151015Y-17763912D01*
X14151015Y-17763912D02*
X14151015Y-17592484D01*
X14331968Y-17782960D02*
X14312920Y-17792484D01*
X14312920Y-17792484D02*
X14274825Y-17792484D01*
X14274825Y-17792484D02*
X14255777Y-17782960D01*
X14255777Y-17782960D02*
X14246253Y-17763912D01*
X14246253Y-17763912D02*
X14246253Y-17687722D01*
X14246253Y-17687722D02*
X14255777Y-17668674D01*
X14255777Y-17668674D02*
X14274825Y-17659150D01*
X14274825Y-17659150D02*
X14312920Y-17659150D01*
X14312920Y-17659150D02*
X14331968Y-17668674D01*
X14331968Y-17668674D02*
X14341491Y-17687722D01*
X14341491Y-17687722D02*
X14341491Y-17706770D01*
X14341491Y-17706770D02*
X14246253Y-17725817D01*
X14417682Y-17782960D02*
X14436730Y-17792484D01*
X14436730Y-17792484D02*
X14474825Y-17792484D01*
X14474825Y-17792484D02*
X14493872Y-17782960D01*
X14493872Y-17782960D02*
X14503396Y-17763912D01*
X14503396Y-17763912D02*
X14503396Y-17754389D01*
X14503396Y-17754389D02*
X14493872Y-17735341D01*
X14493872Y-17735341D02*
X14474825Y-17725817D01*
X14474825Y-17725817D02*
X14446253Y-17725817D01*
X14446253Y-17725817D02*
X14427206Y-17716293D01*
X14427206Y-17716293D02*
X14417682Y-17697246D01*
X14417682Y-17697246D02*
X14417682Y-17687722D01*
X14417682Y-17687722D02*
X14427206Y-17668674D01*
X14427206Y-17668674D02*
X14446253Y-17659150D01*
X14446253Y-17659150D02*
X14474825Y-17659150D01*
X14474825Y-17659150D02*
X14493872Y-17668674D01*
X14570063Y-17868674D02*
X14579587Y-17859150D01*
X14579587Y-17859150D02*
X14598634Y-17830579D01*
X14598634Y-17830579D02*
X14608158Y-17811531D01*
X14608158Y-17811531D02*
X14617682Y-17782960D01*
X14617682Y-17782960D02*
X14627206Y-17735341D01*
X14627206Y-17735341D02*
X14627206Y-17697246D01*
X14627206Y-17697246D02*
X14617682Y-17649627D01*
X14617682Y-17649627D02*
X14608158Y-17621055D01*
X14608158Y-17621055D02*
X14598634Y-17602008D01*
X14598634Y-17602008D02*
X14579587Y-17573436D01*
X14579587Y-17573436D02*
X14570063Y-17563912D01*
X14931968Y-17868674D02*
X14922444Y-17859150D01*
X14922444Y-17859150D02*
X14903396Y-17830579D01*
X14903396Y-17830579D02*
X14893872Y-17811531D01*
X14893872Y-17811531D02*
X14884349Y-17782960D01*
X14884349Y-17782960D02*
X14874825Y-17735341D01*
X14874825Y-17735341D02*
X14874825Y-17697246D01*
X14874825Y-17697246D02*
X14884349Y-17649627D01*
X14884349Y-17649627D02*
X14893872Y-17621055D01*
X14893872Y-17621055D02*
X14903396Y-17602008D01*
X14903396Y-17602008D02*
X14922444Y-17573436D01*
X14922444Y-17573436D02*
X14931968Y-17563912D01*
X15008158Y-17659150D02*
X15008158Y-17792484D01*
X15008158Y-17678198D02*
X15017682Y-17668674D01*
X15017682Y-17668674D02*
X15036730Y-17659150D01*
X15036730Y-17659150D02*
X15065301Y-17659150D01*
X15065301Y-17659150D02*
X15084349Y-17668674D01*
X15084349Y-17668674D02*
X15093872Y-17687722D01*
X15093872Y-17687722D02*
X15093872Y-17792484D01*
X15217682Y-17792484D02*
X15198634Y-17782960D01*
X15198634Y-17782960D02*
X15189111Y-17773436D01*
X15189111Y-17773436D02*
X15179587Y-17754389D01*
X15179587Y-17754389D02*
X15179587Y-17697246D01*
X15179587Y-17697246D02*
X15189111Y-17678198D01*
X15189111Y-17678198D02*
X15198634Y-17668674D01*
X15198634Y-17668674D02*
X15217682Y-17659150D01*
X15217682Y-17659150D02*
X15246253Y-17659150D01*
X15246253Y-17659150D02*
X15265301Y-17668674D01*
X15265301Y-17668674D02*
X15274825Y-17678198D01*
X15274825Y-17678198D02*
X15284349Y-17697246D01*
X15284349Y-17697246D02*
X15284349Y-17754389D01*
X15284349Y-17754389D02*
X15274825Y-17773436D01*
X15274825Y-17773436D02*
X15265301Y-17782960D01*
X15265301Y-17782960D02*
X15246253Y-17792484D01*
X15246253Y-17792484D02*
X15217682Y-17792484D01*
X15341492Y-17659150D02*
X15417682Y-17659150D01*
X15370063Y-17592484D02*
X15370063Y-17763912D01*
X15370063Y-17763912D02*
X15379587Y-17782960D01*
X15379587Y-17782960D02*
X15398634Y-17792484D01*
X15398634Y-17792484D02*
X15417682Y-17792484D01*
X15636730Y-17659150D02*
X15636730Y-17859150D01*
X15636730Y-17668674D02*
X15655777Y-17659150D01*
X15655777Y-17659150D02*
X15693873Y-17659150D01*
X15693873Y-17659150D02*
X15712920Y-17668674D01*
X15712920Y-17668674D02*
X15722444Y-17678198D01*
X15722444Y-17678198D02*
X15731968Y-17697246D01*
X15731968Y-17697246D02*
X15731968Y-17754389D01*
X15731968Y-17754389D02*
X15722444Y-17773436D01*
X15722444Y-17773436D02*
X15712920Y-17782960D01*
X15712920Y-17782960D02*
X15693873Y-17792484D01*
X15693873Y-17792484D02*
X15655777Y-17792484D01*
X15655777Y-17792484D02*
X15636730Y-17782960D01*
X15846253Y-17792484D02*
X15827206Y-17782960D01*
X15827206Y-17782960D02*
X15817682Y-17763912D01*
X15817682Y-17763912D02*
X15817682Y-17592484D01*
X16008158Y-17792484D02*
X16008158Y-17687722D01*
X16008158Y-17687722D02*
X15998634Y-17668674D01*
X15998634Y-17668674D02*
X15979587Y-17659150D01*
X15979587Y-17659150D02*
X15941492Y-17659150D01*
X15941492Y-17659150D02*
X15922444Y-17668674D01*
X16008158Y-17782960D02*
X15989111Y-17792484D01*
X15989111Y-17792484D02*
X15941492Y-17792484D01*
X15941492Y-17792484D02*
X15922444Y-17782960D01*
X15922444Y-17782960D02*
X15912920Y-17763912D01*
X15912920Y-17763912D02*
X15912920Y-17744865D01*
X15912920Y-17744865D02*
X15922444Y-17725817D01*
X15922444Y-17725817D02*
X15941492Y-17716293D01*
X15941492Y-17716293D02*
X15989111Y-17716293D01*
X15989111Y-17716293D02*
X16008158Y-17706770D01*
X16074825Y-17659150D02*
X16151015Y-17659150D01*
X16103396Y-17592484D02*
X16103396Y-17763912D01*
X16103396Y-17763912D02*
X16112920Y-17782960D01*
X16112920Y-17782960D02*
X16131968Y-17792484D01*
X16131968Y-17792484D02*
X16151015Y-17792484D01*
X16293873Y-17782960D02*
X16274825Y-17792484D01*
X16274825Y-17792484D02*
X16236730Y-17792484D01*
X16236730Y-17792484D02*
X16217682Y-17782960D01*
X16217682Y-17782960D02*
X16208158Y-17763912D01*
X16208158Y-17763912D02*
X16208158Y-17687722D01*
X16208158Y-17687722D02*
X16217682Y-17668674D01*
X16217682Y-17668674D02*
X16236730Y-17659150D01*
X16236730Y-17659150D02*
X16274825Y-17659150D01*
X16274825Y-17659150D02*
X16293873Y-17668674D01*
X16293873Y-17668674D02*
X16303396Y-17687722D01*
X16303396Y-17687722D02*
X16303396Y-17706770D01*
X16303396Y-17706770D02*
X16208158Y-17725817D01*
X16474825Y-17792484D02*
X16474825Y-17592484D01*
X16474825Y-17782960D02*
X16455777Y-17792484D01*
X16455777Y-17792484D02*
X16417682Y-17792484D01*
X16417682Y-17792484D02*
X16398634Y-17782960D01*
X16398634Y-17782960D02*
X16389111Y-17773436D01*
X16389111Y-17773436D02*
X16379587Y-17754389D01*
X16379587Y-17754389D02*
X16379587Y-17697246D01*
X16379587Y-17697246D02*
X16389111Y-17678198D01*
X16389111Y-17678198D02*
X16398634Y-17668674D01*
X16398634Y-17668674D02*
X16417682Y-17659150D01*
X16417682Y-17659150D02*
X16455777Y-17659150D01*
X16455777Y-17659150D02*
X16474825Y-17668674D01*
X16551015Y-17868674D02*
X16560539Y-17859150D01*
X16560539Y-17859150D02*
X16579587Y-17830579D01*
X16579587Y-17830579D02*
X16589111Y-17811531D01*
X16589111Y-17811531D02*
X16598634Y-17782960D01*
X16598634Y-17782960D02*
X16608158Y-17735341D01*
X16608158Y-17735341D02*
X16608158Y-17697246D01*
X16608158Y-17697246D02*
X16598634Y-17649627D01*
X16598634Y-17649627D02*
X16589111Y-17621055D01*
X16589111Y-17621055D02*
X16579587Y-17602008D01*
X16579587Y-17602008D02*
X16560539Y-17573436D01*
X16560539Y-17573436D02*
X16551015Y-17563912D01*
X9595000Y-17865000D02*
X9795000Y-18065000D01*
X9795000Y-17865000D02*
X9595000Y-18065000D01*
X9795000Y-17965000D02*
G75*
G02*
X9595000Y-17965000I-100000J0D01*
G01*
X9595000Y-17965000D02*
G75*
G02*
X9795000Y-17965000I100000J0D01*
G01*
X10036729Y-17856484D02*
X10160539Y-17856484D01*
X10160539Y-17856484D02*
X10093872Y-17932674D01*
X10093872Y-17932674D02*
X10122444Y-17932674D01*
X10122444Y-17932674D02*
X10141491Y-17942198D01*
X10141491Y-17942198D02*
X10151015Y-17951722D01*
X10151015Y-17951722D02*
X10160539Y-17970770D01*
X10160539Y-17970770D02*
X10160539Y-18018389D01*
X10160539Y-18018389D02*
X10151015Y-18037436D01*
X10151015Y-18037436D02*
X10141491Y-18046960D01*
X10141491Y-18046960D02*
X10122444Y-18056484D01*
X10122444Y-18056484D02*
X10065301Y-18056484D01*
X10065301Y-18056484D02*
X10046253Y-18046960D01*
X10046253Y-18046960D02*
X10036729Y-18037436D01*
X10246253Y-18037436D02*
X10255777Y-18046960D01*
X10255777Y-18046960D02*
X10246253Y-18056484D01*
X10246253Y-18056484D02*
X10236729Y-18046960D01*
X10236729Y-18046960D02*
X10246253Y-18037436D01*
X10246253Y-18037436D02*
X10246253Y-18056484D01*
X10331967Y-17875531D02*
X10341491Y-17866008D01*
X10341491Y-17866008D02*
X10360539Y-17856484D01*
X10360539Y-17856484D02*
X10408158Y-17856484D01*
X10408158Y-17856484D02*
X10427205Y-17866008D01*
X10427205Y-17866008D02*
X10436729Y-17875531D01*
X10436729Y-17875531D02*
X10446253Y-17894579D01*
X10446253Y-17894579D02*
X10446253Y-17913627D01*
X10446253Y-17913627D02*
X10436729Y-17942198D01*
X10436729Y-17942198D02*
X10322444Y-18056484D01*
X10322444Y-18056484D02*
X10446253Y-18056484D01*
X10570063Y-17856484D02*
X10589110Y-17856484D01*
X10589110Y-17856484D02*
X10608158Y-17866008D01*
X10608158Y-17866008D02*
X10617682Y-17875531D01*
X10617682Y-17875531D02*
X10627205Y-17894579D01*
X10627205Y-17894579D02*
X10636729Y-17932674D01*
X10636729Y-17932674D02*
X10636729Y-17980293D01*
X10636729Y-17980293D02*
X10627205Y-18018389D01*
X10627205Y-18018389D02*
X10617682Y-18037436D01*
X10617682Y-18037436D02*
X10608158Y-18046960D01*
X10608158Y-18046960D02*
X10589110Y-18056484D01*
X10589110Y-18056484D02*
X10570063Y-18056484D01*
X10570063Y-18056484D02*
X10551015Y-18046960D01*
X10551015Y-18046960D02*
X10541491Y-18037436D01*
X10541491Y-18037436D02*
X10531967Y-18018389D01*
X10531967Y-18018389D02*
X10522444Y-17980293D01*
X10522444Y-17980293D02*
X10522444Y-17932674D01*
X10522444Y-17932674D02*
X10531967Y-17894579D01*
X10531967Y-17894579D02*
X10541491Y-17875531D01*
X10541491Y-17875531D02*
X10551015Y-17866008D01*
X10551015Y-17866008D02*
X10570063Y-17856484D01*
X10760539Y-17856484D02*
X10779586Y-17856484D01*
X10779586Y-17856484D02*
X10798634Y-17866008D01*
X10798634Y-17866008D02*
X10808158Y-17875531D01*
X10808158Y-17875531D02*
X10817682Y-17894579D01*
X10817682Y-17894579D02*
X10827205Y-17932674D01*
X10827205Y-17932674D02*
X10827205Y-17980293D01*
X10827205Y-17980293D02*
X10817682Y-18018389D01*
X10817682Y-18018389D02*
X10808158Y-18037436D01*
X10808158Y-18037436D02*
X10798634Y-18046960D01*
X10798634Y-18046960D02*
X10779586Y-18056484D01*
X10779586Y-18056484D02*
X10760539Y-18056484D01*
X10760539Y-18056484D02*
X10741491Y-18046960D01*
X10741491Y-18046960D02*
X10731967Y-18037436D01*
X10731967Y-18037436D02*
X10722444Y-18018389D01*
X10722444Y-18018389D02*
X10712920Y-17980293D01*
X10712920Y-17980293D02*
X10712920Y-17932674D01*
X10712920Y-17932674D02*
X10722444Y-17894579D01*
X10722444Y-17894579D02*
X10731967Y-17875531D01*
X10731967Y-17875531D02*
X10741491Y-17866008D01*
X10741491Y-17866008D02*
X10760539Y-17856484D01*
X10912920Y-18056484D02*
X10912920Y-17923150D01*
X10912920Y-17942198D02*
X10922444Y-17932674D01*
X10922444Y-17932674D02*
X10941491Y-17923150D01*
X10941491Y-17923150D02*
X10970063Y-17923150D01*
X10970063Y-17923150D02*
X10989110Y-17932674D01*
X10989110Y-17932674D02*
X10998634Y-17951722D01*
X10998634Y-17951722D02*
X10998634Y-18056484D01*
X10998634Y-17951722D02*
X11008158Y-17932674D01*
X11008158Y-17932674D02*
X11027205Y-17923150D01*
X11027205Y-17923150D02*
X11055777Y-17923150D01*
X11055777Y-17923150D02*
X11074825Y-17932674D01*
X11074825Y-17932674D02*
X11084348Y-17951722D01*
X11084348Y-17951722D02*
X11084348Y-18056484D01*
X11179586Y-18056484D02*
X11179586Y-17923150D01*
X11179586Y-17942198D02*
X11189110Y-17932674D01*
X11189110Y-17932674D02*
X11208158Y-17923150D01*
X11208158Y-17923150D02*
X11236729Y-17923150D01*
X11236729Y-17923150D02*
X11255777Y-17932674D01*
X11255777Y-17932674D02*
X11265301Y-17951722D01*
X11265301Y-17951722D02*
X11265301Y-18056484D01*
X11265301Y-17951722D02*
X11274824Y-17932674D01*
X11274824Y-17932674D02*
X11293872Y-17923150D01*
X11293872Y-17923150D02*
X11322443Y-17923150D01*
X11322443Y-17923150D02*
X11341491Y-17932674D01*
X11341491Y-17932674D02*
X11351015Y-17951722D01*
X11351015Y-17951722D02*
X11351015Y-18056484D01*
X11741491Y-17846960D02*
X11570063Y-18104103D01*
X11998634Y-17856484D02*
X12017682Y-17856484D01*
X12017682Y-17856484D02*
X12036729Y-17866008D01*
X12036729Y-17866008D02*
X12046253Y-17875531D01*
X12046253Y-17875531D02*
X12055777Y-17894579D01*
X12055777Y-17894579D02*
X12065301Y-17932674D01*
X12065301Y-17932674D02*
X12065301Y-17980293D01*
X12065301Y-17980293D02*
X12055777Y-18018389D01*
X12055777Y-18018389D02*
X12046253Y-18037436D01*
X12046253Y-18037436D02*
X12036729Y-18046960D01*
X12036729Y-18046960D02*
X12017682Y-18056484D01*
X12017682Y-18056484D02*
X11998634Y-18056484D01*
X11998634Y-18056484D02*
X11979586Y-18046960D01*
X11979586Y-18046960D02*
X11970063Y-18037436D01*
X11970063Y-18037436D02*
X11960539Y-18018389D01*
X11960539Y-18018389D02*
X11951015Y-17980293D01*
X11951015Y-17980293D02*
X11951015Y-17932674D01*
X11951015Y-17932674D02*
X11960539Y-17894579D01*
X11960539Y-17894579D02*
X11970063Y-17875531D01*
X11970063Y-17875531D02*
X11979586Y-17866008D01*
X11979586Y-17866008D02*
X11998634Y-17856484D01*
X12151015Y-18037436D02*
X12160539Y-18046960D01*
X12160539Y-18046960D02*
X12151015Y-18056484D01*
X12151015Y-18056484D02*
X12141491Y-18046960D01*
X12141491Y-18046960D02*
X12151015Y-18037436D01*
X12151015Y-18037436D02*
X12151015Y-18056484D01*
X12351015Y-18056484D02*
X12236729Y-18056484D01*
X12293872Y-18056484D02*
X12293872Y-17856484D01*
X12293872Y-17856484D02*
X12274825Y-17885055D01*
X12274825Y-17885055D02*
X12255777Y-17904103D01*
X12255777Y-17904103D02*
X12236729Y-17913627D01*
X12427206Y-17875531D02*
X12436729Y-17866008D01*
X12436729Y-17866008D02*
X12455777Y-17856484D01*
X12455777Y-17856484D02*
X12503396Y-17856484D01*
X12503396Y-17856484D02*
X12522444Y-17866008D01*
X12522444Y-17866008D02*
X12531967Y-17875531D01*
X12531967Y-17875531D02*
X12541491Y-17894579D01*
X12541491Y-17894579D02*
X12541491Y-17913627D01*
X12541491Y-17913627D02*
X12531967Y-17942198D01*
X12531967Y-17942198D02*
X12417682Y-18056484D01*
X12417682Y-18056484D02*
X12541491Y-18056484D01*
X12712920Y-17856484D02*
X12674825Y-17856484D01*
X12674825Y-17856484D02*
X12655777Y-17866008D01*
X12655777Y-17866008D02*
X12646253Y-17875531D01*
X12646253Y-17875531D02*
X12627206Y-17904103D01*
X12627206Y-17904103D02*
X12617682Y-17942198D01*
X12617682Y-17942198D02*
X12617682Y-18018389D01*
X12617682Y-18018389D02*
X12627206Y-18037436D01*
X12627206Y-18037436D02*
X12636729Y-18046960D01*
X12636729Y-18046960D02*
X12655777Y-18056484D01*
X12655777Y-18056484D02*
X12693872Y-18056484D01*
X12693872Y-18056484D02*
X12712920Y-18046960D01*
X12712920Y-18046960D02*
X12722444Y-18037436D01*
X12722444Y-18037436D02*
X12731967Y-18018389D01*
X12731967Y-18018389D02*
X12731967Y-17970770D01*
X12731967Y-17970770D02*
X12722444Y-17951722D01*
X12722444Y-17951722D02*
X12712920Y-17942198D01*
X12712920Y-17942198D02*
X12693872Y-17932674D01*
X12693872Y-17932674D02*
X12655777Y-17932674D01*
X12655777Y-17932674D02*
X12636729Y-17942198D01*
X12636729Y-17942198D02*
X12627206Y-17951722D01*
X12627206Y-17951722D02*
X12617682Y-17970770D01*
X12855777Y-17856484D02*
X12874825Y-17856484D01*
X12874825Y-17856484D02*
X12893872Y-17866008D01*
X12893872Y-17866008D02*
X12903396Y-17875531D01*
X12903396Y-17875531D02*
X12912920Y-17894579D01*
X12912920Y-17894579D02*
X12922444Y-17932674D01*
X12922444Y-17932674D02*
X12922444Y-17980293D01*
X12922444Y-17980293D02*
X12912920Y-18018389D01*
X12912920Y-18018389D02*
X12903396Y-18037436D01*
X12903396Y-18037436D02*
X12893872Y-18046960D01*
X12893872Y-18046960D02*
X12874825Y-18056484D01*
X12874825Y-18056484D02*
X12855777Y-18056484D01*
X12855777Y-18056484D02*
X12836729Y-18046960D01*
X12836729Y-18046960D02*
X12827206Y-18037436D01*
X12827206Y-18037436D02*
X12817682Y-18018389D01*
X12817682Y-18018389D02*
X12808158Y-17980293D01*
X12808158Y-17980293D02*
X12808158Y-17932674D01*
X12808158Y-17932674D02*
X12817682Y-17894579D01*
X12817682Y-17894579D02*
X12827206Y-17875531D01*
X12827206Y-17875531D02*
X12836729Y-17866008D01*
X12836729Y-17866008D02*
X12855777Y-17856484D01*
X12998634Y-17856484D02*
X12998634Y-17894579D01*
X13074825Y-17856484D02*
X13074825Y-17894579D01*
X13370063Y-18132674D02*
X13360539Y-18123150D01*
X13360539Y-18123150D02*
X13341491Y-18094579D01*
X13341491Y-18094579D02*
X13331968Y-18075531D01*
X13331968Y-18075531D02*
X13322444Y-18046960D01*
X13322444Y-18046960D02*
X13312920Y-17999341D01*
X13312920Y-17999341D02*
X13312920Y-17961246D01*
X13312920Y-17961246D02*
X13322444Y-17913627D01*
X13322444Y-17913627D02*
X13331968Y-17885055D01*
X13331968Y-17885055D02*
X13341491Y-17866008D01*
X13341491Y-17866008D02*
X13360539Y-17837436D01*
X13360539Y-17837436D02*
X13370063Y-17827912D01*
X13531968Y-17923150D02*
X13531968Y-18056484D01*
X13484348Y-17846960D02*
X13436729Y-17989817D01*
X13436729Y-17989817D02*
X13560539Y-17989817D01*
X13789110Y-18056484D02*
X13789110Y-17856484D01*
X13874825Y-18056484D02*
X13874825Y-17951722D01*
X13874825Y-17951722D02*
X13865301Y-17932674D01*
X13865301Y-17932674D02*
X13846253Y-17923150D01*
X13846253Y-17923150D02*
X13817682Y-17923150D01*
X13817682Y-17923150D02*
X13798634Y-17932674D01*
X13798634Y-17932674D02*
X13789110Y-17942198D01*
X13998634Y-18056484D02*
X13979587Y-18046960D01*
X13979587Y-18046960D02*
X13970063Y-18037436D01*
X13970063Y-18037436D02*
X13960539Y-18018389D01*
X13960539Y-18018389D02*
X13960539Y-17961246D01*
X13960539Y-17961246D02*
X13970063Y-17942198D01*
X13970063Y-17942198D02*
X13979587Y-17932674D01*
X13979587Y-17932674D02*
X13998634Y-17923150D01*
X13998634Y-17923150D02*
X14027206Y-17923150D01*
X14027206Y-17923150D02*
X14046253Y-17932674D01*
X14046253Y-17932674D02*
X14055777Y-17942198D01*
X14055777Y-17942198D02*
X14065301Y-17961246D01*
X14065301Y-17961246D02*
X14065301Y-18018389D01*
X14065301Y-18018389D02*
X14055777Y-18037436D01*
X14055777Y-18037436D02*
X14046253Y-18046960D01*
X14046253Y-18046960D02*
X14027206Y-18056484D01*
X14027206Y-18056484D02*
X13998634Y-18056484D01*
X14179587Y-18056484D02*
X14160539Y-18046960D01*
X14160539Y-18046960D02*
X14151015Y-18027912D01*
X14151015Y-18027912D02*
X14151015Y-17856484D01*
X14331968Y-18046960D02*
X14312920Y-18056484D01*
X14312920Y-18056484D02*
X14274825Y-18056484D01*
X14274825Y-18056484D02*
X14255777Y-18046960D01*
X14255777Y-18046960D02*
X14246253Y-18027912D01*
X14246253Y-18027912D02*
X14246253Y-17951722D01*
X14246253Y-17951722D02*
X14255777Y-17932674D01*
X14255777Y-17932674D02*
X14274825Y-17923150D01*
X14274825Y-17923150D02*
X14312920Y-17923150D01*
X14312920Y-17923150D02*
X14331968Y-17932674D01*
X14331968Y-17932674D02*
X14341491Y-17951722D01*
X14341491Y-17951722D02*
X14341491Y-17970770D01*
X14341491Y-17970770D02*
X14246253Y-17989817D01*
X14417682Y-18046960D02*
X14436730Y-18056484D01*
X14436730Y-18056484D02*
X14474825Y-18056484D01*
X14474825Y-18056484D02*
X14493872Y-18046960D01*
X14493872Y-18046960D02*
X14503396Y-18027912D01*
X14503396Y-18027912D02*
X14503396Y-18018389D01*
X14503396Y-18018389D02*
X14493872Y-17999341D01*
X14493872Y-17999341D02*
X14474825Y-17989817D01*
X14474825Y-17989817D02*
X14446253Y-17989817D01*
X14446253Y-17989817D02*
X14427206Y-17980293D01*
X14427206Y-17980293D02*
X14417682Y-17961246D01*
X14417682Y-17961246D02*
X14417682Y-17951722D01*
X14417682Y-17951722D02*
X14427206Y-17932674D01*
X14427206Y-17932674D02*
X14446253Y-17923150D01*
X14446253Y-17923150D02*
X14474825Y-17923150D01*
X14474825Y-17923150D02*
X14493872Y-17932674D01*
X14570063Y-18132674D02*
X14579587Y-18123150D01*
X14579587Y-18123150D02*
X14598634Y-18094579D01*
X14598634Y-18094579D02*
X14608158Y-18075531D01*
X14608158Y-18075531D02*
X14617682Y-18046960D01*
X14617682Y-18046960D02*
X14627206Y-17999341D01*
X14627206Y-17999341D02*
X14627206Y-17961246D01*
X14627206Y-17961246D02*
X14617682Y-17913627D01*
X14617682Y-17913627D02*
X14608158Y-17885055D01*
X14608158Y-17885055D02*
X14598634Y-17866008D01*
X14598634Y-17866008D02*
X14579587Y-17837436D01*
X14579587Y-17837436D02*
X14570063Y-17827912D01*
X14931968Y-18132674D02*
X14922444Y-18123150D01*
X14922444Y-18123150D02*
X14903396Y-18094579D01*
X14903396Y-18094579D02*
X14893872Y-18075531D01*
X14893872Y-18075531D02*
X14884349Y-18046960D01*
X14884349Y-18046960D02*
X14874825Y-17999341D01*
X14874825Y-17999341D02*
X14874825Y-17961246D01*
X14874825Y-17961246D02*
X14884349Y-17913627D01*
X14884349Y-17913627D02*
X14893872Y-17885055D01*
X14893872Y-17885055D02*
X14903396Y-17866008D01*
X14903396Y-17866008D02*
X14922444Y-17837436D01*
X14922444Y-17837436D02*
X14931968Y-17827912D01*
X15008158Y-17923150D02*
X15008158Y-18056484D01*
X15008158Y-17942198D02*
X15017682Y-17932674D01*
X15017682Y-17932674D02*
X15036730Y-17923150D01*
X15036730Y-17923150D02*
X15065301Y-17923150D01*
X15065301Y-17923150D02*
X15084349Y-17932674D01*
X15084349Y-17932674D02*
X15093872Y-17951722D01*
X15093872Y-17951722D02*
X15093872Y-18056484D01*
X15217682Y-18056484D02*
X15198634Y-18046960D01*
X15198634Y-18046960D02*
X15189111Y-18037436D01*
X15189111Y-18037436D02*
X15179587Y-18018389D01*
X15179587Y-18018389D02*
X15179587Y-17961246D01*
X15179587Y-17961246D02*
X15189111Y-17942198D01*
X15189111Y-17942198D02*
X15198634Y-17932674D01*
X15198634Y-17932674D02*
X15217682Y-17923150D01*
X15217682Y-17923150D02*
X15246253Y-17923150D01*
X15246253Y-17923150D02*
X15265301Y-17932674D01*
X15265301Y-17932674D02*
X15274825Y-17942198D01*
X15274825Y-17942198D02*
X15284349Y-17961246D01*
X15284349Y-17961246D02*
X15284349Y-18018389D01*
X15284349Y-18018389D02*
X15274825Y-18037436D01*
X15274825Y-18037436D02*
X15265301Y-18046960D01*
X15265301Y-18046960D02*
X15246253Y-18056484D01*
X15246253Y-18056484D02*
X15217682Y-18056484D01*
X15341492Y-17923150D02*
X15417682Y-17923150D01*
X15370063Y-17856484D02*
X15370063Y-18027912D01*
X15370063Y-18027912D02*
X15379587Y-18046960D01*
X15379587Y-18046960D02*
X15398634Y-18056484D01*
X15398634Y-18056484D02*
X15417682Y-18056484D01*
X15636730Y-17923150D02*
X15636730Y-18123150D01*
X15636730Y-17932674D02*
X15655777Y-17923150D01*
X15655777Y-17923150D02*
X15693873Y-17923150D01*
X15693873Y-17923150D02*
X15712920Y-17932674D01*
X15712920Y-17932674D02*
X15722444Y-17942198D01*
X15722444Y-17942198D02*
X15731968Y-17961246D01*
X15731968Y-17961246D02*
X15731968Y-18018389D01*
X15731968Y-18018389D02*
X15722444Y-18037436D01*
X15722444Y-18037436D02*
X15712920Y-18046960D01*
X15712920Y-18046960D02*
X15693873Y-18056484D01*
X15693873Y-18056484D02*
X15655777Y-18056484D01*
X15655777Y-18056484D02*
X15636730Y-18046960D01*
X15846253Y-18056484D02*
X15827206Y-18046960D01*
X15827206Y-18046960D02*
X15817682Y-18027912D01*
X15817682Y-18027912D02*
X15817682Y-17856484D01*
X16008158Y-18056484D02*
X16008158Y-17951722D01*
X16008158Y-17951722D02*
X15998634Y-17932674D01*
X15998634Y-17932674D02*
X15979587Y-17923150D01*
X15979587Y-17923150D02*
X15941492Y-17923150D01*
X15941492Y-17923150D02*
X15922444Y-17932674D01*
X16008158Y-18046960D02*
X15989111Y-18056484D01*
X15989111Y-18056484D02*
X15941492Y-18056484D01*
X15941492Y-18056484D02*
X15922444Y-18046960D01*
X15922444Y-18046960D02*
X15912920Y-18027912D01*
X15912920Y-18027912D02*
X15912920Y-18008865D01*
X15912920Y-18008865D02*
X15922444Y-17989817D01*
X15922444Y-17989817D02*
X15941492Y-17980293D01*
X15941492Y-17980293D02*
X15989111Y-17980293D01*
X15989111Y-17980293D02*
X16008158Y-17970770D01*
X16074825Y-17923150D02*
X16151015Y-17923150D01*
X16103396Y-17856484D02*
X16103396Y-18027912D01*
X16103396Y-18027912D02*
X16112920Y-18046960D01*
X16112920Y-18046960D02*
X16131968Y-18056484D01*
X16131968Y-18056484D02*
X16151015Y-18056484D01*
X16293873Y-18046960D02*
X16274825Y-18056484D01*
X16274825Y-18056484D02*
X16236730Y-18056484D01*
X16236730Y-18056484D02*
X16217682Y-18046960D01*
X16217682Y-18046960D02*
X16208158Y-18027912D01*
X16208158Y-18027912D02*
X16208158Y-17951722D01*
X16208158Y-17951722D02*
X16217682Y-17932674D01*
X16217682Y-17932674D02*
X16236730Y-17923150D01*
X16236730Y-17923150D02*
X16274825Y-17923150D01*
X16274825Y-17923150D02*
X16293873Y-17932674D01*
X16293873Y-17932674D02*
X16303396Y-17951722D01*
X16303396Y-17951722D02*
X16303396Y-17970770D01*
X16303396Y-17970770D02*
X16208158Y-17989817D01*
X16474825Y-18056484D02*
X16474825Y-17856484D01*
X16474825Y-18046960D02*
X16455777Y-18056484D01*
X16455777Y-18056484D02*
X16417682Y-18056484D01*
X16417682Y-18056484D02*
X16398634Y-18046960D01*
X16398634Y-18046960D02*
X16389111Y-18037436D01*
X16389111Y-18037436D02*
X16379587Y-18018389D01*
X16379587Y-18018389D02*
X16379587Y-17961246D01*
X16379587Y-17961246D02*
X16389111Y-17942198D01*
X16389111Y-17942198D02*
X16398634Y-17932674D01*
X16398634Y-17932674D02*
X16417682Y-17923150D01*
X16417682Y-17923150D02*
X16455777Y-17923150D01*
X16455777Y-17923150D02*
X16474825Y-17932674D01*
X16551015Y-18132674D02*
X16560539Y-18123150D01*
X16560539Y-18123150D02*
X16579587Y-18094579D01*
X16579587Y-18094579D02*
X16589111Y-18075531D01*
X16589111Y-18075531D02*
X16598634Y-18046960D01*
X16598634Y-18046960D02*
X16608158Y-17999341D01*
X16608158Y-17999341D02*
X16608158Y-17961246D01*
X16608158Y-17961246D02*
X16598634Y-17913627D01*
X16598634Y-17913627D02*
X16589111Y-17885055D01*
X16589111Y-17885055D02*
X16579587Y-17866008D01*
X16579587Y-17866008D02*
X16560539Y-17837436D01*
X16560539Y-17837436D02*
X16551015Y-17827912D01*
M02*
