%TF.GenerationSoftware,KiCad,Pcbnew,10.0.3*%
%TF.CreationDate,2026-09-12T15:16:46+03:00*%
%TF.ProjectId,dronemagnav,64726f6e-656d-4616-976e-61762e6b6963,rev?*%
%TF.SameCoordinates,Original*%
%TF.FileFunction,Copper,L4,Bot*%
%TF.FilePolarity,Positive*%
%FSLAX46Y46*%
G04 Gerber Fmt 4.6, Leading zero omitted, Abs format (unit mm)*
G04 Created by KiCad (PCBNEW 10.0.3) date 2026-09-12 15:16:46*
%MOMM*%
%LPD*%
G01*
G04 APERTURE LIST*
%TA.AperFunction,ComponentPad*%
%ADD10O,2.100000X1.000000*%
%TD*%
%TA.AperFunction,ComponentPad*%
%ADD11O,1.600000X1.000000*%
%TD*%
%TA.AperFunction,HeatsinkPad*%
%ADD12C,0.600000*%
%TD*%
%TA.AperFunction,ViaPad*%
%ADD13C,0.450000*%
%TD*%
%TA.AperFunction,ViaPad*%
%ADD14C,0.400000*%
%TD*%
%TA.AperFunction,ViaPad*%
%ADD15C,0.600000*%
%TD*%
%TA.AperFunction,Conductor*%
%ADD16C,0.200000*%
%TD*%
G04 APERTURE END LIST*
D10*
%TO.P,J1,SH*%
%TO.N,GND*%
X105730000Y-125680000D03*
D11*
X101550000Y-125680000D03*
D10*
X105730000Y-134320000D03*
D11*
X101550000Y-134320000D03*
%TD*%
D12*
%TO.P,U1,41*%
%TO.N,GND*%
X127100000Y-114760000D03*
X127100000Y-116160000D03*
X127800000Y-114060000D03*
X127800000Y-115460000D03*
X127800000Y-116860000D03*
X128500000Y-114760000D03*
X128500000Y-116160000D03*
X129200000Y-114060000D03*
X129200000Y-115460000D03*
X129200000Y-116860000D03*
X129900000Y-114760000D03*
X129900000Y-116160000D03*
%TD*%
D13*
%TO.N,GND*%
X124200000Y-140425000D03*
X130150000Y-146437500D03*
X153575000Y-139625000D03*
D14*
X130000000Y-136740000D03*
D13*
X106445000Y-133450000D03*
X147375000Y-139625000D03*
X134012500Y-131800000D03*
X126012500Y-131800000D03*
X160050000Y-116200000D03*
X154950000Y-148675000D03*
X106445000Y-126550000D03*
X110662500Y-132800000D03*
X121050000Y-107540000D03*
X101650000Y-151500000D03*
X138550000Y-107540000D03*
X110625000Y-136800000D03*
X104250000Y-102320000D03*
X143075000Y-128475000D03*
X160050000Y-114000000D03*
X139800000Y-139850000D03*
X128500000Y-115460000D03*
X104250000Y-110280000D03*
D14*
X139680000Y-138350000D03*
D13*
X111800000Y-127395000D03*
X130412500Y-131800000D03*
X121800000Y-154025000D03*
X155800000Y-122275000D03*
X104250000Y-113320000D03*
X149920000Y-148910000D03*
X110620000Y-149692500D03*
X125800000Y-150405000D03*
X158175000Y-126125000D03*
X138325000Y-136200000D03*
X130600000Y-135737500D03*
X143075000Y-135525000D03*
X104250000Y-121280000D03*
X157925000Y-139825000D03*
X116662500Y-154800000D03*
X107145000Y-133250000D03*
X107145000Y-126750000D03*
D14*
X129000000Y-136740000D03*
D13*
X135350000Y-140025000D03*
X138612500Y-129000000D03*
X155800000Y-119325000D03*
X114625000Y-136800000D03*
X119800000Y-127440000D03*
X129737500Y-147650000D03*
X127925000Y-154450000D03*
X137250000Y-140025000D03*
X150550000Y-107400000D03*
X113800000Y-150025000D03*
X159800000Y-122085000D03*
X123400000Y-149850000D03*
X123200000Y-127395000D03*
X130100000Y-135237500D03*
X133800000Y-150405000D03*
X110370000Y-153487500D03*
X129637500Y-146950000D03*
X159775000Y-118290000D03*
X100800000Y-146850000D03*
%TO.N,+3V3*%
X157300000Y-143625000D03*
X110620000Y-151592500D03*
X121050000Y-108810000D03*
X123200000Y-128945000D03*
X110370000Y-155037500D03*
X137975000Y-131800000D03*
X108840000Y-128995000D03*
X116800000Y-140502500D03*
X101650000Y-153800000D03*
X154800000Y-143625000D03*
X152700000Y-147125000D03*
X114800000Y-128995000D03*
X150550000Y-112900000D03*
X150550000Y-114000000D03*
X149920000Y-150810000D03*
X159775000Y-120190000D03*
X156800000Y-104125000D03*
X149800000Y-143625000D03*
X149800000Y-147065000D03*
X150550000Y-115100000D03*
X159800000Y-123635000D03*
X143075000Y-133725000D03*
X108150000Y-154000000D03*
X119800000Y-129340000D03*
X152700000Y-143625000D03*
X119800000Y-140625000D03*
D15*
%TO.N,BOOT*%
X115000000Y-126660000D03*
X126190000Y-123790000D03*
%TO.N,USB_DN_RAW*%
X108906000Y-132075000D03*
X109028000Y-130117000D03*
%TO.N,I2C_SCL*%
X136918000Y-109933000D03*
X123113000Y-143907000D03*
D13*
%TO.N,GNSS_TXD*%
X148300000Y-112400000D03*
X148300000Y-108700000D03*
%TO.N,GNSS_RXD*%
X149000000Y-109800000D03*
X149000000Y-111550000D03*
D15*
%TO.N,SD_CMD*%
X146050000Y-132865000D03*
X140231000Y-118444000D03*
X148517000Y-142254000D03*
%TO.N,LED_NAV*%
X127786000Y-122980000D03*
X126129000Y-128072000D03*
%TO.N,LED_LINK*%
X133489000Y-120440000D03*
X133489000Y-129716000D03*
%TO.N,SPI_SCK*%
X137752000Y-134678000D03*
X132130000Y-137401000D03*
X129296000Y-133805000D03*
X129846000Y-126704000D03*
X128923000Y-147610000D03*
%TO.N,MAG_C1*%
X129150000Y-152908000D03*
X129150000Y-150391000D03*
%TO.N,MAG_DRDY*%
X131410000Y-149250000D03*
X119305000Y-121710000D03*
%TO.N,SPI_MISO*%
X132660000Y-140261000D03*
X131888000Y-147551000D03*
X135252000Y-136364000D03*
%TO.N,CS_MAG*%
X130811000Y-147622000D03*
X134293000Y-135596000D03*
%TO.N,SPI_MOSI*%
X131376000Y-146977000D03*
X132591000Y-139509000D03*
%TO.N,LED_FIX*%
X132907000Y-131243000D03*
X136328000Y-121400000D03*
%TO.N,SD_CLK*%
X144345000Y-133518000D03*
X141323000Y-119267000D03*
%TO.N,SD_D0*%
X140638000Y-116630000D03*
X146855000Y-136825000D03*
X146855000Y-141583000D03*
%TO.N,SD_D1*%
X146280000Y-141012000D03*
X144337000Y-137925000D03*
X139958000Y-115360000D03*
%TO.N,FC_RXD*%
X152200000Y-152625000D03*
X127266000Y-111550000D03*
%TO.N,FC_TXD*%
X126115000Y-156988000D03*
X118734000Y-112503000D03*
%TO.N,INT_ACC*%
X122455000Y-135200000D03*
X122455000Y-114090000D03*
%TO.N,INT_GYR*%
X129294000Y-132351000D03*
X123011000Y-115360000D03*
X133492000Y-136372000D03*
X130151000Y-140054000D03*
%TO.N,MAST_INT*%
X133060000Y-151380000D03*
X128154000Y-141224000D03*
%TO.N,CS_ACC*%
X129895000Y-140926000D03*
X134747000Y-121721000D03*
%TO.N,I2C_SDA*%
X139963000Y-109010000D03*
X127402000Y-141078000D03*
%TD*%
%TO.N,BOOT*%
D16*
X126190000Y-123790000D02*
X126190000Y-116989000D01*
X118511000Y-111929000D02*
X117053000Y-113386000D01*
X117053000Y-124606000D02*
X115000000Y-126660000D01*
X126190000Y-116989000D02*
X121130000Y-111929000D01*
X121130000Y-111929000D02*
X118511000Y-111929000D01*
X117053000Y-113386000D02*
X117053000Y-124606000D01*
%TO.N,USB_DN_RAW*%
X109028000Y-130117000D02*
X109028000Y-131954000D01*
X109028000Y-131954000D02*
X108906000Y-132075000D01*
%TO.N,I2C_SCL*%
X136920000Y-109930000D02*
X136920000Y-130580000D01*
X123590000Y-143910000D02*
X123110000Y-143910000D01*
X136920000Y-130580000D02*
X123590000Y-143910000D01*
%TO.N,GNSS_TXD*%
X148300000Y-112400000D02*
X148300000Y-108700000D01*
%TO.N,GNSS_RXD*%
X149000000Y-111550000D02*
X149000000Y-109800000D01*
%TO.N,SD_CMD*%
X140899000Y-116020000D02*
X146050000Y-121172000D01*
X140231000Y-118444000D02*
X140083000Y-118295000D01*
X146050000Y-121172000D02*
X146050000Y-132865000D01*
X148517000Y-135331000D02*
X148517000Y-142254000D01*
X140083000Y-118295000D02*
X140083000Y-116351000D01*
X140413000Y-116020000D02*
X140899000Y-116020000D01*
X140083000Y-116351000D02*
X140413000Y-116020000D01*
X146050000Y-132865000D02*
X148517000Y-135331000D01*
%TO.N,LED_NAV*%
X127786000Y-126416000D02*
X127786000Y-122980000D01*
X126129000Y-128072000D02*
X127786000Y-126416000D01*
%TO.N,LED_LINK*%
X133489000Y-120440000D02*
X133489000Y-129716000D01*
%TO.N,SPI_SCK*%
X128923000Y-139985000D02*
X128923000Y-147610000D01*
X129846000Y-132640000D02*
X129846000Y-126704000D01*
X137752000Y-134678000D02*
X133883000Y-134678000D01*
X132130000Y-137401000D02*
X131506000Y-137401000D01*
X131506000Y-137401000D02*
X128923000Y-139985000D01*
X133883000Y-134678000D02*
X132130000Y-136431000D01*
X129296000Y-133805000D02*
X129296000Y-133190000D01*
X129296000Y-133190000D02*
X129846000Y-132640000D01*
X132130000Y-136431000D02*
X132130000Y-137401000D01*
%TO.N,MAG_C1*%
X129150000Y-152908000D02*
X129150000Y-150391000D01*
%TO.N,MAG_DRDY*%
X119305000Y-121710000D02*
X119305000Y-147551000D01*
X129010000Y-149250000D02*
X131410000Y-149250000D01*
X128070000Y-148310000D02*
X129010000Y-149250000D01*
X119305000Y-147551000D02*
X120064000Y-148310000D01*
X120064000Y-148310000D02*
X128070000Y-148310000D01*
%TO.N,SPI_MISO*%
X135252000Y-137669000D02*
X135252000Y-136364000D01*
X132660000Y-146780000D02*
X132660000Y-140261000D01*
X131888000Y-147551000D02*
X132660000Y-146780000D01*
X132660000Y-140261000D02*
X135252000Y-137669000D01*
%TO.N,CS_MAG*%
X134293000Y-137026000D02*
X134293000Y-135596000D01*
X130811000Y-140509000D02*
X134293000Y-137026000D01*
X130811000Y-147622000D02*
X130811000Y-140509000D01*
%TO.N,SPI_MOSI*%
X131376000Y-140724000D02*
X132591000Y-139509000D01*
X131376000Y-146977000D02*
X131376000Y-140724000D01*
%TO.N,LED_FIX*%
X136328000Y-127822000D02*
X132907000Y-131243000D01*
X136328000Y-121400000D02*
X136328000Y-127822000D01*
%TO.N,SD_CLK*%
X141323000Y-130495000D02*
X144345000Y-133518000D01*
X141323000Y-119267000D02*
X141323000Y-130495000D01*
%TO.N,SD_D0*%
X140822000Y-116814000D02*
X140822000Y-118988000D01*
X140638000Y-116630000D02*
X140822000Y-116814000D01*
X140822000Y-118988000D02*
X140771000Y-119039000D01*
X146855000Y-136825000D02*
X146855000Y-141583000D01*
X140771000Y-119039000D02*
X140771000Y-130741000D01*
X140771000Y-130741000D02*
X146855000Y-136825000D01*
%TO.N,SD_D1*%
X144337000Y-137925000D02*
X146280000Y-139868000D01*
X144337000Y-137925000D02*
X139652000Y-133240000D01*
X146280000Y-139868000D02*
X146280000Y-141012000D01*
X139652000Y-133240000D02*
X139652000Y-115666000D01*
X139652000Y-115666000D02*
X139958000Y-115360000D01*
%TO.N,FC_RXD*%
X152200000Y-152625000D02*
X152200000Y-124673000D01*
X140303000Y-108070000D02*
X130746000Y-108070000D01*
X130746000Y-108070000D02*
X127266000Y-111550000D01*
X141030000Y-113502000D02*
X141030000Y-108797000D01*
X152200000Y-124673000D02*
X141030000Y-113502000D01*
X141030000Y-108797000D02*
X140303000Y-108070000D01*
%TO.N,FC_TXD*%
X118734000Y-112503000D02*
X118734000Y-149607000D01*
X118734000Y-149607000D02*
X126115000Y-156988000D01*
%TO.N,INT_ACC*%
X122455000Y-135200000D02*
X122455000Y-114090000D01*
%TO.N,INT_GYR*%
X133492000Y-137325000D02*
X133492000Y-136372000D01*
X130151000Y-140054000D02*
X130763000Y-140054000D01*
X130763000Y-140054000D02*
X133492000Y-137325000D01*
X123011000Y-126068000D02*
X129294000Y-132351000D01*
X123011000Y-115360000D02*
X123011000Y-126068000D01*
%TO.N,MAST_INT*%
X133060000Y-150060000D02*
X131310000Y-148310000D01*
X128154000Y-147621000D02*
X128154000Y-141224000D01*
X128842000Y-148310000D02*
X128154000Y-147621000D01*
X133060000Y-151380000D02*
X133060000Y-150060000D01*
X131310000Y-148310000D02*
X128842000Y-148310000D01*
%TO.N,CS_ACC*%
X134747000Y-111301000D02*
X134747000Y-121721000D01*
X135627000Y-135044000D02*
X135847000Y-135264000D01*
X137626000Y-108422000D02*
X134747000Y-111301000D01*
X130179000Y-139226000D02*
X131093000Y-139226000D01*
X129562000Y-139843000D02*
X130179000Y-139226000D01*
X139286000Y-114441000D02*
X140548000Y-113178000D01*
X134015000Y-135044000D02*
X135627000Y-135044000D01*
X137993000Y-135264000D02*
X139286000Y-133971000D01*
X132728000Y-136331000D02*
X134015000Y-135044000D01*
X132728000Y-137591000D02*
X132728000Y-136331000D01*
X131093000Y-139226000D02*
X132728000Y-137591000D01*
X135847000Y-135264000D02*
X137993000Y-135264000D01*
X129895000Y-140926000D02*
X129562000Y-140593000D01*
X139286000Y-133971000D02*
X139286000Y-114441000D01*
X129562000Y-140593000D02*
X129562000Y-139843000D01*
X140548000Y-113178000D02*
X140548000Y-108813000D01*
X140548000Y-108813000D02*
X140158000Y-108422000D01*
X140158000Y-108422000D02*
X137626000Y-108422000D01*
%TO.N,I2C_SDA*%
X131602000Y-136462000D02*
X131602000Y-136808000D01*
X138128000Y-129936000D02*
X131602000Y-136462000D01*
X131602000Y-136808000D02*
X127402000Y-141008000D01*
X138128000Y-110845000D02*
X138128000Y-129936000D01*
X139963000Y-109010000D02*
X138128000Y-110845000D01*
X127402000Y-141008000D02*
X127402000Y-141078000D01*
%TD*%
M02*
