%TF.GenerationSoftware,KiCad,Pcbnew,10.0.3*%
%TF.CreationDate,2026-09-12T20:49:33+03:00*%
%TF.ProjectId,dronemagnav,64726f6e-656d-4616-976e-61762e6b6963,rev?*%
%TF.SameCoordinates,Original*%
%TF.FileFunction,Copper,L3,Inr*%
%TF.FilePolarity,Positive*%
%FSLAX46Y46*%
G04 Gerber Fmt 4.6, Leading zero omitted, Abs format (unit mm)*
G04 Created by KiCad (PCBNEW 10.0.3) date 2026-09-12 20:49:33*
%MOMM*%
%LPD*%
G01*
G04 APERTURE LIST*
%TA.AperFunction,ComponentPad*%
%ADD10O,2.100000X1.000000*%
%TD*%
%TA.AperFunction,ComponentPad*%
%ADD11O,1.600000X1.000000*%
%TD*%
%TA.AperFunction,HeatsinkPad*%
%ADD12C,0.600000*%
%TD*%
%TA.AperFunction,ViaPad*%
%ADD13C,0.450000*%
%TD*%
%TA.AperFunction,ViaPad*%
%ADD14C,0.400000*%
%TD*%
%TA.AperFunction,ViaPad*%
%ADD15C,0.600000*%
%TD*%
G04 APERTURE END LIST*
D10*
%TO.N,GND*%
%TO.C,J1*%
X105730000Y-125680000D03*
D11*
X101550000Y-125680000D03*
D10*
X105730000Y-134320000D03*
D11*
X101550000Y-134320000D03*
%TD*%
D12*
%TO.N,GND*%
%TO.C,U1*%
X127100000Y-114760000D03*
X127100000Y-116160000D03*
X127800000Y-114060000D03*
X127800000Y-115460000D03*
X127800000Y-116860000D03*
X128500000Y-114760000D03*
X128500000Y-116160000D03*
X129200000Y-114060000D03*
X129200000Y-115460000D03*
X129200000Y-116860000D03*
X129900000Y-114760000D03*
X129900000Y-116160000D03*
%TD*%
D13*
%TO.N,GND*%
X107223508Y-126060560D03*
D14*
X129000000Y-136740000D03*
D13*
X156000000Y-118625000D03*
X121966338Y-127218777D03*
X130150000Y-146437500D03*
X101439575Y-150572368D03*
X159028399Y-114644626D03*
X134056216Y-131113673D03*
X159692181Y-121439276D03*
X150462020Y-148170307D03*
X137568230Y-107531622D03*
X156000000Y-123375000D03*
X155028446Y-148185634D03*
X160523616Y-117151754D03*
X107772631Y-133660424D03*
X111625000Y-137000000D03*
X105483661Y-110856222D03*
X135393716Y-139338673D03*
X144227627Y-136275000D03*
X158751222Y-125291338D03*
X129346474Y-131500000D03*
X154275000Y-140691025D03*
X128500000Y-115460000D03*
D14*
X139680000Y-138350000D03*
D13*
X121692181Y-153379276D03*
X114000000Y-149325000D03*
X107223508Y-133939439D03*
X111962500Y-133000000D03*
X120942181Y-106894276D03*
X137446455Y-128357212D03*
X104658377Y-112338230D03*
X110820000Y-148992500D03*
X137293716Y-139338673D03*
X101000000Y-146150000D03*
D14*
X130000000Y-136740000D03*
D13*
X138325000Y-136200000D03*
X130600000Y-135737500D03*
X158081283Y-140711326D03*
X147418716Y-138938673D03*
X127525000Y-153610769D03*
X150476383Y-106848245D03*
X104658377Y-122661769D03*
X129737500Y-147650000D03*
X126000000Y-149705000D03*
X115762500Y-155000000D03*
X159975000Y-117590000D03*
X123600000Y-149150000D03*
X134000000Y-149705000D03*
X130100000Y-135237500D03*
X104658377Y-101338230D03*
X112000000Y-126695000D03*
X107772631Y-126339575D03*
X138960769Y-139450000D03*
X111070000Y-152821474D03*
X124000000Y-139325000D03*
X142290192Y-128501351D03*
X129637500Y-146950000D03*
X125312500Y-132000000D03*
X120919253Y-126868654D03*
X115625000Y-137000000D03*
%TO.N,+3V3*%
X157000000Y-105125000D03*
X149861081Y-148052846D03*
X150120000Y-151910000D03*
X160000000Y-124735000D03*
X152807818Y-148170723D03*
X120122368Y-108599575D03*
X123000000Y-130045000D03*
X149469749Y-113325742D03*
X110112933Y-152635148D03*
X120000000Y-130440000D03*
X152807818Y-144670723D03*
X109724276Y-155545318D03*
D14*
X143075000Y-133725000D03*
D13*
X149154276Y-144132818D03*
X155000000Y-144625000D03*
X149528399Y-115744626D03*
X100450000Y-154000000D03*
X157500000Y-144625000D03*
X117000000Y-141502500D03*
X108150000Y-154000000D03*
X120450000Y-141604422D03*
X160525000Y-121342627D03*
X149528399Y-114644626D03*
X114550000Y-129974422D03*
X109806044Y-129837787D03*
X137375000Y-132000000D03*
D15*
%TO.N,BOOT*%
X115000000Y-126660000D03*
X126190000Y-123790000D03*
%TO.N,USB_DN_RAW*%
X108906000Y-132075000D03*
X109028000Y-130117000D03*
%TO.N,I2C_SCL*%
X136918000Y-109933000D03*
X123113000Y-143907000D03*
D13*
%TO.N,GNSS_TXD*%
X148300000Y-112400000D03*
X148300000Y-108700000D03*
%TO.N,GNSS_RXD*%
X149000000Y-109800000D03*
X149000000Y-111550000D03*
D15*
%TO.N,SD_CMD*%
X146050000Y-132865000D03*
X140231000Y-118444000D03*
X148517000Y-142254000D03*
%TO.N,LED_NAV*%
X127786000Y-122980000D03*
X126129000Y-128072000D03*
%TO.N,LED_LINK*%
X133489000Y-120440000D03*
X133489000Y-129716000D03*
%TO.N,SPI_SCK*%
X137752000Y-134678000D03*
X132130000Y-137401000D03*
X129296000Y-133805000D03*
X129846000Y-126704000D03*
X128923000Y-147610000D03*
%TO.N,MAG_C1*%
X129150000Y-152908000D03*
X129150000Y-150391000D03*
%TO.N,MAG_DRDY*%
X131410000Y-149250000D03*
X119305000Y-121710000D03*
%TO.N,SPI_MISO*%
X132660000Y-140261000D03*
X131888000Y-147551000D03*
X135252000Y-136364000D03*
%TO.N,CS_MAG*%
X130811000Y-147622000D03*
X134293000Y-135596000D03*
%TO.N,SPI_MOSI*%
X131376000Y-146977000D03*
X132591000Y-139509000D03*
%TO.N,LED_FIX*%
X132907000Y-131243000D03*
X136328000Y-121400000D03*
%TO.N,SD_CLK*%
X144345000Y-133518000D03*
X141323000Y-119267000D03*
%TO.N,SD_D0*%
X140638000Y-116630000D03*
X146855000Y-136825000D03*
X146855000Y-141583000D03*
%TO.N,SD_D1*%
X146280000Y-141012000D03*
X144337000Y-137925000D03*
X139958000Y-115360000D03*
%TO.N,FC_RXD*%
X152200000Y-152625000D03*
X127266000Y-111550000D03*
%TO.N,FC_TXD*%
X126115000Y-156988000D03*
X118734000Y-112503000D03*
%TO.N,INT_ACC*%
X122455000Y-135200000D03*
X122455000Y-114090000D03*
%TO.N,INT_GYR*%
X129294000Y-132351000D03*
X123011000Y-115360000D03*
X133492000Y-136372000D03*
X130151000Y-140054000D03*
%TO.N,MAST_INT*%
X133060000Y-151380000D03*
X128154000Y-141224000D03*
%TO.N,CS_ACC*%
X129895000Y-140926000D03*
X134747000Y-121721000D03*
%TO.N,I2C_SDA*%
X139963000Y-109010000D03*
X127402000Y-141078000D03*
%TD*%
%TA.AperFunction,Conductor*%
%TO.N,+3V3*%
G36*
X105978326Y-100671674D02*
G01*
X106000000Y-100724000D01*
X106000000Y-106400000D01*
X120631119Y-106400000D01*
X120683445Y-106421674D01*
X120705119Y-106474000D01*
X120683445Y-106526326D01*
X120672444Y-106534767D01*
X120672492Y-106534829D01*
X120668642Y-106537783D01*
X120585689Y-106620736D01*
X120527043Y-106722314D01*
X120527039Y-106722323D01*
X120496681Y-106835622D01*
X120496681Y-106952929D01*
X120527039Y-107066228D01*
X120527043Y-107066237D01*
X120585689Y-107167815D01*
X120585690Y-107167816D01*
X120585692Y-107167819D01*
X120668638Y-107250765D01*
X120770224Y-107309416D01*
X120883527Y-107339775D01*
X120883528Y-107339776D01*
X120883530Y-107339776D01*
X121000834Y-107339776D01*
X121000834Y-107339775D01*
X121114138Y-107309416D01*
X121215724Y-107250765D01*
X121298670Y-107167819D01*
X121357321Y-107066233D01*
X121387680Y-106952929D01*
X121387681Y-106952929D01*
X121387681Y-106835623D01*
X121387680Y-106835622D01*
X121375346Y-106789592D01*
X121357321Y-106722319D01*
X121298670Y-106620733D01*
X121215724Y-106537787D01*
X121215721Y-106537785D01*
X121215719Y-106537783D01*
X121211870Y-106534829D01*
X121212806Y-106533608D01*
X121181764Y-106493150D01*
X121189159Y-106436997D01*
X121234093Y-106402521D01*
X121253243Y-106400000D01*
X150115945Y-106400000D01*
X150168271Y-106421674D01*
X150189945Y-106474000D01*
X150168271Y-106526324D01*
X150119894Y-106574702D01*
X150119891Y-106574705D01*
X150061245Y-106676283D01*
X150061241Y-106676292D01*
X150030883Y-106789591D01*
X150030883Y-106906898D01*
X150061241Y-107020197D01*
X150061245Y-107020206D01*
X150119891Y-107121784D01*
X150119892Y-107121785D01*
X150119894Y-107121788D01*
X150202840Y-107204734D01*
X150304426Y-107263385D01*
X150417729Y-107293744D01*
X150417730Y-107293745D01*
X150417732Y-107293745D01*
X150535036Y-107293745D01*
X150535036Y-107293744D01*
X150648340Y-107263385D01*
X150749926Y-107204734D01*
X150832872Y-107121788D01*
X150891523Y-107020202D01*
X150921882Y-106906898D01*
X150921883Y-106906898D01*
X150921883Y-106789592D01*
X150921882Y-106789591D01*
X150903855Y-106722314D01*
X150891523Y-106676288D01*
X150832872Y-106574702D01*
X150784494Y-106526324D01*
X150762821Y-106474000D01*
X150784495Y-106421674D01*
X150836821Y-106400000D01*
X154000000Y-106400000D01*
X154000000Y-100724000D01*
X154021674Y-100671674D01*
X154074000Y-100650000D01*
X161276000Y-100650000D01*
X161328326Y-100671674D01*
X161350000Y-100724000D01*
X161350000Y-159276000D01*
X161328326Y-159328326D01*
X161276000Y-159350000D01*
X98724000Y-159350000D01*
X98671674Y-159328326D01*
X98650000Y-159276000D01*
X98650000Y-156919472D01*
X125594500Y-156919472D01*
X125594500Y-157056527D01*
X125629970Y-157188901D01*
X125629972Y-157188906D01*
X125698497Y-157307594D01*
X125795406Y-157404503D01*
X125914095Y-157473028D01*
X125914096Y-157473028D01*
X125914098Y-157473029D01*
X125980285Y-157490764D01*
X126046472Y-157508499D01*
X126046473Y-157508500D01*
X126046475Y-157508500D01*
X126183527Y-157508500D01*
X126183527Y-157508499D01*
X126315905Y-157473028D01*
X126434594Y-157404503D01*
X126531503Y-157307594D01*
X126600028Y-157188905D01*
X126635499Y-157056527D01*
X126635500Y-157056527D01*
X126635500Y-156919473D01*
X126635499Y-156919472D01*
X126600029Y-156787098D01*
X126600027Y-156787093D01*
X126531502Y-156668405D01*
X126434594Y-156571497D01*
X126315906Y-156502972D01*
X126315901Y-156502970D01*
X126183527Y-156467500D01*
X126183525Y-156467500D01*
X126046475Y-156467500D01*
X126046473Y-156467500D01*
X125914098Y-156502970D01*
X125914093Y-156502972D01*
X125795405Y-156571497D01*
X125698497Y-156668405D01*
X125629972Y-156787093D01*
X125629970Y-156787098D01*
X125594500Y-156919472D01*
X98650000Y-156919472D01*
X98650000Y-154941346D01*
X115317000Y-154941346D01*
X115317000Y-155058653D01*
X115347358Y-155171952D01*
X115347362Y-155171961D01*
X115406008Y-155273539D01*
X115406009Y-155273540D01*
X115406011Y-155273543D01*
X115488957Y-155356489D01*
X115590543Y-155415140D01*
X115703846Y-155445499D01*
X115703847Y-155445500D01*
X115703849Y-155445500D01*
X115821153Y-155445500D01*
X115821153Y-155445499D01*
X115934457Y-155415140D01*
X116036043Y-155356489D01*
X116118989Y-155273543D01*
X116177640Y-155171957D01*
X116207999Y-155058653D01*
X116208000Y-155058653D01*
X116208000Y-154941347D01*
X116207999Y-154941346D01*
X116177641Y-154828047D01*
X116177640Y-154828043D01*
X116118989Y-154726457D01*
X116036043Y-154643511D01*
X116036040Y-154643509D01*
X116036039Y-154643508D01*
X115934461Y-154584862D01*
X115934452Y-154584858D01*
X115821153Y-154554500D01*
X115821151Y-154554500D01*
X115703849Y-154554500D01*
X115703847Y-154554500D01*
X115590547Y-154584858D01*
X115590538Y-154584862D01*
X115488960Y-154643508D01*
X115406008Y-154726460D01*
X115347362Y-154828038D01*
X115347358Y-154828047D01*
X115317000Y-154941346D01*
X98650000Y-154941346D01*
X98650000Y-153320622D01*
X121246681Y-153320622D01*
X121246681Y-153437929D01*
X121277039Y-153551228D01*
X121277043Y-153551237D01*
X121335689Y-153652815D01*
X121335690Y-153652816D01*
X121335692Y-153652819D01*
X121418638Y-153735765D01*
X121520224Y-153794416D01*
X121633527Y-153824775D01*
X121633528Y-153824776D01*
X121633530Y-153824776D01*
X121750834Y-153824776D01*
X121750834Y-153824775D01*
X121864138Y-153794416D01*
X121965724Y-153735765D01*
X122048670Y-153652819D01*
X122106812Y-153552115D01*
X127079500Y-153552115D01*
X127079500Y-153669422D01*
X127109858Y-153782721D01*
X127109862Y-153782730D01*
X127168508Y-153884308D01*
X127168509Y-153884309D01*
X127168511Y-153884312D01*
X127251457Y-153967258D01*
X127353043Y-154025909D01*
X127466346Y-154056268D01*
X127466347Y-154056269D01*
X127466349Y-154056269D01*
X127583653Y-154056269D01*
X127583653Y-154056268D01*
X127696957Y-154025909D01*
X127798543Y-153967258D01*
X127881489Y-153884312D01*
X127940140Y-153782726D01*
X127970499Y-153669422D01*
X127970500Y-153669422D01*
X127970500Y-153552116D01*
X127970499Y-153552115D01*
X127970261Y-153551228D01*
X127940140Y-153438812D01*
X127913707Y-153393029D01*
X127881491Y-153337229D01*
X127881490Y-153337228D01*
X127881489Y-153337226D01*
X127798543Y-153254280D01*
X127798540Y-153254278D01*
X127798539Y-153254277D01*
X127696961Y-153195631D01*
X127696952Y-153195627D01*
X127583653Y-153165269D01*
X127583651Y-153165269D01*
X127466349Y-153165269D01*
X127466347Y-153165269D01*
X127353047Y-153195627D01*
X127353038Y-153195631D01*
X127251460Y-153254277D01*
X127168508Y-153337229D01*
X127109862Y-153438807D01*
X127109858Y-153438816D01*
X127079500Y-153552115D01*
X122106812Y-153552115D01*
X122107321Y-153551233D01*
X122137681Y-153437927D01*
X122137681Y-153320625D01*
X122137681Y-153320623D01*
X122137680Y-153320622D01*
X122115170Y-153236614D01*
X122107321Y-153207319D01*
X122071629Y-153145499D01*
X122048672Y-153105736D01*
X122048671Y-153105735D01*
X122048670Y-153105733D01*
X121965724Y-153022787D01*
X121965721Y-153022785D01*
X121965720Y-153022784D01*
X121864142Y-152964138D01*
X121864133Y-152964134D01*
X121750834Y-152933776D01*
X121750832Y-152933776D01*
X121633530Y-152933776D01*
X121633528Y-152933776D01*
X121520228Y-152964134D01*
X121520219Y-152964138D01*
X121418641Y-153022784D01*
X121335689Y-153105736D01*
X121277043Y-153207314D01*
X121277039Y-153207323D01*
X121246681Y-153320622D01*
X98650000Y-153320622D01*
X98650000Y-152762820D01*
X110624500Y-152762820D01*
X110624500Y-152880127D01*
X110654858Y-152993426D01*
X110654862Y-152993435D01*
X110713508Y-153095013D01*
X110713509Y-153095014D01*
X110713511Y-153095017D01*
X110796457Y-153177963D01*
X110796459Y-153177964D01*
X110796460Y-153177965D01*
X110847294Y-153207314D01*
X110898043Y-153236614D01*
X111011346Y-153266973D01*
X111011347Y-153266974D01*
X111011349Y-153266974D01*
X111128653Y-153266974D01*
X111128653Y-153266973D01*
X111241957Y-153236614D01*
X111343543Y-153177963D01*
X111426489Y-153095017D01*
X111485140Y-152993431D01*
X111515499Y-152880127D01*
X111515500Y-152880127D01*
X111515500Y-152839472D01*
X128629500Y-152839472D01*
X128629500Y-152976527D01*
X128664970Y-153108901D01*
X128664972Y-153108906D01*
X128733497Y-153227594D01*
X128830406Y-153324503D01*
X128949095Y-153393028D01*
X128949096Y-153393028D01*
X128949098Y-153393029D01*
X129015285Y-153410764D01*
X129081472Y-153428499D01*
X129081473Y-153428500D01*
X129081475Y-153428500D01*
X129218527Y-153428500D01*
X129218527Y-153428499D01*
X129350905Y-153393028D01*
X129469594Y-153324503D01*
X129566503Y-153227594D01*
X129635028Y-153108905D01*
X129670499Y-152976527D01*
X129670500Y-152976527D01*
X129670500Y-152839473D01*
X129670499Y-152839472D01*
X129635029Y-152707098D01*
X129635027Y-152707093D01*
X129601785Y-152649517D01*
X129566503Y-152588406D01*
X129534569Y-152556472D01*
X151679500Y-152556472D01*
X151679500Y-152693527D01*
X151714970Y-152825901D01*
X151714972Y-152825906D01*
X151746276Y-152880125D01*
X151783497Y-152944594D01*
X151880406Y-153041503D01*
X151967291Y-153091666D01*
X151997151Y-153108906D01*
X151999095Y-153110028D01*
X151999096Y-153110028D01*
X151999098Y-153110029D01*
X152065285Y-153127764D01*
X152131472Y-153145499D01*
X152131473Y-153145500D01*
X152131475Y-153145500D01*
X152268527Y-153145500D01*
X152268527Y-153145499D01*
X152400905Y-153110028D01*
X152519594Y-153041503D01*
X152616503Y-152944594D01*
X152685028Y-152825905D01*
X152720499Y-152693527D01*
X152720500Y-152693527D01*
X152720500Y-152556473D01*
X152720499Y-152556472D01*
X152718210Y-152547931D01*
X152685028Y-152424095D01*
X152684378Y-152422970D01*
X152616502Y-152305405D01*
X152519594Y-152208497D01*
X152400906Y-152139972D01*
X152400901Y-152139970D01*
X152268527Y-152104500D01*
X152268525Y-152104500D01*
X152131475Y-152104500D01*
X152131473Y-152104500D01*
X151999098Y-152139970D01*
X151999093Y-152139972D01*
X151880405Y-152208497D01*
X151783497Y-152305405D01*
X151714972Y-152424093D01*
X151714970Y-152424098D01*
X151679500Y-152556472D01*
X129534569Y-152556472D01*
X129469594Y-152491497D01*
X129423669Y-152464982D01*
X129350906Y-152422972D01*
X129350901Y-152422970D01*
X129218527Y-152387500D01*
X129218525Y-152387500D01*
X129081475Y-152387500D01*
X129081473Y-152387500D01*
X128949098Y-152422970D01*
X128949093Y-152422972D01*
X128830405Y-152491497D01*
X128733497Y-152588405D01*
X128664972Y-152707093D01*
X128664970Y-152707098D01*
X128629500Y-152839472D01*
X111515500Y-152839472D01*
X111515500Y-152762821D01*
X111515499Y-152762820D01*
X111485141Y-152649521D01*
X111485140Y-152649517D01*
X111426489Y-152547931D01*
X111343543Y-152464985D01*
X111343540Y-152464983D01*
X111343539Y-152464982D01*
X111241961Y-152406336D01*
X111241952Y-152406332D01*
X111128653Y-152375974D01*
X111128651Y-152375974D01*
X111011349Y-152375974D01*
X111011347Y-152375974D01*
X110898047Y-152406332D01*
X110898038Y-152406336D01*
X110796460Y-152464982D01*
X110713508Y-152547934D01*
X110654862Y-152649512D01*
X110654858Y-152649521D01*
X110624500Y-152762820D01*
X98650000Y-152762820D01*
X98650000Y-151311472D01*
X132539500Y-151311472D01*
X132539500Y-151448527D01*
X132574970Y-151580901D01*
X132574972Y-151580906D01*
X132643497Y-151699594D01*
X132740406Y-151796503D01*
X132859095Y-151865028D01*
X132859096Y-151865028D01*
X132859098Y-151865029D01*
X132925285Y-151882764D01*
X132991472Y-151900499D01*
X132991473Y-151900500D01*
X132991475Y-151900500D01*
X133128527Y-151900500D01*
X133128527Y-151900499D01*
X133260905Y-151865028D01*
X133379594Y-151796503D01*
X133476503Y-151699594D01*
X133545028Y-151580905D01*
X133580499Y-151448527D01*
X133580500Y-151448527D01*
X133580500Y-151311473D01*
X133580499Y-151311472D01*
X133545029Y-151179098D01*
X133545027Y-151179093D01*
X133476502Y-151060405D01*
X133379594Y-150963497D01*
X133260906Y-150894972D01*
X133260901Y-150894970D01*
X133128527Y-150859500D01*
X133128525Y-150859500D01*
X132991475Y-150859500D01*
X132991473Y-150859500D01*
X132859098Y-150894970D01*
X132859093Y-150894972D01*
X132740405Y-150963497D01*
X132643497Y-151060405D01*
X132574972Y-151179093D01*
X132574970Y-151179098D01*
X132539500Y-151311472D01*
X98650000Y-151311472D01*
X98650000Y-150513714D01*
X100994075Y-150513714D01*
X100994075Y-150631021D01*
X101024433Y-150744320D01*
X101024437Y-150744329D01*
X101083083Y-150845907D01*
X101083084Y-150845908D01*
X101083086Y-150845911D01*
X101166032Y-150928857D01*
X101267618Y-150987508D01*
X101380921Y-151017867D01*
X101380922Y-151017868D01*
X101380924Y-151017868D01*
X101498228Y-151017868D01*
X101498228Y-151017867D01*
X101611532Y-150987508D01*
X101713118Y-150928857D01*
X101796064Y-150845911D01*
X101854715Y-150744325D01*
X101885074Y-150631021D01*
X101885075Y-150631021D01*
X101885075Y-150513715D01*
X101885074Y-150513714D01*
X101854716Y-150400415D01*
X101854715Y-150400411D01*
X101850998Y-150393973D01*
X101828281Y-150354625D01*
X101809717Y-150322472D01*
X128629500Y-150322472D01*
X128629500Y-150459527D01*
X128664970Y-150591901D01*
X128664972Y-150591906D01*
X128733497Y-150710594D01*
X128830406Y-150807503D01*
X128949095Y-150876028D01*
X128949096Y-150876028D01*
X128949098Y-150876029D01*
X129015285Y-150893764D01*
X129081472Y-150911499D01*
X129081473Y-150911500D01*
X129081475Y-150911500D01*
X129218527Y-150911500D01*
X129218527Y-150911499D01*
X129350905Y-150876028D01*
X129469594Y-150807503D01*
X129566503Y-150710594D01*
X129635028Y-150591905D01*
X129670499Y-150459527D01*
X129670500Y-150459527D01*
X129670500Y-150322473D01*
X129670499Y-150322472D01*
X129635029Y-150190098D01*
X129635027Y-150190093D01*
X129594640Y-150120141D01*
X129566503Y-150071406D01*
X129469594Y-149974497D01*
X129350906Y-149905972D01*
X129350901Y-149905970D01*
X129218527Y-149870500D01*
X129218525Y-149870500D01*
X129081475Y-149870500D01*
X129081473Y-149870500D01*
X128949098Y-149905970D01*
X128949093Y-149905972D01*
X128830405Y-149974497D01*
X128733497Y-150071405D01*
X128664972Y-150190093D01*
X128664970Y-150190098D01*
X128629500Y-150322472D01*
X101809717Y-150322472D01*
X101796066Y-150298828D01*
X101796065Y-150298827D01*
X101796064Y-150298825D01*
X101713118Y-150215879D01*
X101713115Y-150215877D01*
X101713114Y-150215876D01*
X101611536Y-150157230D01*
X101611527Y-150157226D01*
X101498228Y-150126868D01*
X101498226Y-150126868D01*
X101380924Y-150126868D01*
X101380922Y-150126868D01*
X101267622Y-150157226D01*
X101267613Y-150157230D01*
X101166035Y-150215876D01*
X101083083Y-150298828D01*
X101024437Y-150400406D01*
X101024433Y-150400415D01*
X100994075Y-150513714D01*
X98650000Y-150513714D01*
X98650000Y-148933846D01*
X110374500Y-148933846D01*
X110374500Y-149051153D01*
X110404858Y-149164452D01*
X110404862Y-149164461D01*
X110463508Y-149266039D01*
X110463509Y-149266040D01*
X110463511Y-149266043D01*
X110546457Y-149348989D01*
X110546459Y-149348990D01*
X110546460Y-149348991D01*
X110617862Y-149390215D01*
X110648043Y-149407640D01*
X110761346Y-149437999D01*
X110761347Y-149438000D01*
X110761349Y-149438000D01*
X110878653Y-149438000D01*
X110878653Y-149437999D01*
X110991957Y-149407640D01*
X111093543Y-149348989D01*
X111176186Y-149266346D01*
X113554500Y-149266346D01*
X113554500Y-149383653D01*
X113584858Y-149496952D01*
X113584862Y-149496961D01*
X113643508Y-149598539D01*
X113643509Y-149598540D01*
X113643511Y-149598543D01*
X113726457Y-149681489D01*
X113828043Y-149740140D01*
X113941346Y-149770499D01*
X113941347Y-149770500D01*
X113941349Y-149770500D01*
X114058653Y-149770500D01*
X114058653Y-149770499D01*
X114171957Y-149740140D01*
X114273543Y-149681489D01*
X114308686Y-149646346D01*
X125554500Y-149646346D01*
X125554500Y-149763653D01*
X125584858Y-149876952D01*
X125584862Y-149876961D01*
X125643508Y-149978539D01*
X125643509Y-149978540D01*
X125643511Y-149978543D01*
X125726457Y-150061489D01*
X125726459Y-150061490D01*
X125726460Y-150061491D01*
X125797862Y-150102715D01*
X125828043Y-150120140D01*
X125941346Y-150150499D01*
X125941347Y-150150500D01*
X125941349Y-150150500D01*
X126058653Y-150150500D01*
X126058653Y-150150499D01*
X126171957Y-150120140D01*
X126273543Y-150061489D01*
X126356489Y-149978543D01*
X126415140Y-149876957D01*
X126445499Y-149763653D01*
X126445500Y-149763653D01*
X126445500Y-149646347D01*
X126445499Y-149646346D01*
X126432690Y-149598543D01*
X126415140Y-149533043D01*
X126367718Y-149450906D01*
X126356491Y-149431460D01*
X126356490Y-149431459D01*
X126356489Y-149431457D01*
X126273543Y-149348511D01*
X126273540Y-149348509D01*
X126273539Y-149348508D01*
X126171961Y-149289862D01*
X126171952Y-149289858D01*
X126058653Y-149259500D01*
X126058651Y-149259500D01*
X125941349Y-149259500D01*
X125941347Y-149259500D01*
X125828047Y-149289858D01*
X125828038Y-149289862D01*
X125726460Y-149348508D01*
X125643508Y-149431460D01*
X125584862Y-149533038D01*
X125584858Y-149533047D01*
X125554500Y-149646346D01*
X114308686Y-149646346D01*
X114356489Y-149598543D01*
X114415140Y-149496957D01*
X114445499Y-149383653D01*
X114445500Y-149383653D01*
X114445500Y-149266347D01*
X114445499Y-149266346D01*
X114430040Y-149208653D01*
X114415140Y-149153043D01*
X114379519Y-149091346D01*
X123154500Y-149091346D01*
X123154500Y-149208653D01*
X123184858Y-149321952D01*
X123184862Y-149321961D01*
X123243508Y-149423539D01*
X123243509Y-149423540D01*
X123243511Y-149423543D01*
X123326457Y-149506489D01*
X123326459Y-149506490D01*
X123326460Y-149506491D01*
X123397862Y-149547715D01*
X123428043Y-149565140D01*
X123541346Y-149595499D01*
X123541347Y-149595500D01*
X123541349Y-149595500D01*
X123658653Y-149595500D01*
X123658653Y-149595499D01*
X123771957Y-149565140D01*
X123873543Y-149506489D01*
X123956489Y-149423543D01*
X124015140Y-149321957D01*
X124045499Y-149208653D01*
X124045500Y-149208653D01*
X124045500Y-149181472D01*
X130889500Y-149181472D01*
X130889500Y-149318527D01*
X130924970Y-149450901D01*
X130924972Y-149450906D01*
X130990924Y-149565137D01*
X130993497Y-149569594D01*
X131090406Y-149666503D01*
X131209095Y-149735028D01*
X131209096Y-149735028D01*
X131209098Y-149735029D01*
X131228176Y-149740141D01*
X131341472Y-149770499D01*
X131341473Y-149770500D01*
X131341475Y-149770500D01*
X131478527Y-149770500D01*
X131478527Y-149770499D01*
X131610905Y-149735028D01*
X131729594Y-149666503D01*
X131749751Y-149646346D01*
X133554500Y-149646346D01*
X133554500Y-149763653D01*
X133584858Y-149876952D01*
X133584862Y-149876961D01*
X133643508Y-149978539D01*
X133643509Y-149978540D01*
X133643511Y-149978543D01*
X133726457Y-150061489D01*
X133726459Y-150061490D01*
X133726460Y-150061491D01*
X133797862Y-150102715D01*
X133828043Y-150120140D01*
X133941346Y-150150499D01*
X133941347Y-150150500D01*
X133941349Y-150150500D01*
X134058653Y-150150500D01*
X134058653Y-150150499D01*
X134171957Y-150120140D01*
X134273543Y-150061489D01*
X134356489Y-149978543D01*
X134415140Y-149876957D01*
X134445499Y-149763653D01*
X134445500Y-149763653D01*
X134445500Y-149646347D01*
X134445499Y-149646346D01*
X134432690Y-149598543D01*
X134415140Y-149533043D01*
X134367718Y-149450906D01*
X134356491Y-149431460D01*
X134356490Y-149431459D01*
X134356489Y-149431457D01*
X134273543Y-149348511D01*
X134273540Y-149348509D01*
X134273539Y-149348508D01*
X134171961Y-149289862D01*
X134171952Y-149289858D01*
X134058653Y-149259500D01*
X134058651Y-149259500D01*
X133941349Y-149259500D01*
X133941347Y-149259500D01*
X133828047Y-149289858D01*
X133828038Y-149289862D01*
X133726460Y-149348508D01*
X133643508Y-149431460D01*
X133584862Y-149533038D01*
X133584858Y-149533047D01*
X133554500Y-149646346D01*
X131749751Y-149646346D01*
X131826503Y-149569594D01*
X131895028Y-149450905D01*
X131930499Y-149318527D01*
X131930500Y-149318527D01*
X131930500Y-149181473D01*
X131930499Y-149181472D01*
X131925938Y-149164452D01*
X131895661Y-149051457D01*
X131895029Y-149049098D01*
X131895027Y-149049093D01*
X131848501Y-148968508D01*
X131826503Y-148930406D01*
X131729594Y-148833497D01*
X131707157Y-148820543D01*
X131610906Y-148764972D01*
X131610901Y-148764970D01*
X131478527Y-148729500D01*
X131478525Y-148729500D01*
X131341475Y-148729500D01*
X131341473Y-148729500D01*
X131209098Y-148764970D01*
X131209093Y-148764972D01*
X131090405Y-148833497D01*
X130993497Y-148930405D01*
X130924972Y-149049093D01*
X130924970Y-149049098D01*
X130889500Y-149181472D01*
X124045500Y-149181472D01*
X124045500Y-149091347D01*
X124045499Y-149091346D01*
X124034729Y-149051153D01*
X124015140Y-148978043D01*
X123997715Y-148947862D01*
X123956491Y-148876460D01*
X123956490Y-148876459D01*
X123956489Y-148876457D01*
X123873543Y-148793511D01*
X123873540Y-148793509D01*
X123873539Y-148793508D01*
X123771961Y-148734862D01*
X123771952Y-148734858D01*
X123658653Y-148704500D01*
X123658651Y-148704500D01*
X123541349Y-148704500D01*
X123541347Y-148704500D01*
X123428047Y-148734858D01*
X123428038Y-148734862D01*
X123326460Y-148793508D01*
X123243508Y-148876460D01*
X123184862Y-148978038D01*
X123184858Y-148978047D01*
X123154500Y-149091346D01*
X114379519Y-149091346D01*
X114356489Y-149051457D01*
X114273543Y-148968511D01*
X114273540Y-148968509D01*
X114273539Y-148968508D01*
X114171961Y-148909862D01*
X114171952Y-148909858D01*
X114058653Y-148879500D01*
X114058651Y-148879500D01*
X113941349Y-148879500D01*
X113941347Y-148879500D01*
X113828047Y-148909858D01*
X113828038Y-148909862D01*
X113726460Y-148968508D01*
X113643508Y-149051460D01*
X113584862Y-149153038D01*
X113584858Y-149153047D01*
X113554500Y-149266346D01*
X111176186Y-149266346D01*
X111176489Y-149266043D01*
X111209625Y-149208651D01*
X111213956Y-149201148D01*
X111235140Y-149164457D01*
X111265499Y-149051153D01*
X111265500Y-149051153D01*
X111265500Y-148933847D01*
X111265499Y-148933846D01*
X111235141Y-148820547D01*
X111235140Y-148820543D01*
X111185671Y-148734860D01*
X111176491Y-148718960D01*
X111176490Y-148718959D01*
X111176489Y-148718957D01*
X111093543Y-148636011D01*
X111093540Y-148636009D01*
X111093539Y-148636008D01*
X110991961Y-148577362D01*
X110991952Y-148577358D01*
X110878653Y-148547000D01*
X110878651Y-148547000D01*
X110761349Y-148547000D01*
X110761347Y-148547000D01*
X110648047Y-148577358D01*
X110648038Y-148577362D01*
X110546460Y-148636008D01*
X110463508Y-148718960D01*
X110404862Y-148820538D01*
X110404858Y-148820547D01*
X110374500Y-148933846D01*
X98650000Y-148933846D01*
X98650000Y-147541472D01*
X128402500Y-147541472D01*
X128402500Y-147678527D01*
X128437970Y-147810901D01*
X128437972Y-147810906D01*
X128487544Y-147896767D01*
X128506497Y-147929594D01*
X128603406Y-148026503D01*
X128722095Y-148095028D01*
X128722096Y-148095028D01*
X128722098Y-148095029D01*
X128784150Y-148111656D01*
X128854472Y-148130499D01*
X128854473Y-148130500D01*
X128854475Y-148130500D01*
X128991527Y-148130500D01*
X128991527Y-148130499D01*
X129123905Y-148095028D01*
X129242594Y-148026503D01*
X129310957Y-147958140D01*
X129363283Y-147936466D01*
X129415607Y-147958139D01*
X129463957Y-148006489D01*
X129463959Y-148006490D01*
X129463960Y-148006491D01*
X129535362Y-148047715D01*
X129565543Y-148065140D01*
X129678846Y-148095499D01*
X129678847Y-148095500D01*
X129678849Y-148095500D01*
X129796153Y-148095500D01*
X129796153Y-148095499D01*
X129909457Y-148065140D01*
X130011043Y-148006489D01*
X130093989Y-147923543D01*
X130152640Y-147821957D01*
X130167700Y-147765748D01*
X130202177Y-147720818D01*
X130258330Y-147713424D01*
X130303263Y-147747902D01*
X130310656Y-147765749D01*
X130325971Y-147822902D01*
X130325972Y-147822906D01*
X130353505Y-147870594D01*
X130394497Y-147941594D01*
X130491406Y-148038503D01*
X130610095Y-148107028D01*
X130610096Y-148107028D01*
X130610098Y-148107029D01*
X130627366Y-148111656D01*
X130742472Y-148142499D01*
X130742473Y-148142500D01*
X130742475Y-148142500D01*
X130879527Y-148142500D01*
X130879527Y-148142499D01*
X130994644Y-148111653D01*
X150016520Y-148111653D01*
X150016520Y-148228960D01*
X150046878Y-148342259D01*
X150046882Y-148342268D01*
X150105528Y-148443846D01*
X150105529Y-148443847D01*
X150105531Y-148443850D01*
X150188477Y-148526796D01*
X150290063Y-148585447D01*
X150403366Y-148615806D01*
X150403367Y-148615807D01*
X150403369Y-148615807D01*
X150520673Y-148615807D01*
X150520673Y-148615806D01*
X150633977Y-148585447D01*
X150735563Y-148526796D01*
X150818509Y-148443850D01*
X150877160Y-148342264D01*
X150907519Y-148228960D01*
X150907520Y-148228960D01*
X150907520Y-148126980D01*
X154582946Y-148126980D01*
X154582946Y-148244287D01*
X154613304Y-148357586D01*
X154613308Y-148357595D01*
X154671954Y-148459173D01*
X154671955Y-148459174D01*
X154671957Y-148459177D01*
X154754903Y-148542123D01*
X154754905Y-148542124D01*
X154754906Y-148542125D01*
X154815935Y-148577360D01*
X154856489Y-148600774D01*
X154969792Y-148631133D01*
X154969793Y-148631134D01*
X154969795Y-148631134D01*
X155087099Y-148631134D01*
X155087099Y-148631133D01*
X155200403Y-148600774D01*
X155301989Y-148542123D01*
X155384935Y-148459177D01*
X155443586Y-148357591D01*
X155473945Y-148244287D01*
X155473946Y-148244287D01*
X155473946Y-148126981D01*
X155473945Y-148126980D01*
X155469838Y-148111654D01*
X155443586Y-148013677D01*
X155399008Y-147936466D01*
X155384937Y-147912094D01*
X155384936Y-147912093D01*
X155384935Y-147912091D01*
X155301989Y-147829145D01*
X155301986Y-147829143D01*
X155301985Y-147829142D01*
X155200407Y-147770496D01*
X155200398Y-147770492D01*
X155087099Y-147740134D01*
X155087097Y-147740134D01*
X154969795Y-147740134D01*
X154969793Y-147740134D01*
X154856493Y-147770492D01*
X154856484Y-147770496D01*
X154754906Y-147829142D01*
X154671954Y-147912094D01*
X154613308Y-148013672D01*
X154613304Y-148013681D01*
X154582946Y-148126980D01*
X150907520Y-148126980D01*
X150907520Y-148111654D01*
X150907519Y-148111653D01*
X150906279Y-148107027D01*
X150877160Y-147998350D01*
X150818509Y-147896764D01*
X150735563Y-147813818D01*
X150735560Y-147813816D01*
X150735559Y-147813815D01*
X150633981Y-147755169D01*
X150633972Y-147755165D01*
X150520673Y-147724807D01*
X150520671Y-147724807D01*
X150403369Y-147724807D01*
X150403367Y-147724807D01*
X150290067Y-147755165D01*
X150290058Y-147755169D01*
X150188480Y-147813815D01*
X150105528Y-147896767D01*
X150046882Y-147998345D01*
X150046878Y-147998354D01*
X150016520Y-148111653D01*
X130994644Y-148111653D01*
X131011905Y-148107028D01*
X131130594Y-148038503D01*
X131227503Y-147941594D01*
X131296028Y-147822905D01*
X131296681Y-147820464D01*
X131297457Y-147819454D01*
X131297883Y-147818426D01*
X131298158Y-147818540D01*
X131331155Y-147775530D01*
X131387307Y-147768132D01*
X131432243Y-147802606D01*
X131432247Y-147802612D01*
X131447566Y-147829145D01*
X131471497Y-147870594D01*
X131568406Y-147967503D01*
X131687095Y-148036028D01*
X131687096Y-148036028D01*
X131687098Y-148036029D01*
X131753285Y-148053764D01*
X131819472Y-148071499D01*
X131819473Y-148071500D01*
X131819475Y-148071500D01*
X131956527Y-148071500D01*
X131956527Y-148071499D01*
X132088905Y-148036028D01*
X132207594Y-147967503D01*
X132304503Y-147870594D01*
X132373028Y-147751905D01*
X132408499Y-147619527D01*
X132408500Y-147619527D01*
X132408500Y-147482473D01*
X132408499Y-147482472D01*
X132373029Y-147350098D01*
X132373027Y-147350093D01*
X132340359Y-147293511D01*
X132304503Y-147231406D01*
X132207594Y-147134497D01*
X132185874Y-147121957D01*
X132088906Y-147065972D01*
X132088901Y-147065970D01*
X131951840Y-147029244D01*
X131952621Y-147026326D01*
X131911783Y-147002738D01*
X131896500Y-146957701D01*
X131896500Y-146908473D01*
X131896499Y-146908472D01*
X131889673Y-146882999D01*
X131861028Y-146776095D01*
X131792503Y-146657406D01*
X131695594Y-146560497D01*
X131651193Y-146534862D01*
X131576906Y-146491972D01*
X131576901Y-146491970D01*
X131444527Y-146456500D01*
X131444525Y-146456500D01*
X131307475Y-146456500D01*
X131307473Y-146456500D01*
X131175098Y-146491970D01*
X131175093Y-146491972D01*
X131056405Y-146560497D01*
X130959497Y-146657405D01*
X130890972Y-146776093D01*
X130890970Y-146776098D01*
X130855500Y-146908472D01*
X130855500Y-147027500D01*
X130833826Y-147079826D01*
X130781500Y-147101500D01*
X130742473Y-147101500D01*
X130610098Y-147136970D01*
X130610093Y-147136972D01*
X130491405Y-147205497D01*
X130394497Y-147302405D01*
X130325972Y-147421093D01*
X130325971Y-147421097D01*
X130303153Y-147506250D01*
X130268674Y-147551183D01*
X130212521Y-147558574D01*
X130167588Y-147524095D01*
X130160199Y-147506255D01*
X130152640Y-147478043D01*
X130119760Y-147421093D01*
X130093991Y-147376460D01*
X130093990Y-147376459D01*
X130093989Y-147376457D01*
X130014771Y-147297239D01*
X129993098Y-147244915D01*
X130003012Y-147207915D01*
X130033415Y-147155255D01*
X130052640Y-147121957D01*
X130082999Y-147008653D01*
X130083000Y-147008653D01*
X130083000Y-146957000D01*
X130104674Y-146904674D01*
X130157000Y-146883000D01*
X130208653Y-146883000D01*
X130208653Y-146882999D01*
X130321957Y-146852640D01*
X130423543Y-146793989D01*
X130506489Y-146711043D01*
X130565140Y-146609457D01*
X130595499Y-146496153D01*
X130595500Y-146496153D01*
X130595500Y-146378847D01*
X130595499Y-146378846D01*
X130580254Y-146321952D01*
X130565140Y-146265543D01*
X130506489Y-146163957D01*
X130423543Y-146081011D01*
X130423540Y-146081009D01*
X130423539Y-146081008D01*
X130321961Y-146022362D01*
X130321952Y-146022358D01*
X130208653Y-145992000D01*
X130208651Y-145992000D01*
X130091349Y-145992000D01*
X130091347Y-145992000D01*
X129978047Y-146022358D01*
X129978038Y-146022362D01*
X129876460Y-146081008D01*
X129793508Y-146163960D01*
X129734862Y-146265538D01*
X129734858Y-146265547D01*
X129704500Y-146378846D01*
X129704500Y-146430500D01*
X129682826Y-146482826D01*
X129630500Y-146504500D01*
X129578847Y-146504500D01*
X129465547Y-146534858D01*
X129465538Y-146534862D01*
X129363960Y-146593508D01*
X129281008Y-146676460D01*
X129222362Y-146778038D01*
X129222358Y-146778047D01*
X129192000Y-146891346D01*
X129192000Y-147008653D01*
X129197672Y-147029821D01*
X129190280Y-147085974D01*
X129145347Y-147120452D01*
X129107041Y-147120452D01*
X128991527Y-147089500D01*
X128991525Y-147089500D01*
X128854475Y-147089500D01*
X128854473Y-147089500D01*
X128722098Y-147124970D01*
X128722093Y-147124972D01*
X128603405Y-147193497D01*
X128506497Y-147290405D01*
X128437972Y-147409093D01*
X128437970Y-147409098D01*
X128402500Y-147541472D01*
X98650000Y-147541472D01*
X98650000Y-146091346D01*
X100554500Y-146091346D01*
X100554500Y-146208653D01*
X100584858Y-146321952D01*
X100584862Y-146321961D01*
X100643508Y-146423539D01*
X100643509Y-146423540D01*
X100643511Y-146423543D01*
X100726457Y-146506489D01*
X100828043Y-146565140D01*
X100941346Y-146595499D01*
X100941347Y-146595500D01*
X100941349Y-146595500D01*
X101058653Y-146595500D01*
X101058653Y-146595499D01*
X101171957Y-146565140D01*
X101273543Y-146506489D01*
X101356489Y-146423543D01*
X101415140Y-146321957D01*
X101445499Y-146208653D01*
X101445500Y-146208653D01*
X101445500Y-146091347D01*
X101445499Y-146091346D01*
X101427014Y-146022360D01*
X101415140Y-145978043D01*
X101356489Y-145876457D01*
X101273543Y-145793511D01*
X101273540Y-145793509D01*
X101273539Y-145793508D01*
X101171961Y-145734862D01*
X101171952Y-145734858D01*
X101058653Y-145704500D01*
X101058651Y-145704500D01*
X100941349Y-145704500D01*
X100941347Y-145704500D01*
X100828047Y-145734858D01*
X100828038Y-145734862D01*
X100726460Y-145793508D01*
X100643508Y-145876460D01*
X100584862Y-145978038D01*
X100584858Y-145978047D01*
X100554500Y-146091346D01*
X98650000Y-146091346D01*
X98650000Y-145250000D01*
X112550000Y-145250000D01*
X112844744Y-146350000D01*
X113650000Y-147155255D01*
X114749999Y-147450000D01*
X114750000Y-147450000D01*
X114750001Y-147450000D01*
X115565805Y-147231405D01*
X115850000Y-147155255D01*
X116655255Y-146350000D01*
X116950000Y-145250000D01*
X143050000Y-145250000D01*
X143344744Y-146350000D01*
X144150000Y-147155255D01*
X145249999Y-147450000D01*
X145250000Y-147450000D01*
X145250001Y-147450000D01*
X146065805Y-147231405D01*
X146350000Y-147155255D01*
X147155255Y-146350000D01*
X147450000Y-145250000D01*
X147450000Y-145249998D01*
X147155255Y-144150000D01*
X146350000Y-143344744D01*
X145250000Y-143050000D01*
X144149999Y-143344744D01*
X143344744Y-144149999D01*
X143050000Y-145250000D01*
X116950000Y-145250000D01*
X116950000Y-145249998D01*
X116655255Y-144150000D01*
X116391206Y-143885951D01*
X116343727Y-143838472D01*
X122592500Y-143838472D01*
X122592500Y-143975527D01*
X122627970Y-144107901D01*
X122627972Y-144107906D01*
X122692523Y-144219711D01*
X122696497Y-144226594D01*
X122793406Y-144323503D01*
X122912095Y-144392028D01*
X122912096Y-144392028D01*
X122912098Y-144392029D01*
X122978285Y-144409764D01*
X123044472Y-144427499D01*
X123044473Y-144427500D01*
X123044475Y-144427500D01*
X123181527Y-144427500D01*
X123181527Y-144427499D01*
X123313905Y-144392028D01*
X123432594Y-144323503D01*
X123529503Y-144226594D01*
X123598028Y-144107905D01*
X123633499Y-143975527D01*
X123633500Y-143975527D01*
X123633500Y-143838473D01*
X123633499Y-143838472D01*
X123598029Y-143706098D01*
X123598027Y-143706093D01*
X123529502Y-143587405D01*
X123432594Y-143490497D01*
X123313906Y-143421972D01*
X123313901Y-143421970D01*
X123181527Y-143386500D01*
X123181525Y-143386500D01*
X123044475Y-143386500D01*
X123044473Y-143386500D01*
X122912098Y-143421970D01*
X122912093Y-143421972D01*
X122793405Y-143490497D01*
X122696497Y-143587405D01*
X122627972Y-143706093D01*
X122627970Y-143706098D01*
X122592500Y-143838472D01*
X116343727Y-143838472D01*
X116211353Y-143706098D01*
X115850000Y-143344744D01*
X114750000Y-143050000D01*
X113649999Y-143344744D01*
X112844744Y-144149999D01*
X112550000Y-145250000D01*
X98650000Y-145250000D01*
X98650000Y-142185472D01*
X147996500Y-142185472D01*
X147996500Y-142322527D01*
X148031970Y-142454901D01*
X148031972Y-142454906D01*
X148100497Y-142573594D01*
X148197406Y-142670503D01*
X148316095Y-142739028D01*
X148316096Y-142739028D01*
X148316098Y-142739029D01*
X148382285Y-142756764D01*
X148448472Y-142774499D01*
X148448473Y-142774500D01*
X148448475Y-142774500D01*
X148585527Y-142774500D01*
X148585527Y-142774499D01*
X148717905Y-142739028D01*
X148836594Y-142670503D01*
X148933503Y-142573594D01*
X149002028Y-142454905D01*
X149037499Y-142322527D01*
X149037500Y-142322527D01*
X149037500Y-142185473D01*
X149037499Y-142185472D01*
X149002029Y-142053098D01*
X149002027Y-142053093D01*
X148933502Y-141934405D01*
X148836594Y-141837497D01*
X148717906Y-141768972D01*
X148717901Y-141768970D01*
X148585527Y-141733500D01*
X148585525Y-141733500D01*
X148448475Y-141733500D01*
X148448473Y-141733500D01*
X148316098Y-141768970D01*
X148316093Y-141768972D01*
X148197405Y-141837497D01*
X148100497Y-141934405D01*
X148031972Y-142053093D01*
X148031970Y-142053098D01*
X147996500Y-142185472D01*
X98650000Y-142185472D01*
X98650000Y-141009472D01*
X126881500Y-141009472D01*
X126881500Y-141146527D01*
X126916970Y-141278901D01*
X126916972Y-141278906D01*
X126976549Y-141382095D01*
X126985497Y-141397594D01*
X127082406Y-141494503D01*
X127116999Y-141514475D01*
X127201091Y-141563026D01*
X127201095Y-141563028D01*
X127201096Y-141563028D01*
X127201098Y-141563029D01*
X127267285Y-141580764D01*
X127333472Y-141598499D01*
X127333473Y-141598500D01*
X127333475Y-141598500D01*
X127470527Y-141598500D01*
X127470527Y-141598499D01*
X127602905Y-141563028D01*
X127651377Y-141535041D01*
X127707529Y-141527648D01*
X127740704Y-141546801D01*
X127834406Y-141640503D01*
X127953095Y-141709028D01*
X127953096Y-141709028D01*
X127953098Y-141709029D01*
X128019285Y-141726764D01*
X128085472Y-141744499D01*
X128085473Y-141744500D01*
X128085475Y-141744500D01*
X128222527Y-141744500D01*
X128222527Y-141744499D01*
X128354905Y-141709028D01*
X128473594Y-141640503D01*
X128570503Y-141543594D01*
X128639028Y-141424905D01*
X128674499Y-141292527D01*
X128674500Y-141292527D01*
X128674500Y-141155473D01*
X128674499Y-141155472D01*
X128666844Y-141126905D01*
X128639028Y-141023095D01*
X128570503Y-140904406D01*
X128523569Y-140857472D01*
X129374500Y-140857472D01*
X129374500Y-140994527D01*
X129409970Y-141126901D01*
X129409972Y-141126906D01*
X129478497Y-141245594D01*
X129575406Y-141342503D01*
X129694095Y-141411028D01*
X129694096Y-141411028D01*
X129694098Y-141411029D01*
X129745868Y-141424901D01*
X129826472Y-141446499D01*
X129826473Y-141446500D01*
X129826475Y-141446500D01*
X129963527Y-141446500D01*
X129963527Y-141446499D01*
X130095905Y-141411028D01*
X130214594Y-141342503D01*
X130311503Y-141245594D01*
X130380028Y-141126905D01*
X130415499Y-140994527D01*
X130415500Y-140994527D01*
X130415500Y-140943472D01*
X145759500Y-140943472D01*
X145759500Y-141080527D01*
X145794970Y-141212901D01*
X145794972Y-141212906D01*
X145840942Y-141292527D01*
X145863497Y-141331594D01*
X145960406Y-141428503D01*
X145991578Y-141446500D01*
X146074721Y-141494503D01*
X146079095Y-141497028D01*
X146079096Y-141497028D01*
X146079098Y-141497029D01*
X146089772Y-141499889D01*
X146211472Y-141532499D01*
X146211473Y-141532500D01*
X146211475Y-141532500D01*
X146260500Y-141532500D01*
X146312826Y-141554174D01*
X146334500Y-141606500D01*
X146334500Y-141651527D01*
X146369970Y-141783901D01*
X146369972Y-141783906D01*
X146400913Y-141837497D01*
X146438497Y-141902594D01*
X146535406Y-141999503D01*
X146654095Y-142068028D01*
X146654096Y-142068028D01*
X146654098Y-142068029D01*
X146720285Y-142085764D01*
X146786472Y-142103499D01*
X146786473Y-142103500D01*
X146786475Y-142103500D01*
X146923527Y-142103500D01*
X146923527Y-142103499D01*
X147055905Y-142068028D01*
X147174594Y-141999503D01*
X147271503Y-141902594D01*
X147340028Y-141783905D01*
X147375499Y-141651527D01*
X147375500Y-141651527D01*
X147375500Y-141514473D01*
X147375499Y-141514472D01*
X147371591Y-141499889D01*
X147352463Y-141428502D01*
X147340029Y-141382098D01*
X147340027Y-141382093D01*
X147271502Y-141263405D01*
X147174594Y-141166497D01*
X147055906Y-141097972D01*
X147055901Y-141097970D01*
X146923527Y-141062500D01*
X146923525Y-141062500D01*
X146874500Y-141062500D01*
X146822174Y-141040826D01*
X146800500Y-140988500D01*
X146800500Y-140943473D01*
X146800499Y-140943472D01*
X146765029Y-140811098D01*
X146765027Y-140811093D01*
X146741289Y-140769977D01*
X146696503Y-140692406D01*
X146636468Y-140632371D01*
X153829500Y-140632371D01*
X153829500Y-140749678D01*
X153859858Y-140862977D01*
X153859862Y-140862986D01*
X153918508Y-140964564D01*
X153918509Y-140964565D01*
X153918511Y-140964568D01*
X154001457Y-141047514D01*
X154001459Y-141047515D01*
X154001460Y-141047516D01*
X154058633Y-141080525D01*
X154103043Y-141106165D01*
X154216346Y-141136524D01*
X154216347Y-141136525D01*
X154216349Y-141136525D01*
X154333653Y-141136525D01*
X154333653Y-141136524D01*
X154446957Y-141106165D01*
X154548543Y-141047514D01*
X154631489Y-140964568D01*
X154690140Y-140862982D01*
X154720499Y-140749678D01*
X154720500Y-140749678D01*
X154720500Y-140652672D01*
X157635783Y-140652672D01*
X157635783Y-140769979D01*
X157666141Y-140883278D01*
X157666145Y-140883287D01*
X157724791Y-140984865D01*
X157724792Y-140984866D01*
X157724794Y-140984869D01*
X157807740Y-141067815D01*
X157807742Y-141067816D01*
X157807743Y-141067817D01*
X157859970Y-141097970D01*
X157909326Y-141126466D01*
X158022629Y-141156825D01*
X158022630Y-141156826D01*
X158022632Y-141156826D01*
X158139936Y-141156826D01*
X158139936Y-141156825D01*
X158253240Y-141126466D01*
X158354826Y-141067815D01*
X158437772Y-140984869D01*
X158496423Y-140883283D01*
X158526782Y-140769979D01*
X158526783Y-140769979D01*
X158526783Y-140652673D01*
X158526782Y-140652672D01*
X158522704Y-140637454D01*
X158496423Y-140539369D01*
X158456663Y-140470503D01*
X158437774Y-140437786D01*
X158437773Y-140437785D01*
X158437772Y-140437783D01*
X158354826Y-140354837D01*
X158354823Y-140354835D01*
X158354822Y-140354834D01*
X158253244Y-140296188D01*
X158253235Y-140296184D01*
X158139936Y-140265826D01*
X158139934Y-140265826D01*
X158022632Y-140265826D01*
X158022630Y-140265826D01*
X157909330Y-140296184D01*
X157909321Y-140296188D01*
X157807743Y-140354834D01*
X157724791Y-140437786D01*
X157666145Y-140539364D01*
X157666141Y-140539373D01*
X157635783Y-140652672D01*
X154720500Y-140652672D01*
X154720500Y-140632372D01*
X154720499Y-140632371D01*
X154695579Y-140539369D01*
X154690140Y-140519068D01*
X154657137Y-140461905D01*
X154631491Y-140417485D01*
X154631490Y-140417484D01*
X154631489Y-140417482D01*
X154548543Y-140334536D01*
X154548540Y-140334534D01*
X154548539Y-140334533D01*
X154446961Y-140275887D01*
X154446952Y-140275883D01*
X154333653Y-140245525D01*
X154333651Y-140245525D01*
X154216349Y-140245525D01*
X154216347Y-140245525D01*
X154103047Y-140275883D01*
X154103038Y-140275887D01*
X154001460Y-140334533D01*
X153918508Y-140417485D01*
X153859862Y-140519063D01*
X153859858Y-140519072D01*
X153829500Y-140632371D01*
X146636468Y-140632371D01*
X146599594Y-140595497D01*
X146541238Y-140561805D01*
X146480906Y-140526972D01*
X146480901Y-140526970D01*
X146348527Y-140491500D01*
X146348525Y-140491500D01*
X146211475Y-140491500D01*
X146211473Y-140491500D01*
X146079098Y-140526970D01*
X146079093Y-140526972D01*
X145960405Y-140595497D01*
X145863497Y-140692405D01*
X145794972Y-140811093D01*
X145794970Y-140811098D01*
X145759500Y-140943472D01*
X130415500Y-140943472D01*
X130415500Y-140857473D01*
X130415499Y-140857472D01*
X130380029Y-140725098D01*
X130380028Y-140725096D01*
X130380028Y-140725095D01*
X130329426Y-140637450D01*
X130322034Y-140581301D01*
X130356510Y-140536369D01*
X130470594Y-140470503D01*
X130567503Y-140373594D01*
X130636028Y-140254905D01*
X130671499Y-140122527D01*
X130671500Y-140122527D01*
X130671500Y-139985473D01*
X130671499Y-139985472D01*
X130636029Y-139853098D01*
X130636027Y-139853093D01*
X130617666Y-139821291D01*
X130567503Y-139734406D01*
X130470594Y-139637497D01*
X130403117Y-139598539D01*
X130351906Y-139568972D01*
X130351901Y-139568970D01*
X130219527Y-139533500D01*
X130219525Y-139533500D01*
X130082475Y-139533500D01*
X130082473Y-139533500D01*
X129950098Y-139568970D01*
X129950093Y-139568972D01*
X129831405Y-139637497D01*
X129734497Y-139734405D01*
X129665972Y-139853093D01*
X129665970Y-139853098D01*
X129630500Y-139985472D01*
X129630500Y-140122527D01*
X129665970Y-140254901D01*
X129665972Y-140254906D01*
X129678086Y-140275887D01*
X129716572Y-140342547D01*
X129723965Y-140398698D01*
X129689486Y-140443632D01*
X129575405Y-140509497D01*
X129478497Y-140606405D01*
X129409972Y-140725093D01*
X129409970Y-140725098D01*
X129374500Y-140857472D01*
X128523569Y-140857472D01*
X128473594Y-140807497D01*
X128354906Y-140738972D01*
X128354901Y-140738970D01*
X128222527Y-140703500D01*
X128222525Y-140703500D01*
X128085475Y-140703500D01*
X128085473Y-140703500D01*
X127953095Y-140738971D01*
X127904620Y-140766958D01*
X127848467Y-140774350D01*
X127815295Y-140755198D01*
X127721594Y-140661497D01*
X127602906Y-140592972D01*
X127602901Y-140592970D01*
X127470527Y-140557500D01*
X127470525Y-140557500D01*
X127333475Y-140557500D01*
X127333473Y-140557500D01*
X127201098Y-140592970D01*
X127201093Y-140592972D01*
X127082405Y-140661497D01*
X126985497Y-140758405D01*
X126916972Y-140877093D01*
X126916970Y-140877098D01*
X126881500Y-141009472D01*
X98650000Y-141009472D01*
X98650000Y-139266346D01*
X123554500Y-139266346D01*
X123554500Y-139383653D01*
X123584858Y-139496952D01*
X123584862Y-139496961D01*
X123643508Y-139598539D01*
X123643509Y-139598540D01*
X123643511Y-139598543D01*
X123726457Y-139681489D01*
X123726459Y-139681490D01*
X123726460Y-139681491D01*
X123775675Y-139709905D01*
X123828043Y-139740140D01*
X123941346Y-139770499D01*
X123941347Y-139770500D01*
X123941349Y-139770500D01*
X124058653Y-139770500D01*
X124058653Y-139770499D01*
X124171957Y-139740140D01*
X124273543Y-139681489D01*
X124356489Y-139598543D01*
X124415140Y-139496957D01*
X124430275Y-139440472D01*
X132070500Y-139440472D01*
X132070500Y-139577527D01*
X132105970Y-139709901D01*
X132105972Y-139709906D01*
X132174497Y-139828594D01*
X132219382Y-139873479D01*
X132241056Y-139925805D01*
X132231142Y-139962805D01*
X132174972Y-140060093D01*
X132174970Y-140060098D01*
X132139500Y-140192472D01*
X132139500Y-140329527D01*
X132174970Y-140461901D01*
X132174972Y-140461906D01*
X132219499Y-140539028D01*
X132243497Y-140580594D01*
X132340406Y-140677503D01*
X132422834Y-140725093D01*
X132446873Y-140738972D01*
X132459095Y-140746028D01*
X132459096Y-140746028D01*
X132459098Y-140746029D01*
X132493317Y-140755198D01*
X132591472Y-140781499D01*
X132591473Y-140781500D01*
X132591475Y-140781500D01*
X132728527Y-140781500D01*
X132728527Y-140781499D01*
X132860905Y-140746028D01*
X132979594Y-140677503D01*
X133076503Y-140580594D01*
X133145028Y-140461905D01*
X133180499Y-140329527D01*
X133180500Y-140329527D01*
X133180500Y-140192473D01*
X133180499Y-140192472D01*
X133145029Y-140060098D01*
X133145027Y-140060093D01*
X133101944Y-139985472D01*
X133076503Y-139941406D01*
X133031617Y-139896520D01*
X133009943Y-139844194D01*
X133019855Y-139807198D01*
X133076028Y-139709905D01*
X133111499Y-139577527D01*
X133111500Y-139577527D01*
X133111500Y-139440473D01*
X133111499Y-139440472D01*
X133076029Y-139308098D01*
X133076027Y-139308093D01*
X133059818Y-139280019D01*
X134948216Y-139280019D01*
X134948216Y-139397326D01*
X134978574Y-139510625D01*
X134978578Y-139510634D01*
X135037224Y-139612212D01*
X135037225Y-139612213D01*
X135037227Y-139612216D01*
X135120173Y-139695162D01*
X135120175Y-139695163D01*
X135120176Y-139695164D01*
X135145703Y-139709902D01*
X135221759Y-139753813D01*
X135335062Y-139784172D01*
X135335063Y-139784173D01*
X135335065Y-139784173D01*
X135452369Y-139784173D01*
X135452369Y-139784172D01*
X135565673Y-139753813D01*
X135667259Y-139695162D01*
X135750205Y-139612216D01*
X135808856Y-139510630D01*
X135839215Y-139397326D01*
X135839216Y-139397326D01*
X135839216Y-139280020D01*
X135839215Y-139280019D01*
X136848216Y-139280019D01*
X136848216Y-139397326D01*
X136878574Y-139510625D01*
X136878578Y-139510634D01*
X136937224Y-139612212D01*
X136937225Y-139612213D01*
X136937227Y-139612216D01*
X137020173Y-139695162D01*
X137020175Y-139695163D01*
X137020176Y-139695164D01*
X137045703Y-139709902D01*
X137121759Y-139753813D01*
X137235062Y-139784172D01*
X137235063Y-139784173D01*
X137235065Y-139784173D01*
X137352369Y-139784173D01*
X137352369Y-139784172D01*
X137465673Y-139753813D01*
X137567259Y-139695162D01*
X137650205Y-139612216D01*
X137708856Y-139510630D01*
X137739215Y-139397326D01*
X137739216Y-139397326D01*
X137739216Y-139391346D01*
X138515269Y-139391346D01*
X138515269Y-139508653D01*
X138545627Y-139621952D01*
X138545631Y-139621961D01*
X138604277Y-139723539D01*
X138604278Y-139723540D01*
X138604280Y-139723543D01*
X138687226Y-139806489D01*
X138788812Y-139865140D01*
X138902115Y-139895499D01*
X138902116Y-139895500D01*
X138902118Y-139895500D01*
X139019422Y-139895500D01*
X139019422Y-139895499D01*
X139132726Y-139865140D01*
X139234312Y-139806489D01*
X139317258Y-139723543D01*
X139375909Y-139621957D01*
X139406268Y-139508653D01*
X139406269Y-139508653D01*
X139406269Y-139391347D01*
X139406268Y-139391346D01*
X139396211Y-139353814D01*
X139375909Y-139278043D01*
X139317258Y-139176457D01*
X139234312Y-139093511D01*
X139234309Y-139093509D01*
X139234308Y-139093508D01*
X139132730Y-139034862D01*
X139132721Y-139034858D01*
X139019422Y-139004500D01*
X139019420Y-139004500D01*
X138902118Y-139004500D01*
X138902116Y-139004500D01*
X138788816Y-139034858D01*
X138788807Y-139034862D01*
X138687229Y-139093508D01*
X138604277Y-139176460D01*
X138545631Y-139278038D01*
X138545627Y-139278047D01*
X138515269Y-139391346D01*
X137739216Y-139391346D01*
X137739216Y-139280020D01*
X137739215Y-139280019D01*
X137735551Y-139266346D01*
X137708856Y-139166716D01*
X137666589Y-139093508D01*
X137650207Y-139065133D01*
X137650206Y-139065132D01*
X137650205Y-139065130D01*
X137567259Y-138982184D01*
X137567256Y-138982182D01*
X137567255Y-138982181D01*
X137492910Y-138939258D01*
X137465677Y-138923535D01*
X137465668Y-138923531D01*
X137352369Y-138893173D01*
X137352367Y-138893173D01*
X137235065Y-138893173D01*
X137235063Y-138893173D01*
X137121763Y-138923531D01*
X137121754Y-138923535D01*
X137020176Y-138982181D01*
X136937224Y-139065133D01*
X136878578Y-139166711D01*
X136878574Y-139166720D01*
X136848216Y-139280019D01*
X135839215Y-139280019D01*
X135835551Y-139266346D01*
X135808856Y-139166716D01*
X135766589Y-139093508D01*
X135750207Y-139065133D01*
X135750206Y-139065132D01*
X135750205Y-139065130D01*
X135667259Y-138982184D01*
X135667256Y-138982182D01*
X135667255Y-138982181D01*
X135565677Y-138923535D01*
X135565668Y-138923531D01*
X135452369Y-138893173D01*
X135452367Y-138893173D01*
X135335065Y-138893173D01*
X135335063Y-138893173D01*
X135221763Y-138923531D01*
X135221754Y-138923535D01*
X135120176Y-138982181D01*
X135037224Y-139065133D01*
X134978578Y-139166711D01*
X134978574Y-139166720D01*
X134948216Y-139280019D01*
X133059818Y-139280019D01*
X133007502Y-139189405D01*
X132910594Y-139092497D01*
X132791906Y-139023972D01*
X132791901Y-139023970D01*
X132659527Y-138988500D01*
X132659525Y-138988500D01*
X132522475Y-138988500D01*
X132522473Y-138988500D01*
X132390098Y-139023970D01*
X132390093Y-139023972D01*
X132271405Y-139092497D01*
X132174497Y-139189405D01*
X132105972Y-139308093D01*
X132105970Y-139308098D01*
X132070500Y-139440472D01*
X124430275Y-139440472D01*
X124445499Y-139383653D01*
X124445500Y-139383653D01*
X124445500Y-139266347D01*
X124445499Y-139266346D01*
X124421414Y-139176460D01*
X124415140Y-139153043D01*
X124356489Y-139051457D01*
X124273543Y-138968511D01*
X124273540Y-138968509D01*
X124273539Y-138968508D01*
X124171961Y-138909862D01*
X124171952Y-138909858D01*
X124060590Y-138880019D01*
X146973216Y-138880019D01*
X146973216Y-138997326D01*
X147003574Y-139110625D01*
X147003578Y-139110634D01*
X147062224Y-139212212D01*
X147062225Y-139212213D01*
X147062227Y-139212216D01*
X147145173Y-139295162D01*
X147145175Y-139295163D01*
X147145176Y-139295164D01*
X147216578Y-139336388D01*
X147246759Y-139353813D01*
X147360062Y-139384172D01*
X147360063Y-139384173D01*
X147360065Y-139384173D01*
X147477369Y-139384173D01*
X147477369Y-139384172D01*
X147590673Y-139353813D01*
X147692259Y-139295162D01*
X147775205Y-139212216D01*
X147833856Y-139110630D01*
X147864215Y-138997326D01*
X147864216Y-138997326D01*
X147864216Y-138880020D01*
X147864215Y-138880019D01*
X147833857Y-138766720D01*
X147833856Y-138766716D01*
X147775205Y-138665130D01*
X147692259Y-138582184D01*
X147692256Y-138582182D01*
X147692255Y-138582181D01*
X147590677Y-138523535D01*
X147590668Y-138523531D01*
X147477369Y-138493173D01*
X147477367Y-138493173D01*
X147360065Y-138493173D01*
X147360063Y-138493173D01*
X147246763Y-138523531D01*
X147246754Y-138523535D01*
X147145176Y-138582181D01*
X147062224Y-138665133D01*
X147003578Y-138766711D01*
X147003574Y-138766720D01*
X146973216Y-138880019D01*
X124060590Y-138880019D01*
X124058653Y-138879500D01*
X124058651Y-138879500D01*
X123941349Y-138879500D01*
X123941347Y-138879500D01*
X123828047Y-138909858D01*
X123828038Y-138909862D01*
X123726460Y-138968508D01*
X123643508Y-139051460D01*
X123584862Y-139153038D01*
X123584858Y-139153047D01*
X123554500Y-139266346D01*
X98650000Y-139266346D01*
X98650000Y-138294637D01*
X139259500Y-138294637D01*
X139259500Y-138405362D01*
X139288155Y-138512303D01*
X139288157Y-138512308D01*
X139343517Y-138608193D01*
X139421807Y-138686483D01*
X139517693Y-138741843D01*
X139517694Y-138741843D01*
X139517696Y-138741844D01*
X139571166Y-138756171D01*
X139624637Y-138770499D01*
X139624638Y-138770500D01*
X139624640Y-138770500D01*
X139735362Y-138770500D01*
X139735362Y-138770499D01*
X139842307Y-138741843D01*
X139938193Y-138686483D01*
X140016483Y-138608193D01*
X140071843Y-138512307D01*
X140100499Y-138405362D01*
X140100500Y-138405362D01*
X140100500Y-138294638D01*
X140100499Y-138294637D01*
X140071844Y-138187696D01*
X140071842Y-138187691D01*
X140036170Y-138125906D01*
X140016483Y-138091807D01*
X139938193Y-138013517D01*
X139842308Y-137958157D01*
X139842303Y-137958155D01*
X139735362Y-137929500D01*
X139735360Y-137929500D01*
X139624640Y-137929500D01*
X139624638Y-137929500D01*
X139517696Y-137958155D01*
X139517691Y-137958157D01*
X139421806Y-138013517D01*
X139343517Y-138091806D01*
X139288157Y-138187691D01*
X139288155Y-138187696D01*
X139259500Y-138294637D01*
X98650000Y-138294637D01*
X98650000Y-136941346D01*
X111179500Y-136941346D01*
X111179500Y-137058653D01*
X111209858Y-137171952D01*
X111209862Y-137171961D01*
X111268508Y-137273539D01*
X111268509Y-137273540D01*
X111268511Y-137273543D01*
X111351457Y-137356489D01*
X111453043Y-137415140D01*
X111566346Y-137445499D01*
X111566347Y-137445500D01*
X111566349Y-137445500D01*
X111683653Y-137445500D01*
X111683653Y-137445499D01*
X111796957Y-137415140D01*
X111898543Y-137356489D01*
X111981489Y-137273543D01*
X112040140Y-137171957D01*
X112070499Y-137058653D01*
X112070500Y-137058653D01*
X112070500Y-136941347D01*
X112070499Y-136941346D01*
X115179500Y-136941346D01*
X115179500Y-137058653D01*
X115209858Y-137171952D01*
X115209862Y-137171961D01*
X115268508Y-137273539D01*
X115268509Y-137273540D01*
X115268511Y-137273543D01*
X115351457Y-137356489D01*
X115453043Y-137415140D01*
X115566346Y-137445499D01*
X115566347Y-137445500D01*
X115566349Y-137445500D01*
X115683653Y-137445500D01*
X115683653Y-137445499D01*
X115796957Y-137415140D01*
X115898543Y-137356489D01*
X115922560Y-137332472D01*
X131609500Y-137332472D01*
X131609500Y-137469527D01*
X131644970Y-137601901D01*
X131644972Y-137601906D01*
X131646993Y-137605406D01*
X131713497Y-137720594D01*
X131810406Y-137817503D01*
X131929095Y-137886028D01*
X131929096Y-137886028D01*
X131929098Y-137886029D01*
X131995285Y-137903764D01*
X132061472Y-137921499D01*
X132061473Y-137921500D01*
X132061475Y-137921500D01*
X132198527Y-137921500D01*
X132198527Y-137921499D01*
X132330905Y-137886028D01*
X132382098Y-137856472D01*
X143816500Y-137856472D01*
X143816500Y-137993527D01*
X143851970Y-138125901D01*
X143851972Y-138125906D01*
X143887644Y-138187691D01*
X143920497Y-138244594D01*
X144017406Y-138341503D01*
X144136095Y-138410028D01*
X144136096Y-138410028D01*
X144136098Y-138410029D01*
X144202285Y-138427764D01*
X144268472Y-138445499D01*
X144268473Y-138445500D01*
X144268475Y-138445500D01*
X144405527Y-138445500D01*
X144405527Y-138445499D01*
X144537905Y-138410028D01*
X144656594Y-138341503D01*
X144753503Y-138244594D01*
X144822028Y-138125905D01*
X144857499Y-137993527D01*
X144857500Y-137993527D01*
X144857500Y-137856473D01*
X144857499Y-137856472D01*
X144822029Y-137724098D01*
X144822027Y-137724093D01*
X144753502Y-137605405D01*
X144656594Y-137508497D01*
X144537906Y-137439972D01*
X144537901Y-137439970D01*
X144405527Y-137404500D01*
X144405525Y-137404500D01*
X144268475Y-137404500D01*
X144268473Y-137404500D01*
X144136098Y-137439970D01*
X144136093Y-137439972D01*
X144017405Y-137508497D01*
X143920497Y-137605405D01*
X143851972Y-137724093D01*
X143851970Y-137724098D01*
X143816500Y-137856472D01*
X132382098Y-137856472D01*
X132449594Y-137817503D01*
X132546503Y-137720594D01*
X132615028Y-137601905D01*
X132650499Y-137469527D01*
X132650500Y-137469527D01*
X132650500Y-137332473D01*
X132650499Y-137332472D01*
X132615029Y-137200098D01*
X132615027Y-137200093D01*
X132592167Y-137160499D01*
X132546503Y-137081406D01*
X132449594Y-136984497D01*
X132330906Y-136915972D01*
X132330901Y-136915970D01*
X132198527Y-136880500D01*
X132198525Y-136880500D01*
X132061475Y-136880500D01*
X132061473Y-136880500D01*
X131929098Y-136915970D01*
X131929093Y-136915972D01*
X131810405Y-136984497D01*
X131713497Y-137081405D01*
X131644972Y-137200093D01*
X131644970Y-137200098D01*
X131609500Y-137332472D01*
X115922560Y-137332472D01*
X115981489Y-137273543D01*
X116040140Y-137171957D01*
X116070499Y-137058653D01*
X116070500Y-137058653D01*
X116070500Y-136941347D01*
X116070499Y-136941346D01*
X116040141Y-136828047D01*
X116040140Y-136828043D01*
X115981489Y-136726457D01*
X115939669Y-136684637D01*
X128579500Y-136684637D01*
X128579500Y-136795362D01*
X128608155Y-136902303D01*
X128608157Y-136902308D01*
X128630698Y-136941349D01*
X128663517Y-136998193D01*
X128741807Y-137076483D01*
X128837693Y-137131843D01*
X128837694Y-137131843D01*
X128837696Y-137131844D01*
X128885279Y-137144594D01*
X128944637Y-137160499D01*
X128944638Y-137160500D01*
X128944640Y-137160500D01*
X129055362Y-137160500D01*
X129055362Y-137160499D01*
X129162307Y-137131843D01*
X129258193Y-137076483D01*
X129336483Y-136998193D01*
X129391843Y-136902307D01*
X129420499Y-136795362D01*
X129420500Y-136795362D01*
X129420500Y-136684638D01*
X129420499Y-136684637D01*
X129579500Y-136684637D01*
X129579500Y-136795362D01*
X129608155Y-136902303D01*
X129608157Y-136902308D01*
X129630698Y-136941349D01*
X129663517Y-136998193D01*
X129741807Y-137076483D01*
X129837693Y-137131843D01*
X129837694Y-137131843D01*
X129837696Y-137131844D01*
X129885279Y-137144594D01*
X129944637Y-137160499D01*
X129944638Y-137160500D01*
X129944640Y-137160500D01*
X130055362Y-137160500D01*
X130055362Y-137160499D01*
X130162307Y-137131843D01*
X130258193Y-137076483D01*
X130336483Y-136998193D01*
X130391843Y-136902307D01*
X130420499Y-136795362D01*
X130420500Y-136795362D01*
X130420500Y-136684638D01*
X130420499Y-136684637D01*
X130391844Y-136577696D01*
X130391842Y-136577691D01*
X130336482Y-136481806D01*
X130258193Y-136403517D01*
X130183670Y-136360491D01*
X130162308Y-136348157D01*
X130162303Y-136348155D01*
X130055362Y-136319500D01*
X130055360Y-136319500D01*
X129944640Y-136319500D01*
X129944638Y-136319500D01*
X129837696Y-136348155D01*
X129837691Y-136348157D01*
X129741806Y-136403517D01*
X129663517Y-136481806D01*
X129608157Y-136577691D01*
X129608155Y-136577696D01*
X129579500Y-136684637D01*
X129420499Y-136684637D01*
X129391844Y-136577696D01*
X129391842Y-136577691D01*
X129336482Y-136481806D01*
X129258193Y-136403517D01*
X129162308Y-136348157D01*
X129162303Y-136348155D01*
X129055362Y-136319500D01*
X129055360Y-136319500D01*
X128944640Y-136319500D01*
X128944638Y-136319500D01*
X128837696Y-136348155D01*
X128837691Y-136348157D01*
X128741806Y-136403517D01*
X128663517Y-136481806D01*
X128608157Y-136577691D01*
X128608155Y-136577696D01*
X128579500Y-136684637D01*
X115939669Y-136684637D01*
X115898543Y-136643511D01*
X115898540Y-136643509D01*
X115898539Y-136643508D01*
X115796961Y-136584862D01*
X115796952Y-136584858D01*
X115683653Y-136554500D01*
X115683651Y-136554500D01*
X115566349Y-136554500D01*
X115566347Y-136554500D01*
X115453047Y-136584858D01*
X115453038Y-136584862D01*
X115351460Y-136643508D01*
X115268508Y-136726460D01*
X115209862Y-136828038D01*
X115209858Y-136828047D01*
X115179500Y-136941346D01*
X112070499Y-136941346D01*
X112040141Y-136828047D01*
X112040140Y-136828043D01*
X111981489Y-136726457D01*
X111898543Y-136643511D01*
X111898540Y-136643509D01*
X111898539Y-136643508D01*
X111796961Y-136584862D01*
X111796952Y-136584858D01*
X111683653Y-136554500D01*
X111683651Y-136554500D01*
X111566349Y-136554500D01*
X111566347Y-136554500D01*
X111453047Y-136584858D01*
X111453038Y-136584862D01*
X111351460Y-136643508D01*
X111268508Y-136726460D01*
X111209862Y-136828038D01*
X111209858Y-136828047D01*
X111179500Y-136941346D01*
X98650000Y-136941346D01*
X98650000Y-136303472D01*
X132971500Y-136303472D01*
X132971500Y-136440527D01*
X133006970Y-136572901D01*
X133006972Y-136572906D01*
X133070878Y-136683594D01*
X133075497Y-136691594D01*
X133172406Y-136788503D01*
X133240898Y-136828047D01*
X133277238Y-136849028D01*
X133291095Y-136857028D01*
X133291096Y-136857028D01*
X133291098Y-136857029D01*
X133357285Y-136874764D01*
X133423472Y-136892499D01*
X133423473Y-136892500D01*
X133423475Y-136892500D01*
X133560527Y-136892500D01*
X133560527Y-136892499D01*
X133692905Y-136857028D01*
X133811594Y-136788503D01*
X133908503Y-136691594D01*
X133977028Y-136572905D01*
X134012499Y-136440527D01*
X134012500Y-136440527D01*
X134012500Y-136303472D01*
X134010356Y-136295472D01*
X134731500Y-136295472D01*
X134731500Y-136432527D01*
X134766970Y-136564901D01*
X134766972Y-136564906D01*
X134801144Y-136624093D01*
X134835497Y-136683594D01*
X134932406Y-136780503D01*
X135051095Y-136849028D01*
X135051096Y-136849028D01*
X135051098Y-136849029D01*
X135080954Y-136857029D01*
X135183472Y-136884499D01*
X135183473Y-136884500D01*
X135183475Y-136884500D01*
X135320527Y-136884500D01*
X135320527Y-136884499D01*
X135452905Y-136849028D01*
X135571594Y-136780503D01*
X135595625Y-136756472D01*
X146334500Y-136756472D01*
X146334500Y-136893527D01*
X146369970Y-137025901D01*
X146369972Y-137025906D01*
X146399173Y-137076483D01*
X146438497Y-137144594D01*
X146535406Y-137241503D01*
X146654095Y-137310028D01*
X146654096Y-137310028D01*
X146654098Y-137310029D01*
X146720285Y-137327764D01*
X146786472Y-137345499D01*
X146786473Y-137345500D01*
X146786475Y-137345500D01*
X146923527Y-137345500D01*
X146923527Y-137345499D01*
X147055905Y-137310028D01*
X147174594Y-137241503D01*
X147271503Y-137144594D01*
X147340028Y-137025905D01*
X147375499Y-136893527D01*
X147375500Y-136893527D01*
X147375500Y-136756473D01*
X147375499Y-136756472D01*
X147367456Y-136726457D01*
X147340028Y-136624095D01*
X147334858Y-136615141D01*
X147271502Y-136505405D01*
X147174594Y-136408497D01*
X147055906Y-136339972D01*
X147055901Y-136339970D01*
X146923527Y-136304500D01*
X146923525Y-136304500D01*
X146786475Y-136304500D01*
X146786473Y-136304500D01*
X146654098Y-136339970D01*
X146654093Y-136339972D01*
X146535405Y-136408497D01*
X146438497Y-136505405D01*
X146369972Y-136624093D01*
X146369970Y-136624098D01*
X146334500Y-136756472D01*
X135595625Y-136756472D01*
X135668503Y-136683594D01*
X135737028Y-136564905D01*
X135772499Y-136432527D01*
X135772500Y-136432527D01*
X135772500Y-136295473D01*
X135772499Y-136295472D01*
X135737028Y-136163095D01*
X135724471Y-136141346D01*
X137879500Y-136141346D01*
X137879500Y-136258653D01*
X137909858Y-136371952D01*
X137909862Y-136371961D01*
X137968508Y-136473539D01*
X137968509Y-136473540D01*
X137968511Y-136473543D01*
X138051457Y-136556489D01*
X138051459Y-136556490D01*
X138051460Y-136556491D01*
X138079883Y-136572901D01*
X138153043Y-136615140D01*
X138266346Y-136645499D01*
X138266347Y-136645500D01*
X138266349Y-136645500D01*
X138383653Y-136645500D01*
X138383653Y-136645499D01*
X138496957Y-136615140D01*
X138598543Y-136556489D01*
X138681489Y-136473543D01*
X138740140Y-136371957D01*
X138770499Y-136258653D01*
X138770500Y-136258653D01*
X138770500Y-136216346D01*
X143782127Y-136216346D01*
X143782127Y-136333653D01*
X143812485Y-136446952D01*
X143812489Y-136446961D01*
X143871135Y-136548539D01*
X143871136Y-136548540D01*
X143871138Y-136548543D01*
X143954084Y-136631489D01*
X143954086Y-136631490D01*
X143954087Y-136631491D01*
X144025489Y-136672715D01*
X144055670Y-136690140D01*
X144168973Y-136720499D01*
X144168974Y-136720500D01*
X144168976Y-136720500D01*
X144286280Y-136720500D01*
X144286280Y-136720499D01*
X144399584Y-136690140D01*
X144402169Y-136688647D01*
X144404088Y-136687540D01*
X144404089Y-136687539D01*
X144480347Y-136643511D01*
X144501170Y-136631489D01*
X144584116Y-136548543D01*
X144642767Y-136446957D01*
X144673126Y-136333653D01*
X144673127Y-136333653D01*
X144673127Y-136216347D01*
X144673126Y-136216346D01*
X144658858Y-136163098D01*
X144642767Y-136103043D01*
X144599463Y-136028038D01*
X144584118Y-136001460D01*
X144584117Y-136001459D01*
X144584116Y-136001457D01*
X144501170Y-135918511D01*
X144501167Y-135918509D01*
X144501166Y-135918508D01*
X144399588Y-135859862D01*
X144399579Y-135859858D01*
X144286280Y-135829500D01*
X144286278Y-135829500D01*
X144168976Y-135829500D01*
X144168974Y-135829500D01*
X144055674Y-135859858D01*
X144055665Y-135859862D01*
X143954087Y-135918508D01*
X143871135Y-136001460D01*
X143812489Y-136103038D01*
X143812485Y-136103047D01*
X143782127Y-136216346D01*
X138770500Y-136216346D01*
X138770500Y-136141347D01*
X138770499Y-136141346D01*
X138763841Y-136116499D01*
X138740140Y-136028043D01*
X138681489Y-135926457D01*
X138598543Y-135843511D01*
X138598540Y-135843509D01*
X138598539Y-135843508D01*
X138496961Y-135784862D01*
X138496952Y-135784858D01*
X138383653Y-135754500D01*
X138383651Y-135754500D01*
X138266349Y-135754500D01*
X138266347Y-135754500D01*
X138153047Y-135784858D01*
X138153038Y-135784862D01*
X138051460Y-135843508D01*
X137968508Y-135926460D01*
X137909862Y-136028038D01*
X137909858Y-136028047D01*
X137879500Y-136141346D01*
X135724471Y-136141346D01*
X135710126Y-136116499D01*
X135668503Y-136044406D01*
X135571594Y-135947497D01*
X135521389Y-135918511D01*
X135452906Y-135878972D01*
X135452901Y-135878970D01*
X135320527Y-135843500D01*
X135320525Y-135843500D01*
X135183475Y-135843500D01*
X135183473Y-135843500D01*
X135051098Y-135878970D01*
X135051093Y-135878972D01*
X134932405Y-135947497D01*
X134835497Y-136044405D01*
X134766972Y-136163093D01*
X134766970Y-136163098D01*
X134731500Y-136295472D01*
X134010356Y-136295472D01*
X133977029Y-136171098D01*
X133975251Y-136166805D01*
X133975253Y-136110168D01*
X134015302Y-136070120D01*
X134071939Y-136070122D01*
X134080620Y-136074403D01*
X134092091Y-136081026D01*
X134092093Y-136081026D01*
X134092095Y-136081028D01*
X134092096Y-136081028D01*
X134092098Y-136081029D01*
X134140465Y-136093989D01*
X134224472Y-136116499D01*
X134224473Y-136116500D01*
X134224475Y-136116500D01*
X134361527Y-136116500D01*
X134361527Y-136116499D01*
X134493905Y-136081028D01*
X134612594Y-136012503D01*
X134709503Y-135915594D01*
X134778028Y-135796905D01*
X134813499Y-135664527D01*
X134813500Y-135664527D01*
X134813500Y-135527473D01*
X134813499Y-135527472D01*
X134778029Y-135395098D01*
X134778027Y-135395093D01*
X134759666Y-135363291D01*
X134709503Y-135276406D01*
X134612594Y-135179497D01*
X134584067Y-135163027D01*
X134493906Y-135110972D01*
X134493901Y-135110970D01*
X134361527Y-135075500D01*
X134361525Y-135075500D01*
X134224475Y-135075500D01*
X134224473Y-135075500D01*
X134092098Y-135110970D01*
X134092093Y-135110972D01*
X133973405Y-135179497D01*
X133876497Y-135276405D01*
X133807972Y-135395093D01*
X133807970Y-135395098D01*
X133772500Y-135527472D01*
X133772500Y-135664527D01*
X133807972Y-135796907D01*
X133809749Y-135801198D01*
X133809745Y-135857835D01*
X133769693Y-135897880D01*
X133713056Y-135897876D01*
X133704380Y-135893597D01*
X133692906Y-135886972D01*
X133692901Y-135886970D01*
X133560527Y-135851500D01*
X133560525Y-135851500D01*
X133423475Y-135851500D01*
X133423473Y-135851500D01*
X133291098Y-135886970D01*
X133291093Y-135886972D01*
X133172405Y-135955497D01*
X133075497Y-136052405D01*
X133006972Y-136171093D01*
X133006970Y-136171098D01*
X132971500Y-136303472D01*
X98650000Y-136303472D01*
X98650000Y-135131472D01*
X121934500Y-135131472D01*
X121934500Y-135268527D01*
X121969970Y-135400901D01*
X121969972Y-135400906D01*
X122033558Y-135511039D01*
X122038497Y-135519594D01*
X122135406Y-135616503D01*
X122197992Y-135652637D01*
X122250580Y-135682999D01*
X122254095Y-135685028D01*
X122254096Y-135685028D01*
X122254098Y-135685029D01*
X122320285Y-135702764D01*
X122386472Y-135720499D01*
X122386473Y-135720500D01*
X122386475Y-135720500D01*
X122523527Y-135720500D01*
X122523527Y-135720499D01*
X122655905Y-135685028D01*
X122774594Y-135616503D01*
X122871503Y-135519594D01*
X122940028Y-135400905D01*
X122975499Y-135268527D01*
X122975500Y-135268527D01*
X122975500Y-135178846D01*
X129654500Y-135178846D01*
X129654500Y-135296153D01*
X129684858Y-135409452D01*
X129684862Y-135409461D01*
X129743508Y-135511039D01*
X129743509Y-135511040D01*
X129743511Y-135511043D01*
X129826457Y-135593989D01*
X129928043Y-135652640D01*
X130041346Y-135682999D01*
X130041347Y-135683000D01*
X130041349Y-135683000D01*
X130080500Y-135683000D01*
X130132826Y-135704674D01*
X130154500Y-135757000D01*
X130154500Y-135796153D01*
X130184858Y-135909452D01*
X130184862Y-135909461D01*
X130243508Y-136011039D01*
X130243509Y-136011040D01*
X130243511Y-136011043D01*
X130326457Y-136093989D01*
X130326459Y-136093990D01*
X130326460Y-136093991D01*
X130365445Y-136116499D01*
X130428043Y-136152640D01*
X130541346Y-136182999D01*
X130541347Y-136183000D01*
X130541349Y-136183000D01*
X130658653Y-136183000D01*
X130658653Y-136182999D01*
X130771957Y-136152640D01*
X130873543Y-136093989D01*
X130956489Y-136011043D01*
X131015140Y-135909457D01*
X131045499Y-135796153D01*
X131045500Y-135796153D01*
X131045500Y-135678847D01*
X131045499Y-135678846D01*
X131038477Y-135652641D01*
X131015140Y-135565543D01*
X130956489Y-135463957D01*
X130873543Y-135381011D01*
X130873540Y-135381009D01*
X130873539Y-135381008D01*
X130771961Y-135322362D01*
X130771952Y-135322358D01*
X130658653Y-135292000D01*
X130658651Y-135292000D01*
X130619500Y-135292000D01*
X130567174Y-135270326D01*
X130545500Y-135218000D01*
X130545500Y-135178847D01*
X130545499Y-135178846D01*
X130541260Y-135163027D01*
X130515140Y-135065543D01*
X130476775Y-134999093D01*
X130456491Y-134963960D01*
X130456490Y-134963959D01*
X130456489Y-134963957D01*
X130373543Y-134881011D01*
X130373540Y-134881009D01*
X130373539Y-134881008D01*
X130271961Y-134822362D01*
X130271952Y-134822358D01*
X130158653Y-134792000D01*
X130158651Y-134792000D01*
X130041349Y-134792000D01*
X130041347Y-134792000D01*
X129928047Y-134822358D01*
X129928038Y-134822362D01*
X129826460Y-134881008D01*
X129743508Y-134963960D01*
X129684862Y-135065538D01*
X129684858Y-135065547D01*
X129654500Y-135178846D01*
X122975500Y-135178846D01*
X122975500Y-135131473D01*
X122975499Y-135131472D01*
X122970005Y-135110970D01*
X122940028Y-134999095D01*
X122939161Y-134997594D01*
X122871852Y-134881011D01*
X122871503Y-134880406D01*
X122774594Y-134783497D01*
X122767304Y-134779288D01*
X122655906Y-134714972D01*
X122655901Y-134714970D01*
X122523527Y-134679500D01*
X122523525Y-134679500D01*
X122386475Y-134679500D01*
X122386473Y-134679500D01*
X122254098Y-134714970D01*
X122254093Y-134714972D01*
X122135405Y-134783497D01*
X122038497Y-134880405D01*
X121969972Y-134999093D01*
X121969970Y-134999098D01*
X121934500Y-135131472D01*
X98650000Y-135131472D01*
X98650000Y-134249038D01*
X100529500Y-134249038D01*
X100529500Y-134390961D01*
X100557187Y-134530156D01*
X100557190Y-134530166D01*
X100611498Y-134661280D01*
X100611500Y-134661283D01*
X100611501Y-134661285D01*
X100690351Y-134779292D01*
X100790708Y-134879649D01*
X100908715Y-134958499D01*
X100908720Y-134958501D01*
X100908719Y-134958501D01*
X101003100Y-134997594D01*
X101039838Y-135012811D01*
X101179037Y-135040500D01*
X101179039Y-135040500D01*
X101920961Y-135040500D01*
X101920963Y-135040500D01*
X102060162Y-135012811D01*
X102191285Y-134958499D01*
X102309292Y-134879649D01*
X102409649Y-134779292D01*
X102488499Y-134661285D01*
X102542811Y-134530162D01*
X102570500Y-134390963D01*
X102570500Y-134249037D01*
X102542811Y-134109838D01*
X102528615Y-134075565D01*
X102488501Y-133978719D01*
X102488500Y-133978717D01*
X102488499Y-133978715D01*
X102409649Y-133860708D01*
X102309292Y-133760351D01*
X102296415Y-133751747D01*
X102273555Y-133736472D01*
X102191285Y-133681501D01*
X102191281Y-133681499D01*
X102191279Y-133681498D01*
X102191280Y-133681498D01*
X102060166Y-133627190D01*
X102060156Y-133627187D01*
X101966941Y-133608645D01*
X101920963Y-133599500D01*
X101179037Y-133599500D01*
X101139575Y-133607349D01*
X101039843Y-133627187D01*
X101039833Y-133627190D01*
X100908719Y-133681498D01*
X100790711Y-133760348D01*
X100690348Y-133860711D01*
X100611498Y-133978719D01*
X100557190Y-134109833D01*
X100557187Y-134109843D01*
X100529500Y-134249038D01*
X98650000Y-134249038D01*
X98650000Y-132890000D01*
X104275000Y-132890000D01*
X104398926Y-133352500D01*
X104711417Y-133664990D01*
X104733091Y-133717316D01*
X104711417Y-133769642D01*
X104620348Y-133860711D01*
X104541498Y-133978719D01*
X104487190Y-134109833D01*
X104487187Y-134109843D01*
X104459500Y-134249038D01*
X104459500Y-134390961D01*
X104487187Y-134530156D01*
X104487190Y-134530166D01*
X104541498Y-134661280D01*
X104541500Y-134661283D01*
X104541501Y-134661285D01*
X104620351Y-134779292D01*
X104720708Y-134879649D01*
X104838715Y-134958499D01*
X104838720Y-134958501D01*
X104838719Y-134958501D01*
X104933100Y-134997594D01*
X104969838Y-135012811D01*
X105109037Y-135040500D01*
X105109039Y-135040500D01*
X106350961Y-135040500D01*
X106350963Y-135040500D01*
X106490162Y-135012811D01*
X106621285Y-134958499D01*
X106739292Y-134879649D01*
X106839649Y-134779292D01*
X106918499Y-134661285D01*
X106939960Y-134609473D01*
X106939960Y-134609472D01*
X137231500Y-134609472D01*
X137231500Y-134746527D01*
X137266970Y-134878901D01*
X137266972Y-134878906D01*
X137316077Y-134963957D01*
X137335497Y-134997594D01*
X137432406Y-135094503D01*
X137551095Y-135163028D01*
X137551096Y-135163028D01*
X137551098Y-135163029D01*
X137610127Y-135178846D01*
X137683472Y-135198499D01*
X137683473Y-135198500D01*
X137683475Y-135198500D01*
X137820527Y-135198500D01*
X137820527Y-135198499D01*
X137952905Y-135163028D01*
X138071594Y-135094503D01*
X138168503Y-134997594D01*
X138237028Y-134878905D01*
X138272499Y-134746527D01*
X138272500Y-134746527D01*
X138272500Y-134609473D01*
X138272499Y-134609472D01*
X138237029Y-134477098D01*
X138237027Y-134477093D01*
X138204597Y-134420923D01*
X138168503Y-134358406D01*
X138071594Y-134261497D01*
X137952906Y-134192972D01*
X137952901Y-134192970D01*
X137820527Y-134157500D01*
X137820525Y-134157500D01*
X137683475Y-134157500D01*
X137683473Y-134157500D01*
X137551098Y-134192970D01*
X137551093Y-134192972D01*
X137432405Y-134261497D01*
X137335497Y-134358405D01*
X137266972Y-134477093D01*
X137266970Y-134477098D01*
X137231500Y-134609472D01*
X106939960Y-134609472D01*
X106953698Y-134576307D01*
X106972809Y-134530166D01*
X106972811Y-134530162D01*
X106994540Y-134420922D01*
X107026006Y-134373831D01*
X107081555Y-134362782D01*
X107086267Y-134363881D01*
X107164854Y-134384938D01*
X107164855Y-134384939D01*
X107164857Y-134384939D01*
X107282161Y-134384939D01*
X107282161Y-134384938D01*
X107395465Y-134354579D01*
X107497051Y-134295928D01*
X107579997Y-134212982D01*
X107623085Y-134138350D01*
X107668018Y-134103873D01*
X107706325Y-134103873D01*
X107713979Y-134105924D01*
X107713980Y-134105924D01*
X107831284Y-134105924D01*
X107831284Y-134105923D01*
X107944588Y-134075564D01*
X108046174Y-134016913D01*
X108129120Y-133933967D01*
X108187771Y-133832381D01*
X108204582Y-133769642D01*
X108213470Y-133736472D01*
X128775500Y-133736472D01*
X128775500Y-133873527D01*
X128810970Y-134005901D01*
X128810972Y-134005906D01*
X128871877Y-134111396D01*
X128879497Y-134124594D01*
X128976406Y-134221503D01*
X129095095Y-134290028D01*
X129095096Y-134290028D01*
X129095098Y-134290029D01*
X129117121Y-134295930D01*
X129227472Y-134325499D01*
X129227473Y-134325500D01*
X129227475Y-134325500D01*
X129364527Y-134325500D01*
X129364527Y-134325499D01*
X129496905Y-134290028D01*
X129615594Y-134221503D01*
X129712503Y-134124594D01*
X129781028Y-134005905D01*
X129816499Y-133873527D01*
X129816500Y-133873527D01*
X129816500Y-133736473D01*
X129816499Y-133736472D01*
X129811837Y-133719075D01*
X129797345Y-133664990D01*
X129781029Y-133604098D01*
X129781027Y-133604093D01*
X129734958Y-133524299D01*
X129712503Y-133485406D01*
X129676569Y-133449472D01*
X143824500Y-133449472D01*
X143824500Y-133586527D01*
X143859970Y-133718901D01*
X143859972Y-133718906D01*
X143884678Y-133761697D01*
X143928497Y-133837594D01*
X144025406Y-133934503D01*
X144144095Y-134003028D01*
X144144096Y-134003028D01*
X144144098Y-134003029D01*
X144195913Y-134016913D01*
X144276472Y-134038499D01*
X144276473Y-134038500D01*
X144276475Y-134038500D01*
X144413527Y-134038500D01*
X144413527Y-134038499D01*
X144545905Y-134003028D01*
X144664594Y-133934503D01*
X144761503Y-133837594D01*
X144830028Y-133718905D01*
X144865499Y-133586527D01*
X144865500Y-133586527D01*
X144865500Y-133449473D01*
X144865499Y-133449472D01*
X144864434Y-133445499D01*
X144830799Y-133319972D01*
X144830029Y-133317098D01*
X144830027Y-133317093D01*
X144787460Y-133243365D01*
X144761503Y-133198406D01*
X144664594Y-133101497D01*
X144545906Y-133032972D01*
X144545901Y-133032970D01*
X144413527Y-132997500D01*
X144413525Y-132997500D01*
X144276475Y-132997500D01*
X144276473Y-132997500D01*
X144144098Y-133032970D01*
X144144093Y-133032972D01*
X144025405Y-133101497D01*
X143928497Y-133198405D01*
X143859972Y-133317093D01*
X143859970Y-133317098D01*
X143824500Y-133449472D01*
X129676569Y-133449472D01*
X129615594Y-133388497D01*
X129560158Y-133356491D01*
X129496906Y-133319972D01*
X129496901Y-133319970D01*
X129364527Y-133284500D01*
X129364525Y-133284500D01*
X129227475Y-133284500D01*
X129227473Y-133284500D01*
X129095098Y-133319970D01*
X129095093Y-133319972D01*
X128976405Y-133388497D01*
X128879497Y-133485405D01*
X128810972Y-133604093D01*
X128810970Y-133604098D01*
X128775500Y-133736472D01*
X108213470Y-133736472D01*
X108218129Y-133719084D01*
X108218129Y-133719080D01*
X108218131Y-133719075D01*
X108218131Y-133601773D01*
X108218131Y-133601771D01*
X108218130Y-133601770D01*
X108213086Y-133582947D01*
X108187771Y-133488467D01*
X108145436Y-133415141D01*
X108129122Y-133386884D01*
X108129121Y-133386883D01*
X108129120Y-133386881D01*
X108046174Y-133303935D01*
X108046171Y-133303933D01*
X108046170Y-133303932D01*
X107944592Y-133245286D01*
X107944583Y-133245282D01*
X107831284Y-133214924D01*
X107831282Y-133214924D01*
X107713980Y-133214924D01*
X107713978Y-133214924D01*
X107600678Y-133245282D01*
X107600669Y-133245286D01*
X107499091Y-133303932D01*
X107416140Y-133386883D01*
X107373053Y-133461512D01*
X107328119Y-133495990D01*
X107289819Y-133495991D01*
X107282159Y-133493939D01*
X107164857Y-133493939D01*
X107164855Y-133493939D01*
X107051555Y-133524297D01*
X107051546Y-133524301D01*
X106949968Y-133582947D01*
X106867015Y-133665900D01*
X106831612Y-133727219D01*
X106786679Y-133761697D01*
X106730526Y-133754303D01*
X106726415Y-133751747D01*
X106703556Y-133736473D01*
X106621285Y-133681501D01*
X106621281Y-133681499D01*
X106621279Y-133681498D01*
X106621280Y-133681498D01*
X106490166Y-133627190D01*
X106490156Y-133627187D01*
X106396941Y-133608645D01*
X106350963Y-133599500D01*
X105932725Y-133599500D01*
X105880399Y-133577826D01*
X105858725Y-133525500D01*
X105880399Y-133473174D01*
X105938436Y-133415137D01*
X106001073Y-133352500D01*
X106111242Y-132941346D01*
X111517000Y-132941346D01*
X111517000Y-133058653D01*
X111547358Y-133171952D01*
X111547362Y-133171961D01*
X111606008Y-133273539D01*
X111606009Y-133273540D01*
X111606011Y-133273543D01*
X111688957Y-133356489D01*
X111688959Y-133356490D01*
X111688960Y-133356491D01*
X111739205Y-133385500D01*
X111790543Y-133415140D01*
X111903846Y-133445499D01*
X111903847Y-133445500D01*
X111903849Y-133445500D01*
X112021153Y-133445500D01*
X112021153Y-133445499D01*
X112134457Y-133415140D01*
X112236043Y-133356489D01*
X112318989Y-133273543D01*
X112377640Y-133171957D01*
X112407999Y-133058653D01*
X112408000Y-133058653D01*
X112408000Y-132941347D01*
X112407999Y-132941346D01*
X112405903Y-132933525D01*
X112377640Y-132828043D01*
X112342687Y-132767503D01*
X112318991Y-132726460D01*
X112318990Y-132726459D01*
X112318989Y-132726457D01*
X112236043Y-132643511D01*
X112236040Y-132643509D01*
X112236039Y-132643508D01*
X112134461Y-132584862D01*
X112134452Y-132584858D01*
X112021153Y-132554500D01*
X112021151Y-132554500D01*
X111903849Y-132554500D01*
X111903847Y-132554500D01*
X111790547Y-132584858D01*
X111790538Y-132584862D01*
X111688960Y-132643508D01*
X111606008Y-132726460D01*
X111547362Y-132828038D01*
X111547358Y-132828047D01*
X111517000Y-132941346D01*
X106111242Y-132941346D01*
X106125000Y-132890000D01*
X106001073Y-132427500D01*
X105662500Y-132088926D01*
X105354776Y-132006472D01*
X108385500Y-132006472D01*
X108385500Y-132143527D01*
X108420970Y-132275901D01*
X108420972Y-132275906D01*
X108460575Y-132344500D01*
X108489497Y-132394594D01*
X108586406Y-132491503D01*
X108664577Y-132536635D01*
X108691025Y-132551905D01*
X108705095Y-132560028D01*
X108705096Y-132560028D01*
X108705098Y-132560029D01*
X108771285Y-132577764D01*
X108837472Y-132595499D01*
X108837473Y-132595500D01*
X108837475Y-132595500D01*
X108974527Y-132595500D01*
X108974527Y-132595499D01*
X109106905Y-132560028D01*
X109225594Y-132491503D01*
X109322503Y-132394594D01*
X109391028Y-132275905D01*
X109426499Y-132143527D01*
X109426500Y-132143527D01*
X109426500Y-132006473D01*
X109426499Y-132006472D01*
X109412882Y-131955652D01*
X109409049Y-131941346D01*
X124867000Y-131941346D01*
X124867000Y-132058653D01*
X124897358Y-132171952D01*
X124897362Y-132171961D01*
X124956008Y-132273539D01*
X124956009Y-132273540D01*
X124956011Y-132273543D01*
X125038957Y-132356489D01*
X125038959Y-132356490D01*
X125038960Y-132356491D01*
X125104956Y-132394594D01*
X125140543Y-132415140D01*
X125253846Y-132445499D01*
X125253847Y-132445500D01*
X125253849Y-132445500D01*
X125371153Y-132445500D01*
X125371153Y-132445499D01*
X125484457Y-132415140D01*
X125586043Y-132356489D01*
X125660060Y-132282472D01*
X128773500Y-132282472D01*
X128773500Y-132419527D01*
X128808970Y-132551901D01*
X128808972Y-132551906D01*
X128861859Y-132643508D01*
X128877497Y-132670594D01*
X128974406Y-132767503D01*
X129024582Y-132796472D01*
X129079264Y-132828043D01*
X129093095Y-132836028D01*
X129093096Y-132836028D01*
X129093098Y-132836029D01*
X129159285Y-132853764D01*
X129225472Y-132871499D01*
X129225473Y-132871500D01*
X129225475Y-132871500D01*
X129362527Y-132871500D01*
X129362527Y-132871499D01*
X129494905Y-132836028D01*
X129563418Y-132796472D01*
X145529500Y-132796472D01*
X145529500Y-132933527D01*
X145564970Y-133065901D01*
X145564972Y-133065906D01*
X145585521Y-133101497D01*
X145633497Y-133184594D01*
X145730406Y-133281503D01*
X145849095Y-133350028D01*
X145849096Y-133350028D01*
X145849098Y-133350029D01*
X145915285Y-133367764D01*
X145981472Y-133385499D01*
X145981473Y-133385500D01*
X145981475Y-133385500D01*
X146118527Y-133385500D01*
X146118527Y-133385499D01*
X146250905Y-133350028D01*
X146369594Y-133281503D01*
X146466503Y-133184594D01*
X146535028Y-133065905D01*
X146570499Y-132933527D01*
X146570500Y-132933527D01*
X146570500Y-132796473D01*
X146570499Y-132796472D01*
X146562736Y-132767502D01*
X146551738Y-132726457D01*
X146535029Y-132664098D01*
X146535027Y-132664093D01*
X146489282Y-132584860D01*
X146466503Y-132545406D01*
X146369594Y-132448497D01*
X146333226Y-132427500D01*
X146250906Y-132379972D01*
X146250901Y-132379970D01*
X146118527Y-132344500D01*
X146118525Y-132344500D01*
X145981475Y-132344500D01*
X145981473Y-132344500D01*
X145849098Y-132379970D01*
X145849093Y-132379972D01*
X145730405Y-132448497D01*
X145633497Y-132545405D01*
X145564972Y-132664093D01*
X145564970Y-132664098D01*
X145529500Y-132796472D01*
X129563418Y-132796472D01*
X129613594Y-132767503D01*
X129710503Y-132670594D01*
X129779028Y-132551905D01*
X129814499Y-132419527D01*
X129814500Y-132419527D01*
X129814500Y-132282473D01*
X129814499Y-132282472D01*
X129812739Y-132275905D01*
X129779028Y-132150095D01*
X129710503Y-132031406D01*
X129630127Y-131951030D01*
X129608453Y-131898704D01*
X129630126Y-131846379D01*
X129702963Y-131773543D01*
X129761614Y-131671957D01*
X129791973Y-131558653D01*
X129791974Y-131558653D01*
X129791974Y-131441347D01*
X129791973Y-131441346D01*
X129761615Y-131328047D01*
X129761614Y-131328043D01*
X129702963Y-131226457D01*
X129650978Y-131174472D01*
X132386500Y-131174472D01*
X132386500Y-131311527D01*
X132421970Y-131443901D01*
X132421972Y-131443906D01*
X132488222Y-131558653D01*
X132490497Y-131562594D01*
X132587406Y-131659503D01*
X132706095Y-131728028D01*
X132706096Y-131728028D01*
X132706098Y-131728029D01*
X132772285Y-131745764D01*
X132838472Y-131763499D01*
X132838473Y-131763500D01*
X132838475Y-131763500D01*
X132975527Y-131763500D01*
X132975527Y-131763499D01*
X133107905Y-131728028D01*
X133226594Y-131659503D01*
X133323503Y-131562594D01*
X133392028Y-131443905D01*
X133427499Y-131311527D01*
X133427500Y-131311527D01*
X133427500Y-131174473D01*
X133427499Y-131174472D01*
X133426923Y-131172324D01*
X133403488Y-131084862D01*
X133399325Y-131069325D01*
X133395491Y-131055019D01*
X133610716Y-131055019D01*
X133610716Y-131172326D01*
X133641074Y-131285625D01*
X133641078Y-131285634D01*
X133699724Y-131387212D01*
X133699725Y-131387213D01*
X133699727Y-131387216D01*
X133782673Y-131470162D01*
X133884259Y-131528813D01*
X133997562Y-131559172D01*
X133997563Y-131559173D01*
X133997565Y-131559173D01*
X134114869Y-131559173D01*
X134114869Y-131559172D01*
X134228173Y-131528813D01*
X134329759Y-131470162D01*
X134412705Y-131387216D01*
X134471356Y-131285630D01*
X134501715Y-131172326D01*
X134501716Y-131172326D01*
X134501716Y-131055020D01*
X134501715Y-131055019D01*
X134471357Y-130941720D01*
X134471356Y-130941716D01*
X134412705Y-130840130D01*
X134329759Y-130757184D01*
X134329756Y-130757182D01*
X134329755Y-130757181D01*
X134228177Y-130698535D01*
X134228168Y-130698531D01*
X134114869Y-130668173D01*
X134114867Y-130668173D01*
X133997565Y-130668173D01*
X133997563Y-130668173D01*
X133884263Y-130698531D01*
X133884254Y-130698535D01*
X133782676Y-130757181D01*
X133699724Y-130840133D01*
X133641078Y-130941711D01*
X133641074Y-130941720D01*
X133610716Y-131055019D01*
X133395491Y-131055019D01*
X133392029Y-131042098D01*
X133392027Y-131042093D01*
X133373666Y-131010291D01*
X133323503Y-130923406D01*
X133226594Y-130826497D01*
X133107906Y-130757972D01*
X133107901Y-130757970D01*
X132975527Y-130722500D01*
X132975525Y-130722500D01*
X132838475Y-130722500D01*
X132838473Y-130722500D01*
X132706098Y-130757970D01*
X132706093Y-130757972D01*
X132587405Y-130826497D01*
X132490497Y-130923405D01*
X132421972Y-131042093D01*
X132421970Y-131042098D01*
X132386500Y-131174472D01*
X129650978Y-131174472D01*
X129620017Y-131143511D01*
X129620014Y-131143509D01*
X129620013Y-131143508D01*
X129518435Y-131084862D01*
X129518426Y-131084858D01*
X129405127Y-131054500D01*
X129405125Y-131054500D01*
X129287823Y-131054500D01*
X129287821Y-131054500D01*
X129174521Y-131084858D01*
X129174512Y-131084862D01*
X129072934Y-131143508D01*
X128989982Y-131226460D01*
X128931336Y-131328038D01*
X128931332Y-131328047D01*
X128900974Y-131441346D01*
X128900974Y-131558653D01*
X128931332Y-131671952D01*
X128931336Y-131671961D01*
X128989982Y-131773539D01*
X128989983Y-131773540D01*
X128989985Y-131773543D01*
X129018131Y-131801689D01*
X129039805Y-131854014D01*
X129018131Y-131906340D01*
X129002806Y-131918100D01*
X128974408Y-131934495D01*
X128877497Y-132031405D01*
X128808972Y-132150093D01*
X128808970Y-132150098D01*
X128773500Y-132282472D01*
X125660060Y-132282472D01*
X125668989Y-132273543D01*
X125674885Y-132263329D01*
X125687995Y-132240625D01*
X125707779Y-132206355D01*
X125727640Y-132171957D01*
X125757999Y-132058653D01*
X125758000Y-132058653D01*
X125758000Y-131941347D01*
X125757999Y-131941346D01*
X125751770Y-131918100D01*
X125727640Y-131828043D01*
X125669896Y-131728028D01*
X125668991Y-131726460D01*
X125668990Y-131726459D01*
X125668989Y-131726457D01*
X125586043Y-131643511D01*
X125586040Y-131643509D01*
X125586039Y-131643508D01*
X125484461Y-131584862D01*
X125484452Y-131584858D01*
X125371153Y-131554500D01*
X125371151Y-131554500D01*
X125253849Y-131554500D01*
X125253847Y-131554500D01*
X125140547Y-131584858D01*
X125140538Y-131584862D01*
X125038960Y-131643508D01*
X124956008Y-131726460D01*
X124897362Y-131828038D01*
X124897358Y-131828047D01*
X124867000Y-131941346D01*
X109409049Y-131941346D01*
X109391029Y-131874098D01*
X109391027Y-131874093D01*
X109322502Y-131755405D01*
X109225594Y-131658497D01*
X109106906Y-131589972D01*
X109106901Y-131589970D01*
X108974527Y-131554500D01*
X108974525Y-131554500D01*
X108837475Y-131554500D01*
X108837473Y-131554500D01*
X108705098Y-131589970D01*
X108705093Y-131589972D01*
X108586405Y-131658497D01*
X108489497Y-131755405D01*
X108420972Y-131874093D01*
X108420970Y-131874098D01*
X108385500Y-132006472D01*
X105354776Y-132006472D01*
X105200000Y-131965000D01*
X104737499Y-132088926D01*
X104398926Y-132427499D01*
X104275000Y-132890000D01*
X98650000Y-132890000D01*
X98650000Y-130048472D01*
X108507500Y-130048472D01*
X108507500Y-130185527D01*
X108542970Y-130317901D01*
X108542972Y-130317906D01*
X108611497Y-130436594D01*
X108708406Y-130533503D01*
X108827095Y-130602028D01*
X108827096Y-130602028D01*
X108827098Y-130602029D01*
X108893285Y-130619764D01*
X108959472Y-130637499D01*
X108959473Y-130637500D01*
X108959475Y-130637500D01*
X109096527Y-130637500D01*
X109096527Y-130637499D01*
X109228905Y-130602028D01*
X109347594Y-130533503D01*
X109444503Y-130436594D01*
X109513028Y-130317905D01*
X109548499Y-130185527D01*
X109548500Y-130185527D01*
X109548500Y-130048473D01*
X109548499Y-130048472D01*
X109513029Y-129916098D01*
X109513027Y-129916093D01*
X109444502Y-129797405D01*
X109347594Y-129700497D01*
X109255753Y-129647472D01*
X132968500Y-129647472D01*
X132968500Y-129784527D01*
X133003970Y-129916901D01*
X133003972Y-129916906D01*
X133072497Y-130035594D01*
X133169406Y-130132503D01*
X133288095Y-130201028D01*
X133288096Y-130201028D01*
X133288098Y-130201029D01*
X133354285Y-130218764D01*
X133420472Y-130236499D01*
X133420473Y-130236500D01*
X133420475Y-130236500D01*
X133557527Y-130236500D01*
X133557527Y-130236499D01*
X133689905Y-130201028D01*
X133808594Y-130132503D01*
X133905503Y-130035594D01*
X133974028Y-129916905D01*
X134009499Y-129784527D01*
X134009500Y-129784527D01*
X134009500Y-129647473D01*
X134009499Y-129647472D01*
X133974029Y-129515098D01*
X133974027Y-129515093D01*
X133905502Y-129396405D01*
X133808594Y-129299497D01*
X133689906Y-129230972D01*
X133689901Y-129230970D01*
X133557527Y-129195500D01*
X133557525Y-129195500D01*
X133420475Y-129195500D01*
X133420473Y-129195500D01*
X133288098Y-129230970D01*
X133288093Y-129230972D01*
X133169405Y-129299497D01*
X133072497Y-129396405D01*
X133003972Y-129515093D01*
X133003970Y-129515098D01*
X132968500Y-129647472D01*
X109255753Y-129647472D01*
X109228906Y-129631972D01*
X109228901Y-129631970D01*
X109096527Y-129596500D01*
X109096525Y-129596500D01*
X108959475Y-129596500D01*
X108959473Y-129596500D01*
X108827098Y-129631970D01*
X108827093Y-129631972D01*
X108708405Y-129700497D01*
X108611497Y-129797405D01*
X108542972Y-129916093D01*
X108542970Y-129916098D01*
X108507500Y-130048472D01*
X98650000Y-130048472D01*
X98650000Y-127110000D01*
X104275000Y-127110000D01*
X104398926Y-127572500D01*
X104737500Y-127911073D01*
X105199999Y-128035000D01*
X105200000Y-128035000D01*
X105200001Y-128035000D01*
X105317665Y-128003472D01*
X125608500Y-128003472D01*
X125608500Y-128140527D01*
X125643970Y-128272901D01*
X125643972Y-128272906D01*
X125658783Y-128298559D01*
X125712497Y-128391594D01*
X125809406Y-128488503D01*
X125928095Y-128557028D01*
X125928096Y-128557028D01*
X125928098Y-128557029D01*
X125939201Y-128560004D01*
X126060472Y-128592499D01*
X126060473Y-128592500D01*
X126060475Y-128592500D01*
X126197527Y-128592500D01*
X126197527Y-128592499D01*
X126329905Y-128557028D01*
X126448594Y-128488503D01*
X126545503Y-128391594D01*
X126599217Y-128298558D01*
X137000955Y-128298558D01*
X137000955Y-128415865D01*
X137031313Y-128529164D01*
X137031317Y-128529173D01*
X137089963Y-128630751D01*
X137089964Y-128630752D01*
X137089966Y-128630755D01*
X137172912Y-128713701D01*
X137274498Y-128772352D01*
X137387801Y-128802711D01*
X137387802Y-128802712D01*
X137387804Y-128802712D01*
X137505108Y-128802712D01*
X137505108Y-128802711D01*
X137618412Y-128772352D01*
X137719998Y-128713701D01*
X137802944Y-128630755D01*
X137861595Y-128529169D01*
X137884765Y-128442697D01*
X141844692Y-128442697D01*
X141844692Y-128560004D01*
X141875050Y-128673303D01*
X141875054Y-128673312D01*
X141933700Y-128774890D01*
X141933701Y-128774891D01*
X141933703Y-128774894D01*
X142016649Y-128857840D01*
X142118235Y-128916491D01*
X142231538Y-128946850D01*
X142231539Y-128946851D01*
X142231541Y-128946851D01*
X142348845Y-128946851D01*
X142348845Y-128946850D01*
X142462149Y-128916491D01*
X142563735Y-128857840D01*
X142646681Y-128774894D01*
X142705332Y-128673308D01*
X142735691Y-128560004D01*
X142735692Y-128560004D01*
X142735692Y-128442698D01*
X142735691Y-128442697D01*
X142728501Y-128415865D01*
X142705332Y-128329394D01*
X142687529Y-128298558D01*
X142646683Y-128227811D01*
X142646682Y-128227810D01*
X142646681Y-128227808D01*
X142563735Y-128144862D01*
X142563732Y-128144860D01*
X142563731Y-128144859D01*
X142462153Y-128086213D01*
X142462144Y-128086209D01*
X142348845Y-128055851D01*
X142348843Y-128055851D01*
X142231541Y-128055851D01*
X142231539Y-128055851D01*
X142118239Y-128086209D01*
X142118230Y-128086213D01*
X142016652Y-128144859D01*
X141933700Y-128227811D01*
X141875054Y-128329389D01*
X141875050Y-128329398D01*
X141844692Y-128442697D01*
X137884765Y-128442697D01*
X137891955Y-128415863D01*
X137891955Y-128298561D01*
X137891955Y-128298559D01*
X137891954Y-128298558D01*
X137885080Y-128272905D01*
X137861595Y-128185255D01*
X137804412Y-128086211D01*
X137802946Y-128083672D01*
X137802945Y-128083671D01*
X137802944Y-128083669D01*
X137719998Y-128000723D01*
X137719995Y-128000721D01*
X137719994Y-128000720D01*
X137618416Y-127942074D01*
X137618407Y-127942070D01*
X137505108Y-127911712D01*
X137505106Y-127911712D01*
X137387804Y-127911712D01*
X137387802Y-127911712D01*
X137274502Y-127942070D01*
X137274493Y-127942074D01*
X137172915Y-128000720D01*
X137089963Y-128083672D01*
X137031317Y-128185250D01*
X137031313Y-128185259D01*
X137000955Y-128298558D01*
X126599217Y-128298558D01*
X126614028Y-128272905D01*
X126649499Y-128140527D01*
X126649500Y-128140527D01*
X126649500Y-128003473D01*
X126649499Y-128003472D01*
X126648762Y-128000723D01*
X126614028Y-127871095D01*
X126545503Y-127752406D01*
X126448594Y-127655497D01*
X126329906Y-127586972D01*
X126329901Y-127586970D01*
X126197527Y-127551500D01*
X126197525Y-127551500D01*
X126060475Y-127551500D01*
X126060473Y-127551500D01*
X125928098Y-127586970D01*
X125928093Y-127586972D01*
X125809405Y-127655497D01*
X125712497Y-127752405D01*
X125643972Y-127871093D01*
X125643970Y-127871098D01*
X125608500Y-128003472D01*
X105317665Y-128003472D01*
X105602513Y-127927147D01*
X105640633Y-127916932D01*
X105662500Y-127911073D01*
X106001073Y-127572500D01*
X106122186Y-127120502D01*
X106125000Y-127110001D01*
X106125000Y-127109998D01*
X106001073Y-126647500D01*
X105880400Y-126526826D01*
X105858726Y-126474500D01*
X105880400Y-126422174D01*
X105932726Y-126400500D01*
X106350961Y-126400500D01*
X106350963Y-126400500D01*
X106490162Y-126372811D01*
X106621285Y-126318499D01*
X106726417Y-126248251D01*
X106781965Y-126237203D01*
X106829057Y-126268669D01*
X106831614Y-126272781D01*
X106867016Y-126334099D01*
X106867017Y-126334100D01*
X106867019Y-126334103D01*
X106949965Y-126417049D01*
X106949967Y-126417050D01*
X106949968Y-126417051D01*
X106960539Y-126423154D01*
X107051551Y-126475700D01*
X107164854Y-126506059D01*
X107164855Y-126506060D01*
X107164857Y-126506060D01*
X107282159Y-126506060D01*
X107289812Y-126504009D01*
X107345965Y-126511400D01*
X107373053Y-126538487D01*
X107416139Y-126613114D01*
X107416140Y-126613115D01*
X107416142Y-126613118D01*
X107499088Y-126696064D01*
X107499090Y-126696065D01*
X107499091Y-126696066D01*
X107500184Y-126696697D01*
X107600674Y-126754715D01*
X107713977Y-126785074D01*
X107713978Y-126785075D01*
X107713980Y-126785075D01*
X107831284Y-126785075D01*
X107831284Y-126785074D01*
X107944588Y-126754715D01*
X108046174Y-126696064D01*
X108105892Y-126636346D01*
X111554500Y-126636346D01*
X111554500Y-126753653D01*
X111584858Y-126866952D01*
X111584862Y-126866961D01*
X111643508Y-126968539D01*
X111643509Y-126968540D01*
X111643511Y-126968543D01*
X111726457Y-127051489D01*
X111726459Y-127051490D01*
X111726460Y-127051491D01*
X111769782Y-127076503D01*
X111828043Y-127110140D01*
X111941346Y-127140499D01*
X111941347Y-127140500D01*
X111941349Y-127140500D01*
X112058653Y-127140500D01*
X112058653Y-127140499D01*
X112171957Y-127110140D01*
X112273543Y-127051489D01*
X112356489Y-126968543D01*
X112415140Y-126866957D01*
X112445499Y-126753653D01*
X112445500Y-126753653D01*
X112445500Y-126636347D01*
X112445499Y-126636346D01*
X112437309Y-126605778D01*
X112433476Y-126591472D01*
X114479500Y-126591472D01*
X114479500Y-126728527D01*
X114514970Y-126860901D01*
X114514972Y-126860906D01*
X114515770Y-126862288D01*
X114583497Y-126979594D01*
X114680406Y-127076503D01*
X114738662Y-127110137D01*
X114794191Y-127142197D01*
X114799095Y-127145028D01*
X114799096Y-127145028D01*
X114799098Y-127145029D01*
X114855429Y-127160123D01*
X114931472Y-127180499D01*
X114931473Y-127180500D01*
X114931475Y-127180500D01*
X115068527Y-127180500D01*
X115068527Y-127180499D01*
X115200905Y-127145028D01*
X115319594Y-127076503D01*
X115416503Y-126979594D01*
X115485028Y-126860905D01*
X115486752Y-126854468D01*
X115498668Y-126810000D01*
X120473753Y-126810000D01*
X120473753Y-126927307D01*
X120504111Y-127040606D01*
X120504115Y-127040615D01*
X120562761Y-127142193D01*
X120562762Y-127142194D01*
X120562764Y-127142197D01*
X120645710Y-127225143D01*
X120747296Y-127283794D01*
X120860599Y-127314153D01*
X120860600Y-127314154D01*
X120860602Y-127314154D01*
X120977906Y-127314154D01*
X120977906Y-127314153D01*
X121091210Y-127283794D01*
X121192796Y-127225143D01*
X121257816Y-127160123D01*
X121520838Y-127160123D01*
X121520838Y-127277430D01*
X121551196Y-127390729D01*
X121551200Y-127390738D01*
X121609846Y-127492316D01*
X121609847Y-127492317D01*
X121609849Y-127492320D01*
X121692795Y-127575266D01*
X121692797Y-127575267D01*
X121692798Y-127575268D01*
X121713070Y-127586972D01*
X121794381Y-127633917D01*
X121907684Y-127664276D01*
X121907685Y-127664277D01*
X121907687Y-127664277D01*
X122024991Y-127664277D01*
X122024991Y-127664276D01*
X122138295Y-127633917D01*
X122239881Y-127575266D01*
X122322827Y-127492320D01*
X122381478Y-127390734D01*
X122411837Y-127277430D01*
X122411838Y-127277430D01*
X122411838Y-127160124D01*
X122411837Y-127160123D01*
X122407792Y-127145028D01*
X122381478Y-127046820D01*
X122322827Y-126945234D01*
X122239881Y-126862288D01*
X122239878Y-126862286D01*
X122239877Y-126862285D01*
X122138299Y-126803639D01*
X122138290Y-126803635D01*
X122024991Y-126773277D01*
X122024989Y-126773277D01*
X121907687Y-126773277D01*
X121907685Y-126773277D01*
X121794385Y-126803635D01*
X121794376Y-126803639D01*
X121692798Y-126862285D01*
X121609846Y-126945237D01*
X121551200Y-127046815D01*
X121551196Y-127046824D01*
X121520838Y-127160123D01*
X121257816Y-127160123D01*
X121275742Y-127142197D01*
X121294331Y-127110001D01*
X121296867Y-127105607D01*
X121334393Y-127040611D01*
X121364752Y-126927307D01*
X121364753Y-126927307D01*
X121364753Y-126810001D01*
X121364752Y-126810000D01*
X121358073Y-126785075D01*
X121334393Y-126696697D01*
X121299045Y-126635472D01*
X129325500Y-126635472D01*
X129325500Y-126772527D01*
X129360970Y-126904901D01*
X129360972Y-126904906D01*
X129429497Y-127023594D01*
X129526406Y-127120503D01*
X129645095Y-127189028D01*
X129645096Y-127189028D01*
X129645098Y-127189029D01*
X129711285Y-127206764D01*
X129777472Y-127224499D01*
X129777473Y-127224500D01*
X129777475Y-127224500D01*
X129914527Y-127224500D01*
X129914527Y-127224499D01*
X130046905Y-127189028D01*
X130165594Y-127120503D01*
X130262503Y-127023594D01*
X130331028Y-126904905D01*
X130366499Y-126772527D01*
X130366500Y-126772527D01*
X130366500Y-126635473D01*
X130366499Y-126635472D01*
X130358542Y-126605778D01*
X130348764Y-126569285D01*
X130331029Y-126503098D01*
X130331027Y-126503093D01*
X130283894Y-126421457D01*
X130262503Y-126384406D01*
X130165594Y-126287497D01*
X130132983Y-126268669D01*
X130046906Y-126218972D01*
X130046901Y-126218970D01*
X129914527Y-126183500D01*
X129914525Y-126183500D01*
X129777475Y-126183500D01*
X129777473Y-126183500D01*
X129645098Y-126218970D01*
X129645093Y-126218972D01*
X129526405Y-126287497D01*
X129429497Y-126384405D01*
X129360972Y-126503093D01*
X129360970Y-126503098D01*
X129325500Y-126635472D01*
X121299045Y-126635472D01*
X121275742Y-126595111D01*
X121192796Y-126512165D01*
X121192793Y-126512163D01*
X121192792Y-126512162D01*
X121091214Y-126453516D01*
X121091205Y-126453512D01*
X120977906Y-126423154D01*
X120977904Y-126423154D01*
X120860602Y-126423154D01*
X120860600Y-126423154D01*
X120747300Y-126453512D01*
X120747291Y-126453516D01*
X120645713Y-126512162D01*
X120562761Y-126595114D01*
X120504115Y-126696692D01*
X120504111Y-126696701D01*
X120473753Y-126810000D01*
X115498668Y-126810000D01*
X115505100Y-126786000D01*
X115520499Y-126728527D01*
X115520500Y-126728527D01*
X115520500Y-126591473D01*
X115520499Y-126591472D01*
X115485029Y-126459098D01*
X115485027Y-126459093D01*
X115441906Y-126384405D01*
X115416503Y-126340406D01*
X115319594Y-126243497D01*
X115312929Y-126239649D01*
X115200906Y-126174972D01*
X115200901Y-126174970D01*
X115068527Y-126139500D01*
X115068525Y-126139500D01*
X114931475Y-126139500D01*
X114931473Y-126139500D01*
X114799098Y-126174970D01*
X114799093Y-126174972D01*
X114680405Y-126243497D01*
X114583497Y-126340405D01*
X114514972Y-126459093D01*
X114514970Y-126459098D01*
X114479500Y-126591472D01*
X112433476Y-126591472D01*
X112415141Y-126523047D01*
X112415140Y-126523043D01*
X112378221Y-126459098D01*
X112356491Y-126421460D01*
X112356490Y-126421459D01*
X112356489Y-126421457D01*
X112273543Y-126338511D01*
X112273540Y-126338509D01*
X112273539Y-126338508D01*
X112171961Y-126279862D01*
X112171952Y-126279858D01*
X112058653Y-126249500D01*
X112058651Y-126249500D01*
X111941349Y-126249500D01*
X111941347Y-126249500D01*
X111828047Y-126279858D01*
X111828038Y-126279862D01*
X111726460Y-126338508D01*
X111643508Y-126421460D01*
X111584862Y-126523038D01*
X111584858Y-126523047D01*
X111554500Y-126636346D01*
X108105892Y-126636346D01*
X108129120Y-126613118D01*
X108139515Y-126595114D01*
X108139870Y-126594499D01*
X108174510Y-126534500D01*
X108187771Y-126511532D01*
X108218130Y-126398228D01*
X108218131Y-126398228D01*
X108218131Y-126280922D01*
X108218130Y-126280921D01*
X108209376Y-126248252D01*
X108187771Y-126167618D01*
X108129120Y-126066032D01*
X108046174Y-125983086D01*
X108046171Y-125983084D01*
X108046170Y-125983083D01*
X107944592Y-125924437D01*
X107944583Y-125924433D01*
X107831284Y-125894075D01*
X107831282Y-125894075D01*
X107713980Y-125894075D01*
X107713979Y-125894075D01*
X107706318Y-125896127D01*
X107650166Y-125888730D01*
X107623085Y-125861647D01*
X107579999Y-125787020D01*
X107579998Y-125787019D01*
X107579997Y-125787017D01*
X107497051Y-125704071D01*
X107497048Y-125704069D01*
X107497047Y-125704068D01*
X107395469Y-125645422D01*
X107395460Y-125645418D01*
X107282161Y-125615060D01*
X107282159Y-125615060D01*
X107164857Y-125615060D01*
X107086269Y-125636117D01*
X107030117Y-125628724D01*
X106995638Y-125583790D01*
X106994544Y-125579099D01*
X106972811Y-125469838D01*
X106918499Y-125338715D01*
X106847651Y-125232684D01*
X158305722Y-125232684D01*
X158305722Y-125349991D01*
X158336080Y-125463290D01*
X158336084Y-125463299D01*
X158394730Y-125564877D01*
X158394731Y-125564878D01*
X158394733Y-125564881D01*
X158477679Y-125647827D01*
X158579265Y-125706478D01*
X158692568Y-125736837D01*
X158692569Y-125736838D01*
X158692571Y-125736838D01*
X158809875Y-125736838D01*
X158809875Y-125736837D01*
X158923179Y-125706478D01*
X159024765Y-125647827D01*
X159107711Y-125564881D01*
X159166362Y-125463295D01*
X159196721Y-125349991D01*
X159196722Y-125349991D01*
X159196722Y-125232685D01*
X159196721Y-125232684D01*
X159166363Y-125119385D01*
X159166362Y-125119381D01*
X159107711Y-125017795D01*
X159024765Y-124934849D01*
X159024762Y-124934847D01*
X159024761Y-124934846D01*
X158923183Y-124876200D01*
X158923174Y-124876196D01*
X158809875Y-124845838D01*
X158809873Y-124845838D01*
X158692571Y-124845838D01*
X158692569Y-124845838D01*
X158579269Y-124876196D01*
X158579260Y-124876200D01*
X158477682Y-124934846D01*
X158394730Y-125017798D01*
X158336084Y-125119376D01*
X158336080Y-125119385D01*
X158305722Y-125232684D01*
X106847651Y-125232684D01*
X106839649Y-125220708D01*
X106739292Y-125120351D01*
X106737846Y-125119385D01*
X106710387Y-125101037D01*
X106621285Y-125041501D01*
X106621281Y-125041499D01*
X106621279Y-125041498D01*
X106621280Y-125041498D01*
X106490166Y-124987190D01*
X106490156Y-124987187D01*
X106396941Y-124968645D01*
X106350963Y-124959500D01*
X105109037Y-124959500D01*
X105069575Y-124967349D01*
X104969843Y-124987187D01*
X104969833Y-124987190D01*
X104838719Y-125041498D01*
X104720711Y-125120348D01*
X104620348Y-125220711D01*
X104541498Y-125338719D01*
X104487190Y-125469833D01*
X104487187Y-125469843D01*
X104459500Y-125609038D01*
X104459500Y-125750961D01*
X104487187Y-125890156D01*
X104487190Y-125890166D01*
X104541498Y-126021280D01*
X104541500Y-126021283D01*
X104541501Y-126021285D01*
X104620351Y-126139292D01*
X104700029Y-126218970D01*
X104711416Y-126230357D01*
X104733090Y-126282683D01*
X104711416Y-126335009D01*
X104398926Y-126647499D01*
X104275000Y-127110000D01*
X98650000Y-127110000D01*
X98650000Y-125609038D01*
X100529500Y-125609038D01*
X100529500Y-125750961D01*
X100557187Y-125890156D01*
X100557190Y-125890166D01*
X100611498Y-126021280D01*
X100611500Y-126021283D01*
X100611501Y-126021285D01*
X100690351Y-126139292D01*
X100790708Y-126239649D01*
X100908715Y-126318499D01*
X100908720Y-126318501D01*
X100908719Y-126318501D01*
X100961604Y-126340406D01*
X101039838Y-126372811D01*
X101179037Y-126400500D01*
X101179039Y-126400500D01*
X101920961Y-126400500D01*
X101920963Y-126400500D01*
X102060162Y-126372811D01*
X102191285Y-126318499D01*
X102309292Y-126239649D01*
X102409649Y-126139292D01*
X102488499Y-126021285D01*
X102542811Y-125890162D01*
X102570500Y-125750963D01*
X102570500Y-125609037D01*
X102542811Y-125469838D01*
X102488499Y-125338715D01*
X102409649Y-125220708D01*
X102309292Y-125120351D01*
X102307846Y-125119385D01*
X102280387Y-125101037D01*
X102191285Y-125041501D01*
X102191281Y-125041499D01*
X102191279Y-125041498D01*
X102191280Y-125041498D01*
X102060166Y-124987190D01*
X102060156Y-124987187D01*
X101966941Y-124968645D01*
X101920963Y-124959500D01*
X101179037Y-124959500D01*
X101139575Y-124967349D01*
X101039843Y-124987187D01*
X101039833Y-124987190D01*
X100908719Y-125041498D01*
X100790711Y-125120348D01*
X100690348Y-125220711D01*
X100611498Y-125338719D01*
X100557190Y-125469833D01*
X100557187Y-125469843D01*
X100529500Y-125609038D01*
X98650000Y-125609038D01*
X98650000Y-123721472D01*
X125669500Y-123721472D01*
X125669500Y-123858527D01*
X125704970Y-123990901D01*
X125704972Y-123990906D01*
X125773497Y-124109594D01*
X125870406Y-124206503D01*
X125989095Y-124275028D01*
X125989096Y-124275028D01*
X125989098Y-124275029D01*
X126055285Y-124292764D01*
X126121472Y-124310499D01*
X126121473Y-124310500D01*
X126121475Y-124310500D01*
X126258527Y-124310500D01*
X126258527Y-124310499D01*
X126390905Y-124275028D01*
X126509594Y-124206503D01*
X126606503Y-124109594D01*
X126675028Y-123990905D01*
X126710499Y-123858527D01*
X126710500Y-123858527D01*
X126710500Y-123721473D01*
X126710499Y-123721472D01*
X126675029Y-123589098D01*
X126675027Y-123589093D01*
X126650697Y-123546952D01*
X126606503Y-123470406D01*
X126509594Y-123373497D01*
X126410611Y-123316349D01*
X126390906Y-123304972D01*
X126390901Y-123304970D01*
X126258527Y-123269500D01*
X126258525Y-123269500D01*
X126121475Y-123269500D01*
X126121473Y-123269500D01*
X125989098Y-123304970D01*
X125989093Y-123304972D01*
X125870405Y-123373497D01*
X125773497Y-123470405D01*
X125704972Y-123589093D01*
X125704970Y-123589098D01*
X125669500Y-123721472D01*
X98650000Y-123721472D01*
X98650000Y-122603115D01*
X104212877Y-122603115D01*
X104212877Y-122720422D01*
X104243235Y-122833721D01*
X104243239Y-122833730D01*
X104301885Y-122935308D01*
X104301886Y-122935309D01*
X104301888Y-122935312D01*
X104384834Y-123018258D01*
X104486420Y-123076909D01*
X104599723Y-123107268D01*
X104599724Y-123107269D01*
X104599726Y-123107269D01*
X104717030Y-123107269D01*
X104717030Y-123107268D01*
X104830334Y-123076909D01*
X104931920Y-123018258D01*
X105014866Y-122935312D01*
X105028630Y-122911472D01*
X127265500Y-122911472D01*
X127265500Y-123048527D01*
X127300970Y-123180901D01*
X127300972Y-123180906D01*
X127352122Y-123269500D01*
X127369497Y-123299594D01*
X127466406Y-123396503D01*
X127585095Y-123465028D01*
X127585096Y-123465028D01*
X127585098Y-123465029D01*
X127605165Y-123470406D01*
X127717472Y-123500499D01*
X127717473Y-123500500D01*
X127717475Y-123500500D01*
X127854527Y-123500500D01*
X127854527Y-123500499D01*
X127986905Y-123465028D01*
X128105594Y-123396503D01*
X128185751Y-123316346D01*
X155554500Y-123316346D01*
X155554500Y-123433653D01*
X155584858Y-123546952D01*
X155584862Y-123546961D01*
X155643508Y-123648539D01*
X155643509Y-123648540D01*
X155643511Y-123648543D01*
X155726457Y-123731489D01*
X155828043Y-123790140D01*
X155941346Y-123820499D01*
X155941347Y-123820500D01*
X155941349Y-123820500D01*
X156058653Y-123820500D01*
X156058653Y-123820499D01*
X156171957Y-123790140D01*
X156273543Y-123731489D01*
X156356489Y-123648543D01*
X156415140Y-123546957D01*
X156445499Y-123433653D01*
X156445500Y-123433653D01*
X156445500Y-123316347D01*
X156445499Y-123316346D01*
X156442451Y-123304972D01*
X156415140Y-123203043D01*
X156356489Y-123101457D01*
X156273543Y-123018511D01*
X156273540Y-123018509D01*
X156273539Y-123018508D01*
X156171961Y-122959862D01*
X156171952Y-122959858D01*
X156058653Y-122929500D01*
X156058651Y-122929500D01*
X155941349Y-122929500D01*
X155941347Y-122929500D01*
X155828047Y-122959858D01*
X155828038Y-122959862D01*
X155726460Y-123018508D01*
X155643508Y-123101460D01*
X155584862Y-123203038D01*
X155584858Y-123203047D01*
X155554500Y-123316346D01*
X128185751Y-123316346D01*
X128202503Y-123299594D01*
X128208387Y-123289401D01*
X128216993Y-123274498D01*
X128258247Y-123203043D01*
X128271028Y-123180905D01*
X128306499Y-123048527D01*
X128306500Y-123048527D01*
X128306500Y-122911473D01*
X128306499Y-122911472D01*
X128271029Y-122779098D01*
X128271027Y-122779093D01*
X128202502Y-122660405D01*
X128105594Y-122563497D01*
X127986906Y-122494972D01*
X127986901Y-122494970D01*
X127854527Y-122459500D01*
X127854525Y-122459500D01*
X127717475Y-122459500D01*
X127717473Y-122459500D01*
X127585098Y-122494970D01*
X127585093Y-122494972D01*
X127466405Y-122563497D01*
X127369497Y-122660405D01*
X127300972Y-122779093D01*
X127300970Y-122779098D01*
X127265500Y-122911472D01*
X105028630Y-122911472D01*
X105073517Y-122833726D01*
X105103876Y-122720422D01*
X105103877Y-122720422D01*
X105103877Y-122603116D01*
X105103876Y-122603115D01*
X105073518Y-122489816D01*
X105073517Y-122489812D01*
X105014866Y-122388226D01*
X104931920Y-122305280D01*
X104931917Y-122305278D01*
X104931916Y-122305277D01*
X104830338Y-122246631D01*
X104830329Y-122246627D01*
X104717030Y-122216269D01*
X104717028Y-122216269D01*
X104599726Y-122216269D01*
X104599724Y-122216269D01*
X104486424Y-122246627D01*
X104486415Y-122246631D01*
X104384837Y-122305277D01*
X104301885Y-122388229D01*
X104243239Y-122489807D01*
X104243235Y-122489816D01*
X104212877Y-122603115D01*
X98650000Y-122603115D01*
X98650000Y-121641472D01*
X118784500Y-121641472D01*
X118784500Y-121778527D01*
X118819970Y-121910901D01*
X118819972Y-121910906D01*
X118826323Y-121921906D01*
X118888497Y-122029594D01*
X118985406Y-122126503D01*
X119104095Y-122195028D01*
X119104096Y-122195028D01*
X119104098Y-122195029D01*
X119145150Y-122206029D01*
X119236472Y-122230499D01*
X119236473Y-122230500D01*
X119236475Y-122230500D01*
X119373527Y-122230500D01*
X119373527Y-122230499D01*
X119505905Y-122195028D01*
X119624594Y-122126503D01*
X119721503Y-122029594D01*
X119790028Y-121910905D01*
X119825499Y-121778527D01*
X119825500Y-121778527D01*
X119825500Y-121652472D01*
X134226500Y-121652472D01*
X134226500Y-121789527D01*
X134261970Y-121921901D01*
X134261972Y-121921906D01*
X134324146Y-122029594D01*
X134330497Y-122040594D01*
X134427406Y-122137503D01*
X134546095Y-122206028D01*
X134546096Y-122206028D01*
X134546098Y-122206029D01*
X134584314Y-122216269D01*
X134678472Y-122241499D01*
X134678473Y-122241500D01*
X134678475Y-122241500D01*
X134815527Y-122241500D01*
X134815527Y-122241499D01*
X134947905Y-122206028D01*
X135066594Y-122137503D01*
X135163503Y-122040594D01*
X135232028Y-121921905D01*
X135267499Y-121789527D01*
X135267500Y-121789527D01*
X135267500Y-121652473D01*
X135267499Y-121652472D01*
X135253681Y-121600905D01*
X135232028Y-121520095D01*
X135219230Y-121497929D01*
X135163502Y-121401405D01*
X135093569Y-121331472D01*
X135807500Y-121331472D01*
X135807500Y-121468527D01*
X135842970Y-121600901D01*
X135842972Y-121600906D01*
X135872746Y-121652475D01*
X135911497Y-121719594D01*
X136008406Y-121816503D01*
X136074075Y-121854417D01*
X136126658Y-121884776D01*
X136127095Y-121885028D01*
X136127096Y-121885028D01*
X136127098Y-121885029D01*
X136193285Y-121902764D01*
X136259472Y-121920499D01*
X136259473Y-121920500D01*
X136259475Y-121920500D01*
X136396527Y-121920500D01*
X136396527Y-121920499D01*
X136528905Y-121885028D01*
X136647594Y-121816503D01*
X136744503Y-121719594D01*
X136813028Y-121600905D01*
X136848499Y-121468527D01*
X136848500Y-121468527D01*
X136848500Y-121380622D01*
X159246681Y-121380622D01*
X159246681Y-121497929D01*
X159277039Y-121611228D01*
X159277043Y-121611237D01*
X159335689Y-121712815D01*
X159335690Y-121712816D01*
X159335692Y-121712819D01*
X159418638Y-121795765D01*
X159520224Y-121854416D01*
X159633527Y-121884775D01*
X159633528Y-121884776D01*
X159633530Y-121884776D01*
X159750834Y-121884776D01*
X159750834Y-121884775D01*
X159864138Y-121854416D01*
X159965724Y-121795765D01*
X160048670Y-121712819D01*
X160107321Y-121611233D01*
X160137680Y-121497929D01*
X160137681Y-121497929D01*
X160137681Y-121380623D01*
X160137680Y-121380622D01*
X160124510Y-121331472D01*
X160107321Y-121267319D01*
X160068743Y-121200500D01*
X160048672Y-121165736D01*
X160048671Y-121165735D01*
X160048670Y-121165733D01*
X159965724Y-121082787D01*
X159965721Y-121082785D01*
X159965720Y-121082784D01*
X159864142Y-121024138D01*
X159864133Y-121024134D01*
X159750834Y-120993776D01*
X159750832Y-120993776D01*
X159633530Y-120993776D01*
X159633528Y-120993776D01*
X159520228Y-121024134D01*
X159520219Y-121024138D01*
X159418641Y-121082784D01*
X159335689Y-121165736D01*
X159277043Y-121267314D01*
X159277039Y-121267323D01*
X159246681Y-121380622D01*
X136848500Y-121380622D01*
X136848500Y-121331473D01*
X136848499Y-121331472D01*
X136838323Y-121293497D01*
X136819961Y-121224970D01*
X136813029Y-121199098D01*
X136813027Y-121199093D01*
X136793766Y-121165733D01*
X136744503Y-121080406D01*
X136647594Y-120983497D01*
X136607762Y-120960500D01*
X136528906Y-120914972D01*
X136528901Y-120914970D01*
X136396527Y-120879500D01*
X136396525Y-120879500D01*
X136259475Y-120879500D01*
X136259473Y-120879500D01*
X136127098Y-120914970D01*
X136127093Y-120914972D01*
X136008405Y-120983497D01*
X135911497Y-121080405D01*
X135842972Y-121199093D01*
X135842970Y-121199098D01*
X135807500Y-121331472D01*
X135093569Y-121331472D01*
X135066594Y-121304497D01*
X134947906Y-121235972D01*
X134947901Y-121235970D01*
X134815527Y-121200500D01*
X134815525Y-121200500D01*
X134678475Y-121200500D01*
X134678473Y-121200500D01*
X134546098Y-121235970D01*
X134546093Y-121235972D01*
X134427405Y-121304497D01*
X134330497Y-121401405D01*
X134261972Y-121520093D01*
X134261970Y-121520098D01*
X134226500Y-121652472D01*
X119825500Y-121652472D01*
X119825500Y-121641473D01*
X119825499Y-121641472D01*
X119817397Y-121611237D01*
X119790028Y-121509095D01*
X119721503Y-121390406D01*
X119624594Y-121293497D01*
X119505906Y-121224972D01*
X119505901Y-121224970D01*
X119373527Y-121189500D01*
X119373525Y-121189500D01*
X119236475Y-121189500D01*
X119236473Y-121189500D01*
X119104098Y-121224970D01*
X119104093Y-121224972D01*
X118985405Y-121293497D01*
X118888497Y-121390405D01*
X118819972Y-121509093D01*
X118819970Y-121509098D01*
X118784500Y-121641472D01*
X98650000Y-121641472D01*
X98650000Y-120371472D01*
X132968500Y-120371472D01*
X132968500Y-120508527D01*
X133003970Y-120640901D01*
X133003972Y-120640906D01*
X133072497Y-120759594D01*
X133169406Y-120856503D01*
X133288095Y-120925028D01*
X133288096Y-120925028D01*
X133288098Y-120925029D01*
X133354285Y-120942764D01*
X133420472Y-120960499D01*
X133420473Y-120960500D01*
X133420475Y-120960500D01*
X133557527Y-120960500D01*
X133557527Y-120960499D01*
X133689905Y-120925028D01*
X133808594Y-120856503D01*
X133905503Y-120759594D01*
X133974028Y-120640905D01*
X134009499Y-120508527D01*
X134009500Y-120508527D01*
X134009500Y-120371473D01*
X134009499Y-120371472D01*
X133974029Y-120239098D01*
X133974027Y-120239093D01*
X133905502Y-120120405D01*
X133808594Y-120023497D01*
X133689906Y-119954972D01*
X133689901Y-119954970D01*
X133557527Y-119919500D01*
X133557525Y-119919500D01*
X133420475Y-119919500D01*
X133420473Y-119919500D01*
X133288098Y-119954970D01*
X133288093Y-119954972D01*
X133169405Y-120023497D01*
X133072497Y-120120405D01*
X133003972Y-120239093D01*
X133003970Y-120239098D01*
X132968500Y-120371472D01*
X98650000Y-120371472D01*
X98650000Y-119198472D01*
X140802500Y-119198472D01*
X140802500Y-119335527D01*
X140837970Y-119467901D01*
X140837972Y-119467906D01*
X140906497Y-119586594D01*
X141003406Y-119683503D01*
X141122095Y-119752028D01*
X141122096Y-119752028D01*
X141122098Y-119752029D01*
X141188285Y-119769764D01*
X141254472Y-119787499D01*
X141254473Y-119787500D01*
X141254475Y-119787500D01*
X141391527Y-119787500D01*
X141391527Y-119787499D01*
X141523905Y-119752028D01*
X141642594Y-119683503D01*
X141739503Y-119586594D01*
X141808028Y-119467905D01*
X141843499Y-119335527D01*
X141843500Y-119335527D01*
X141843500Y-119198473D01*
X141843499Y-119198472D01*
X141808029Y-119066098D01*
X141808027Y-119066093D01*
X141749372Y-118964500D01*
X141739503Y-118947406D01*
X141642594Y-118850497D01*
X141523906Y-118781972D01*
X141523901Y-118781970D01*
X141391527Y-118746500D01*
X141391525Y-118746500D01*
X141254475Y-118746500D01*
X141254473Y-118746500D01*
X141122098Y-118781970D01*
X141122093Y-118781972D01*
X141003405Y-118850497D01*
X140906497Y-118947405D01*
X140837972Y-119066093D01*
X140837970Y-119066098D01*
X140802500Y-119198472D01*
X98650000Y-119198472D01*
X98650000Y-118375472D01*
X139710500Y-118375472D01*
X139710500Y-118512527D01*
X139745970Y-118644901D01*
X139745972Y-118644906D01*
X139768342Y-118683651D01*
X139814497Y-118763594D01*
X139911406Y-118860503D01*
X140030095Y-118929028D01*
X140030096Y-118929028D01*
X140030098Y-118929029D01*
X140096285Y-118946764D01*
X140162472Y-118964499D01*
X140162473Y-118964500D01*
X140162475Y-118964500D01*
X140299527Y-118964500D01*
X140299527Y-118964499D01*
X140431905Y-118929028D01*
X140550594Y-118860503D01*
X140647503Y-118763594D01*
X140716028Y-118644905D01*
X140737078Y-118566349D01*
X140737079Y-118566346D01*
X155554500Y-118566346D01*
X155554500Y-118683653D01*
X155584858Y-118796952D01*
X155584862Y-118796961D01*
X155643508Y-118898539D01*
X155643509Y-118898540D01*
X155643511Y-118898543D01*
X155726457Y-118981489D01*
X155828043Y-119040140D01*
X155941346Y-119070499D01*
X155941347Y-119070500D01*
X155941349Y-119070500D01*
X156058653Y-119070500D01*
X156058653Y-119070499D01*
X156171957Y-119040140D01*
X156273543Y-118981489D01*
X156356489Y-118898543D01*
X156415140Y-118796957D01*
X156445499Y-118683653D01*
X156445500Y-118683653D01*
X156445500Y-118566347D01*
X156445499Y-118566346D01*
X156431078Y-118512527D01*
X156415140Y-118453043D01*
X156356489Y-118351457D01*
X156273543Y-118268511D01*
X156273540Y-118268509D01*
X156273539Y-118268508D01*
X156171961Y-118209862D01*
X156171952Y-118209858D01*
X156058653Y-118179500D01*
X156058651Y-118179500D01*
X155941349Y-118179500D01*
X155941347Y-118179500D01*
X155828047Y-118209858D01*
X155828038Y-118209862D01*
X155726460Y-118268508D01*
X155643508Y-118351460D01*
X155584862Y-118453038D01*
X155584858Y-118453047D01*
X155554500Y-118566346D01*
X140737079Y-118566346D01*
X140743510Y-118542346D01*
X140751499Y-118512527D01*
X140751500Y-118512527D01*
X140751500Y-118375473D01*
X140751499Y-118375472D01*
X140716029Y-118243098D01*
X140716027Y-118243093D01*
X140647502Y-118124405D01*
X140550594Y-118027497D01*
X140431906Y-117958972D01*
X140431901Y-117958970D01*
X140299527Y-117923500D01*
X140299525Y-117923500D01*
X140162475Y-117923500D01*
X140162473Y-117923500D01*
X140030098Y-117958970D01*
X140030093Y-117958972D01*
X139911405Y-118027497D01*
X139814497Y-118124405D01*
X139745972Y-118243093D01*
X139745970Y-118243098D01*
X139710500Y-118375472D01*
X98650000Y-118375472D01*
X98650000Y-117531346D01*
X159529500Y-117531346D01*
X159529500Y-117648653D01*
X159559858Y-117761952D01*
X159559862Y-117761961D01*
X159618508Y-117863539D01*
X159618509Y-117863540D01*
X159618511Y-117863543D01*
X159701457Y-117946489D01*
X159701459Y-117946490D01*
X159701460Y-117946491D01*
X159723078Y-117958972D01*
X159803043Y-118005140D01*
X159916346Y-118035499D01*
X159916347Y-118035500D01*
X159916349Y-118035500D01*
X160033653Y-118035500D01*
X160033653Y-118035499D01*
X160146957Y-118005140D01*
X160248543Y-117946489D01*
X160331489Y-117863543D01*
X160390140Y-117761957D01*
X160419576Y-117652101D01*
X160454054Y-117607168D01*
X160491054Y-117597254D01*
X160582269Y-117597254D01*
X160582269Y-117597253D01*
X160695573Y-117566894D01*
X160797159Y-117508243D01*
X160880105Y-117425297D01*
X160938756Y-117323711D01*
X160969115Y-117210407D01*
X160969116Y-117210407D01*
X160969116Y-117093101D01*
X160969115Y-117093100D01*
X160968191Y-117089653D01*
X160938756Y-116979797D01*
X160880105Y-116878211D01*
X160797159Y-116795265D01*
X160797156Y-116795263D01*
X160797155Y-116795262D01*
X160695577Y-116736616D01*
X160695568Y-116736612D01*
X160582269Y-116706254D01*
X160582267Y-116706254D01*
X160464965Y-116706254D01*
X160464963Y-116706254D01*
X160351663Y-116736612D01*
X160351654Y-116736616D01*
X160250076Y-116795262D01*
X160167124Y-116878214D01*
X160108478Y-116979792D01*
X160108474Y-116979801D01*
X160079040Y-117089653D01*
X160044562Y-117134586D01*
X160007562Y-117144500D01*
X159916347Y-117144500D01*
X159803047Y-117174858D01*
X159803038Y-117174862D01*
X159701460Y-117233508D01*
X159618508Y-117316460D01*
X159559862Y-117418038D01*
X159559858Y-117418047D01*
X159529500Y-117531346D01*
X98650000Y-117531346D01*
X98650000Y-114750000D01*
X112550000Y-114750000D01*
X112844744Y-115850000D01*
X113650000Y-116655255D01*
X114749999Y-116950000D01*
X114750000Y-116950000D01*
X114750001Y-116950000D01*
X115445342Y-116763683D01*
X115850000Y-116655255D01*
X116655255Y-115850000D01*
X116733948Y-115556315D01*
X116804913Y-115291472D01*
X122490500Y-115291472D01*
X122490500Y-115428527D01*
X122525970Y-115560901D01*
X122525972Y-115560906D01*
X122531345Y-115570212D01*
X122594497Y-115679594D01*
X122691406Y-115776503D01*
X122810095Y-115845028D01*
X122810096Y-115845028D01*
X122810098Y-115845029D01*
X122828650Y-115850000D01*
X122942472Y-115880499D01*
X122942473Y-115880500D01*
X122942475Y-115880500D01*
X123079527Y-115880500D01*
X123079527Y-115880499D01*
X123211905Y-115845028D01*
X123330594Y-115776503D01*
X123427503Y-115679594D01*
X123496028Y-115560905D01*
X123531499Y-115428527D01*
X123531500Y-115428527D01*
X123531500Y-115291473D01*
X123531499Y-115291472D01*
X123522823Y-115259095D01*
X123496028Y-115159095D01*
X123427503Y-115040406D01*
X123330594Y-114943497D01*
X123286718Y-114918165D01*
X123211906Y-114874972D01*
X123211901Y-114874970D01*
X123079527Y-114839500D01*
X123079525Y-114839500D01*
X122942475Y-114839500D01*
X122942473Y-114839500D01*
X122810098Y-114874970D01*
X122810093Y-114874972D01*
X122691405Y-114943497D01*
X122594497Y-115040405D01*
X122525972Y-115159093D01*
X122525970Y-115159098D01*
X122490500Y-115291472D01*
X116804913Y-115291472D01*
X116811342Y-115267479D01*
X116811343Y-115267472D01*
X116817357Y-115245029D01*
X116950000Y-114750000D01*
X116934317Y-114691472D01*
X126579500Y-114691472D01*
X126579500Y-114828527D01*
X126614970Y-114960901D01*
X126614972Y-114960906D01*
X126672049Y-115059766D01*
X126683497Y-115079594D01*
X126780406Y-115176503D01*
X126899095Y-115245028D01*
X126899096Y-115245028D01*
X126899098Y-115245029D01*
X126951592Y-115259095D01*
X127031472Y-115280499D01*
X127031473Y-115280500D01*
X127031475Y-115280500D01*
X127168526Y-115280500D01*
X127196313Y-115273054D01*
X127252466Y-115280445D01*
X127286945Y-115325378D01*
X127286946Y-115363683D01*
X127279500Y-115391473D01*
X127279500Y-115391475D01*
X127279500Y-115528525D01*
X127282118Y-115538296D01*
X127286946Y-115556315D01*
X127279552Y-115612468D01*
X127234619Y-115646946D01*
X127196315Y-115646946D01*
X127168525Y-115639500D01*
X127031475Y-115639500D01*
X127031473Y-115639500D01*
X126899098Y-115674970D01*
X126899093Y-115674972D01*
X126780405Y-115743497D01*
X126683497Y-115840405D01*
X126614972Y-115959093D01*
X126614970Y-115959098D01*
X126579500Y-116091472D01*
X126579500Y-116228527D01*
X126614970Y-116360901D01*
X126614972Y-116360906D01*
X126634187Y-116394187D01*
X126683497Y-116479594D01*
X126780406Y-116576503D01*
X126899095Y-116645028D01*
X126899096Y-116645028D01*
X126899098Y-116645029D01*
X126951592Y-116659095D01*
X127031472Y-116680499D01*
X127031473Y-116680500D01*
X127031475Y-116680500D01*
X127168526Y-116680500D01*
X127196313Y-116673054D01*
X127252466Y-116680445D01*
X127286945Y-116725378D01*
X127286946Y-116763683D01*
X127279500Y-116791473D01*
X127279500Y-116928527D01*
X127314970Y-117060901D01*
X127314972Y-117060906D01*
X127370114Y-117156414D01*
X127383497Y-117179594D01*
X127480406Y-117276503D01*
X127599095Y-117345028D01*
X127599096Y-117345028D01*
X127599098Y-117345029D01*
X127665285Y-117362764D01*
X127731472Y-117380499D01*
X127731473Y-117380500D01*
X127731475Y-117380500D01*
X127868527Y-117380500D01*
X127868527Y-117380499D01*
X128000905Y-117345028D01*
X128119594Y-117276503D01*
X128216503Y-117179594D01*
X128285028Y-117060905D01*
X128320499Y-116928527D01*
X128320500Y-116928527D01*
X128320500Y-116791473D01*
X128320499Y-116791472D01*
X128313054Y-116763685D01*
X128320446Y-116707533D01*
X128365379Y-116673054D01*
X128403685Y-116673054D01*
X128423575Y-116678383D01*
X128431472Y-116680499D01*
X128431473Y-116680500D01*
X128431475Y-116680500D01*
X128568526Y-116680500D01*
X128596313Y-116673054D01*
X128652466Y-116680445D01*
X128686945Y-116725378D01*
X128686946Y-116763683D01*
X128679500Y-116791473D01*
X128679500Y-116928527D01*
X128714970Y-117060901D01*
X128714972Y-117060906D01*
X128770114Y-117156414D01*
X128783497Y-117179594D01*
X128880406Y-117276503D01*
X128999095Y-117345028D01*
X128999096Y-117345028D01*
X128999098Y-117345029D01*
X129065285Y-117362764D01*
X129131472Y-117380499D01*
X129131473Y-117380500D01*
X129131475Y-117380500D01*
X129268527Y-117380500D01*
X129268527Y-117380499D01*
X129400905Y-117345028D01*
X129519594Y-117276503D01*
X129616503Y-117179594D01*
X129685028Y-117060905D01*
X129720499Y-116928527D01*
X129720500Y-116928527D01*
X129720500Y-116791473D01*
X129720499Y-116791472D01*
X129713054Y-116763685D01*
X129720446Y-116707533D01*
X129765379Y-116673054D01*
X129803685Y-116673054D01*
X129823575Y-116678383D01*
X129831472Y-116680499D01*
X129831473Y-116680500D01*
X129831475Y-116680500D01*
X129968527Y-116680500D01*
X129968527Y-116680499D01*
X130100905Y-116645028D01*
X130219594Y-116576503D01*
X130234625Y-116561472D01*
X140117500Y-116561472D01*
X140117500Y-116698527D01*
X140152970Y-116830901D01*
X140152972Y-116830906D01*
X140209333Y-116928525D01*
X140221497Y-116949594D01*
X140318406Y-117046503D01*
X140437095Y-117115028D01*
X140437096Y-117115028D01*
X140437098Y-117115029D01*
X140503285Y-117132764D01*
X140569472Y-117150499D01*
X140569473Y-117150500D01*
X140569475Y-117150500D01*
X140706527Y-117150500D01*
X140706527Y-117150499D01*
X140838905Y-117115028D01*
X140957594Y-117046503D01*
X141054503Y-116949594D01*
X141123028Y-116830905D01*
X141158499Y-116698527D01*
X141158500Y-116698527D01*
X141158500Y-116561473D01*
X141158499Y-116561472D01*
X141123029Y-116429098D01*
X141123027Y-116429093D01*
X141083659Y-116360906D01*
X141054503Y-116310406D01*
X140957594Y-116213497D01*
X140838906Y-116144972D01*
X140838901Y-116144970D01*
X140706527Y-116109500D01*
X140706525Y-116109500D01*
X140569475Y-116109500D01*
X140569473Y-116109500D01*
X140437098Y-116144970D01*
X140437093Y-116144972D01*
X140318405Y-116213497D01*
X140221497Y-116310405D01*
X140152972Y-116429093D01*
X140152970Y-116429098D01*
X140117500Y-116561472D01*
X130234625Y-116561472D01*
X130316503Y-116479594D01*
X130385028Y-116360905D01*
X130420499Y-116228527D01*
X130420500Y-116228527D01*
X130420500Y-116091473D01*
X130420499Y-116091472D01*
X130413053Y-116063685D01*
X130390749Y-115980445D01*
X130385029Y-115959098D01*
X130385027Y-115959093D01*
X130339651Y-115880500D01*
X130316503Y-115840406D01*
X130219594Y-115743497D01*
X130100906Y-115674972D01*
X130100901Y-115674970D01*
X129968527Y-115639500D01*
X129968525Y-115639500D01*
X129831475Y-115639500D01*
X129831474Y-115639500D01*
X129803683Y-115646946D01*
X129747531Y-115639552D01*
X129713053Y-115594618D01*
X129713054Y-115556313D01*
X129720500Y-115528526D01*
X129720500Y-115391473D01*
X129720499Y-115391472D01*
X129713054Y-115363685D01*
X129720446Y-115307533D01*
X129741377Y-115291472D01*
X139437500Y-115291472D01*
X139437500Y-115428527D01*
X139472970Y-115560901D01*
X139472972Y-115560906D01*
X139478345Y-115570212D01*
X139541497Y-115679594D01*
X139638406Y-115776503D01*
X139757095Y-115845028D01*
X139757096Y-115845028D01*
X139757098Y-115845029D01*
X139775650Y-115850000D01*
X139889472Y-115880499D01*
X139889473Y-115880500D01*
X139889475Y-115880500D01*
X140026527Y-115880500D01*
X140026527Y-115880499D01*
X140158905Y-115845028D01*
X140277594Y-115776503D01*
X140374503Y-115679594D01*
X140443028Y-115560905D01*
X140478499Y-115428527D01*
X140478500Y-115428527D01*
X140478500Y-115291473D01*
X140478499Y-115291472D01*
X140469823Y-115259095D01*
X140443028Y-115159095D01*
X140374503Y-115040406D01*
X140277594Y-114943497D01*
X140233718Y-114918165D01*
X140158906Y-114874972D01*
X140158901Y-114874970D01*
X140026527Y-114839500D01*
X140026525Y-114839500D01*
X139889475Y-114839500D01*
X139889473Y-114839500D01*
X139757098Y-114874970D01*
X139757093Y-114874972D01*
X139638405Y-114943497D01*
X139541497Y-115040405D01*
X139472972Y-115159093D01*
X139472970Y-115159098D01*
X139437500Y-115291472D01*
X129741377Y-115291472D01*
X129765379Y-115273054D01*
X129803685Y-115273054D01*
X129823575Y-115278383D01*
X129831472Y-115280499D01*
X129831473Y-115280500D01*
X129831475Y-115280500D01*
X129968527Y-115280500D01*
X129968527Y-115280499D01*
X130100905Y-115245028D01*
X130219594Y-115176503D01*
X130316503Y-115079594D01*
X130385028Y-114960905D01*
X130420499Y-114828527D01*
X130420500Y-114828527D01*
X130420500Y-114750000D01*
X143050000Y-114750000D01*
X143344744Y-115850000D01*
X144150000Y-116655255D01*
X145249999Y-116950000D01*
X145250000Y-116950000D01*
X145250001Y-116950000D01*
X145945342Y-116763683D01*
X146350000Y-116655255D01*
X147155255Y-115850000D01*
X147397228Y-114946946D01*
X147450000Y-114750001D01*
X147450000Y-114749998D01*
X147426871Y-114663683D01*
X147406048Y-114585972D01*
X158582899Y-114585972D01*
X158582899Y-114703279D01*
X158613257Y-114816578D01*
X158613261Y-114816587D01*
X158671907Y-114918165D01*
X158671908Y-114918166D01*
X158671910Y-114918169D01*
X158754856Y-115001115D01*
X158856442Y-115059766D01*
X158969745Y-115090125D01*
X158969746Y-115090126D01*
X158969748Y-115090126D01*
X159087052Y-115090126D01*
X159087052Y-115090125D01*
X159200356Y-115059766D01*
X159301942Y-115001115D01*
X159384888Y-114918169D01*
X159443539Y-114816583D01*
X159473898Y-114703279D01*
X159473899Y-114703279D01*
X159473899Y-114585973D01*
X159473898Y-114585972D01*
X159470965Y-114575027D01*
X159443539Y-114472669D01*
X159424911Y-114440405D01*
X159384890Y-114371086D01*
X159384889Y-114371085D01*
X159384888Y-114371083D01*
X159301942Y-114288137D01*
X159301939Y-114288135D01*
X159301938Y-114288134D01*
X159200360Y-114229488D01*
X159200351Y-114229484D01*
X159087052Y-114199126D01*
X159087050Y-114199126D01*
X158969748Y-114199126D01*
X158969746Y-114199126D01*
X158856446Y-114229484D01*
X158856437Y-114229488D01*
X158754859Y-114288134D01*
X158671907Y-114371086D01*
X158613261Y-114472664D01*
X158613257Y-114472673D01*
X158582899Y-114585972D01*
X147406048Y-114585972D01*
X147155255Y-113650000D01*
X146350000Y-112844744D01*
X145250000Y-112550000D01*
X144149999Y-112844744D01*
X143344744Y-113649999D01*
X143050000Y-114750000D01*
X130420500Y-114750000D01*
X130420500Y-114691473D01*
X130420499Y-114691472D01*
X130413053Y-114663685D01*
X130389297Y-114575027D01*
X130385029Y-114559098D01*
X130385027Y-114559093D01*
X130316502Y-114440405D01*
X130219594Y-114343497D01*
X130100906Y-114274972D01*
X130100901Y-114274970D01*
X129968527Y-114239500D01*
X129968525Y-114239500D01*
X129831475Y-114239500D01*
X129831474Y-114239500D01*
X129803683Y-114246946D01*
X129747531Y-114239552D01*
X129713053Y-114194618D01*
X129713054Y-114156313D01*
X129720500Y-114128526D01*
X129720500Y-113991473D01*
X129720499Y-113991472D01*
X129685029Y-113859098D01*
X129685027Y-113859093D01*
X129616502Y-113740405D01*
X129519594Y-113643497D01*
X129400906Y-113574972D01*
X129400901Y-113574970D01*
X129268527Y-113539500D01*
X129268525Y-113539500D01*
X129131475Y-113539500D01*
X129131473Y-113539500D01*
X128999098Y-113574970D01*
X128999093Y-113574972D01*
X128880405Y-113643497D01*
X128783497Y-113740405D01*
X128714972Y-113859093D01*
X128714970Y-113859098D01*
X128679500Y-113991472D01*
X128679500Y-113991475D01*
X128679500Y-114128525D01*
X128682118Y-114138296D01*
X128686946Y-114156315D01*
X128679552Y-114212468D01*
X128634619Y-114246946D01*
X128596315Y-114246946D01*
X128568525Y-114239500D01*
X128431475Y-114239500D01*
X128431474Y-114239500D01*
X128403683Y-114246946D01*
X128347531Y-114239552D01*
X128313053Y-114194618D01*
X128313054Y-114156313D01*
X128320500Y-114128526D01*
X128320500Y-113991473D01*
X128320499Y-113991472D01*
X128285029Y-113859098D01*
X128285027Y-113859093D01*
X128216502Y-113740405D01*
X128119594Y-113643497D01*
X128000906Y-113574972D01*
X128000901Y-113574970D01*
X127868527Y-113539500D01*
X127868525Y-113539500D01*
X127731475Y-113539500D01*
X127731473Y-113539500D01*
X127599098Y-113574970D01*
X127599093Y-113574972D01*
X127480405Y-113643497D01*
X127383497Y-113740405D01*
X127314972Y-113859093D01*
X127314970Y-113859098D01*
X127279500Y-113991472D01*
X127279500Y-113991475D01*
X127279500Y-114128525D01*
X127282118Y-114138296D01*
X127286946Y-114156315D01*
X127279552Y-114212468D01*
X127234619Y-114246946D01*
X127196315Y-114246946D01*
X127168525Y-114239500D01*
X127031475Y-114239500D01*
X127031473Y-114239500D01*
X126899098Y-114274970D01*
X126899093Y-114274972D01*
X126780405Y-114343497D01*
X126683497Y-114440405D01*
X126614972Y-114559093D01*
X126614970Y-114559098D01*
X126579500Y-114691472D01*
X116934317Y-114691472D01*
X116758624Y-114035777D01*
X116758624Y-114035775D01*
X116754791Y-114021472D01*
X121934500Y-114021472D01*
X121934500Y-114158527D01*
X121969970Y-114290901D01*
X121969972Y-114290906D01*
X122038497Y-114409594D01*
X122135406Y-114506503D01*
X122254095Y-114575028D01*
X122254096Y-114575028D01*
X122254098Y-114575029D01*
X122320285Y-114592764D01*
X122386472Y-114610499D01*
X122386473Y-114610500D01*
X122386475Y-114610500D01*
X122523527Y-114610500D01*
X122523527Y-114610499D01*
X122655905Y-114575028D01*
X122774594Y-114506503D01*
X122871503Y-114409594D01*
X122940028Y-114290905D01*
X122975499Y-114158527D01*
X122975500Y-114158527D01*
X122975500Y-114021473D01*
X122975499Y-114021472D01*
X122967460Y-113991472D01*
X122940028Y-113889095D01*
X122871503Y-113770406D01*
X122774594Y-113673497D01*
X122733896Y-113650000D01*
X122655906Y-113604972D01*
X122655901Y-113604970D01*
X122523527Y-113569500D01*
X122523525Y-113569500D01*
X122386475Y-113569500D01*
X122386473Y-113569500D01*
X122254098Y-113604970D01*
X122254093Y-113604972D01*
X122135405Y-113673497D01*
X122038497Y-113770405D01*
X121969972Y-113889093D01*
X121969970Y-113889098D01*
X121934500Y-114021472D01*
X116754791Y-114021472D01*
X116655255Y-113650000D01*
X115850000Y-112844744D01*
X114750000Y-112550000D01*
X113649999Y-112844744D01*
X112844744Y-113649999D01*
X112550000Y-114750000D01*
X98650000Y-114750000D01*
X98650000Y-112279576D01*
X104212877Y-112279576D01*
X104212877Y-112396883D01*
X104243235Y-112510182D01*
X104243239Y-112510191D01*
X104301885Y-112611769D01*
X104301886Y-112611770D01*
X104301888Y-112611773D01*
X104384834Y-112694719D01*
X104384836Y-112694720D01*
X104384837Y-112694721D01*
X104400746Y-112703906D01*
X104486420Y-112753370D01*
X104599723Y-112783729D01*
X104599724Y-112783730D01*
X104599726Y-112783730D01*
X104717030Y-112783730D01*
X104717030Y-112783729D01*
X104830334Y-112753370D01*
X104931920Y-112694719D01*
X105014866Y-112611773D01*
X105073517Y-112510187D01*
X105093805Y-112434472D01*
X118213500Y-112434472D01*
X118213500Y-112571527D01*
X118248970Y-112703901D01*
X118248972Y-112703906D01*
X118277531Y-112753371D01*
X118317497Y-112822594D01*
X118414406Y-112919503D01*
X118533095Y-112988028D01*
X118533096Y-112988028D01*
X118533098Y-112988029D01*
X118599285Y-113005764D01*
X118665472Y-113023499D01*
X118665473Y-113023500D01*
X118665475Y-113023500D01*
X118802527Y-113023500D01*
X118802527Y-113023499D01*
X118934905Y-112988028D01*
X119053594Y-112919503D01*
X119150503Y-112822594D01*
X119219028Y-112703905D01*
X119254499Y-112571527D01*
X119254500Y-112571527D01*
X119254500Y-112434473D01*
X119254499Y-112434472D01*
X119248068Y-112410473D01*
X119229545Y-112341346D01*
X147854500Y-112341346D01*
X147854500Y-112458653D01*
X147884858Y-112571952D01*
X147884862Y-112571961D01*
X147943508Y-112673539D01*
X147943509Y-112673540D01*
X147943511Y-112673543D01*
X148026457Y-112756489D01*
X148026459Y-112756490D01*
X148026460Y-112756491D01*
X148097862Y-112797715D01*
X148128043Y-112815140D01*
X148241346Y-112845499D01*
X148241347Y-112845500D01*
X148241349Y-112845500D01*
X148358653Y-112845500D01*
X148358653Y-112845499D01*
X148471957Y-112815140D01*
X148573543Y-112756489D01*
X148656489Y-112673543D01*
X148715140Y-112571957D01*
X148745499Y-112458653D01*
X148745500Y-112458653D01*
X148745500Y-112341347D01*
X148745499Y-112341346D01*
X148715141Y-112228047D01*
X148715140Y-112228043D01*
X148656489Y-112126457D01*
X148573543Y-112043511D01*
X148573540Y-112043509D01*
X148573539Y-112043508D01*
X148471961Y-111984862D01*
X148471952Y-111984858D01*
X148358653Y-111954500D01*
X148358651Y-111954500D01*
X148241349Y-111954500D01*
X148241347Y-111954500D01*
X148128047Y-111984858D01*
X148128038Y-111984862D01*
X148026460Y-112043508D01*
X147943508Y-112126460D01*
X147884862Y-112228038D01*
X147884858Y-112228047D01*
X147854500Y-112341346D01*
X119229545Y-112341346D01*
X119219028Y-112302095D01*
X119150503Y-112183406D01*
X119053594Y-112086497D01*
X118934906Y-112017972D01*
X118934901Y-112017970D01*
X118802527Y-111982500D01*
X118802525Y-111982500D01*
X118665475Y-111982500D01*
X118665473Y-111982500D01*
X118533098Y-112017970D01*
X118533093Y-112017972D01*
X118414405Y-112086497D01*
X118317497Y-112183405D01*
X118248972Y-112302093D01*
X118248970Y-112302098D01*
X118213500Y-112434472D01*
X105093805Y-112434472D01*
X105103877Y-112396881D01*
X105103877Y-112279579D01*
X105103877Y-112279577D01*
X105103876Y-112279576D01*
X105073518Y-112166277D01*
X105073517Y-112166273D01*
X105014866Y-112064687D01*
X104931920Y-111981741D01*
X104931917Y-111981739D01*
X104931916Y-111981738D01*
X104830338Y-111923092D01*
X104830329Y-111923088D01*
X104717030Y-111892730D01*
X104717028Y-111892730D01*
X104599726Y-111892730D01*
X104599724Y-111892730D01*
X104486424Y-111923088D01*
X104486415Y-111923092D01*
X104384837Y-111981738D01*
X104301885Y-112064690D01*
X104243239Y-112166268D01*
X104243235Y-112166277D01*
X104212877Y-112279576D01*
X98650000Y-112279576D01*
X98650000Y-111481472D01*
X126745500Y-111481472D01*
X126745500Y-111618527D01*
X126780970Y-111750901D01*
X126780972Y-111750906D01*
X126822907Y-111823539D01*
X126849497Y-111869594D01*
X126946406Y-111966503D01*
X127065095Y-112035028D01*
X127065096Y-112035028D01*
X127065098Y-112035029D01*
X127096742Y-112043508D01*
X127197472Y-112070499D01*
X127197473Y-112070500D01*
X127197475Y-112070500D01*
X127334527Y-112070500D01*
X127334527Y-112070499D01*
X127466905Y-112035028D01*
X127585594Y-111966503D01*
X127682503Y-111869594D01*
X127751028Y-111750905D01*
X127786499Y-111618527D01*
X127786500Y-111618527D01*
X127786500Y-111491346D01*
X148554500Y-111491346D01*
X148554500Y-111608653D01*
X148584858Y-111721952D01*
X148584862Y-111721961D01*
X148643508Y-111823539D01*
X148643509Y-111823540D01*
X148643511Y-111823543D01*
X148726457Y-111906489D01*
X148726459Y-111906490D01*
X148726460Y-111906491D01*
X148755214Y-111923092D01*
X148828043Y-111965140D01*
X148941346Y-111995499D01*
X148941347Y-111995500D01*
X148941349Y-111995500D01*
X149058653Y-111995500D01*
X149058653Y-111995499D01*
X149171957Y-111965140D01*
X149273543Y-111906489D01*
X149356489Y-111823543D01*
X149415140Y-111721957D01*
X149445499Y-111608653D01*
X149445500Y-111608653D01*
X149445500Y-111491347D01*
X149445499Y-111491346D01*
X149415141Y-111378047D01*
X149415140Y-111378043D01*
X149356489Y-111276457D01*
X149273543Y-111193511D01*
X149273540Y-111193509D01*
X149273539Y-111193508D01*
X149171961Y-111134862D01*
X149171952Y-111134858D01*
X149058653Y-111104500D01*
X149058651Y-111104500D01*
X148941349Y-111104500D01*
X148941347Y-111104500D01*
X148828047Y-111134858D01*
X148828038Y-111134862D01*
X148726460Y-111193508D01*
X148643508Y-111276460D01*
X148584862Y-111378038D01*
X148584858Y-111378047D01*
X148554500Y-111491346D01*
X127786500Y-111491346D01*
X127786500Y-111481473D01*
X127786499Y-111481472D01*
X127751029Y-111349098D01*
X127751027Y-111349093D01*
X127709092Y-111276460D01*
X127682503Y-111230406D01*
X127585594Y-111133497D01*
X127535370Y-111104500D01*
X127466906Y-111064972D01*
X127466901Y-111064970D01*
X127334527Y-111029500D01*
X127334525Y-111029500D01*
X127197475Y-111029500D01*
X127197473Y-111029500D01*
X127065098Y-111064970D01*
X127065093Y-111064972D01*
X126946405Y-111133497D01*
X126849497Y-111230405D01*
X126780972Y-111349093D01*
X126780970Y-111349098D01*
X126745500Y-111481472D01*
X98650000Y-111481472D01*
X98650000Y-110797568D01*
X105038161Y-110797568D01*
X105038161Y-110914875D01*
X105068519Y-111028174D01*
X105068523Y-111028183D01*
X105127169Y-111129761D01*
X105127170Y-111129762D01*
X105127172Y-111129765D01*
X105210118Y-111212711D01*
X105210120Y-111212712D01*
X105210121Y-111212713D01*
X105240766Y-111230406D01*
X105311704Y-111271362D01*
X105425007Y-111301721D01*
X105425008Y-111301722D01*
X105425010Y-111301722D01*
X105542314Y-111301722D01*
X105542314Y-111301721D01*
X105655618Y-111271362D01*
X105757204Y-111212711D01*
X105840150Y-111129765D01*
X105898801Y-111028179D01*
X105929160Y-110914875D01*
X105929161Y-110914875D01*
X105929161Y-110797569D01*
X105929160Y-110797568D01*
X105898802Y-110684269D01*
X105898801Y-110684265D01*
X105840150Y-110582679D01*
X105757204Y-110499733D01*
X105757201Y-110499731D01*
X105757200Y-110499730D01*
X105655622Y-110441084D01*
X105655613Y-110441080D01*
X105542314Y-110410722D01*
X105542312Y-110410722D01*
X105425010Y-110410722D01*
X105425008Y-110410722D01*
X105311708Y-110441080D01*
X105311699Y-110441084D01*
X105210121Y-110499730D01*
X105127169Y-110582682D01*
X105068523Y-110684260D01*
X105068519Y-110684269D01*
X105038161Y-110797568D01*
X98650000Y-110797568D01*
X98650000Y-109864472D01*
X136397500Y-109864472D01*
X136397500Y-110001527D01*
X136432970Y-110133901D01*
X136432972Y-110133906D01*
X136497401Y-110245499D01*
X136501497Y-110252594D01*
X136598406Y-110349503D01*
X136685291Y-110399666D01*
X136704440Y-110410722D01*
X136717095Y-110418028D01*
X136717096Y-110418028D01*
X136717098Y-110418029D01*
X136783285Y-110435764D01*
X136849472Y-110453499D01*
X136849473Y-110453500D01*
X136849475Y-110453500D01*
X136986527Y-110453500D01*
X136986527Y-110453499D01*
X137118905Y-110418028D01*
X137237594Y-110349503D01*
X137334503Y-110252594D01*
X137403028Y-110133905D01*
X137438499Y-110001527D01*
X137438500Y-110001527D01*
X137438500Y-109864473D01*
X137438499Y-109864472D01*
X137409341Y-109755652D01*
X137405507Y-109741346D01*
X148554500Y-109741346D01*
X148554500Y-109858653D01*
X148584858Y-109971952D01*
X148584862Y-109971961D01*
X148643508Y-110073539D01*
X148643509Y-110073540D01*
X148643511Y-110073543D01*
X148726457Y-110156489D01*
X148828043Y-110215140D01*
X148941346Y-110245499D01*
X148941347Y-110245500D01*
X148941349Y-110245500D01*
X149058653Y-110245500D01*
X149058653Y-110245499D01*
X149171957Y-110215140D01*
X149273543Y-110156489D01*
X149356489Y-110073543D01*
X149415140Y-109971957D01*
X149445499Y-109858653D01*
X149445500Y-109858653D01*
X149445500Y-109741347D01*
X149445499Y-109741346D01*
X149415141Y-109628047D01*
X149415140Y-109628043D01*
X149356489Y-109526457D01*
X149273543Y-109443511D01*
X149273540Y-109443509D01*
X149273539Y-109443508D01*
X149171961Y-109384862D01*
X149171952Y-109384858D01*
X149058653Y-109354500D01*
X149058651Y-109354500D01*
X148941349Y-109354500D01*
X148941347Y-109354500D01*
X148828047Y-109384858D01*
X148828038Y-109384862D01*
X148726460Y-109443508D01*
X148643508Y-109526460D01*
X148584862Y-109628038D01*
X148584858Y-109628047D01*
X148554500Y-109741346D01*
X137405507Y-109741346D01*
X137403028Y-109732095D01*
X137334503Y-109613406D01*
X137237594Y-109516497D01*
X137118906Y-109447972D01*
X137118901Y-109447970D01*
X136986527Y-109412500D01*
X136986525Y-109412500D01*
X136849475Y-109412500D01*
X136849473Y-109412500D01*
X136717098Y-109447970D01*
X136717093Y-109447972D01*
X136598405Y-109516497D01*
X136501497Y-109613405D01*
X136432972Y-109732093D01*
X136432970Y-109732098D01*
X136397500Y-109864472D01*
X98650000Y-109864472D01*
X98650000Y-108941472D01*
X139442500Y-108941472D01*
X139442500Y-109078527D01*
X139477970Y-109210901D01*
X139477972Y-109210906D01*
X139546497Y-109329594D01*
X139643406Y-109426503D01*
X139762095Y-109495028D01*
X139762096Y-109495028D01*
X139762098Y-109495029D01*
X139828285Y-109512764D01*
X139894472Y-109530499D01*
X139894473Y-109530500D01*
X139894475Y-109530500D01*
X140031527Y-109530500D01*
X140031527Y-109530499D01*
X140163905Y-109495028D01*
X140282594Y-109426503D01*
X140379503Y-109329594D01*
X140448028Y-109210905D01*
X140483499Y-109078527D01*
X140483500Y-109078527D01*
X140483500Y-108941473D01*
X140483499Y-108941472D01*
X140448029Y-108809098D01*
X140448027Y-108809093D01*
X140379502Y-108690405D01*
X140330443Y-108641346D01*
X147854500Y-108641346D01*
X147854500Y-108758653D01*
X147884858Y-108871952D01*
X147884862Y-108871961D01*
X147943508Y-108973539D01*
X147943509Y-108973540D01*
X147943511Y-108973543D01*
X148026457Y-109056489D01*
X148128043Y-109115140D01*
X148241346Y-109145499D01*
X148241347Y-109145500D01*
X148241349Y-109145500D01*
X148358653Y-109145500D01*
X148358653Y-109145499D01*
X148471957Y-109115140D01*
X148573543Y-109056489D01*
X148656489Y-108973543D01*
X148715140Y-108871957D01*
X148745499Y-108758653D01*
X148745500Y-108758653D01*
X148745500Y-108641347D01*
X148745499Y-108641346D01*
X148715141Y-108528047D01*
X148715140Y-108528043D01*
X148656489Y-108426457D01*
X148573543Y-108343511D01*
X148573540Y-108343509D01*
X148573539Y-108343508D01*
X148471961Y-108284862D01*
X148471952Y-108284858D01*
X148358653Y-108254500D01*
X148358651Y-108254500D01*
X148241349Y-108254500D01*
X148241347Y-108254500D01*
X148128047Y-108284858D01*
X148128038Y-108284862D01*
X148026460Y-108343508D01*
X147943508Y-108426460D01*
X147884862Y-108528038D01*
X147884858Y-108528047D01*
X147854500Y-108641346D01*
X140330443Y-108641346D01*
X140282594Y-108593497D01*
X140163906Y-108524972D01*
X140163901Y-108524970D01*
X140031527Y-108489500D01*
X140031525Y-108489500D01*
X139894475Y-108489500D01*
X139894473Y-108489500D01*
X139762098Y-108524970D01*
X139762093Y-108524972D01*
X139643405Y-108593497D01*
X139546497Y-108690405D01*
X139477972Y-108809093D01*
X139477970Y-108809098D01*
X139442500Y-108941472D01*
X98650000Y-108941472D01*
X98650000Y-107472968D01*
X137122730Y-107472968D01*
X137122730Y-107590275D01*
X137153088Y-107703574D01*
X137153092Y-107703583D01*
X137211738Y-107805161D01*
X137211739Y-107805162D01*
X137211741Y-107805165D01*
X137294687Y-107888111D01*
X137396273Y-107946762D01*
X137509576Y-107977121D01*
X137509577Y-107977122D01*
X137509579Y-107977122D01*
X137626883Y-107977122D01*
X137626883Y-107977121D01*
X137740187Y-107946762D01*
X137841773Y-107888111D01*
X137924719Y-107805165D01*
X137983370Y-107703579D01*
X138013729Y-107590275D01*
X138013730Y-107590275D01*
X138013730Y-107472969D01*
X138013729Y-107472968D01*
X137983371Y-107359669D01*
X137983370Y-107359665D01*
X137927783Y-107263386D01*
X137924721Y-107258082D01*
X137924720Y-107258081D01*
X137924719Y-107258079D01*
X137841773Y-107175133D01*
X137841770Y-107175131D01*
X137841769Y-107175130D01*
X137740191Y-107116484D01*
X137740182Y-107116480D01*
X137626883Y-107086122D01*
X137626881Y-107086122D01*
X137509579Y-107086122D01*
X137509577Y-107086122D01*
X137396277Y-107116480D01*
X137396268Y-107116484D01*
X137294690Y-107175130D01*
X137211738Y-107258082D01*
X137153092Y-107359660D01*
X137153088Y-107359669D01*
X137122730Y-107472968D01*
X98650000Y-107472968D01*
X98650000Y-101279576D01*
X104212877Y-101279576D01*
X104212877Y-101396883D01*
X104243235Y-101510182D01*
X104243239Y-101510191D01*
X104301885Y-101611769D01*
X104301886Y-101611770D01*
X104301888Y-101611773D01*
X104384834Y-101694719D01*
X104486420Y-101753370D01*
X104599723Y-101783729D01*
X104599724Y-101783730D01*
X104599726Y-101783730D01*
X104717030Y-101783730D01*
X104717030Y-101783729D01*
X104830334Y-101753370D01*
X104931920Y-101694719D01*
X105014866Y-101611773D01*
X105073517Y-101510187D01*
X105103876Y-101396883D01*
X105103877Y-101396883D01*
X105103877Y-101279577D01*
X105103876Y-101279576D01*
X105073518Y-101166277D01*
X105073517Y-101166273D01*
X105014866Y-101064687D01*
X104931920Y-100981741D01*
X104931917Y-100981739D01*
X104931916Y-100981738D01*
X104830338Y-100923092D01*
X104830329Y-100923088D01*
X104717030Y-100892730D01*
X104717028Y-100892730D01*
X104599726Y-100892730D01*
X104599724Y-100892730D01*
X104486424Y-100923088D01*
X104486415Y-100923092D01*
X104384837Y-100981738D01*
X104301885Y-101064690D01*
X104243239Y-101166268D01*
X104243235Y-101166277D01*
X104212877Y-101279576D01*
X98650000Y-101279576D01*
X98650000Y-100724000D01*
X98671674Y-100671674D01*
X98724000Y-100650000D01*
X105926000Y-100650000D01*
X105978326Y-100671674D01*
G37*
%TD.AperFunction*%
%TD*%
M02*
