M48
; DRILL file KiCad 10.0.3 date 2026-09-13T09:09:07
; FORMAT={-:-/ absolute / metric / decimal}
; #@! TF.CreationDate,2026-09-13T09:09:07+03:00
; #@! TF.GenerationSoftware,Kicad,Pcbnew,10.0.3
; #@! TF.FileFunction,MixedPlating,1,4
FMAT,2
METRIC
; #@! TA.AperFunction,Plated,PTH,ViaDrill
T1C0.200
; #@! TA.AperFunction,Plated,PTH,ComponentDrill
T2C0.200
; #@! TA.AperFunction,Plated,PTH,ViaDrill
T3C0.300
; #@! TA.AperFunction,Plated,PTH,ComponentDrill
T4C0.600
; #@! TA.AperFunction,NonPlated,NPTH,ComponentDrill
T5C0.650
; #@! TA.AperFunction,NonPlated,NPTH,ComponentDrill
T6C3.200
%
G90
G05
T1
X100.45Y-154.0
X101.0Y-146.15
X101.44Y-150.572
X104.658Y-101.338
X104.658Y-112.338
X104.658Y-122.662
X105.484Y-110.856
X107.224Y-126.061
X107.224Y-133.939
X107.773Y-126.34
X107.773Y-133.66
X108.15Y-154.0
X109.724Y-155.545
X109.806Y-129.838
X110.113Y-152.635
X110.82Y-148.993
X111.07Y-152.821
X111.625Y-137.0
X111.962Y-133.0
X112.0Y-126.695
X114.0Y-149.325
X114.55Y-129.974
X115.625Y-137.0
X115.762Y-155.0
X117.0Y-141.502
X120.0Y-130.44
X120.122Y-108.6
X120.45Y-141.604
X120.919Y-126.869
X120.942Y-106.894
X121.692Y-153.379
X121.966Y-127.219
X123.0Y-130.045
X123.6Y-149.15
X124.0Y-139.325
X125.312Y-132.0
X126.0Y-149.705
X127.525Y-153.611
X128.5Y-115.46
X129.0Y-136.74
X129.346Y-131.5
X129.637Y-146.95
X129.737Y-147.65
X130.0Y-136.74
X130.1Y-135.237
X130.15Y-146.438
X130.6Y-135.737
X134.0Y-149.705
X134.056Y-131.114
X135.394Y-139.339
X137.294Y-139.339
X137.375Y-132.0
X137.446Y-128.357
X137.568Y-107.532
X138.325Y-136.2
X138.961Y-139.45
X139.68Y-138.35
X142.29Y-128.501
X143.075Y-133.725
X144.228Y-136.275
X147.419Y-138.939
X148.3Y-108.7
X148.3Y-112.4
X149.0Y-109.8
X149.0Y-111.55
X149.154Y-144.133
X149.47Y-113.326
X149.528Y-114.645
X149.528Y-115.745
X149.861Y-148.053
X150.12Y-151.91
X150.462Y-148.17
X150.476Y-106.848
X152.808Y-144.671
X152.808Y-148.171
X154.275Y-140.691
X155.0Y-144.625
X155.028Y-148.186
X156.0Y-118.625
X156.0Y-123.375
X157.0Y-105.125
X157.5Y-144.625
X158.081Y-140.711
X158.751Y-125.291
X159.028Y-114.645
X159.692Y-121.439
X159.975Y-117.59
X160.0Y-124.735
X160.524Y-117.152
X160.525Y-121.343
T2
X127.1Y-114.76
X127.1Y-116.16
X127.8Y-114.06
X127.8Y-115.46
X127.8Y-116.86
X128.5Y-114.76
X128.5Y-116.16
X129.2Y-114.06
X129.2Y-115.46
X129.2Y-116.86
X129.9Y-114.76
X129.9Y-116.16
T3
X108.906Y-132.075
X109.028Y-130.117
X115.0Y-126.66
X118.734Y-112.503
X119.305Y-121.71
X122.455Y-114.09
X122.455Y-135.2
X123.011Y-115.36
X123.113Y-143.907
X126.115Y-156.988
X126.129Y-128.072
X126.19Y-123.79
X127.266Y-111.55
X127.402Y-141.078
X127.786Y-122.98
X128.154Y-141.224
X128.923Y-147.61
X129.15Y-150.391
X129.15Y-152.908
X129.294Y-132.351
X129.296Y-133.805
X129.846Y-126.704
X129.895Y-140.926
X130.151Y-140.054
X130.811Y-147.622
X131.376Y-146.977
X131.41Y-149.25
X131.888Y-147.551
X132.13Y-137.401
X132.591Y-139.509
X132.66Y-140.261
X132.907Y-131.243
X133.06Y-151.38
X133.489Y-120.44
X133.489Y-129.716
X133.492Y-136.372
X134.293Y-135.596
X134.747Y-121.721
X135.252Y-136.364
X136.328Y-121.4
X136.918Y-109.933
X137.752Y-134.678
X139.958Y-115.36
X139.963Y-109.01
X140.231Y-118.444
X140.638Y-116.63
X141.323Y-119.267
X144.337Y-137.925
X144.345Y-133.518
X146.05Y-132.865
X146.28Y-141.012
X146.855Y-136.825
X146.855Y-141.583
X148.517Y-142.254
X152.2Y-152.625
T5
X105.2Y-127.11
X105.2Y-132.89
T6
X114.75Y-114.75
X114.75Y-145.25
X145.25Y-114.75
X145.25Y-145.25
T4
X101.85Y-125.68G85X101.25Y-125.68
G05
X101.85Y-134.32G85X101.25Y-134.32
G05
X106.28Y-125.68G85X105.18Y-125.68
G05
X106.28Y-134.32G85X105.18Y-134.32
G05
M30
