M48
; DRILL file KiCad 10.0.3 date 2026-09-12T15:16:47
; FORMAT={-:-/ absolute / metric / decimal}
; #@! TF.CreationDate,2026-09-12T15:16:47+03:00
; #@! TF.GenerationSoftware,Kicad,Pcbnew,10.0.3
; #@! TF.FileFunction,MixedPlating,1,4
FMAT,2
METRIC
; #@! TA.AperFunction,Plated,PTH,ViaDrill
T1C0.200
; #@! TA.AperFunction,Plated,PTH,ComponentDrill
T2C0.200
; #@! TA.AperFunction,Plated,PTH,ViaDrill
T3C0.300
; #@! TA.AperFunction,Plated,PTH,ComponentDrill
T4C0.600
; #@! TA.AperFunction,NonPlated,NPTH,ComponentDrill
T5C0.650
; #@! TA.AperFunction,NonPlated,NPTH,ComponentDrill
T6C3.200
%
G90
G05
T1
X100.8Y-146.85
X101.65Y-151.5
X101.65Y-153.8
X104.25Y-102.32
X104.25Y-110.28
X104.25Y-113.32
X104.25Y-121.28
X106.445Y-126.55
X106.445Y-133.45
X107.145Y-126.75
X107.145Y-133.25
X108.15Y-154.0
X108.84Y-128.995
X110.37Y-153.487
X110.37Y-155.037
X110.62Y-149.692
X110.62Y-151.593
X110.625Y-136.8
X110.662Y-132.8
X111.8Y-127.395
X113.8Y-150.025
X114.625Y-136.8
X114.8Y-128.995
X116.662Y-154.8
X116.8Y-140.502
X119.8Y-127.44
X119.8Y-129.34
X119.8Y-140.625
X121.05Y-107.54
X121.05Y-108.81
X121.8Y-154.025
X123.2Y-127.395
X123.2Y-128.945
X123.4Y-149.85
X124.2Y-140.425
X125.8Y-150.405
X126.012Y-131.8
X127.925Y-154.45
X128.5Y-115.46
X129.0Y-136.74
X129.637Y-146.95
X129.737Y-147.65
X130.0Y-136.74
X130.1Y-135.237
X130.15Y-146.438
X130.412Y-131.8
X130.6Y-135.737
X133.8Y-150.405
X134.012Y-131.8
X135.35Y-140.025
X137.25Y-140.025
X137.975Y-131.8
X138.325Y-136.2
X138.55Y-107.54
X138.612Y-129.0
X139.68Y-138.35
X139.8Y-139.85
X143.075Y-128.475
X143.075Y-133.725
X143.075Y-135.525
X147.375Y-139.625
X148.3Y-108.7
X148.3Y-112.4
X149.0Y-109.8
X149.0Y-111.55
X149.8Y-143.625
X149.8Y-147.065
X149.92Y-148.91
X149.92Y-150.81
X150.55Y-107.4
X150.55Y-112.9
X150.55Y-114.0
X150.55Y-115.1
X152.7Y-143.625
X152.7Y-147.125
X153.575Y-139.625
X154.8Y-143.625
X154.95Y-148.675
X155.8Y-119.325
X155.8Y-122.275
X156.8Y-104.125
X157.3Y-143.625
X157.925Y-139.825
X158.175Y-126.125
X159.775Y-118.29
X159.775Y-120.19
X159.8Y-122.085
X159.8Y-123.635
X160.05Y-114.0
X160.05Y-116.2
T2
X127.1Y-114.76
X127.1Y-116.16
X127.8Y-114.06
X127.8Y-115.46
X127.8Y-116.86
X128.5Y-114.76
X128.5Y-116.16
X129.2Y-114.06
X129.2Y-115.46
X129.2Y-116.86
X129.9Y-114.76
X129.9Y-116.16
T3
X108.906Y-132.075
X109.028Y-130.117
X115.0Y-126.66
X118.734Y-112.503
X119.305Y-121.71
X122.455Y-114.09
X122.455Y-135.2
X123.011Y-115.36
X123.113Y-143.907
X126.115Y-156.988
X126.129Y-128.072
X126.19Y-123.79
X127.266Y-111.55
X127.402Y-141.078
X127.786Y-122.98
X128.154Y-141.224
X128.923Y-147.61
X129.15Y-150.391
X129.15Y-152.908
X129.294Y-132.351
X129.296Y-133.805
X129.846Y-126.704
X129.895Y-140.926
X130.151Y-140.054
X130.811Y-147.622
X131.376Y-146.977
X131.41Y-149.25
X131.888Y-147.551
X132.13Y-137.401
X132.591Y-139.509
X132.66Y-140.261
X132.907Y-131.243
X133.06Y-151.38
X133.489Y-120.44
X133.489Y-129.716
X133.492Y-136.372
X134.293Y-135.596
X134.747Y-121.721
X135.252Y-136.364
X136.328Y-121.4
X136.918Y-109.933
X137.752Y-134.678
X139.958Y-115.36
X139.963Y-109.01
X140.231Y-118.444
X140.638Y-116.63
X141.323Y-119.267
X144.337Y-137.925
X144.345Y-133.518
X146.05Y-132.865
X146.28Y-141.012
X146.855Y-136.825
X146.855Y-141.583
X148.517Y-142.254
X152.2Y-152.625
T5
X105.2Y-127.11
X105.2Y-132.89
T6
X114.75Y-114.75
X114.75Y-145.25
X145.25Y-114.75
X145.25Y-145.25
T4
X101.85Y-125.68G85X101.25Y-125.68
G05
X101.85Y-134.32G85X101.25Y-134.32
G05
X106.28Y-125.68G85X105.18Y-125.68
G05
X106.28Y-134.32G85X105.18Y-134.32
G05
M30
