%TF.GenerationSoftware,KiCad,Pcbnew,10.0.3*%
%TF.CreationDate,2026-09-13T08:29:48+03:00*%
%TF.ProjectId,dronemagnav,64726f6e-656d-4616-976e-61762e6b6963,rev?*%
%TF.SameCoordinates,Original*%
%TF.FileFunction,Other,User*%
%FSLAX46Y46*%
G04 Gerber Fmt 4.6, Leading zero omitted, Abs format (unit mm)*
G04 Created by KiCad (PCBNEW 10.0.3) date 2026-09-13 08:29:48*
%MOMM*%
%LPD*%
G01*
G04 APERTURE LIST*
%ADD10C,0.050000*%
G04 APERTURE END LIST*
%TO.C,D5*%
D10*
X129520000Y-131270000D02*
X132480000Y-131270000D01*
X132480000Y-132730000D01*
X129520000Y-132730000D01*
X129520000Y-131270000D01*
%TO.C,R14*%
X151770000Y-145020000D02*
X153230000Y-145020000D01*
X153230000Y-147980000D01*
X151770000Y-147980000D01*
X151770000Y-145020000D01*
%TO.C,SW2*%
X98800000Y-122550000D02*
X98800000Y-112450000D01*
X98800000Y-122550000D02*
X105600000Y-122550000D01*
X105600000Y-112450000D02*
X98800000Y-112450000D01*
X105600000Y-122550000D02*
X105600000Y-112450000D01*
%TO.C,J1*%
X98450000Y-124680000D02*
X98450000Y-135320000D01*
X107870000Y-124680000D02*
X98450000Y-124680000D01*
X107870000Y-124680000D02*
X107870000Y-135320000D01*
X107870000Y-135320000D02*
X98450000Y-135320000D01*
%TO.C,D6*%
X133520000Y-131270000D02*
X136480000Y-131270000D01*
X136480000Y-132730000D01*
X133520000Y-132730000D01*
X133520000Y-131270000D01*
%TO.C,D3*%
X137520000Y-128270000D02*
X140480000Y-128270000D01*
X140480000Y-129730000D01*
X137520000Y-129730000D01*
X137520000Y-128270000D01*
%TO.C,U7*%
X115950000Y-153500000D02*
X116950000Y-153500000D01*
X115950000Y-156500000D02*
X115950000Y-153500000D01*
X116950000Y-153300000D02*
X119050000Y-153300000D01*
X116950000Y-153500000D02*
X116950000Y-153300000D01*
X116950000Y-156500000D02*
X115950000Y-156500000D01*
X116950000Y-156700000D02*
X116950000Y-156500000D01*
X119050000Y-153300000D02*
X119050000Y-153500000D01*
X119050000Y-153500000D02*
X120050000Y-153500000D01*
X119050000Y-154610000D02*
X119050000Y-155390000D01*
X119050000Y-155390000D02*
X120050000Y-155390000D01*
X119050000Y-156500000D02*
X119050000Y-156700000D01*
X119050000Y-156700000D02*
X116950000Y-156700000D01*
X120050000Y-153500000D02*
X120050000Y-154610000D01*
X120050000Y-154610000D02*
X119050000Y-154610000D01*
X120050000Y-155390000D02*
X120050000Y-156500000D01*
X120050000Y-156500000D02*
X119050000Y-156500000D01*
%TO.C,R15*%
X156270000Y-102020000D02*
X157730000Y-102020000D01*
X157730000Y-104980000D01*
X156270000Y-104980000D01*
X156270000Y-102020000D01*
%TO.C,R8*%
X119270000Y-138520000D02*
X120730000Y-138520000D01*
X120730000Y-141480000D01*
X119270000Y-141480000D01*
X119270000Y-138520000D01*
%TO.C,C14*%
X136720000Y-139520000D02*
X138180000Y-139520000D01*
X138180000Y-142480000D01*
X136720000Y-142480000D01*
X136720000Y-139520000D01*
%TO.C,H3*%
X118200000Y-145250000D02*
G75*
G02*
X111300000Y-145250000I-3450000J0D01*
G01*
X111300000Y-145250000D02*
G75*
G02*
X118200000Y-145250000I3450000J0D01*
G01*
%TO.C,J4*%
X157600000Y-119200000D02*
X157800000Y-119200000D01*
X157800000Y-122800000D01*
X157600000Y-122800000D01*
X157600000Y-123500000D01*
X154400000Y-123500000D01*
X154400000Y-122800000D01*
X154200000Y-122800000D01*
X154200000Y-122000000D01*
X153450000Y-122000000D01*
X153450000Y-120000000D01*
X154200000Y-120000000D01*
X154200000Y-119200000D01*
X154400000Y-119200000D01*
X154400000Y-118500000D01*
X157600000Y-118500000D01*
X157600000Y-119200000D01*
%TO.C,C11*%
X134820000Y-139520000D02*
X136280000Y-139520000D01*
X136280000Y-142480000D01*
X134820000Y-142480000D01*
X134820000Y-139520000D01*
%TO.C,D1*%
X100030000Y-138500000D02*
X103530000Y-138500000D01*
X100030000Y-145500000D02*
X100030000Y-138500000D01*
X103530000Y-138500000D02*
X103530000Y-145500000D01*
X103530000Y-145500000D02*
X100030000Y-145500000D01*
%TO.C,U5*%
X149600000Y-106700000D02*
X149600000Y-117300000D01*
X149600000Y-106700000D02*
X161400000Y-106700000D01*
X149600000Y-117300000D02*
X161400000Y-117300000D01*
X161400000Y-106700000D02*
X161400000Y-117300000D01*
%TO.C,R9*%
X149270000Y-141520000D02*
X150730000Y-141520000D01*
X150730000Y-144480000D01*
X149270000Y-144480000D01*
X149270000Y-141520000D01*
%TO.C,R1*%
X137520000Y-131270000D02*
X140480000Y-131270000D01*
X140480000Y-132730000D01*
X137520000Y-132730000D01*
X137520000Y-131270000D01*
%TO.C,R4*%
X125520000Y-128270000D02*
X128480000Y-128270000D01*
X128480000Y-129730000D01*
X125520000Y-129730000D01*
X125520000Y-128270000D01*
%TO.C,SW1*%
X98800000Y-111550000D02*
X98800000Y-101450000D01*
X98800000Y-111550000D02*
X105600000Y-111550000D01*
X105600000Y-101450000D02*
X98800000Y-101450000D01*
X105600000Y-111550000D02*
X105600000Y-101450000D01*
%TO.C,C7*%
X111270000Y-126890000D02*
X112730000Y-126890000D01*
X112730000Y-129850000D01*
X111270000Y-129850000D01*
X111270000Y-126890000D01*
%TO.C,R12*%
X156770000Y-141520000D02*
X158230000Y-141520000D01*
X158230000Y-144480000D01*
X156770000Y-144480000D01*
X156770000Y-141520000D01*
%TO.C,D2*%
X103970000Y-138500000D02*
X107470000Y-138500000D01*
X103970000Y-145500000D02*
X103970000Y-138500000D01*
X107470000Y-138500000D02*
X107470000Y-145500000D01*
X107470000Y-145500000D02*
X103970000Y-145500000D01*
%TO.C,R6*%
X133520000Y-128270000D02*
X136480000Y-128270000D01*
X136480000Y-129730000D01*
X133520000Y-129730000D01*
X133520000Y-128270000D01*
%TO.C,U3*%
X128750000Y-147750000D02*
X131250000Y-147750000D01*
X128750000Y-150250000D02*
X128750000Y-147750000D01*
X131250000Y-147750000D02*
X131250000Y-150250000D01*
X131250000Y-150250000D02*
X128750000Y-150250000D01*
%TO.C,R13*%
X149270000Y-144960000D02*
X150730000Y-144960000D01*
X150730000Y-147920000D01*
X149270000Y-147920000D01*
X149270000Y-144960000D01*
%TO.C,R5*%
X129520000Y-128270000D02*
X132480000Y-128270000D01*
X132480000Y-129730000D01*
X129520000Y-129730000D01*
X129520000Y-128270000D01*
%TO.C,J3*%
X142180000Y-125120000D02*
X159880000Y-125120000D01*
X142180000Y-140820000D02*
X142180000Y-125120000D01*
X159880000Y-125120000D02*
X159880000Y-140820000D01*
X159880000Y-140820000D02*
X142180000Y-140820000D01*
%TO.C,U1*%
X106000000Y-85250000D02*
X106000000Y-106250000D01*
X106000000Y-106250000D02*
X120250000Y-106250000D01*
X120250000Y-126450000D02*
X120250000Y-106250000D01*
X120250000Y-126450000D02*
X139750000Y-126450000D01*
X139750000Y-106250000D02*
X139750000Y-126450000D01*
X139750000Y-106250000D02*
X154000000Y-106250000D01*
X154000000Y-85250000D02*
X106000000Y-85250000D01*
X154000000Y-106250000D02*
X154000000Y-85250000D01*
%TO.C,C13*%
X133270000Y-149900000D02*
X134730000Y-149900000D01*
X134730000Y-152860000D01*
X133270000Y-152860000D01*
X133270000Y-149900000D01*
%TO.C,R3*%
X114270000Y-126890000D02*
X115730000Y-126890000D01*
X115730000Y-129850000D01*
X114270000Y-129850000D01*
X114270000Y-126890000D01*
%TO.C,J2*%
X153800000Y-148070000D02*
X154900000Y-148070000D01*
X153800000Y-155930000D02*
X153800000Y-148070000D01*
X154900000Y-146120000D02*
X156500000Y-146120000D01*
X154900000Y-148070000D02*
X154900000Y-146120000D01*
X154900000Y-155930000D02*
X153800000Y-155930000D01*
X154900000Y-157880000D02*
X154900000Y-155930000D01*
X156500000Y-146020000D02*
X160200000Y-146020000D01*
X156500000Y-146120000D02*
X156500000Y-146020000D01*
X156500000Y-157880000D02*
X154900000Y-157880000D01*
X156500000Y-157980000D02*
X156500000Y-157880000D01*
X159950000Y-148030000D02*
X159950000Y-155970000D01*
X159950000Y-155970000D02*
X160200000Y-155970000D01*
X160200000Y-146020000D02*
X160200000Y-148030000D01*
X160200000Y-148030000D02*
X159950000Y-148030000D01*
X160200000Y-155970000D02*
X160200000Y-157980000D01*
X160200000Y-157980000D02*
X156500000Y-157980000D01*
%TO.C,H2*%
X148700000Y-114750000D02*
G75*
G02*
X141800000Y-114750000I-3450000J0D01*
G01*
X141800000Y-114750000D02*
G75*
G02*
X148700000Y-114750000I3450000J0D01*
G01*
%TO.C,R11*%
X154270000Y-141520000D02*
X155730000Y-141520000D01*
X155730000Y-144480000D01*
X154270000Y-144480000D01*
X154270000Y-141520000D01*
%TO.C,C9*%
X122270000Y-126890000D02*
X123730000Y-126890000D01*
X123730000Y-129850000D01*
X122270000Y-129850000D01*
X122270000Y-126890000D01*
%TO.C,D4*%
X125520000Y-131270000D02*
X128480000Y-131270000D01*
X128480000Y-132730000D01*
X125520000Y-132730000D01*
X125520000Y-131270000D01*
%TO.C,C2*%
X109840000Y-149142500D02*
X111800000Y-149142500D01*
X111800000Y-152542500D01*
X109840000Y-152542500D01*
X109840000Y-149142500D01*
%TO.C,C4*%
X113270000Y-149520000D02*
X114730000Y-149520000D01*
X114730000Y-152480000D01*
X113270000Y-152480000D01*
X113270000Y-149520000D01*
%TO.C,C12*%
X125270000Y-149900000D02*
X126730000Y-149900000D01*
X126730000Y-152860000D01*
X125270000Y-152860000D01*
X125270000Y-149900000D01*
%TO.C,C8*%
X119020000Y-126890000D02*
X120980000Y-126890000D01*
X120980000Y-130290000D01*
X119020000Y-130290000D01*
X119020000Y-126890000D01*
%TO.C,U6*%
X100600000Y-150400000D02*
X100600000Y-157600000D01*
X100600000Y-157600000D02*
X109400000Y-157600000D01*
X109400000Y-150400000D02*
X100600000Y-150400000D01*
X109400000Y-157600000D02*
X109400000Y-150400000D01*
%TO.C,U4*%
X138450000Y-135700000D02*
X141550000Y-135700000D01*
X138450000Y-138300000D02*
X138450000Y-135700000D01*
X141550000Y-135700000D02*
X141550000Y-138300000D01*
X141550000Y-138300000D02*
X138450000Y-138300000D01*
%TO.C,R7*%
X116270000Y-138397500D02*
X117730000Y-138397500D01*
X117730000Y-141357500D01*
X116270000Y-141357500D01*
X116270000Y-138397500D01*
%TO.C,H4*%
X148700000Y-145250000D02*
G75*
G02*
X141800000Y-145250000I-3450000J0D01*
G01*
X141800000Y-145250000D02*
G75*
G02*
X148700000Y-145250000I3450000J0D01*
G01*
%TO.C,H1*%
X118200000Y-114750000D02*
G75*
G02*
X111300000Y-114750000I-3450000J0D01*
G01*
X111300000Y-114750000D02*
G75*
G02*
X118200000Y-114750000I3450000J0D01*
G01*
%TO.C,C10*%
X123270000Y-139520000D02*
X124730000Y-139520000D01*
X124730000Y-142480000D01*
X123270000Y-142480000D01*
X123270000Y-139520000D01*
%TO.C,R17*%
X112520000Y-136270000D02*
X115480000Y-136270000D01*
X115480000Y-137730000D01*
X112520000Y-137730000D01*
X112520000Y-136270000D01*
%TO.C,C3*%
X109840000Y-152982500D02*
X111300000Y-152982500D01*
X111300000Y-155942500D01*
X109840000Y-155942500D01*
X109840000Y-152982500D01*
%TO.C,R10*%
X151770000Y-141520000D02*
X153230000Y-141520000D01*
X153230000Y-144480000D01*
X151770000Y-144480000D01*
X151770000Y-141520000D01*
%TO.C,C5*%
X122620000Y-149300000D02*
X124580000Y-149300000D01*
X124580000Y-152700000D01*
X122620000Y-152700000D01*
X122620000Y-149300000D01*
%TO.C,C18*%
X149140000Y-148360000D02*
X151100000Y-148360000D01*
X151100000Y-151760000D01*
X149140000Y-151760000D01*
X149140000Y-148360000D01*
%TO.C,C17*%
X159270000Y-121580000D02*
X160730000Y-121580000D01*
X160730000Y-124540000D01*
X159270000Y-124540000D01*
X159270000Y-121580000D01*
%TO.C,R16*%
X108520000Y-136270000D02*
X111480000Y-136270000D01*
X111480000Y-137730000D01*
X108520000Y-137730000D01*
X108520000Y-136270000D01*
%TO.C,R2*%
X108310000Y-126890000D02*
X109770000Y-126890000D01*
X109770000Y-129850000D01*
X108310000Y-129850000D01*
X108310000Y-126890000D01*
%TO.C,C16*%
X158995000Y-117740000D02*
X160955000Y-117740000D01*
X160955000Y-121140000D01*
X158995000Y-121140000D01*
X158995000Y-117740000D01*
%TO.C,C6*%
X121270000Y-153520000D02*
X122730000Y-153520000D01*
X122730000Y-156480000D01*
X121270000Y-156480000D01*
X121270000Y-153520000D01*
%TO.C,U8*%
X109950000Y-131500000D02*
X110950000Y-131500000D01*
X109950000Y-134500000D02*
X109950000Y-131500000D01*
X110950000Y-131300000D02*
X113050000Y-131300000D01*
X110950000Y-131500000D02*
X110950000Y-131300000D01*
X110950000Y-134500000D02*
X109950000Y-134500000D01*
X110950000Y-134700000D02*
X110950000Y-134500000D01*
X113050000Y-131300000D02*
X113050000Y-131500000D01*
X113050000Y-131500000D02*
X114050000Y-131500000D01*
X113050000Y-134500000D02*
X113050000Y-134700000D01*
X113050000Y-134700000D02*
X110950000Y-134700000D01*
X114050000Y-131500000D02*
X114050000Y-134500000D01*
X114050000Y-134500000D02*
X113050000Y-134500000D01*
%TO.C,U2*%
X127400000Y-137620000D02*
X127500000Y-137620000D01*
X127400000Y-138380000D02*
X127400000Y-137620000D01*
X127500000Y-136250000D02*
X128120000Y-136250000D01*
X127500000Y-137620000D02*
X127500000Y-136250000D01*
X127500000Y-138380000D02*
X127400000Y-138380000D01*
X127500000Y-139750000D02*
X127500000Y-138380000D01*
X128120000Y-136150000D02*
X131880000Y-136150000D01*
X128120000Y-136250000D02*
X128120000Y-136150000D01*
X128120000Y-139750000D02*
X127500000Y-139750000D01*
X128120000Y-139850000D02*
X128120000Y-139750000D01*
X131880000Y-136150000D02*
X131880000Y-136250000D01*
X131880000Y-136250000D02*
X132500000Y-136250000D01*
X131880000Y-139750000D02*
X131880000Y-139850000D01*
X131880000Y-139850000D02*
X128120000Y-139850000D01*
X132500000Y-136250000D02*
X132500000Y-137620000D01*
X132500000Y-137620000D02*
X132600000Y-137620000D01*
X132500000Y-138380000D02*
X132500000Y-139750000D01*
X132500000Y-139750000D02*
X131880000Y-139750000D01*
X132600000Y-137620000D02*
X132600000Y-138380000D01*
X132600000Y-138380000D02*
X132500000Y-138380000D01*
%TO.C,C1*%
X100020000Y-146300000D02*
X101980000Y-146300000D01*
X101980000Y-149700000D01*
X100020000Y-149700000D01*
X100020000Y-146300000D01*
%TO.C,J5*%
X124020000Y-156000000D02*
X124120000Y-156000000D01*
X124020000Y-159700000D02*
X124020000Y-156000000D01*
X124120000Y-154400000D02*
X126070000Y-154400000D01*
X124120000Y-156000000D02*
X124120000Y-154400000D01*
X126030000Y-159450000D02*
X126030000Y-159700000D01*
X126030000Y-159700000D02*
X124020000Y-159700000D01*
X126070000Y-153300000D02*
X133930000Y-153300000D01*
X126070000Y-154400000D02*
X126070000Y-153300000D01*
X133930000Y-153300000D02*
X133930000Y-154400000D01*
X133930000Y-154400000D02*
X135880000Y-154400000D01*
X133970000Y-159450000D02*
X126030000Y-159450000D01*
X133970000Y-159700000D02*
X133970000Y-159450000D01*
X135880000Y-154400000D02*
X135880000Y-156000000D01*
X135880000Y-156000000D02*
X135980000Y-156000000D01*
X135980000Y-156000000D02*
X135980000Y-159700000D01*
X135980000Y-159700000D02*
X133970000Y-159700000D01*
%TO.C,C15*%
X139020000Y-139300000D02*
X140980000Y-139300000D01*
X140980000Y-142700000D01*
X139020000Y-142700000D01*
X139020000Y-139300000D01*
%TD*%
M02*
